<svg width="18" height="20" viewBox="0 0 18 20" fill="none" xmlns="http://www.w3.org/2000/svg">
<path d="M17.6737 19.3426L16.1537 4.86709C16.1218 4.56405 15.8663 4.33395 15.5616 4.33395H12.7046V3.68255C12.7046 1.65207 11.0525 0 9.02201 0C6.99138 0 5.33931 1.65207 5.33931 3.68255V4.33395H2.48226C2.17754 4.33395 1.92211 4.56405 1.89022 4.86709L0.370145 19.3426C0.352597 19.5103 0.407071 19.6777 0.519833 19.8031C0.632748 19.9284 0.793575 20 0.962184 20H17.0815C17.2503 20 17.4111 19.9284 17.5239 19.8031C17.637 19.6777 17.6913 19.5103 17.6737 19.3426ZM6.5298 3.68255C6.5298 2.3085 7.64781 1.19049 9.02201 1.19049C10.3961 1.19049 11.5141 2.3085 11.5141 3.68255V4.33395H6.5298V3.68255ZM1.62319 18.8095L3.0183 5.52443H5.33931V6.83623C5.33931 7.1649 5.60588 7.43147 5.93456 7.43147C6.26323 7.43147 6.5298 7.1649 6.5298 6.83623V5.52443H11.5141V6.83623C11.5141 7.1649 11.7806 7.43147 12.1093 7.43147C12.438 7.43147 12.7046 7.1649 12.7046 6.83623V5.52443H15.0256L16.4207 18.8095H1.62319Z" fill="white"/>
</svg>
