<svg width="79" height="78" viewBox="0 0 79 78" fill="none" xmlns="http://www.w3.org/2000/svg">
<g clip-path="url(#clip0_525_2899)">
<path d="M39.4113 0C17.8068 0 0.228516 17.4962 0.228516 39C0.228516 60.5038 17.8068 78 39.4113 78C61.0159 78 78.5941 60.5038 78.5941 39C78.5941 17.4962 61.0159 0 39.4113 0ZM61.3105 28.7368L36.2688 53.4662C34.7958 54.9323 32.4389 55.0301 30.8677 53.5639L17.6104 41.5414C16.0391 40.0752 15.9409 37.6316 17.3158 36.0677C18.7888 34.5038 21.2439 34.406 22.8151 35.8722L33.3228 45.4511L55.7129 23.1654C57.2842 21.6015 59.7393 21.6015 61.3105 23.1654C62.8817 24.7293 62.8817 27.1729 61.3105 28.7368Z" fill="white"/>
</g>
<defs>
<clipPath id="clip0_525_2899">
<rect width="78.3656" height="78" fill="white" transform="translate(0.228516)"/>
</clipPath>
</defs>
</svg>
