<svg width="25" height="25" viewBox="0 0 25 25" fill="none" xmlns="http://www.w3.org/2000/svg">
<g clip-path="url(#clip0_286_1376)">
<path d="M24.0657 21.385C24.0247 21.3358 23.9467 21.2411 23.837 21.1058C23.6537 20.8796 23.4492 20.6229 23.2289 20.3408C22.5996 19.5347 21.9703 18.687 21.3836 17.8386C21.0119 17.3011 20.6692 16.7802 20.3616 16.2815C19.34 14.6258 18.7611 13.3037 18.753 12.5055C18.7658 10.2381 21.1773 4.3447 22.8395 1.93048C22.8933 1.85242 22.9162 1.7629 22.9121 1.67536C22.9178 1.53045 22.8482 1.38624 22.7151 1.30411C19.5016 -0.679409 17.6502 -0.455252 12.5045 2.42277C7.43819 -0.411879 5.563 -0.677573 2.44548 1.20084C2.44409 1.20169 2.44275 1.20248 2.44136 1.20332C2.40156 1.22729 2.36147 1.25186 2.32127 1.27657C2.30891 1.28416 2.29676 1.29141 2.2843 1.2991C2.25894 1.31473 2.23587 1.33265 2.21517 1.3524C2.07037 1.49046 2.04178 1.71809 2.15994 1.88979C3.82651 4.31046 6.24678 10.2292 6.24678 12.4833C6.24678 13.2796 5.66661 14.6089 4.63778 16.2766C4.33015 16.7751 3.98749 17.2962 3.6158 17.8336C3.02908 18.6821 2.39978 19.5297 1.77043 20.3358C1.55014 20.6179 1.34569 20.8746 1.16232 21.1008C1.05265 21.2361 0.974688 21.3308 0.933648 21.38C0.79554 21.5455 0.806508 21.789 0.958907 21.9414C2.2046 23.1871 3.8932 24.0074 5.92789 24.4842C7.81728 24.9269 9.53347 25.0263 11.8768 24.9874C12.2993 24.9804 12.3623 24.9793 12.435 24.9791C12.6285 24.9841 12.5909 24.9836 13.1225 24.9924C14.0764 25.0082 14.9264 25.0011 15.7264 24.9573C15.7763 24.9741 15.8301 24.9817 15.8857 24.9781C16.7836 24.9196 17.6517 24.8131 18.4879 24.6492C18.5455 24.638 18.5974 24.6151 18.6426 24.5842C18.7848 24.5543 18.9276 24.5229 19.0715 24.4891C21.1061 24.0124 22.7947 23.1921 24.0404 21.9464C24.1929 21.794 24.2038 21.5505 24.0657 21.385ZM16.2078 24.0898C14.9758 15.8389 15.9578 10.1842 18.6061 4.80845C18.9664 4.07707 20.0675 2.04105 20.523 1.17032C20.9477 1.32079 21.3959 1.53368 21.8924 1.81893C20.1806 4.52658 17.9629 10.047 17.9205 12.4196C16.7579 14.7159 16.8674 20.3986 17.8631 23.885C17.3186 23.9786 16.7742 24.045 16.2078 24.0898ZM8.78745 24.078C8.22018 24.0316 7.66676 23.9644 7.12813 23.8739C8.1317 20.3897 8.24495 14.6799 7.07845 12.3778C7.07736 12.3376 7.07558 12.2965 7.07329 12.2546C7.07324 12.2534 7.07314 12.2523 7.07309 12.2512C7.07096 12.2127 7.06838 12.1736 7.0653 12.1337C7.06511 12.1309 7.06476 12.1279 7.06456 12.1251C7.06153 12.0868 7.05811 12.048 7.05419 12.0084C7.05379 12.0045 7.05329 12.0004 7.0529 11.9965C7.04898 11.9578 7.04476 11.9188 7.04004 11.879C7.03945 11.8739 7.03875 11.8688 7.03811 11.8637C7.03339 11.8247 7.02838 11.7854 7.02287 11.7453C7.02208 11.7397 7.02119 11.7338 7.02039 11.7281C7.01488 11.6885 7.00908 11.6485 7.00283 11.6079C7.00183 11.6014 7.00069 11.5948 6.9997 11.5883C6.99345 11.5482 6.98695 11.5077 6.97995 11.4667C6.97871 11.4594 6.97737 11.4519 6.97608 11.4446C6.96908 11.404 6.96188 11.3631 6.95424 11.3216C6.95285 11.314 6.95131 11.3062 6.94987 11.2986C6.94213 11.2571 6.93419 11.2153 6.92581 11.173C6.92427 11.1651 6.92258 11.1571 6.92099 11.1491C6.91251 11.1068 6.90387 11.0642 6.89479 11.021C6.89305 11.0128 6.89122 11.0044 6.88943 10.9961C6.88025 10.953 6.87087 10.9096 6.8611 10.8657C6.85921 10.8573 6.85727 10.8488 6.85539 10.8404C6.84551 10.7964 6.83539 10.7521 6.82492 10.7074C6.82288 10.6987 6.82075 10.6899 6.81872 10.6813C6.80815 10.6364 6.79738 10.5913 6.78621 10.5458C6.78408 10.5371 6.78184 10.5284 6.77971 10.5196C6.76844 10.4739 6.75693 10.4279 6.74512 10.3815C6.74289 10.3728 6.7406 10.3639 6.73832 10.3552C6.72636 10.3086 6.7142 10.2618 6.7017 10.2146C6.69937 10.2057 6.69694 10.1968 6.69455 10.1879C6.68195 10.1405 6.6691 10.0929 6.65594 10.0449C6.65356 10.0362 6.65108 10.0273 6.64865 10.0186C6.63535 9.97027 6.6218 9.92184 6.60801 9.87301C6.60553 9.86417 6.60294 9.85529 6.60041 9.84641C6.58647 9.79738 6.57228 9.7481 6.55784 9.69852C6.5553 9.68989 6.55272 9.68121 6.55019 9.67252C6.53555 9.62265 6.52076 9.57258 6.50563 9.52221C6.503 9.51347 6.50037 9.50474 6.49774 9.496C6.4825 9.44544 6.46707 9.39467 6.45134 9.34365C6.44871 9.33512 6.44603 9.32658 6.4434 9.31805C6.42752 9.26669 6.41144 9.21517 6.39511 9.16337C6.39243 9.15488 6.3897 9.14635 6.38702 9.13781C6.3706 9.0859 6.35392 9.03384 6.33705 8.98154C6.33432 8.97305 6.33154 8.96452 6.32876 8.95603C6.31169 8.90328 6.29437 8.85043 6.27686 8.79733C6.27423 8.78944 6.2716 8.7815 6.26902 8.77361C6.2513 8.72006 6.23334 8.66637 6.21517 8.61248C6.21249 8.60454 6.20981 8.5966 6.20713 8.58866C6.18887 8.53461 6.17036 8.48047 6.1517 8.42613C6.14902 8.41834 6.14634 8.41055 6.14366 8.40276C6.1248 8.34807 6.10575 8.29329 6.08644 8.2383C6.08386 8.23091 6.08123 8.22351 6.07865 8.21607C6.05915 8.16054 6.0394 8.10491 6.0195 8.04918C6.01707 8.04233 6.01459 8.03553 6.01216 8.02868C5.99196 7.97226 5.97156 7.91579 5.95097 7.85916C5.94868 7.85291 5.9464 7.84661 5.94412 7.84036C5.92333 7.78334 5.90238 7.72627 5.88119 7.66905C5.87891 7.6629 5.87663 7.65674 5.87435 7.65059C5.85306 7.59312 5.83157 7.53561 5.80988 7.47799C5.8077 7.47224 5.80556 7.46648 5.80338 7.46072C5.7815 7.40271 5.75946 7.34465 5.73723 7.28654C5.73515 7.28113 5.73311 7.27577 5.73103 7.27036C5.7086 7.2118 5.68602 7.15324 5.66324 7.09469C5.6613 7.08967 5.65932 7.08466 5.65738 7.07965C5.63446 7.0207 5.61133 6.96174 5.58811 6.90274C5.58627 6.89812 5.58443 6.89346 5.58265 6.88884C5.55918 6.82944 5.53555 6.76999 5.51178 6.71059C5.5101 6.70637 5.50841 6.70215 5.50672 6.69798C5.4827 6.63804 5.45854 6.57814 5.43417 6.51829C5.43273 6.51472 5.43124 6.51114 5.4298 6.50752C5.40519 6.44693 5.38038 6.38644 5.35546 6.32599C5.35427 6.32311 5.35313 6.32028 5.35194 6.31741C5.32668 6.25617 5.30127 6.19503 5.27576 6.13399C5.27487 6.13191 5.27403 6.12982 5.27313 6.12769C5.24738 6.0661 5.22147 6.00462 5.19542 5.94323C5.19468 5.94149 5.19393 5.93976 5.19324 5.93802C5.16699 5.87619 5.14064 5.81445 5.11413 5.75287C5.11359 5.75163 5.11309 5.75044 5.11255 5.7492C5.0859 5.68722 5.0591 5.62538 5.0322 5.56365C5.03181 5.56276 5.03146 5.56186 5.03106 5.56102C4.40221 4.1194 3.71242 2.76568 3.09076 1.78736C3.59386 1.49725 4.04709 1.28158 4.4766 1.12943C4.93211 2.00016 6.03325 4.03618 6.39358 4.76756C9.04486 10.1497 10.0261 15.8113 8.78745 24.078ZM1.82125 21.6108C2.00466 21.3844 2.20822 21.1287 2.42702 20.8484C3.0656 20.0305 3.70423 19.1703 4.30093 18.3074C4.68046 17.7586 5.03101 17.2256 5.34673 16.7139C5.98456 15.6801 6.46186 14.7673 6.75252 13.9872C7.33715 16.5521 7.12208 20.9457 6.30619 23.716C6.24361 23.7021 6.18088 23.6878 6.11796 23.6731C4.37184 23.2639 2.91737 22.592 1.82125 21.6108ZM11.863 24.1544C11.0481 24.168 10.3126 24.1642 9.62116 24.1347C10.8702 15.7311 9.85797 9.91519 7.14073 4.39959C6.79177 3.69124 5.78681 1.82945 5.29914 0.904381C6.99905 0.608119 8.78269 1.29483 12.0833 3.14169V24.1507C12.0229 24.1517 11.9507 24.1529 11.863 24.1544ZM13.1364 24.1594C13.0486 24.1579 12.9767 24.1567 12.9163 24.1557V3.14695C16.2281 1.29379 18.0124 0.608962 19.7175 0.912768C19.2366 1.82602 18.2119 3.72359 17.8589 4.44033C15.1455 9.94814 14.1323 15.7555 15.3733 24.1399C14.6832 24.1692 13.9493 24.1729 13.1364 24.1594ZM18.8814 23.6781C18.8152 23.6935 18.7493 23.7085 18.6835 23.7231C17.8735 20.9431 17.6635 16.5575 18.2519 14.0061C18.543 14.7831 19.0186 15.6913 19.6526 16.719C19.9683 17.2306 20.3188 17.7636 20.6984 18.3125C21.2951 19.1753 21.9337 20.0355 22.5723 20.8535C22.7911 21.1338 22.9946 21.3894 23.1781 21.6159C22.082 22.5969 20.6275 23.2689 18.8814 23.6781Z" fill="#828181"/>
</g>
<defs>
<clipPath id="clip0_286_1376">
<rect width="25" height="25" fill="white"/>
</clipPath>
</defs>
</svg>
