<svg width="100" height="100" viewBox="0 0 100 100" fill="none" xmlns="http://www.w3.org/2000/svg">
<path d="M78.8625 1.74687C78.3563 1.475 77.7359 1.50469 77.2594 1.825C74.4484 3.69687 71.1797 4.6875 67.8047 4.6875H63.7688C61.1359 4.6875 58.5 4.06562 56.1453 2.88906L53.825 1.72812C53.3422 1.4875 52.7656 1.50937 52.3047 1.79687C51.8437 2.07969 51.5625 2.58281 51.5625 3.125V12.5V56.25C51.5625 56.6656 51.7266 57.0625 52.0203 57.3547L60.9375 66.2719V89.0625H59.375C58.5109 89.0625 57.8125 89.7609 57.8125 90.625V96.875C57.8125 97.7391 58.5109 98.4375 59.375 98.4375H71.875C72.7391 98.4375 73.4375 97.7391 73.4375 96.875V90.625C73.4375 89.7609 72.7391 89.0625 71.875 89.0625H70.3125V66.2719L79.2297 57.3547C79.5234 57.0625 79.6875 56.6656 79.6875 56.25V12.5V3.125C79.6875 2.54844 79.3703 2.01875 78.8625 1.74687ZM54.6875 5.65312L54.7469 5.68437C57.5344 7.07656 60.6531 7.8125 63.7688 7.8125H67.8047C70.8594 7.8125 73.8422 7.12812 76.5625 5.81406V10.9375H54.6875V5.65312ZM60.9375 42.1875H70.3125V52.4781L65.625 57.1656L60.9375 52.4781V42.1875ZM70.3125 39.0625H60.9375V14.0625H70.3125V39.0625ZM70.3125 95.3125H60.9375V92.1875H70.3125V95.3125ZM67.6453 64.5203C67.3516 64.8125 67.1875 65.2094 67.1875 65.625V89.0625H64.0625V65.625C64.0625 65.2094 63.8984 64.8125 63.6047 64.5203L54.6875 55.6031V14.0625H57.8125V53.125C57.8125 53.5406 57.9766 53.9375 58.2703 54.2297L64.5203 60.4797C64.825 60.7844 65.225 60.9375 65.625 60.9375C66.025 60.9375 66.425 60.7844 66.7297 60.4797L72.9797 54.2297C73.2734 53.9375 73.4375 53.5406 73.4375 53.125V14.0625H76.5625V55.6031L67.6453 64.5203Z" fill="#89AFCE"/>
<path d="M47.6125 1.74687C47.1063 1.475 46.4859 1.50469 46.0094 1.825C43.1984 3.69687 39.9297 4.6875 36.5547 4.6875H32.5188C29.8859 4.6875 27.25 4.06562 24.8953 2.88906L22.575 1.72812C22.0922 1.4875 21.5156 1.50937 21.0547 1.79687C20.5938 2.07969 20.3125 2.58281 20.3125 3.125V12.5V56.25C20.3125 56.6656 20.4766 57.0625 20.7703 57.3547L29.6875 66.2719V89.0625H28.125C27.2609 89.0625 26.5625 89.7609 26.5625 90.625V96.875C26.5625 97.7391 27.2609 98.4375 28.125 98.4375H40.625C41.4891 98.4375 42.1875 97.7391 42.1875 96.875V90.625C42.1875 89.7609 41.4891 89.0625 40.625 89.0625H39.0625V66.2719L47.9797 57.3547C48.2734 57.0625 48.4375 56.6656 48.4375 56.25V12.5V3.125C48.4375 2.54844 48.1203 2.01875 47.6125 1.74687ZM23.4375 5.65312L23.4969 5.68437C26.2844 7.07656 29.4031 7.8125 32.5188 7.8125H36.5547C39.6094 7.8125 42.5922 7.12812 45.3125 5.81406V10.9375H23.4375V5.65312ZM29.6875 42.1875H39.0625V52.4781L34.375 57.1656L29.6875 52.4781V42.1875ZM39.0625 39.0625H29.6875V14.0625H39.0625V39.0625ZM39.0625 95.3125H29.6875V92.1875H39.0625V95.3125ZM36.3953 64.5203C36.1016 64.8125 35.9375 65.2094 35.9375 65.625V89.0625H32.8125V65.625C32.8125 65.2094 32.6484 64.8125 32.3547 64.5203L23.4375 55.6031V14.0625H26.5625V53.125C26.5625 53.5406 26.7266 53.9375 27.0203 54.2297L33.2703 60.4797C33.575 60.7844 33.975 60.9375 34.375 60.9375C34.775 60.9375 35.175 60.7844 35.4797 60.4797L41.7297 54.2297C42.0234 53.9375 42.1875 53.5406 42.1875 53.125V14.0625H45.3125V55.6031L36.3953 64.5203Z" fill="#89AFCE"/>
</svg>
