<svg width="65" height="65" viewBox="0 0 65 65" fill="none" xmlns="http://www.w3.org/2000/svg">
<path d="M32.5 65C50.4206 65 65 50.4206 65 32.5C65 14.5794 50.4206 0 32.5 0C14.5794 0 0 14.5794 0 32.5C0 50.4206 14.5794 65 32.5 65ZM32.5 2.89809C48.8228 2.89809 62.1019 16.1772 62.1019 32.5C62.1019 48.8228 48.8228 62.1019 32.5 62.1019C16.1772 62.1019 2.89809 48.8228 2.89809 32.5C2.89809 16.1772 16.1772 2.89809 32.5 2.89809Z" fill="#89AFCE"/>
<path d="M24.489 29.5793C27.8036 29.5793 30.4898 26.8923 30.4898 23.5785C30.4906 20.264 27.8036 17.577 24.489 17.577C21.1745 17.577 18.4883 20.264 18.4883 23.5777C18.4915 26.8906 21.1761 29.5753 24.489 29.5793ZM24.489 20.4751C26.2025 20.4751 27.5917 21.8643 27.5917 23.5777C27.5925 25.292 26.2033 26.6812 24.489 26.6812C22.7756 26.6812 21.3864 25.292 21.3864 23.5777C21.388 21.8651 22.7764 20.4775 24.489 20.4751Z" fill="#89AFCE"/>
<path d="M34.1465 41.7862C34.1465 45.1007 36.8335 47.7869 40.1472 47.7869C43.4618 47.7869 46.1488 45.1007 46.1488 41.7862C46.1488 38.4716 43.4618 35.7846 40.1472 35.7846C36.8343 35.7886 34.1505 38.4733 34.1465 41.7862ZM43.2507 41.7862C43.2507 43.4996 41.8615 44.8888 40.1472 44.8888C38.4338 44.8888 37.0446 43.4996 37.0446 41.7862C37.0446 40.0727 38.4338 38.6835 40.1472 38.6827C41.8607 38.6851 43.2483 40.0727 43.2507 41.7862Z" fill="#89AFCE"/>
<path d="M21.4663 49.418C22.1367 49.8555 23.035 49.6662 23.4717 48.9959L43.9556 17.5875C44.2394 17.1533 44.2702 16.601 44.0365 16.1385C43.802 15.676 43.3386 15.3735 42.8211 15.346C42.3036 15.3186 41.8104 15.5692 41.5281 16.0043L21.0442 47.4126C20.6068 48.0838 20.796 48.9813 21.4663 49.418Z" fill="#89AFCE"/>
</svg>
