<svg width="68" height="68" viewBox="0 0 68 68" fill="none" xmlns="http://www.w3.org/2000/svg">
<g filter="url(#filter0_d_894_5416)">
<rect x="4" width="60" height="60" rx="30" fill="#C4C4C4"/>
</g>
<path d="M34 38.8873C33.7153 38.8873 33.4407 38.7841 33.2268 38.5968C32.4189 37.8903 31.6399 37.2264 30.9527 36.6407L30.9491 36.6377C28.9342 34.9206 27.1943 33.4378 25.9836 31.9771C24.6303 30.3441 24 28.7958 24 27.1043C24 25.461 24.5635 23.9448 25.5866 22.8351C26.6219 21.7122 28.0425 21.0938 29.5871 21.0938C30.7416 21.0938 31.7989 21.4587 32.7295 22.1785C33.1992 22.5418 33.6249 22.9864 34 23.5051C34.3752 22.9864 34.8008 22.5418 35.2706 22.1785C36.2012 21.4587 37.2585 21.0938 38.413 21.0938C39.9575 21.0938 41.3782 21.7122 42.4135 22.8351C43.4366 23.9448 44 25.461 44 27.1043C44 28.7958 43.3698 30.3441 42.0165 31.9769C40.8058 33.4378 39.066 34.9205 37.0514 36.6374C36.363 37.2239 35.5828 37.8889 34.773 38.5971C34.5592 38.7841 34.2846 38.8873 34 38.8873ZM29.5871 22.2653C28.3736 22.2653 27.2588 22.7496 26.4478 23.6291C25.6248 24.5219 25.1714 25.7561 25.1714 27.1043C25.1714 28.5269 25.7001 29.7992 26.8856 31.2295C28.0314 32.6121 29.7356 34.0645 31.7089 35.7461L31.7125 35.7492C32.4024 36.3371 33.1844 37.0036 33.9983 37.7153C34.8171 37.0022 35.6003 36.3347 36.2915 35.7458C38.2647 34.0642 39.9688 32.6121 41.1145 31.2295C42.2998 29.7992 42.8285 28.5269 42.8285 27.1043C42.8285 25.7561 42.3752 24.5219 41.5522 23.6291C40.7413 22.7496 39.6263 22.2653 38.413 22.2653C37.524 22.2653 36.7078 22.5479 35.9871 23.1052C35.3449 23.602 34.8975 24.23 34.6352 24.6695C34.5003 24.8955 34.2629 25.0304 34 25.0304C33.7371 25.0304 33.4996 24.8955 33.3648 24.6695C33.1026 24.23 32.6552 23.602 32.0128 23.1052C31.2922 22.5479 30.476 22.2653 29.5871 22.2653Z" fill="white"/>
<defs>
<filter id="filter0_d_894_5416" x="0" y="0" width="68" height="68" filterUnits="userSpaceOnUse" color-interpolation-filters="sRGB">
<feFlood flood-opacity="0" result="BackgroundImageFix"/>
<feColorMatrix in="SourceAlpha" type="matrix" values="0 0 0 0 0 0 0 0 0 0 0 0 0 0 0 0 0 0 127 0" result="hardAlpha"/>
<feOffset dy="4"/>
<feGaussianBlur stdDeviation="2"/>
<feColorMatrix type="matrix" values="0 0 0 0 0.666667 0 0 0 0 0.666667 0 0 0 0 0.666667 0 0 0 0.25 0"/>
<feBlend mode="normal" in2="BackgroundImageFix" result="effect1_dropShadow_894_5416"/>
<feBlend mode="normal" in="SourceGraphic" in2="effect1_dropShadow_894_5416" result="shape"/>
</filter>
</defs>
</svg>
