<svg width="20" height="18" viewBox="0 0 20 18" fill="none" xmlns="http://www.w3.org/2000/svg">
<path d="M9.99998 17.8873C9.71525 17.8873 9.44075 17.7841 9.22682 17.5968C8.41887 16.8903 7.63991 16.2264 6.95265 15.6407L6.94914 15.6377C4.93423 13.9206 3.19427 12.4378 1.98364 10.9771C0.630339 9.34407 0 7.79576 0 6.10433C0 4.46096 0.563506 2.94485 1.58661 1.83508C2.62191 0.712188 4.0425 0.09375 5.58715 0.09375C6.74163 0.09375 7.7989 0.45874 8.72954 1.1785C9.1992 1.54181 9.62492 1.98645 9.99998 2.50509C10.3752 1.98645 10.8008 1.54181 11.2706 1.1785C12.2012 0.45874 13.2585 0.09375 14.413 0.09375C15.9575 0.09375 17.3782 0.712188 18.4135 1.83508C19.4366 2.94485 20 4.46096 20 6.10433C20 7.79576 19.3698 9.34407 18.0165 10.9769C16.8058 12.4378 15.066 13.9205 13.0514 15.6374C12.363 16.2239 11.5828 16.8889 10.773 17.5971C10.5592 17.7841 10.2846 17.8873 9.99998 17.8873ZM5.58715 1.26532C4.37362 1.26532 3.25881 1.74963 2.44781 2.62915C1.62475 3.52194 1.17141 4.75606 1.17141 6.10433C1.17141 7.5269 1.70013 8.79918 2.88558 10.2295C4.03136 11.6121 5.73562 13.0645 7.70888 14.7461L7.71254 14.7492C8.40239 15.3371 9.1844 16.0036 9.9983 16.7153C10.8171 16.0022 11.6003 15.3347 12.2915 14.7458C14.2647 13.0642 15.9688 11.6121 17.1145 10.2295C18.2998 8.79918 18.8285 7.5269 18.8285 6.10433C18.8285 4.75606 18.3752 3.52194 17.5522 2.62915C16.7413 1.74963 15.6263 1.26532 14.413 1.26532C13.524 1.26532 12.7078 1.54791 11.9871 2.10516C11.3449 2.60198 10.8975 3.23004 10.6352 3.66949C10.5003 3.89547 10.2629 4.03036 9.99998 4.03036C9.73707 4.03036 9.49965 3.89547 9.36476 3.66949C9.10261 3.23004 8.65523 2.60198 8.01283 2.10516C7.29216 1.54791 6.47597 1.26532 5.58715 1.26532Z" fill="white"/>
</svg>
