<svg width="100" height="100" viewBox="0 0 100 100" fill="none" xmlns="http://www.w3.org/2000/svg">
<g clip-path="url(#clip0_363_141)">
<path d="M96.9762 84.4976C96.4732 84.0226 95.7677 83.8281 95.0902 83.986C94.8184 84.0473 88.4449 85.4176 85.8127 78.4406C85.2038 76.9403 70.9286 41.4694 66.8122 35.0499C65.3878 32.8288 63.9522 27.0116 63.4612 23.6733C62.7877 19.0952 63.4739 4.70268 63.4772 4.55678C63.5345 3.41092 62.6498 2.43295 61.4973 2.38431C60.2282 2.27706 59.3801 3.20973 59.3315 4.35759C59.2901 4.96449 58.6173 19.3057 59.3474 24.2755C59.6879 26.5752 61.1402 33.8994 63.3146 37.297C67.2166 43.388 81.8129 79.6251 81.9342 79.9575C84.7368 87.3323 91.0211 88.6227 94.8177 88.233C95.4306 88.9398 96.0102 89.8312 95.7997 90.546C95.4386 91.7625 93.025 92.935 91.524 93.2154C89.0052 93.6771 83.4104 93.3487 80.5185 93.1828C75.3628 92.891 70.2231 84.4936 68.7062 81.3492C66.0367 75.2488 50.9627 69.756 48.0721 68.7614C42.3295 66.425 44.1835 60.1088 46.7757 53.2817C47.1407 52.3323 47.4652 51.463 47.6923 50.7568C53.3084 33.3051 35.8327 17.3551 35.0866 16.6855C34.4051 16.0673 33.3911 15.976 32.6023 16.4664C31.8129 16.9547 31.4485 17.902 31.6976 18.7927C32.0381 20.0099 31.7703 23.2063 31.5311 26.0316C31.2147 29.7616 30.8862 33.6216 31.5011 36.1465C33.3751 43.8397 33.0021 50.3811 32.8442 52.2104C32.611 54.8472 31.9641 58.887 31.3352 62.7983C30.6457 67.1026 29.9316 71.5488 29.6984 74.538C29.3007 79.7829 30.4898 83.6655 33.2372 86.0832C36.0672 88.5774 39.7093 88.7113 41.584 88.5621C42.3688 89.5274 42.5593 90.1883 42.452 90.4894C42.1036 91.4467 39.2696 92.432 36.9353 92.6712C34.7042 92.931 28.2994 93.45 25.4008 92.7238C16.6183 90.4967 14.9208 79.8036 13.6817 71.9951C13.3999 70.2024 13.1421 68.5955 12.8356 67.3011C11.8577 63.2087 5.75665 54.0971 4.53551 52.3004C3.15648 48.4424 5.82726 45.7084 10.0216 42.0136C11.7138 40.5267 13.3073 39.121 14.218 37.6021C19.828 28.2474 10.5406 6.13899 9.46602 3.64609C9.00768 2.5875 7.78255 2.10651 6.73595 2.56352C5.68137 3.0152 5.19904 4.24034 5.65272 5.29293C8.34015 11.5199 14.4878 29.0721 10.6525 35.4656C10.0723 36.4289 8.71389 37.6301 7.27957 38.8938C3.371 42.3334 -1.97922 47.0474 0.742855 54.0165L0.96603 54.4422C3.64947 58.3654 8.15828 65.5983 8.79716 68.2671C9.07896 69.4722 9.31613 70.9732 9.58194 72.6526C10.9183 81.0987 12.9469 93.8563 24.3782 96.757C28.5439 97.8075 36.5276 96.9108 37.3876 96.8136C38.6347 96.6963 44.919 95.8642 46.3606 91.917C47.1414 89.7592 46.314 87.4062 43.8944 84.928C43.4074 84.433 42.6712 84.2258 42.0037 84.3397C41.9651 84.3557 38.2943 85.0292 35.972 82.956C34.2678 81.4471 33.5543 78.713 33.8481 74.8638C34.0653 72.0451 34.7628 67.6795 35.4443 63.4691C36.1139 59.3028 36.7408 55.3682 36.9859 52.5808C37.4463 47.2899 36.9066 40.7805 35.5356 35.1805C35.0873 33.3145 35.3937 29.643 35.6675 26.404C35.7508 25.4347 35.8301 24.502 35.8927 23.6153C40.3675 28.9575 47.0628 39.1637 43.7445 49.4984C43.5273 50.1592 43.2295 50.9487 42.8971 51.8247C40.8319 57.2622 36.5362 68.5642 46.6111 72.6693C53.345 75.0057 63.4819 79.7636 64.9302 83.1113C65.6084 84.5143 71.7733 96.8662 80.4752 97.3652C82.2846 97.4704 85.0026 97.625 87.5582 97.625C89.3389 97.625 91.0391 97.5484 92.2715 97.3252C94.0003 97.0088 98.7136 95.3946 99.7929 91.7432C100.263 90.0797 100.169 87.5075 96.9762 84.4976Z" fill="#89AFCE"/>
</g>
<defs>
<clipPath id="clip0_363_141">
<rect width="100" height="100" fill="white"/>
</clipPath>
</defs>
</svg>
