<svg width="65" height="65" viewBox="0 0 65 65" fill="none" xmlns="http://www.w3.org/2000/svg">
<path d="M16.6888 22.7149C16.5735 22.7169 16.4588 22.6962 16.3515 22.6539C16.2442 22.6117 16.1462 22.5487 16.0632 22.4685C15.8956 22.3067 15.7991 22.0849 15.7951 21.8519C15.791 21.619 15.8796 21.3939 16.0415 21.2263C16.2033 21.0587 16.4251 20.9623 16.6581 20.9582C20.968 20.91 25.2687 20.546 29.5254 19.869C29.601 19.8532 29.6785 19.8479 29.7556 19.8532C30.8225 19.9096 31.8577 20.236 32.764 20.8018C32.9137 20.9106 33.0252 21.0638 33.0826 21.2396C33.1401 21.4154 33.1406 21.6049 33.084 21.781C33.0274 21.9572 32.9167 22.1109 32.7676 22.2204C32.6185 22.3299 32.4386 22.3896 32.2537 22.3908C32.0468 22.3908 31.8462 22.3198 31.6853 22.1897C31.0932 21.8503 30.43 21.6539 29.7485 21.6161C25.4348 22.2938 21.078 22.6611 16.7116 22.7149H16.6888Z" fill="#89AFCE"/>
<path d="M48.8204 43.6113C48.0709 43.6123 47.3405 43.3755 46.7342 42.935L46.5454 42.8041C46.5208 42.7874 46.4795 42.754 46.4408 42.7163L36.1015 35.2703C36.0049 35.2044 35.9225 35.1199 35.8591 35.0217C35.7956 34.9236 35.7523 34.8138 35.7319 34.6987C35.7114 34.5837 35.7141 34.4657 35.7397 34.3517C35.7654 34.2376 35.8136 34.1299 35.8815 34.0348C35.9493 33.9396 36.0355 33.8589 36.1349 33.7975C36.2344 33.7361 36.345 33.6951 36.4605 33.677C36.576 33.6589 36.6939 33.664 36.8073 33.692C36.9208 33.7201 37.0275 33.7705 37.1213 33.8403L37.824 34.3409L47.4993 41.3179C47.5282 41.3386 47.5558 41.3612 47.5819 41.3855L47.7496 41.5023C48.1306 41.7754 48.6019 41.8919 49.0662 41.8276C49.5306 41.7634 49.9525 41.5234 50.2451 41.1571C50.4246 40.9306 50.5469 40.6643 50.6018 40.3805C50.6567 40.0968 50.6425 39.804 50.5604 39.5269C50.4618 39.1778 50.2578 38.8677 49.9763 38.6388L36.1471 27.3719C30.8514 30.1827 27.0998 28.7369 25.3088 27.5924C25.0128 27.3997 24.7725 27.1328 24.6118 26.8183C24.4512 26.5039 24.3757 26.1527 24.3931 25.8C24.4104 25.4473 24.5199 25.1053 24.7106 24.808C24.9014 24.5108 25.1667 24.2688 25.4801 24.1061L33.3961 19.9022C33.9013 19.6378 34.4539 19.4761 35.0219 19.4264C35.59 19.3766 36.1623 19.4398 36.7058 19.6123L41.3884 21.1319C42.767 21.5853 44.2622 21.5314 45.6046 20.9799L47.6442 20.1446C47.751 20.1008 47.8653 20.0785 47.9807 20.0789C48.0961 20.0793 48.2103 20.1025 48.3167 20.147C48.4231 20.1915 48.5198 20.2566 48.6011 20.3385C48.6824 20.4203 48.7467 20.5174 48.7905 20.6242C48.8343 20.7309 48.8566 20.8453 48.8562 20.9607C48.8558 21.076 48.8326 21.1902 48.7881 21.2967C48.7436 21.4031 48.6785 21.4997 48.5966 21.581C48.5148 21.6623 48.4177 21.7267 48.3109 21.7705L46.2731 22.6049C44.5445 23.3165 42.6185 23.3862 40.8429 22.8017L36.1647 21.283C35.8443 21.1823 35.5071 21.146 35.1726 21.1762C34.8381 21.2063 34.5128 21.3023 34.2156 21.4586L26.2979 25.6634C26.2538 25.6842 26.2163 25.7168 26.1897 25.7576C26.163 25.7984 26.1482 25.8457 26.1468 25.8945C26.1432 25.9385 26.1517 25.9827 26.1716 26.0222C26.1914 26.0617 26.2217 26.095 26.2592 26.1184C28.1038 27.2972 31.2704 28.1615 35.8037 25.5572C35.9579 25.4686 36.1353 25.4289 36.3125 25.4433C36.4898 25.4577 36.6584 25.5256 36.7963 25.638L51.0787 37.2765C51.6388 37.7283 52.0461 38.3417 52.2452 39.0332C52.4029 39.5775 52.4294 40.1515 52.3226 40.708C52.2157 41.2645 51.9785 41.7878 51.6303 42.2349C51.2986 42.6642 50.8728 43.0116 50.3856 43.2503C49.8984 43.4889 49.3629 43.6124 48.8204 43.6113Z" fill="#89AFCE"/>
<path d="M45.1854 47.6826C44.441 47.6834 43.7149 47.4522 43.108 47.0212L33.6128 40.2841C33.4272 40.1476 33.3027 39.9437 33.2661 39.7163C33.2294 39.4889 33.2836 39.2562 33.4168 39.0683C33.5501 38.8804 33.7518 38.7524 33.9786 38.7119C34.2053 38.6713 34.4389 38.7214 34.629 38.8514L44.1243 45.5877C44.5227 45.8479 45.0062 45.9441 45.4738 45.8562C45.9415 45.7683 46.3571 45.503 46.6337 45.1159C46.9104 44.7288 47.0268 44.2497 46.9585 43.7788C46.8903 43.3079 46.6427 42.8816 46.2676 42.5889L36.8039 35.7683C36.6295 35.6272 36.5157 35.4247 36.4858 35.2024C36.4559 34.98 36.5123 34.7546 36.6433 34.5725C36.7743 34.3904 36.97 34.2653 37.1903 34.2229C37.4107 34.1805 37.6388 34.224 37.8281 34.3445L47.2944 41.166C47.9106 41.6121 48.3697 42.2418 48.6058 42.965C48.842 43.6881 48.8431 44.4674 48.609 45.1912C48.375 45.915 47.9177 46.5461 47.3028 46.994C46.6879 47.4419 45.947 47.6836 45.1863 47.6844L45.1854 47.6826Z" fill="#89AFCE"/>
<path d="M41.0863 51.2025C40.3792 51.2023 39.6892 50.9856 39.109 50.5815L30.6002 44.6876C30.4086 44.5549 30.2775 44.3515 30.2358 44.1222C30.1942 43.8929 30.2453 43.6565 30.378 43.4649C30.5106 43.2733 30.714 43.1422 30.9433 43.1005C31.1726 43.0588 31.4091 43.11 31.6007 43.2426L40.1095 49.1366C40.2964 49.2658 40.5068 49.357 40.7289 49.4048C40.951 49.4527 41.1804 49.4564 41.4039 49.4156C41.6274 49.3748 41.8407 49.2904 42.0315 49.1671C42.2224 49.0439 42.3871 48.8843 42.5163 48.6974C42.7733 48.3226 42.8732 47.862 42.7943 47.4145C42.7155 46.9669 42.4643 46.5681 42.0947 46.3038L33.6271 40.2974C33.5308 40.2316 33.4486 40.1473 33.3853 40.0493C33.322 39.9514 33.2788 39.8418 33.2582 39.727C33.2377 39.6122 33.2402 39.4945 33.2657 39.3807C33.2911 39.2669 33.339 39.1593 33.4064 39.0641C33.4739 38.969 33.5597 38.8883 33.6587 38.8266C33.7577 38.765 33.868 38.7237 33.9831 38.7052C34.0983 38.6866 34.2159 38.6912 34.3293 38.7186C34.4427 38.746 34.5494 38.7957 34.6434 38.8648L43.1109 44.8712C43.8563 45.4038 44.3629 46.2076 44.5221 47.1098C44.6812 48.0119 44.4802 48.9405 43.9621 49.6961C43.7032 50.0737 43.3721 50.3962 42.9877 50.645C42.6034 50.8938 42.1736 51.0638 41.7231 51.1454C41.513 51.1838 41.2998 51.2029 41.0863 51.2025Z" fill="#89AFCE"/>
<path d="M36.0672 54.0906C35.4526 54.0876 34.8496 53.9234 34.3183 53.6145L29.5953 50.8915C29.3952 50.7742 29.2496 50.5825 29.1903 50.3583C29.131 50.1341 29.1628 49.8955 29.2788 49.6946C29.3948 49.4937 29.5855 49.3469 29.8094 49.2861C30.0332 49.2253 30.272 49.2556 30.4737 49.3702L35.1958 52.0932C35.595 52.3185 36.0665 52.3788 36.5096 52.2613C36.9527 52.1438 37.3323 51.8578 37.5674 51.4642C37.7908 51.087 37.8618 50.6387 37.766 50.2109C37.6702 49.7831 37.4147 49.408 37.0518 49.162L31.0174 44.9818C30.9226 44.9161 30.8416 44.8324 30.7791 44.7354C30.7167 44.6384 30.6739 44.5301 30.6533 44.4166C30.6327 44.3031 30.6347 44.1867 30.6591 44.0739C30.6835 43.9612 30.7299 43.8544 30.7956 43.7596C30.8613 43.6647 30.945 43.5838 31.042 43.5213C31.1389 43.4589 31.2473 43.4161 31.3608 43.3955C31.4743 43.3749 31.5907 43.3769 31.7035 43.4013C31.8162 43.4257 31.923 43.4721 32.0178 43.5378L38.0514 47.7171C38.6639 48.1411 39.1251 48.7496 39.3676 49.454C39.6102 50.1584 39.6215 50.9218 39.4 51.633C39.1785 52.3443 38.7356 52.9662 38.136 53.4083C37.5364 53.8503 36.8112 54.0894 36.0663 54.0906H36.0672Z" fill="#89AFCE"/>
<path d="M26.1214 53.5662C25.4028 53.5673 24.701 53.3492 24.1097 52.9408C23.5183 52.5325 23.0657 51.9535 22.8121 51.2811C22.5585 50.6087 22.5161 49.875 22.6906 49.1779C22.8651 48.4808 23.2481 47.8535 23.7884 47.3798L26.1346 45.3244C26.4832 45.0183 26.8888 44.7839 27.328 44.6346C27.7672 44.4852 28.2316 44.4238 28.6946 44.4539C29.1575 44.484 29.61 44.605 30.0262 44.81C30.4424 45.0149 30.8142 45.2999 31.1203 45.6485C31.4263 45.9972 31.6607 46.4028 31.8099 46.8421C31.9592 47.2814 32.0205 47.7457 31.9904 48.2087C31.9602 48.6717 31.8391 49.1241 31.6341 49.5403C31.429 49.9565 31.144 50.3282 30.7953 50.6342L28.4491 52.694C27.8052 53.2583 26.9776 53.5684 26.1214 53.5662ZM28.4641 46.2028C28.0333 46.2017 27.6169 46.3579 27.2932 46.642L24.9462 48.7C24.7708 48.8538 24.6275 49.0407 24.5244 49.2499C24.4213 49.4591 24.3604 49.6866 24.3451 49.9193C24.3299 50.1521 24.3607 50.3855 24.4357 50.6064C24.5107 50.8272 24.6285 51.0311 24.7823 51.2065C25.093 51.5606 25.5316 51.7768 26.0016 51.8075C26.2344 51.8227 26.4678 51.7919 26.6887 51.7169C26.9095 51.6419 27.1135 51.5241 27.2888 51.3703L29.6349 49.3105C29.9056 49.0723 30.0972 48.7573 30.1845 48.4075C30.2717 48.0576 30.2503 47.6895 30.1232 47.3521C29.9961 47.0147 29.7692 46.724 29.4729 46.5187C29.1765 46.3134 28.8246 46.2032 28.4641 46.2028Z" fill="#89AFCE"/>
<path d="M20.8032 51.1734C20.725 51.1734 20.6469 51.1734 20.5687 51.1664C20.1054 51.1374 19.6525 51.0169 19.2361 50.8118C18.8197 50.6068 18.448 50.3213 18.1426 49.9718C17.8323 49.6231 17.594 49.2165 17.4413 48.7754C17.2885 48.3343 17.2244 47.8674 17.2525 47.4015C17.2807 46.9356 17.4006 46.4798 17.6053 46.0603C17.8101 45.6409 18.0956 45.2659 18.4456 44.9571L22.365 41.5165C22.7136 41.2104 23.1191 40.976 23.5584 40.8266C23.9976 40.6773 24.462 40.6159 24.9249 40.646C25.3879 40.6761 25.8404 40.7971 26.2566 41.0021C26.6728 41.207 27.0446 41.492 27.3506 41.8406L26.7156 42.4493L27.3752 41.8696C27.6814 42.2182 27.9159 42.6237 28.0654 43.063C28.2148 43.5022 28.2762 43.9666 28.2461 44.4296C28.216 44.8926 28.095 45.3451 27.8899 45.7613C27.6849 46.1775 27.3999 46.5493 27.0511 46.8553L23.1283 50.2959C22.4865 50.8626 21.6594 51.1747 20.8032 51.1734ZM24.69 42.3949C24.2598 42.3937 23.844 42.5499 23.5209 42.8341L19.6016 46.2747C19.3392 46.5116 19.1522 46.8204 19.064 47.1628C18.9758 47.5051 18.9902 47.8659 19.1055 48.2001C19.2207 48.5343 19.4317 48.8272 19.7122 49.0425C19.9927 49.2577 20.3302 49.3857 20.6829 49.4105C20.9158 49.4265 21.1495 49.3959 21.3705 49.3205C21.5914 49.245 21.7951 49.1263 21.9697 48.9713L25.889 45.5307C26.0644 45.3768 26.2077 45.1899 26.3108 44.9807C26.414 44.7714 26.4749 44.5439 26.49 44.3111C26.5052 44.0783 26.4744 43.8448 26.3993 43.6239C26.3242 43.403 26.2063 43.1991 26.0524 43.0238L26.0269 42.9948C25.8736 42.8201 25.6873 42.6775 25.4787 42.5752C25.27 42.4728 25.0432 42.4127 24.8112 42.3984C24.77 42.3966 24.7287 42.3958 24.6892 42.3958L24.69 42.3949Z" fill="#89AFCE"/>
<path d="M16.371 47.9489C16.2937 47.9489 16.2155 47.9489 16.1364 47.9419C15.6732 47.9129 15.2203 47.7924 14.8039 47.5874C14.3874 47.3823 14.0158 47.0968 13.7103 46.7473L13.6146 46.6331C12.9972 45.9289 12.6847 45.0083 12.7458 44.0737C12.8069 43.1391 13.2366 42.2671 13.9405 41.6492L18.4843 37.6605C18.8329 37.3543 19.2384 37.1198 19.6777 36.9704C20.1169 36.8209 20.5813 36.7595 21.0443 36.7896C21.5073 36.8197 21.9598 36.9407 22.376 37.1458C22.7923 37.3508 23.164 37.6359 23.47 37.9846L23.5693 38.0979C24.1869 38.8021 24.4995 39.7227 24.4384 40.6574C24.3773 41.592 23.9474 42.4641 23.2434 43.0818L18.6995 47.0705C18.0569 47.6382 17.2284 47.9507 16.371 47.9489ZM20.8094 38.5397C20.3792 38.5386 19.9634 38.6948 19.6403 38.9789L15.0964 42.9676C14.742 43.2785 14.5256 43.7175 14.4948 44.1879C14.464 44.6584 14.6213 45.1218 14.9322 45.4763L15.0314 45.5896C15.3425 45.9431 15.7811 46.1586 16.251 46.1889C16.7209 46.2192 17.1835 46.0618 17.5374 45.7512L22.0813 41.7625C22.2567 41.6086 22.4 41.4218 22.5031 41.2125C22.6062 41.0032 22.6671 40.7757 22.6823 40.5429C22.6975 40.3101 22.6666 40.0766 22.5915 39.8557C22.5165 39.6348 22.3986 39.4309 22.2447 39.2556L22.1472 39.1441C21.9938 38.9686 21.8071 38.8254 21.598 38.7226C21.3889 38.6197 21.1614 38.5594 20.9289 38.545C20.8876 38.5415 20.8489 38.5397 20.8094 38.5397Z" fill="#89AFCE"/>
<path d="M12.5529 44.0393C12.4756 44.0393 12.3965 44.0393 12.3184 44.0314C11.6167 43.9872 10.9439 43.736 10.385 43.3095C9.82608 42.883 9.40615 42.3004 9.17828 41.6353C8.9504 40.9702 8.92482 40.2524 9.10475 39.5728C9.28468 38.8932 9.66205 38.2821 10.1892 37.8169L13.0342 35.3197C13.3828 35.0135 13.7883 34.779 14.2276 34.6295C14.6668 34.4801 15.1312 34.4187 15.5942 34.4488C16.0572 34.4789 16.5097 34.5999 16.926 34.805C17.3422 35.01 17.7139 35.295 18.0199 35.6438L18.0507 35.6789C18.3568 36.0275 18.5914 36.433 18.7408 36.8723C18.8902 37.3115 18.9516 37.7759 18.9215 38.2389C18.8914 38.7019 18.7704 39.1544 18.5654 39.5706C18.3603 39.9869 18.0753 40.3586 17.7265 40.6646L14.8815 43.1618C14.2387 43.7293 13.4103 44.0414 12.5529 44.0393ZM15.3637 36.198C14.9335 36.1969 14.5177 36.3531 14.1946 36.6372L11.3495 39.1345C11.1741 39.2883 11.0308 39.4752 10.9277 39.6845C10.8245 39.8937 10.7637 40.1213 10.7485 40.3541C10.7333 40.5869 10.7642 40.8204 10.8392 41.0412C10.9143 41.2621 11.0322 41.466 11.1861 41.6414C11.3388 41.8222 11.5259 41.9709 11.7365 42.0789C11.9471 42.1869 12.1771 42.2521 12.413 42.2705C12.649 42.289 12.8863 42.2604 13.1111 42.1865C13.336 42.1126 13.5439 41.9948 13.7229 41.8399L16.5679 39.3426C16.7433 39.1888 16.8867 39.0019 16.9898 38.7926C17.0929 38.5834 17.1538 38.3558 17.169 38.123C17.1841 37.8902 17.1533 37.6567 17.0782 37.4359C17.0031 37.215 16.8852 37.0111 16.7313 36.8357L16.7006 36.8006C16.5472 36.6249 16.3604 36.4814 16.1511 36.3785C15.9418 36.2755 15.7142 36.215 15.4814 36.2007C15.4384 36.1998 15.3988 36.198 15.3593 36.198H15.3637Z" fill="#89AFCE"/>
<path d="M10.9591 39.1861C10.7689 39.1865 10.5839 39.1248 10.432 39.0104L7.43061 36.7267C7.33879 36.6568 7.26163 36.5696 7.20353 36.4699C7.14543 36.3702 7.10753 36.2601 7.09199 36.1458C7.07645 36.0315 7.08358 35.9152 7.11297 35.8037C7.14236 35.6921 7.19344 35.5874 7.26328 35.4956C7.40434 35.3102 7.61328 35.1884 7.84415 35.157C7.95846 35.1415 8.07472 35.1486 8.18628 35.178C8.29783 35.2074 8.40251 35.2584 8.49433 35.3283L11.4957 37.6121C11.6436 37.7229 11.7527 37.8776 11.8076 38.0541C11.8624 38.2306 11.8602 38.4199 11.8012 38.595C11.7422 38.7702 11.6295 38.9223 11.4791 39.0297C11.3287 39.1371 11.1483 39.1943 10.9635 39.1931L10.9591 39.1861Z" fill="#89AFCE"/>
<path d="M51.4016 40.1596C51.2279 40.1595 51.0581 40.108 50.9137 40.0115C50.7693 39.915 50.6568 39.7778 50.5903 39.6173C50.5238 39.4568 50.5064 39.2802 50.5403 39.1099C50.5742 38.9395 50.6578 38.783 50.7806 38.6602L55.7092 33.7298C55.8749 33.5698 56.0967 33.4813 56.3271 33.4833C56.5574 33.4853 56.7777 33.5777 56.9405 33.7405C57.1034 33.9034 57.1958 34.1237 57.1978 34.354C57.1998 34.5843 57.1112 34.8062 56.9512 34.9719L52.0226 39.9004C51.9412 39.9823 51.8445 40.0474 51.7379 40.0918C51.6314 40.1363 51.5171 40.1593 51.4016 40.1596Z" fill="#89AFCE"/>
<path d="M58.1227 38.3369C57.9724 38.3371 57.8247 38.2987 57.6935 38.2255C57.5623 38.1523 57.4521 38.0467 57.3734 37.9188L46.6484 20.4742C46.5351 20.2896 46.4939 20.0698 46.5329 19.8567C46.5718 19.6437 46.688 19.4526 46.8592 19.32L57.4815 11.0931C57.5981 11.0028 57.7355 10.9433 57.8812 10.9201C58.0268 10.8969 58.1759 10.9108 58.3148 10.9604C58.4537 11.01 58.5779 11.0938 58.6758 11.204C58.7738 11.3143 58.8425 11.4474 58.8754 11.5911L64.0991 34.3824C64.1425 34.5679 64.1244 34.7624 64.0475 34.9367C63.9707 35.111 63.8393 35.2555 63.6731 35.3486L58.5513 38.2271C58.4202 38.2999 58.2726 38.3377 58.1227 38.3369ZM48.558 20.2247L58.4275 36.2771L62.2405 34.1338L57.4709 13.3233L48.558 20.2247Z" fill="#89AFCE"/>
<path d="M6.87737 38.6486C6.72693 38.6485 6.57903 38.6098 6.44784 38.5362L1.32602 35.6621C1.15985 35.569 1.02845 35.4244 0.951609 35.2502C0.874769 35.0759 0.856657 34.8814 0.900003 34.6959L6.1246 11.9072C6.15758 11.7635 6.22622 11.6304 6.32419 11.5201C6.42217 11.4099 6.54632 11.3261 6.68521 11.2765C6.82409 11.2269 6.97323 11.213 7.11888 11.2362C7.26452 11.2594 7.40199 11.3189 7.51859 11.4092L18.1417 19.6352C18.3129 19.7678 18.4292 19.9589 18.4681 20.172C18.507 20.385 18.4658 20.6049 18.3525 20.7894L7.62663 38.234C7.54749 38.3613 7.43709 38.4662 7.30594 38.5388C7.17479 38.6114 7.02726 38.6492 6.87737 38.6486ZM2.75953 34.4517L6.57257 36.5941L16.442 20.5408L7.52913 13.6394L2.75953 34.4517Z" fill="#89AFCE"/>
</svg>
