<svg width="35" height="35" viewBox="0 0 35 35" fill="none" xmlns="http://www.w3.org/2000/svg">
<g clip-path="url(#clip0_509_3)">
<path d="M27.1113 1.33811C26.8166 1.33811 26.5183 1.35139 26.2248 1.37789C23.1937 1.65211 20.43 3.49281 18.4167 6.57094C16.0811 3.12608 12.2204 0.914062 8.50694 0.914062C7.69087 0.914062 6.8823 1.01958 6.10404 1.22792C3.69901 1.87169 1.73809 3.66214 0.72463 6.14096C-0.398518 8.88713 -0.205226 12.1039 1.22924 14.5359C3.19927 17.8761 6.57691 19.9149 9.84289 21.8862C11.5205 22.8993 13.2554 23.9459 14.7434 25.1456C15.1866 25.5023 15.7434 25.9674 16.2211 26.4742C15.6184 27.0681 14.4267 29.0423 14.4152 29.066C14.0407 29.8537 13.5263 31.5193 13.9734 32.7653C14.1645 33.2969 14.5078 33.682 14.9948 33.9098C15.2446 34.0264 15.5074 34.086 15.7757 34.086C16.9291 34.086 17.9975 32.9928 18.6912 32.0763C19.9598 30.3981 20.1497 28.6367 19.2551 26.8384C20.79 25.45 22.4599 24.1594 24.0755 22.9104C26.8551 20.7622 29.7289 18.5404 32.0158 15.7479C33.133 14.3833 36.5872 9.58433 34.1458 5.11343C32.8551 2.74939 30.2252 1.33811 27.1113 1.33811ZM17.1205 30.2101C16.8884 30.6537 16.654 30.9739 16.41 31.1784C16.4591 30.5195 16.7102 29.8763 16.8715 29.5225C16.9167 29.4231 17.2133 28.9644 17.4266 28.6576C17.4936 29.1794 17.3925 29.6905 17.1205 30.2101ZM14.3432 5.50737C15.0586 6.09686 15.6911 6.76274 16.2232 7.48517C16.2865 7.57132 16.3837 7.73373 16.497 7.92172C17.15 9.00954 17.8516 10.0716 18.6112 10.0716C18.988 10.0716 19.3071 9.80674 19.5593 9.28368C21.1703 5.94752 23.741 3.95848 26.7976 3.6825C26.9753 3.66617 27.1554 3.65861 27.3334 3.65861C29.6719 3.65861 31.7283 5.02742 32.451 7.06438C33.4031 9.7497 31.8961 12.9319 27.8441 16.7923C26.1042 18.4504 24.1745 19.9411 22.3087 21.3832C20.8441 22.5144 19.3311 23.6836 17.9144 24.9289C16.6404 23.5167 14.9693 22.3338 13.643 21.4535C12.8562 20.9309 12.0058 20.4199 11.1055 19.8787C6.67953 17.2187 1.6636 14.2038 2.45437 8.59002C2.9064 5.38022 5.29546 3.30623 8.5408 3.30623C8.77925 3.30623 9.02329 3.31754 9.26662 3.341C11.0512 3.51076 12.8539 4.28033 14.3432 5.50737Z" fill="#FF9356"/>
</g>
<defs>
<clipPath id="clip0_509_3">
<rect width="35" height="35" fill="white"/>
</clipPath>
</defs>
</svg>
