<svg width="25" height="26" viewBox="0 0 25 26" fill="none" xmlns="http://www.w3.org/2000/svg">
<path d="M18.2327 0.298828H6.76727C3.03574 0.298828 0 3.33456 0 7.0661V18.5317C0 22.2631 3.03574 25.2988 6.76727 25.2988H18.2329C21.9643 25.2988 25 22.2631 25 18.5317V7.0661C25 3.33456 21.9643 0.298828 18.2327 0.298828ZM23.5344 18.5317C23.5344 21.4549 21.1561 23.8332 18.2327 23.8332H6.76727C3.84388 23.8332 1.46561 21.4549 1.46561 18.5317V7.0661C1.46561 4.14271 3.84388 1.76443 6.76727 1.76443H18.2329C21.1561 1.76443 23.5344 4.14271 23.5344 7.0661V18.5317Z" fill="#F98FD4" fill-opacity="0.6"/>
<path d="M12.5 5.96309C8.7307 5.96309 5.66426 9.02953 5.66426 12.7988C5.66426 16.5681 8.7307 19.6346 12.5 19.6346C16.2693 19.6346 19.3358 16.5681 19.3358 12.7988C19.3358 9.02953 16.2693 5.96309 12.5 5.96309ZM12.5 18.169C9.53904 18.169 7.12986 15.76 7.12986 12.7988C7.12986 9.83787 9.53904 7.42869 12.5 7.42869C15.4612 7.42869 17.8701 9.83787 17.8701 12.7988C17.8701 15.76 15.4612 18.169 12.5 18.169Z" fill="#F98FD4" fill-opacity="0.6"/>
<path d="M19.4992 3.53541C18.3853 3.53541 17.4793 4.44159 17.4793 5.55529C17.4793 6.66919 18.3853 7.57537 19.4992 7.57537C20.6131 7.57537 21.5193 6.66919 21.5193 5.55529C21.5193 4.4414 20.6131 3.53541 19.4992 3.53541ZM19.4992 6.10957C19.1937 6.10957 18.9449 5.86085 18.9449 5.55529C18.9449 5.24955 19.1937 5.00102 19.4992 5.00102C19.805 5.00102 20.0537 5.24955 20.0537 5.55529C20.0537 5.86085 19.805 6.10957 19.4992 6.10957Z" fill="#F98FD4" fill-opacity="0.6"/>
</svg>
