<svg width="45" height="45" viewBox="0 0 45 45" fill="none" xmlns="http://www.w3.org/2000/svg">
<circle cx="22.5" cy="22.5" r="22.5" fill="white"/>
<path d="M26.5862 13H17.4138C14.4286 13 12 15.4286 12 18.4138V27.5863C12 30.5714 14.4286 33 17.4138 33H26.5863C29.5714 33 32 30.5714 32 27.5863V18.4138C32 15.4286 29.5714 13 26.5862 13ZM30.8275 27.5863C30.8275 29.9249 28.9249 31.8275 26.5862 31.8275H17.4138C15.0751 31.8275 13.1725 29.9249 13.1725 27.5863V18.4138C13.1725 16.0751 15.0751 14.1725 17.4138 14.1725H26.5863C28.9249 14.1725 30.8275 16.0751 30.8275 18.4138V27.5863Z" fill="#F98FD4"/>
<path d="M22 17.5314C18.9846 17.5314 16.5314 19.9846 16.5314 23C16.5314 26.0154 18.9846 28.4686 22 28.4686C25.0154 28.4686 27.4686 26.0154 27.4686 23C27.4686 19.9846 25.0154 17.5314 22 17.5314ZM22 27.2961C19.6312 27.2961 17.7039 25.3689 17.7039 23C17.7039 20.6312 19.6312 18.7039 22 18.7039C24.3689 18.7039 26.2961 20.6312 26.2961 23C26.2961 25.3689 24.3689 27.2961 22 27.2961Z" fill="#F98FD4"/>
<path d="M27.5994 15.5893C26.7083 15.5893 25.9835 16.3142 25.9835 17.2052C25.9835 18.0963 26.7083 18.8212 27.5994 18.8212C28.4905 18.8212 29.2154 18.0963 29.2154 17.2052C29.2154 16.3141 28.4905 15.5893 27.5994 15.5893ZM27.5994 17.6486C27.3549 17.6486 27.1559 17.4496 27.1559 17.2052C27.1559 16.9606 27.3549 16.7618 27.5994 16.7618C27.844 16.7618 28.0429 16.9606 28.0429 17.2052C28.0429 17.4496 27.844 17.6486 27.5994 17.6486Z" fill="#F98FD4"/>
</svg>
