<svg width="90" height="91" viewBox="0 0 90 91" fill="none" xmlns="http://www.w3.org/2000/svg">
<circle cx="45" cy="45.0427" r="45" fill="#F2F5F8"/>
<path d="M53.688 26.5983H35.3433C29.3728 26.5983 24.5156 31.5593 24.5156 37.6573V56.3943C24.5156 62.4921 29.3728 67.453 35.3433 67.453H53.6883C59.6584 67.453 64.5156 62.4921 64.5156 56.3943V37.6573C64.5156 31.5593 59.6584 26.5983 53.688 26.5983ZM62.1707 56.3943C62.1707 61.1714 58.3654 65.058 53.688 65.058H35.3433C30.6658 65.058 26.8606 61.1714 26.8606 56.3943V37.6573C26.8606 32.8799 30.6658 28.9934 35.3433 28.9934H53.6883C58.3654 28.9934 62.1707 32.8799 62.1707 37.6573V56.3943Z" fill="#F98FD4"/>
<path d="M44.5156 35.8548C38.4847 35.8548 33.5784 40.8659 33.5784 47.0257C33.5784 53.1854 38.4847 58.1966 44.5156 58.1966C50.5465 58.1966 55.4528 53.1854 55.4528 47.0257C55.4528 40.8659 50.5465 35.8548 44.5156 35.8548ZM44.5156 55.8015C39.7781 55.8015 35.9234 51.8648 35.9234 47.0257C35.9234 42.1869 39.7781 38.2498 44.5156 38.2498C49.2535 38.2498 53.1079 42.1869 53.1079 47.0257C53.1079 51.8648 49.2535 55.8015 44.5156 55.8015Z" fill="#F98FD4"/>
<path d="M55.7144 31.8875C53.9321 31.8875 52.4825 33.3684 52.4825 35.1884C52.4825 37.0087 53.9321 38.4895 55.7144 38.4895C57.4966 38.4895 58.9465 37.0087 58.9465 35.1884C58.9465 33.368 57.4966 31.8875 55.7144 31.8875ZM55.7144 36.0941C55.2255 36.0941 54.8275 35.6877 54.8275 35.1884C54.8275 34.6887 55.2255 34.2826 55.7144 34.2826C56.2036 34.2826 56.6015 34.6887 56.6015 35.1884C56.6015 35.6877 56.2036 36.0941 55.7144 36.0941Z" fill="#F98FD4"/>
</svg>
