<svg width="25" height="25" viewBox="0 0 25 25" fill="none" xmlns="http://www.w3.org/2000/svg">
<g clip-path="url(#clip0_608_63)">
<path d="M24.5823 20.7886L24.9356 20.0024C25.0214 19.8114 25.0214 19.5928 24.9356 19.4019L24.5823 18.6157L24.9356 17.8295C25.0375 17.6029 25.0175 17.3401 24.8825 17.1314C24.7475 16.9229 24.516 16.7968 24.2675 16.7968H19.2545C19.87 15.4921 20.2148 14.0357 20.2148 12.5C20.2148 6.92676 15.6807 2.39258 10.1074 2.39258C4.53418 2.39258 0 6.92676 0 12.5C0 17.9394 4.31919 22.3882 9.70796 22.5988C9.74282 22.6039 24.2676 22.6074 24.2676 22.6074C24.5161 22.6074 24.7476 22.4814 24.8826 22.2728C25.0175 22.0642 25.0375 21.8014 24.9356 21.5747L24.5823 20.7886ZM1.46484 12.5C1.46484 7.73447 5.34189 3.85742 10.1074 3.85742C14.8729 3.85742 18.75 7.73447 18.75 12.5C18.75 17.2655 14.8729 21.1426 10.1074 21.1426C5.34189 21.1426 1.46484 17.2655 1.46484 12.5ZM23.1112 21.0888L23.1354 21.1426H15.3436C16.5546 20.4062 17.5988 19.4221 18.4068 18.2618H23.1354L23.1112 18.3155C23.0254 18.5065 23.0254 18.7251 23.1112 18.9161L23.4646 19.7022L23.1112 20.4884C23.0254 20.6793 23.0254 20.8979 23.1112 21.0888Z" fill="#828181"/>
<path d="M14.502 12.5C14.502 10.0769 12.5306 8.10547 10.1074 8.10547C7.68428 8.10547 5.71289 10.0769 5.71289 12.5C5.71289 14.9231 7.68428 16.8945 10.1074 16.8945C12.5306 16.8945 14.502 14.9231 14.502 12.5ZM7.17773 12.5C7.17773 10.8846 8.49199 9.57031 10.1074 9.57031C11.7229 9.57031 13.0371 10.8846 13.0371 12.5C13.0371 14.1154 11.7229 15.4297 10.1074 15.4297C8.49199 15.4297 7.17773 14.1154 7.17773 12.5Z" fill="#828181"/>
</g>
<defs>
<clipPath id="clip0_608_63">
<rect width="25" height="25" fill="white"/>
</clipPath>
</defs>
</svg>
