<svg width="25" height="24" viewBox="0 0 25 24" fill="none" xmlns="http://www.w3.org/2000/svg">
<path d="M22.5543 4.07607H2.44565C1.09702 4.07607 0 5.17451 0 6.52173V18.4783C0 19.827 1.09854 20.9239 2.44565 20.9239H22.5543C23.9009 20.9239 25 19.8276 25 18.4783V6.52173C25 5.175 23.9035 4.07607 22.5543 4.07607ZM22.4884 5.70654C22.0737 6.12129 13.3639 14.8311 13.0765 15.1186C12.7578 15.4372 12.2422 15.4372 11.9235 15.1186C11.6359 14.8308 2.92612 6.12109 2.51157 5.70654H22.4884ZM1.63042 18.4123V7.13115L7.271 12.7717L1.63042 18.4123ZM3.05503 19.2935L8.42388 13.9246L10.7706 16.2713C11.724 17.2248 13.2757 17.2249 14.2293 16.2713L16.576 13.9246L21.9449 19.2935H3.05503ZM23.3696 18.4123L17.729 12.7717L23.3695 7.13115V18.4123H23.3696Z" fill="#89AFCE"/>
</svg>
