<svg width="25" height="25" viewBox="0 0 25 25" fill="none" xmlns="http://www.w3.org/2000/svg">
<g clip-path="url(#clip0_286_1382)">
<path d="M23.6267 10.6527C23.5075 9.92976 23.3178 9.2207 23.0603 8.5357C24.1997 6.84886 23.2431 5.19248 21.2104 5.33694C20.7459 4.77247 20.2276 4.25415 19.6631 3.78967C19.8078 1.75879 18.1523 0.799519 16.4644 1.93977C15.7794 1.68234 15.0704 1.49267 14.3474 1.37345C13.4566 -0.45785 11.5434 -0.457459 10.6526 1.37345C9.92966 1.49267 9.22059 1.68234 8.53564 1.93977C6.8488 0.800349 5.19208 1.75728 5.33688 3.78967C4.77242 4.2542 4.25409 4.77247 3.78962 5.33694C1.75893 5.19262 0.799269 6.84749 1.93966 8.5357C1.68224 9.2207 1.49257 9.92976 1.37335 10.6527C-0.457954 11.5436 -0.457612 13.4566 1.37335 14.3474C1.49252 15.0704 1.68219 15.7794 1.93966 16.4644C0.800099 18.1516 1.75756 19.8078 3.78962 19.6632C4.25414 20.2276 4.77242 20.746 5.33688 21.2105C5.19223 23.2413 6.84768 24.2006 8.53564 23.0604C9.22064 23.3178 9.92966 23.5075 10.6526 23.6267C11.5434 25.458 13.4566 25.4576 14.3474 23.6267C15.0704 23.5075 15.7794 23.3178 16.4644 23.0604C18.1511 24.1997 19.8079 23.243 19.6631 21.2105C20.2276 20.746 20.7459 20.2277 21.2104 19.6632C23.2416 19.8074 24.2008 18.1527 23.0603 16.4644C23.3178 15.7794 23.5074 15.0704 23.6267 14.3474C25.4577 13.4568 25.4578 11.5436 23.6267 10.6527ZM22.719 13.1409C22.4572 13.2329 22.2698 13.465 22.2351 13.7404C22.1245 14.6198 21.8946 15.4792 21.5518 16.2948C21.4444 16.5504 21.4906 16.8448 21.6712 17.0553C22.0828 17.535 22.1261 17.8928 22.0547 18.0162C21.9833 18.1399 21.651 18.2815 21.0285 18.1645C20.756 18.1133 20.4783 18.2202 20.3105 18.4407C19.7742 19.1451 19.1451 19.7742 18.4406 20.3105C18.2201 20.4784 18.1133 20.7563 18.1645 21.0286C18.2816 21.6511 18.14 21.9833 18.0162 22.0548C17.8928 22.1262 17.535 22.0828 17.0552 21.6713C16.8448 21.4906 16.5502 21.4445 16.2947 21.5519C15.4793 21.8946 14.6198 22.1245 13.7404 22.2352C13.465 22.2699 13.2328 22.4572 13.1409 22.7191C12.9312 23.3163 12.6424 23.533 12.4995 23.533C12.357 23.533 12.0688 23.3163 11.8591 22.7191C11.7671 22.4573 11.535 22.2699 11.2596 22.2352C10.3801 22.1245 9.52074 21.8946 8.70529 21.5519C8.44908 21.4443 8.15479 21.4911 7.94477 21.6713C7.46516 22.0828 7.10725 22.1262 6.98384 22.0548C6.86008 21.9834 6.7184 21.6511 6.83547 21.0286C6.88668 20.7563 6.77982 20.4784 6.55939 20.3106C5.85487 19.7743 5.22581 19.1452 4.68952 18.4407C4.52163 18.2202 4.2436 18.1134 3.97152 18.1646C3.34901 18.2816 3.01674 18.14 2.94527 18.0163C2.87394 17.8929 2.91729 17.5351 3.3288 17.0553C3.50934 16.8448 3.55557 16.5504 3.44812 16.2948C3.10535 15.4793 2.8755 14.6199 2.76483 13.7404C2.73016 13.465 2.54279 13.2329 2.28092 13.141C1.68385 12.9312 1.46703 12.6425 1.46703 12.4996C1.46708 12.3571 1.6838 12.0689 2.28092 11.8592C2.54279 11.7672 2.73016 11.5351 2.76483 11.2597C2.8755 10.3803 3.1054 9.52084 3.44812 8.70535C3.55552 8.44973 3.50934 8.15529 3.3288 7.94482C2.9172 7.46511 2.87389 7.10736 2.94522 6.98394C3.01664 6.86018 3.34887 6.7185 3.97147 6.83558C4.24399 6.88679 4.52163 6.77987 4.68947 6.55945C5.22572 5.85502 5.85482 5.22592 6.55934 4.68958C6.77982 4.52173 6.88668 4.24385 6.83542 3.97153C6.7184 3.34907 6.85998 3.01684 6.98374 2.94532C7.10725 2.87404 7.46501 2.91735 7.94472 3.32886C8.15518 3.50944 8.44962 3.55568 8.70524 3.44817C9.52069 3.10545 10.3801 2.87556 11.2596 2.76483C11.535 2.73017 11.7671 2.54285 11.859 2.28093C12.0688 1.6838 12.3575 1.46704 12.5004 1.46709C12.643 1.46709 12.9311 1.6838 13.1409 2.28093C13.2328 2.5428 13.465 2.73017 13.7403 2.76483C14.6198 2.87556 15.4792 3.10545 16.2947 3.44817C16.5503 3.55563 16.8448 3.50934 17.0552 3.32886C17.535 2.91725 17.8928 2.87404 18.0161 2.94522C18.1399 3.0167 18.2816 3.34902 18.1645 3.97148C18.1133 4.2438 18.2201 4.52168 18.4406 4.68948C19.1451 5.22577 19.7741 5.85492 20.3104 6.55935C20.4783 6.77977 20.7562 6.88664 21.0284 6.83548C21.651 6.71841 21.9832 6.86003 22.0547 6.98379C22.126 7.10726 22.0827 7.46507 21.6712 7.94477C21.4906 8.15524 21.4444 8.44968 21.5518 8.7053C21.8946 9.52084 22.1245 10.3803 22.2351 11.2597C22.2698 11.5351 22.4572 11.7672 22.719 11.8591C23.3161 12.0688 23.5329 12.3576 23.5329 12.5005C23.5329 12.643 23.3162 12.9312 22.719 13.1409Z" fill="#828181"/>
<path d="M10.9464 6.54049C11.3225 6.69056 11.7483 6.50695 11.898 6.13171C12.0928 5.64351 12.3466 5.42113 12.5 5.42113C12.6537 5.42113 12.9079 5.64351 13.1027 6.13171C13.2525 6.50729 13.6785 6.69042 14.0543 6.54049C14.4299 6.39061 14.6129 5.9646 14.463 5.58893C13.5948 3.41305 11.407 3.41032 10.5377 5.58893C10.3878 5.9646 10.5708 6.39061 10.9464 6.54049Z" fill="#828181"/>
<path d="M10.0371 13.1023C9.54882 12.9075 9.32644 12.6537 9.32644 12.5003C9.32644 12.3466 9.54882 12.0924 10.0371 11.8976C10.4127 11.7477 10.5957 11.3217 10.4458 10.946C10.2959 10.5704 9.87001 10.3874 9.49424 10.5373C7.31837 11.4055 7.31568 13.5933 9.49424 14.4626C9.87142 14.613 10.2965 14.428 10.4458 14.0539C10.5957 13.6783 10.4127 13.2522 10.0371 13.1023Z" fill="#828181"/>
<path d="M15.5049 10.5373C15.129 10.3874 14.7031 10.5704 14.5533 10.9461C14.4034 11.3217 14.5864 11.7477 14.962 11.8976C15.4503 12.0924 15.6727 12.3462 15.6727 12.4997C15.6727 12.6533 15.4503 12.9075 14.962 13.1023C14.5864 13.2522 14.4034 13.6782 14.5533 14.0539C14.7032 14.4296 15.1293 14.6126 15.5049 14.4627C17.6808 13.5944 17.6834 11.4066 15.5049 10.5373Z" fill="#828181"/>
<path d="M6.10878 11.0233C6.71186 11.0233 7.06474 10.3214 6.68345 9.83762C6.35806 9.42475 6.29235 9.09379 6.36909 8.96095C6.44593 8.82782 6.76537 8.71895 7.28579 8.79428C7.68617 8.85247 8.0576 8.57483 8.11555 8.1746C8.17355 7.77437 7.8961 7.40285 7.49587 7.34485C5.17811 7.00867 4.08073 8.90159 5.53324 10.7443C5.67765 10.9276 5.89212 11.0233 6.10878 11.0233Z" fill="#828181"/>
<path d="M7.28636 16.2058C6.76613 16.2811 6.44661 16.1725 6.36996 16.0397C6.29311 15.9065 6.35858 15.5752 6.68402 15.1624C6.93437 14.8448 6.87989 14.3843 6.56226 14.134C6.24468 13.8836 5.78416 13.9381 5.53381 14.2558C4.07467 16.1069 5.1906 17.9896 7.49644 17.6552C7.89667 17.5972 8.17416 17.2257 8.11612 16.8254C8.05812 16.4252 7.68606 16.1476 7.28636 16.2058Z" fill="#828181"/>
<path d="M14.0542 18.4596C13.6784 18.3095 13.2525 18.4927 13.1027 18.8683C12.9079 19.3565 12.654 19.5789 12.5007 19.5789C12.347 19.5789 12.0928 19.3565 11.898 18.8683C11.7481 18.4927 11.3221 18.3096 10.9464 18.4596C10.5708 18.6094 10.3878 19.0354 10.5377 19.4111C11.4059 21.587 13.5937 21.5897 14.4629 19.4111C14.6128 19.0354 14.4298 18.6094 14.0542 18.4596Z" fill="#828181"/>
<path d="M18.4375 14.134C18.1199 14.3843 18.0654 14.8448 18.3157 15.1624C18.6411 15.5753 18.7068 15.9063 18.6301 16.0391C18.5533 16.1722 18.2337 16.2811 17.7134 16.2058C17.313 16.1477 16.9416 16.4252 16.8836 16.8255C16.8256 17.2257 17.1031 17.5972 17.5033 17.6552C19.8061 17.9891 20.9268 16.109 19.4659 14.2558C19.2156 13.9381 18.7552 13.8836 18.4375 14.134Z" fill="#828181"/>
<path d="M17.7134 8.79427C18.2334 8.71889 18.5531 8.82752 18.6298 8.96036C18.7066 9.09349 18.6411 9.42479 18.3157 9.83761C17.9348 10.3209 18.2865 11.0233 18.8904 11.0233C19.107 11.0233 19.3214 10.9276 19.4659 10.7443C20.9163 8.90421 19.8243 7.00818 17.5033 7.34484C17.1031 7.40284 16.8256 7.77431 16.8837 8.17459C16.9416 8.57482 17.3133 8.85242 17.7134 8.79427Z" fill="#828181"/>
</g>
<defs>
<clipPath id="clip0_286_1382">
<rect width="25" height="25" fill="white"/>
</clipPath>
</defs>
</svg>
