<svg width="91" height="91" viewBox="0 0 91 91" fill="none" xmlns="http://www.w3.org/2000/svg">
<circle cx="45.5391" cy="45.0427" r="45" fill="#F2F5F8"/>
<rect x="25.8047" y="27.3483" width="38.5" height="38.5" rx="3.25" stroke="#FFBB95" stroke-width="1.5"/>
<path d="M44.743 36.8002C42.0959 36.8002 39.9431 38.953 39.9431 41.6002C39.9431 44.2473 42.0959 46.4001 44.743 46.4001C47.3902 46.4001 49.543 44.2473 49.543 41.6002C49.543 38.953 47.3902 36.8002 44.743 36.8002ZM44.743 44.0001C43.4195 44.0001 42.3431 42.9238 42.3431 41.6002C42.3431 40.2766 43.4195 39.2002 44.743 39.2002C46.0666 39.2002 47.143 40.2766 47.143 41.6002C47.143 42.9238 46.0666 44.0001 44.743 44.0001Z" fill="#FFBB95"/>
<path d="M51.1074 46.2669C50.6382 45.7977 49.8799 45.7977 49.4107 46.2669C46.8379 48.8397 42.65 48.8397 40.076 46.2669C39.6068 45.7977 38.8484 45.7977 38.3792 46.2669C37.91 46.7361 37.91 47.4945 38.3792 47.9649C39.872 49.4577 41.7644 50.3084 43.7156 50.5304L40.2944 53.9516C39.8252 54.4208 39.8252 55.1792 40.2944 55.6484C40.7636 56.1176 41.522 56.1176 41.9912 55.6484L44.7427 52.8968L47.4943 55.6484C47.7283 55.8824 48.0355 56 48.3427 56C48.6499 56 48.9571 55.8824 49.1911 55.6484C49.6603 55.1792 49.6603 54.4208 49.1911 53.9516L45.7699 50.5304C47.7211 50.3084 49.6135 49.4577 51.1062 47.9649C51.5754 47.4957 51.5754 46.7361 51.1074 46.2669Z" fill="#FFBB95"/>
</svg>
