<svg width="15" height="15" viewBox="0 0 15 15" fill="none" xmlns="http://www.w3.org/2000/svg">
<path d="M13.2268 5.98905L3.10969 0.231025C2.03651 -0.381647 0.942383 0.288401 0.942383 1.49329V13.5137C0.942383 14.5345 1.60694 15 2.2246 15C2.51547 15 2.81183 14.9082 3.10619 14.7291L13.2687 8.50859C13.7796 8.19477 14.0664 7.73028 14.0575 7.23385C14.049 6.73693 13.7466 6.28291 13.2268 5.98905ZM12.5877 7.3975L2.42567 13.6165C2.35732 13.6584 2.30343 13.6794 2.26651 13.6899C2.25654 13.6529 2.24656 13.5961 2.24656 13.5137V1.49379C2.24656 1.37006 2.26901 1.30769 2.26901 1.29223C2.30892 1.29472 2.37877 1.31518 2.46658 1.36507L12.5822 7.12309C12.7069 7.19444 12.7438 7.2563 12.7558 7.24283C12.7493 7.2598 12.7069 7.32316 12.5877 7.3975Z" fill="white"/>
</svg>
