<svg width="65" height="65" viewBox="0 0 65 65" fill="none" xmlns="http://www.w3.org/2000/svg">
<g clip-path="url(#clip0_860_1389)">
<path d="M39.8515 26.4622L30.0852 35.6866L25.3981 30.8646C24.8785 30.3296 24.0229 30.3174 23.4885 30.8371C22.9535 31.3572 22.9413 32.2123 23.4609 32.7472L29.0825 38.518C29.6047 39.0434 30.4487 39.0614 30.9927 38.5582L41.7347 28.4263C41.9955 28.1803 42.1479 27.8406 42.158 27.4823C42.168 27.1241 42.0352 26.7765 41.7886 26.5161C41.2659 25.9727 40.4039 25.9489 39.8515 26.4622Z" fill="#89AFCE"/>
<path d="M32.6046 12.2659C21.4429 12.2659 12.3672 21.3417 12.3672 32.5033C12.3672 43.6654 21.4429 52.7412 32.6046 52.7412C43.7667 52.7412 52.8424 43.6654 52.8424 32.5033C52.8424 21.3417 43.7667 12.2659 32.6046 12.2659ZM32.6046 50.032C22.933 50.032 15.0764 42.1616 15.0764 32.5033C15.0764 22.845 22.933 14.9751 32.6046 14.9751C42.2856 14.9751 50.1333 22.8227 50.1333 32.5033C50.1333 42.1838 42.2856 50.032 32.6046 50.032Z" fill="#89AFCE"/>
<path d="M60.4555 25.053L60.9026 17.0202C60.9338 16.481 60.6407 15.9746 60.1576 15.7334L53.0053 12.1167L49.3886 4.96437C49.1426 4.4855 48.6394 4.19395 48.1017 4.21935L40.0552 4.65324L33.3499 0.223306C32.8981 -0.0745981 32.3123 -0.0745981 31.8599 0.223306L25.1547 4.65324L17.1224 4.20612C16.5826 4.17437 16.0768 4.46751 15.8355 4.95114L12.2183 12.1035L5.0665 15.7201C4.5871 15.9657 4.29608 16.4689 4.32148 17.007L4.76807 25.0398L0.338663 31.745C0.0407583 32.1969 0.0407583 32.7827 0.338663 33.2351L4.75484 39.9535L4.30772 47.9864C4.2765 48.5256 4.56911 49.0319 5.05274 49.2732L12.2051 52.8899L15.8217 60.0422C16.0673 60.5216 16.5705 60.8126 17.1086 60.7872L25.1414 60.3401L31.8467 64.7695C32.2959 65.077 32.8875 65.077 33.3367 64.7695L40.0419 60.3401L48.0748 60.7872C48.6139 60.8185 49.1198 60.5253 49.3616 60.0422L52.9783 52.8899L60.1306 49.2732C60.6095 49.0272 60.901 48.5245 60.8756 47.9864L60.4285 39.9535L64.8579 33.2483C65.1558 32.7964 65.1558 32.2102 64.8579 31.7583L60.4555 25.053ZM57.9358 38.8429C57.7707 39.0852 57.6939 39.3768 57.7193 39.6694L58.1389 47.2683L51.3797 50.6818C51.1221 50.8109 50.9131 51.0204 50.7839 51.2781L47.3699 58.0373L39.771 57.6177C39.48 57.6071 39.1927 57.6823 38.9445 57.8341L32.6049 62.0201L26.2658 57.8341C26.0457 57.6854 25.7864 57.605 25.5208 57.604H25.4531L17.8536 58.0241L14.4402 51.2644C14.3111 51.0067 14.102 50.7977 13.8438 50.6686L7.07087 47.2683L7.49101 39.6694C7.50159 39.3784 7.42592 39.091 7.27406 38.8429L3.08859 32.5033L7.27406 26.1637C7.43968 25.9219 7.51641 25.6298 7.49101 25.3377L7.07087 17.7383L13.8306 14.3248C14.0883 14.1957 14.2973 13.9867 14.4264 13.729L17.8399 6.96927L25.4393 7.3894C25.7298 7.39946 26.0172 7.32432 26.2658 7.17246L32.6049 2.98699L38.9445 7.17246C39.1868 7.33808 39.4789 7.4148 39.771 7.3894L47.3699 6.96927L50.7839 13.729C50.9131 13.9867 51.1221 14.1957 51.3797 14.3248L58.1389 17.7383L57.7193 25.3377C57.7088 25.6282 57.7844 25.9155 57.9358 26.1637L62.1218 32.5033L57.9358 38.8429Z" fill="#89AFCE"/>
</g>
<defs>
<clipPath id="clip0_860_1389">
<rect width="65" height="65" fill="white"/>
</clipPath>
</defs>
</svg>
