<svg width="65" height="65" viewBox="0 0 65 65" fill="none" xmlns="http://www.w3.org/2000/svg">
<g clip-path="url(#clip0_860_1385)">
<path d="M62.6157 34.2038H55.0742C54.8428 31.2182 52.6316 28.7751 49.7469 28.1733V15.5689C49.7469 14.8677 49.1786 14.2994 48.4774 14.2994H40.6549V11.153C40.6548 5.0031 35.6273 0 29.4475 0C28.0326 0 26.6782 0.262285 25.4306 0.740518C24.183 0.262285 22.8286 0 21.4137 0C15.2339 0 10.2064 5.0031 10.2064 11.153V14.2994H2.38379C1.68263 14.2994 1.11426 14.8677 1.11426 15.5689V58.9791C1.11426 62.2989 3.81912 65 7.14377 65H57.6462C61.0864 65 63.8852 62.2012 63.8852 58.761V35.4734C63.8852 34.7722 63.3167 34.2038 62.6157 34.2038ZM52.5225 34.2038H44.203C44.4614 32.1581 46.2283 30.5702 48.3628 30.5702C50.4972 30.5702 52.2642 32.1581 52.5225 34.2038ZM47.2078 16.8384V28.1296C44.2118 28.6467 41.8887 31.1396 41.6514 34.2038H34.1491C33.4481 34.2038 32.8796 34.7723 32.8796 35.4734V58.7611C32.8796 60.1451 33.3325 61.4251 34.0979 62.4611H11.4758V16.8384H18.2401V23.3493C18.2401 24.0505 18.8086 24.6189 19.5096 24.6189C20.2108 24.6189 20.7792 24.0505 20.7792 23.3493V16.8384H38.1158V23.3493C38.1158 24.0505 38.6843 24.6189 39.3853 24.6189C40.0863 24.6189 40.6548 24.0505 40.6548 23.3493V16.8384H47.2078ZM25.4306 3.52104C28.1934 4.96272 30.0819 7.84278 30.0819 11.153V14.2994H20.7793V11.153C20.7793 7.84278 22.6678 4.96272 25.4306 3.52104ZM29.4475 2.53906C34.2272 2.53906 38.1158 6.40326 38.1158 11.153V14.2994H32.621V11.153C32.621 7.71177 31.0468 4.6296 28.5774 2.58223C28.8637 2.55366 29.1539 2.53906 29.4475 2.53906ZM21.4137 2.53906C21.7073 2.53906 21.9975 2.55366 22.2838 2.5821C19.8144 4.6296 18.2402 7.71164 18.2402 11.1528V14.2992H12.7454V11.153C12.7453 6.40326 16.6339 2.53906 21.4137 2.53906ZM3.65332 58.9791V16.8384H8.93673V62.4609H7.14377C5.21916 62.4609 3.65332 60.899 3.65332 58.9791ZM61.3461 58.761C61.3461 60.801 59.6864 62.4609 57.6462 62.4609H39.1184C37.0784 62.4609 35.4186 60.8012 35.4186 58.761V36.7429H41.6315V41.7601C41.6315 42.4611 42.2 43.0296 42.901 43.0296C43.602 43.0296 44.1705 42.4611 44.1705 41.7601V36.7429H52.5552V41.7601C52.5552 42.4611 53.1235 43.0296 53.8247 43.0296C54.5257 43.0296 55.0942 42.4611 55.0942 41.7601V36.7429H61.3461V58.761Z" fill="#89AFCE"/>
</g>
<defs>
<clipPath id="clip0_860_1385">
<rect width="65" height="65" fill="white"/>
</clipPath>
</defs>
</svg>
