<svg width="28" height="28" viewBox="0 0 28 28" fill="none" xmlns="http://www.w3.org/2000/svg">
<path d="M7.30004 6.80992C7.51004 6.59992 8.22004 6.04992 8.22004 6.04992C8.34198 5.95009 8.48267 5.8757 8.63383 5.83114C8.78499 5.78658 8.94354 5.77274 9.10013 5.79045C9.25672 5.80816 9.40817 5.85706 9.54556 5.93425C9.68294 6.01145 9.80347 6.11538 9.90004 6.23992L11.52 8.29992C11.7015 8.53536 11.7931 8.82776 11.7785 9.12466C11.7638 9.42155 11.6438 9.7035 11.44 9.91992L10.67 10.7299C10.5622 10.8376 10.4878 10.9743 10.4559 11.1233C10.4239 11.2724 10.4358 11.4275 10.49 11.5699C10.8224 12.461 11.3137 13.2843 11.94 13.9999C12.7157 14.7317 13.5672 15.3787 14.48 15.9299C14.693 16.0521 14.9399 16.1016 15.1835 16.0709C15.4271 16.0402 15.654 15.9311 15.83 15.7599L16.55 15.0699C16.7315 14.8729 16.9775 14.7474 17.2435 14.7162C17.5096 14.685 17.7779 14.7502 18 14.8999L20.13 16.3199C20.2773 16.4188 20.4029 16.5467 20.4993 16.6956C20.5957 16.8445 20.6608 17.0115 20.6907 17.1863C20.7207 17.3612 20.7148 17.5403 20.6734 17.7128C20.632 17.8853 20.556 18.0477 20.45 18.1899L20.07 18.7099C19.6957 19.211 19.1585 19.566 18.5507 19.7138C17.943 19.8617 17.3027 19.7931 16.74 19.5199C14.6197 18.5803 12.6778 17.2812 11 15.6799C9.68204 14.1702 8.52885 12.5243 7.56004 10.7699L6.76004 9.04992C6.62407 8.75486 6.57446 8.42732 6.61693 8.10522C6.6594 7.78313 6.79223 7.47965 7.00004 7.22992C7.08819 7.08182 7.18854 6.94134 7.30004 6.80992ZM19.3 12.2799C19.3 12.1399 19.3 12.0099 19.3 11.8699C19.3001 10.5525 18.7802 9.2882 17.8533 8.35195C16.9264 7.41569 15.6674 6.88309 14.35 6.86992H14.13C14.062 6.87498 13.9983 6.90564 13.9519 6.95574C13.9055 7.00584 13.8799 7.07165 13.88 7.13992C13.8813 7.17496 13.8896 7.20939 13.9045 7.24114C13.9194 7.27289 13.9406 7.30129 13.9667 7.32465C13.9929 7.348 14.0235 7.36582 14.0567 7.37704C14.0899 7.38826 14.1251 7.39264 14.16 7.38992H14.35C15.5241 7.39256 16.6494 7.86014 17.4796 8.69035C18.3098 9.52057 18.7774 10.6458 18.78 11.8199C18.78 11.9399 18.78 12.0699 18.78 12.1899C18.7773 12.2241 18.7814 12.2585 18.792 12.291C18.8026 12.3236 18.8195 12.3538 18.8418 12.3798C18.8641 12.4059 18.8913 12.4272 18.9219 12.4427C18.9525 12.4581 18.9859 12.4674 19.02 12.4699C19.0784 12.4721 19.1358 12.4545 19.183 12.42C19.2302 12.3855 19.2644 12.3362 19.28 12.2799H19.3ZM17.41 11.6899C17.4197 11.5768 17.4197 11.463 17.41 11.3499C17.4074 10.6453 17.1263 9.9702 16.628 9.47192C16.1298 8.97365 15.4547 8.69255 14.75 8.68992H14.58C14.5111 8.69979 14.4484 8.73496 14.404 8.78857C14.3597 8.84218 14.3369 8.9104 14.34 8.97992C14.3438 9.01415 14.3542 9.04731 14.3709 9.07746C14.3875 9.1076 14.41 9.13415 14.437 9.15555C14.4639 9.17694 14.4949 9.19277 14.528 9.2021C14.5612 9.21144 14.5959 9.21409 14.63 9.20992H14.75C15.0306 9.20992 15.3084 9.26534 15.5675 9.37301C15.8265 9.48067 16.0618 9.63846 16.2597 9.83731C16.4576 10.0362 16.6143 10.2722 16.7208 10.5317C16.8272 10.7913 16.8814 11.0694 16.88 11.3499C16.885 11.4399 16.885 11.53 16.88 11.6199C16.8744 11.6541 16.8756 11.6891 16.8836 11.7228C16.8917 11.7565 16.9064 11.7883 16.9269 11.8162C16.9474 11.8442 16.9732 11.8678 17.003 11.8856C17.0327 11.9034 17.0657 11.9151 17.1 11.9199C17.1342 11.9241 17.1689 11.9214 17.202 11.9121C17.2352 11.9028 17.2661 11.8869 17.2931 11.8655C17.3201 11.8441 17.3426 11.8176 17.3592 11.7875C17.3758 11.7573 17.3863 11.7242 17.39 11.6899H17.41ZM21 12.8399C21 12.5899 21 12.3299 21 12.0799C20.9924 10.2183 20.255 8.434 18.9461 7.11019C17.6373 5.78638 15.8614 5.02871 14 4.99992H13.6C13.5663 5.00116 13.5332 5.00922 13.5026 5.02361C13.4721 5.038 13.4448 5.05843 13.4224 5.08366C13.3999 5.10889 13.3829 5.1384 13.3721 5.17041C13.3614 5.20242 13.3573 5.23627 13.36 5.26992C13.3651 5.33801 13.3958 5.40165 13.4459 5.44804C13.496 5.49442 13.5618 5.52011 13.63 5.51992H14C15.7434 5.51992 17.4156 6.21179 18.6493 7.44362C19.883 8.67545 20.5774 10.3465 20.58 12.0899C20.58 12.3199 20.58 12.5599 20.58 12.7999C20.5759 12.8336 20.5786 12.8677 20.588 12.9002C20.5975 12.9328 20.6135 12.9631 20.635 12.9893C20.6565 13.0154 20.6831 13.037 20.7132 13.0526C20.7433 13.0682 20.7762 13.0775 20.81 13.0799C20.8623 13.0638 20.9084 13.0323 20.9423 12.9894C20.9763 12.9466 20.9964 12.8945 21 12.8399ZM17.36 11.6899C17.3697 11.5768 17.3697 11.463 17.36 11.3499C17.3574 10.6453 17.0763 9.9702 16.578 9.47192C16.0798 8.97365 15.4047 8.69255 14.7 8.68992H14.53C14.4612 8.69979 14.3984 8.73496 14.354 8.78857C14.3097 8.84218 14.2869 8.9104 14.29 8.97992C14.2938 9.01415 14.3042 9.04731 14.3209 9.07746C14.3375 9.1076 14.36 9.13415 14.387 9.15555C14.4139 9.17694 14.4449 9.19277 14.478 9.2021C14.5112 9.21144 14.5459 9.21409 14.58 9.20992H14.7C14.9806 9.20992 15.2584 9.26534 15.5175 9.37301C15.7765 9.48067 16.0118 9.63846 16.2097 9.83731C16.4076 10.0362 16.5643 10.2722 16.6708 10.5317C16.7772 10.7913 16.8314 11.0694 16.83 11.3499C16.835 11.4399 16.835 11.53 16.83 11.6199C16.8244 11.6541 16.8256 11.6891 16.8336 11.7228C16.8417 11.7565 16.8564 11.7883 16.8769 11.8162C16.8974 11.8442 16.9232 11.8678 16.953 11.8856C16.9827 11.9034 17.0157 11.9151 17.05 11.9199C17.0877 11.9322 17.1276 11.9357 17.1668 11.9302C17.2061 11.9247 17.2435 11.9103 17.2763 11.8881C17.3091 11.8659 17.3364 11.8365 17.3561 11.8022C17.3758 11.7678 17.3874 11.7294 17.39 11.6899H17.36ZM27.19 9.82992L27.09 15.6799C27.09 20.9799 22.27 24.5399 16.97 24.5399H11.81L9.15004 27.5999C8.99521 27.7699 8.79296 27.8896 8.56942 27.9435C8.34588 27.9975 8.1113 27.9831 7.89599 27.9024C7.68068 27.8216 7.49452 27.6782 7.36155 27.4906C7.22857 27.303 7.1549 27.0798 7.15004 26.8499V23.8499C5.30196 23.1723 3.70378 21.9484 2.56779 20.3408C1.4318 18.7333 0.811762 16.8182 0.790039 14.8499V9.99992C0.790039 4.44992 4.00004 0.39992 10.73 0.0599197C12.14 -0.0100803 16.39 0.0599197 16.39 0.0599197C23.41 -8.02912e-05 27.22 4.04992 27.22 9.82992H27.19ZM25.25 10.2699C25.19 4.87992 22 1.99992 16 1.99992C16 1.99992 12.4 1.99992 11.2 1.99992C5.46004 2.27992 2.83004 5.73992 2.83004 10.3399V14.4299C2.76829 16.0789 3.23719 17.7041 4.16781 19.0667C5.09843 20.4294 6.44166 21.4575 8.00004 21.9999V26.8699C7.99779 26.9162 8.01019 26.9619 8.03546 27.0007C8.06074 27.0395 8.0976 27.0693 8.1408 27.0859C8.18401 27.1025 8.23136 27.1051 8.2761 27.0933C8.32085 27.0814 8.36072 27.0557 8.39004 27.0199L10.57 24.4999L12.37 22.4199H16.58C21.45 22.4199 25.21 19.4199 25.21 15.0699L25.25 10.2699Z" fill="#424242"/>
</svg>
