<svg width="188" height="57" viewBox="0 0 188 57" fill="none" xmlns="http://www.w3.org/2000/svg">
<path d="M51.2637 49.0039C51.2637 50.4844 51.0293 51.5898 50.5605 52.3203C50.0957 53.0508 49.3828 53.416 48.4219 53.416C47.5 53.416 46.7988 53.043 46.3184 52.2969C45.8379 51.5469 45.5977 50.4492 45.5977 49.0039C45.5977 47.5117 45.8301 46.4043 46.2949 45.6816C46.7598 44.959 47.4688 44.5977 48.4219 44.5977C49.3516 44.5977 50.0566 44.9746 50.5371 45.7285C51.0215 46.4824 51.2637 47.5742 51.2637 49.0039ZM46.582 49.0039C46.582 50.25 46.7285 51.1582 47.0215 51.7285C47.3145 52.2949 47.7812 52.5781 48.4219 52.5781C49.0703 52.5781 49.5391 52.291 49.8281 51.7168C50.1211 51.1387 50.2676 50.2344 50.2676 49.0039C50.2676 47.7734 50.1211 46.873 49.8281 46.3027C49.5391 45.7285 49.0703 45.4414 48.4219 45.4414C47.7812 45.4414 47.3145 45.7246 47.0215 46.291C46.7285 46.8535 46.582 47.7578 46.582 49.0039ZM58.1309 49.0039C58.1309 50.4844 57.8965 51.5898 57.4277 52.3203C56.9629 53.0508 56.25 53.416 55.2891 53.416C54.3672 53.416 53.666 53.043 53.1855 52.2969C52.7051 51.5469 52.4648 50.4492 52.4648 49.0039C52.4648 47.5117 52.6973 46.4043 53.1621 45.6816C53.627 44.959 54.3359 44.5977 55.2891 44.5977C56.2188 44.5977 56.9238 44.9746 57.4043 45.7285C57.8887 46.4824 58.1309 47.5742 58.1309 49.0039ZM53.4492 49.0039C53.4492 50.25 53.5957 51.1582 53.8887 51.7285C54.1816 52.2949 54.6484 52.5781 55.2891 52.5781C55.9375 52.5781 56.4062 52.291 56.6953 51.7168C56.9883 51.1387 57.1348 50.2344 57.1348 49.0039C57.1348 47.7734 56.9883 46.873 56.6953 46.3027C56.4062 45.7285 55.9375 45.4414 55.2891 45.4414C54.6484 45.4414 54.1816 45.7246 53.8887 46.291C53.5957 46.8535 53.4492 47.7578 53.4492 49.0039ZM59.625 52.6777C59.625 52.416 59.6836 52.2188 59.8008 52.0859C59.9219 51.9492 60.0938 51.8809 60.3164 51.8809C60.543 51.8809 60.7188 51.9492 60.8438 52.0859C60.9727 52.2188 61.0371 52.416 61.0371 52.6777C61.0371 52.9316 60.9727 53.127 60.8438 53.2637C60.7148 53.4004 60.5391 53.4688 60.3164 53.4688C60.1172 53.4688 59.9512 53.4082 59.8184 53.2871C59.6895 53.1621 59.625 52.959 59.625 52.6777ZM59.625 47.5039C59.625 46.9766 59.8555 46.7129 60.3164 46.7129C60.7969 46.7129 61.0371 46.9766 61.0371 47.5039C61.0371 47.7578 60.9727 47.9531 60.8438 48.0898C60.7148 48.2266 60.5391 48.2949 60.3164 48.2949C60.1172 48.2949 59.9512 48.2344 59.8184 48.1133C59.6895 47.9883 59.625 47.7852 59.625 47.5039ZM65.1973 48.0664C66.0996 48.0664 66.8086 48.291 67.3242 48.7402C67.8438 49.1855 68.1035 49.7969 68.1035 50.5742C68.1035 51.4609 67.8203 52.1562 67.2539 52.6602C66.6914 53.1641 65.9141 53.416 64.9219 53.416C63.957 53.416 63.2207 53.2617 62.7129 52.9531V52.0156C62.9863 52.1914 63.3262 52.3301 63.7324 52.4316C64.1387 52.5293 64.5391 52.5781 64.9336 52.5781C65.6211 52.5781 66.1543 52.416 66.5332 52.0918C66.916 51.7676 67.1074 51.2988 67.1074 50.6855C67.1074 49.4902 66.375 48.8926 64.9102 48.8926C64.5391 48.8926 64.043 48.9492 63.4219 49.0625L62.918 48.7402L63.2402 44.7324H67.5V45.6289H64.0723L63.8555 48.2012C64.3047 48.1113 64.752 48.0664 65.1973 48.0664ZM75.0645 49.0039C75.0645 50.4844 74.8301 51.5898 74.3613 52.3203C73.8965 53.0508 73.1836 53.416 72.2227 53.416C71.3008 53.416 70.5996 53.043 70.1191 52.2969C69.6387 51.5469 69.3984 50.4492 69.3984 49.0039C69.3984 47.5117 69.6309 46.4043 70.0957 45.6816C70.5605 44.959 71.2695 44.5977 72.2227 44.5977C73.1523 44.5977 73.8574 44.9746 74.3379 45.7285C74.8223 46.4824 75.0645 47.5742 75.0645 49.0039ZM70.3828 49.0039C70.3828 50.25 70.5293 51.1582 70.8223 51.7285C71.1152 52.2949 71.582 52.5781 72.2227 52.5781C72.8711 52.5781 73.3398 52.291 73.6289 51.7168C73.9219 51.1387 74.0684 50.2344 74.0684 49.0039C74.0684 47.7734 73.9219 46.873 73.6289 46.3027C73.3398 45.7285 72.8711 45.4414 72.2227 45.4414C71.582 45.4414 71.1152 45.7246 70.8223 46.291C70.5293 46.8535 70.3828 47.7578 70.3828 49.0039Z" fill="#828181"/>
<circle cx="17.5" cy="17.7988" r="17.5" fill="#89AFCE"/>
<path d="M14.25 12.1694L24 17.7986L14.25 23.4277L14.25 12.1694Z" stroke="white"/>
<rect x="45" y="14" width="1" height="10" fill="#C4C4C4"/>
<rect x="91" y="17" width="1" height="5" fill="#C4C4C4"/>
<rect x="172" y="17" width="1" height="5" fill="#C4C4C4"/>
<rect x="137" y="17" width="1" height="5" fill="#C4C4C4"/>
<rect x="68" y="12" width="1" height="15" fill="#C4C4C4"/>
<rect x="114" width="1" height="35" fill="#C4C4C4"/>
<rect x="56" width="1" height="35" fill="#C4C4C4"/>
<rect x="102" y="19" width="1" height="1" fill="#C4C4C4"/>
<rect x="183" y="19" width="1" height="1" fill="#C4C4C4"/>
<rect x="148" y="19" width="1" height="1" fill="#C4C4C4"/>
<rect x="79" y="15" width="1" height="10" fill="#C4C4C4"/>
<rect x="160" y="15" width="1" height="10" fill="#C4C4C4"/>
<rect x="125" width="1" height="35" fill="#C4C4C4"/>
<rect x="49" y="6" width="1" height="25" fill="#C4C4C4"/>
<rect x="95" y="19" width="1" height="1" fill="#C4C4C4"/>
<rect x="176" y="19" width="1" height="1" fill="#C4C4C4"/>
<rect x="141" y="19" width="1" height="1" fill="#C4C4C4"/>
<rect x="72" y="6" width="1" height="25" fill="#C4C4C4"/>
<rect x="118" y="6" width="1" height="25" fill="#C4C4C4"/>
<rect x="60" y="6" width="1" height="25" fill="#C4C4C4"/>
<rect x="106" y="19" width="1" height="1" fill="#C4C4C4"/>
<rect x="187" y="19" width="1" height="1" fill="#C4C4C4"/>
<rect x="152" y="19" width="1" height="1" fill="#C4C4C4"/>
<rect x="83" y="6" width="1" height="25" fill="#C4C4C4"/>
<rect x="164" y="6" width="1" height="25" fill="#C4C4C4"/>
<rect x="129" y="6" width="1" height="25" fill="#C4C4C4"/>
<rect x="53" y="6" width="1" height="25" fill="#C4C4C4"/>
<rect x="99" y="19" width="1" height="1" fill="#C4C4C4"/>
<rect x="180" y="19" width="1" height="1" fill="#C4C4C4"/>
<rect x="145" y="19" width="1" height="1" fill="#C4C4C4"/>
<rect x="76" y="6" width="1" height="25" fill="#C4C4C4"/>
<rect x="122" y="6" width="1" height="25" fill="#C4C4C4"/>
<rect x="64" y="17" width="1" height="5" fill="#C4C4C4"/>
<rect x="110" y="19" width="1" height="1" fill="#C4C4C4"/>
<rect x="156" y="19" width="1" height="1" fill="#C4C4C4"/>
<rect x="87" y="6" width="1" height="25" fill="#C4C4C4"/>
<rect x="168" y="6" width="1" height="25" fill="#C4C4C4"/>
<rect x="133" y="6" width="1" height="25" fill="#C4C4C4"/>
</svg>
