<svg width="31" height="30" viewBox="0 0 31 30" fill="none" xmlns="http://www.w3.org/2000/svg">
<g clip-path="url(#clip0_860_1438)">
<path d="M9.66763 19.3948H9.66901C9.67015 19.3948 9.6713 19.3945 9.67244 19.3945H25.6074C25.9997 19.3945 26.3447 19.1343 26.4525 18.7571L29.9681 6.45241C30.0438 6.18713 29.9907 5.90195 29.8248 5.68176C29.6586 5.46158 29.3989 5.33203 29.123 5.33203H7.64066L7.01238 2.50465C6.92288 2.10251 6.56628 1.81641 6.1543 1.81641H0.880859C0.395401 1.81641 0.00195312 2.20985 0.00195312 2.69531C0.00195312 3.18077 0.395401 3.57422 0.880859 3.57422H5.44934C5.56058 4.07524 8.45593 17.1046 8.62256 17.8542C7.68849 18.2602 7.0332 19.1915 7.0332 20.2734C7.0332 21.7273 8.21607 22.9102 9.66992 22.9102H25.6074C26.0929 22.9102 26.4863 22.5167 26.4863 22.0312C26.4863 21.5458 26.0929 21.1523 25.6074 21.1523H9.66992C9.18538 21.1523 8.79102 20.758 8.79102 20.2734C8.79102 19.7896 9.18401 19.3959 9.66763 19.3948ZM27.9578 7.08984L24.9444 17.6367H10.3749L8.03113 7.08984H27.9578Z" fill="white"/>
<path d="M8.79102 25.5469C8.79102 27.0007 9.97388 28.1836 11.4277 28.1836C12.8816 28.1836 14.0645 27.0007 14.0645 25.5469C14.0645 24.093 12.8816 22.9102 11.4277 22.9102C9.97388 22.9102 8.79102 24.093 8.79102 25.5469ZM11.4277 24.668C11.9123 24.668 12.3066 25.0623 12.3066 25.5469C12.3066 26.0314 11.9123 26.4258 11.4277 26.4258C10.9432 26.4258 10.5488 26.0314 10.5488 25.5469C10.5488 25.0623 10.9432 24.668 11.4277 24.668Z" fill="white"/>
<path d="M21.2129 25.5469C21.2129 27.0007 22.3958 28.1836 23.8496 28.1836C25.3035 28.1836 26.4863 27.0007 26.4863 25.5469C26.4863 24.093 25.3035 22.9102 23.8496 22.9102C22.3958 22.9102 21.2129 24.093 21.2129 25.5469ZM23.8496 24.668C24.3342 24.668 24.7285 25.0623 24.7285 25.5469C24.7285 26.0314 24.3342 26.4258 23.8496 26.4258C23.3651 26.4258 22.9707 26.0314 22.9707 25.5469C22.9707 25.0623 23.3651 24.668 23.8496 24.668Z" fill="white"/>
</g>
<defs>
<clipPath id="clip0_860_1438">
<rect width="30" height="30" fill="white" transform="translate(0.00195312)"/>
</clipPath>
</defs>
</svg>
