<svg width="25" height="25" viewBox="0 0 25 25" fill="none" xmlns="http://www.w3.org/2000/svg">
<g clip-path="url(#clip0_286_1368)">
<path d="M22.4749 10.8167C22.3982 8.84294 22.0761 4.40835 20.7249 1.36794C20.4883 0.84172 19.9223 0.545769 19.3552 0.651736C18.7881 0.757702 18.3671 1.23805 18.3365 1.81419C17.999 3.76419 17.6911 8.89752 18.1432 11.8142C17.8382 11.9921 17.5445 12.1763 17.2682 12.3609C14.5636 14.1667 13.1299 16.9684 12.5003 18.5329C11.8707 16.9684 10.437 14.1667 7.73154 12.3617C7.45445 12.1771 7.1607 11.9929 6.85654 11.815C7.30862 8.89835 7.0007 3.76419 6.6632 1.81502C6.63281 1.23861 6.21169 0.757967 5.64427 0.652066C5.07686 0.546164 4.51072 0.842547 4.27445 1.36919C2.92445 4.40835 2.60237 8.84294 2.5257 10.8167C0.908249 12.1656 -0.0186767 14.169 0.000285355 16.275V16.4584C0.000285355 16.6342 0.008202 20.7984 0.666952 23.4384C0.807742 23.9922 1.30802 24.3787 1.87945 24.375H23.1211C23.6926 24.3787 24.1928 23.9922 24.3336 23.4384C24.9924 20.7984 25.0003 16.6342 25.0003 16.4584V16.275C25.0192 14.169 24.0923 12.1656 22.4749 10.8167ZM18.7503 21.4584C16.3915 21.4584 14.027 20.2171 13.1211 19.685C16.3907 15.7629 21.7424 14.4534 23.7878 14.0842C24.0419 14.7867 24.1702 15.5284 24.167 16.2754C24.167 19.3271 21.9395 21.4584 18.7503 21.4584ZM1.21445 14.0834C3.25612 14.4525 8.60987 15.7621 11.8811 19.6846C10.9749 20.2175 8.61404 21.4584 6.25029 21.4584C3.06112 21.4584 0.833619 19.3271 0.833619 16.2754C0.830801 15.528 0.959717 14.786 1.21445 14.0834ZM19.4128 1.4946C19.6239 1.40175 19.8705 1.49639 19.9653 1.70669C21.2153 4.51752 21.5457 8.64002 21.6345 10.65C21.3547 10.6681 21.0763 10.704 20.8011 10.7575C20.7245 8.94044 20.417 4.77169 19.1995 2.03794C19.1771 1.98659 19.166 1.93103 19.167 1.87502C19.1651 1.71035 19.2619 1.56053 19.4128 1.4946ZM18.9424 3.7696C19.7182 6.35919 19.9245 9.57544 19.977 10.9725C19.617 11.0914 19.2652 11.2339 18.924 11.3992C18.6925 8.86097 18.6987 6.30668 18.9424 3.7696ZM17.7315 13.055C18.942 12.25 20.289 11.5 21.9461 11.4584C22.5611 11.967 23.0687 12.5929 23.4395 13.2996C21.442 13.6813 17.0357 14.8254 13.7311 17.8467C14.6284 15.9308 16.0066 14.2799 17.7315 13.055ZM5.0232 10.9717C5.0757 9.57502 5.28154 6.35794 6.05779 3.76877C6.30149 6.30584 6.30763 8.86014 6.07612 11.3984C5.73506 11.2334 5.38346 11.0911 5.02362 10.9725L5.0232 10.9717ZM5.03487 1.70835C5.13002 1.49892 5.37523 1.40409 5.58654 1.49502C5.73757 1.56077 5.83479 1.7103 5.83362 1.87502C5.8342 1.93246 5.82225 1.98933 5.79862 2.04169C4.58362 4.77585 4.27612 8.94127 4.1982 10.7575C3.92299 10.704 3.64465 10.6681 3.36487 10.65C3.45487 8.64002 3.78737 4.51752 5.03487 1.70835ZM3.05445 11.4584C4.71154 11.4979 6.05862 12.2463 7.26904 13.0534C8.99501 14.2792 10.3739 15.9313 11.2711 17.8488C7.96529 14.8271 3.55862 13.6821 1.56279 13.3013C1.93287 12.5941 2.43993 11.9677 3.05445 11.4584ZM23.5249 23.2367C23.4745 23.4178 23.3091 23.5427 23.1211 23.5417H1.87945C1.69148 23.5427 1.52608 23.4178 1.4757 23.2367C1.20988 22.0447 1.03879 20.8336 0.964035 19.6146C2.15173 21.353 4.14613 22.363 6.25029 22.2917C9.03529 22.2917 11.7128 20.7725 12.5003 20.2854C13.2878 20.7725 15.9653 22.2917 18.7503 22.2917C20.8544 22.363 22.8488 21.353 24.0365 19.6146C23.9619 20.8336 23.7908 22.0447 23.5249 23.2367Z" fill="#828181"/>
</g>
<defs>
<clipPath id="clip0_286_1368">
<rect width="25" height="25" fill="white"/>
</clipPath>
</defs>
</svg>
