<svg width="65" height="65" viewBox="0 0 65 65" fill="none" xmlns="http://www.w3.org/2000/svg">
<g clip-path="url(#clip0_860_1339)">
<path d="M52.8976 40.9773C52.3076 40.9773 51.8289 40.4992 51.8289 39.9086V39.502C51.8289 38.253 50.0467 37.0278 48.2309 37.0278H43.862C43.272 37.0278 42.7939 36.5503 42.7939 35.9597C42.7939 35.3691 43.272 34.891 43.862 34.891H48.2309C50.9436 34.891 53.9657 36.785 53.9657 39.502V39.9086C53.9657 40.4992 53.4876 40.9773 52.8976 40.9773Z" fill="#89AFCE"/>
<path d="M48.6251 27.9459C48.5957 27.9459 48.5664 27.9453 48.537 27.9428C47.9483 27.8939 47.5105 27.3785 47.5594 26.7904L48.0938 20.2688C48.0895 16.5877 45.2429 13.5217 41.744 13.5217H36.2722C32.7726 13.5217 29.9261 16.5877 29.9261 20.3562L30.4561 26.7904C30.505 27.3785 30.0673 27.8939 29.4785 27.9428C28.8941 27.9911 28.3756 27.554 28.3267 26.9652L27.793 20.4437C27.7893 15.4096 31.5945 11.3849 36.2722 11.3849H41.7434C46.4216 11.3849 50.2269 15.4096 50.2269 20.3562L49.6889 26.9652C49.643 27.5234 49.1759 27.9459 48.6251 27.9459Z" fill="#89AFCE"/>
<path d="M39.0073 38.0966C37.7405 38.0966 36.464 37.8931 35.3152 37.5073C34.7558 37.3196 34.4544 36.7131 34.6427 36.1537C34.831 35.5949 35.4363 35.2953 35.9951 35.4806C36.9274 35.7936 37.9686 35.9599 39.0067 35.9599C41.4284 35.9599 43.6691 35.0832 44.8539 33.6715C46.4692 31.7456 47.5544 28.9969 47.5544 26.8326V22.5267C47.5544 21.9654 47.4394 21.5906 47.2132 21.4158C46.4081 20.7885 43.8494 21.4384 41.5922 22.0113C39.5288 22.5352 37.3963 23.0775 35.4638 23.0775C33.0592 23.0775 31.4403 22.2124 30.4713 21.6175C30.4639 21.8566 30.4596 22.1543 30.4596 22.5267V26.8326C30.4596 28.3916 31.0405 30.3315 32.0138 32.0214C32.3085 32.5331 32.1324 33.1861 31.6213 33.4801C31.1095 33.7754 30.4566 33.6 30.1619 33.0876C28.9929 31.0572 28.3223 28.7774 28.3223 26.8326V22.5267C28.3223 20.7096 28.3632 19.6593 29.2088 19.1928C29.9626 18.7704 30.6761 19.224 31.3046 19.6183C32.1397 20.1453 33.4022 20.9407 35.4638 20.9407C37.1286 20.9407 39.1302 20.4315 41.0658 19.9399C44.1943 19.1457 46.8935 18.4585 48.5253 19.7284C49.2993 20.33 49.6912 21.2715 49.6912 22.5267V26.8326C49.6912 29.5031 48.4354 32.7257 46.4906 35.0446C44.8876 36.9558 42.0893 38.0966 39.0073 38.0966Z" fill="#89AFCE"/>
<path d="M48.7577 51.3311C48.2692 51.3311 47.8278 50.993 47.7165 50.4965C47.5875 49.9206 47.95 49.349 48.526 49.2206L61.2059 46.3813C61.6767 46.2982 62.0447 46.064 62.2905 45.7137C62.5363 45.3634 62.6311 44.9385 62.5571 44.5166C62.4593 43.9566 62.0661 43.4859 61.533 43.2878C60.9791 43.083 60.6967 42.4685 60.9021 41.9146C61.1075 41.3613 61.7244 41.0764 62.2746 41.2843C63.5182 41.7447 64.4334 42.8421 64.6621 44.1474C64.8351 45.1317 64.6138 46.1233 64.0397 46.9408C63.4662 47.7588 62.6078 48.3035 61.6235 48.4765L48.9924 51.3054C48.9142 51.3225 48.8353 51.3311 48.7577 51.3311Z" fill="#89AFCE"/>
<path d="M34.3022 57.3288H26.1856C26.1079 57.3288 26.0303 57.3208 25.9539 57.3037L16.3381 55.1669C15.7622 55.0386 15.3984 54.4675 15.5268 53.8922C15.6546 53.3163 16.2244 52.9568 16.8009 53.0803L26.3029 55.192H34.3022C38.4718 55.192 42.5619 53.7571 45.8187 51.152C45.8475 51.1288 45.8774 51.108 45.908 51.0884L61.7225 40.9194C61.7739 40.8858 61.8277 40.8576 61.8833 40.8338C62.2776 40.6669 62.5827 40.3557 62.7435 39.9595C62.9043 39.5621 62.9 39.1256 62.7331 38.7325C62.3877 37.9181 61.4449 37.5372 60.6318 37.8827L44.7568 44.4275C44.6278 44.4807 44.489 44.5076 44.3496 44.5076H24.0488C23.6636 44.5076 23.3084 44.3009 23.1189 43.9659C22.9294 43.6302 22.9349 43.2188 23.133 42.8892L26.3384 37.547C26.531 37.226 26.8789 37.0286 27.2543 37.0286H31.5284C33.516 37.0286 35.1912 35.6652 35.6668 33.8231H24.3985L9.82326 44.5125C9.34638 44.8615 8.67937 44.7564 8.32966 44.2826C7.98118 43.8069 8.08389 43.1381 8.55954 42.7884L23.4172 31.893C23.6 31.7585 23.8214 31.6863 24.0488 31.6863H36.87C37.46 31.6863 37.9387 32.1644 37.9387 32.755C37.9387 36.29 35.0628 39.1659 31.5278 39.1659H27.8595L25.9361 42.3714H44.1381L59.8077 35.9116C61.6962 35.1088 63.8953 36.0002 64.7005 37.8979C65.0906 38.8175 65.0998 39.8336 64.725 40.7604C64.3631 41.6567 63.6844 42.3641 62.8089 42.7627L47.1106 52.8565C43.4827 55.7404 38.9371 57.3288 34.3022 57.3288Z" fill="#89AFCE"/>
<path d="M11.5605 63.3753C11.5036 63.3753 11.4462 63.371 11.3893 63.3619C11.1093 63.316 10.8592 63.1613 10.6935 62.9321L0.202299 48.3782C0.0360045 48.1489 -0.0318585 47.8616 0.0139948 47.5822C0.0592368 47.3028 0.213916 47.0527 0.443794 46.8864L7.37682 41.8884C7.85675 41.5473 8.52377 41.6524 8.86858 42.1305L19.3598 56.6832C19.7053 57.1619 19.597 57.8295 19.1183 58.1749L12.1853 63.1742C12.0025 63.3056 11.783 63.3753 11.5605 63.3753ZM2.56038 47.9955L11.8026 60.8149L17.0024 57.0659L7.76016 44.2465L2.56038 47.9955Z" fill="#89AFCE"/>
<path d="M14.4327 56.2606C14.4327 57.4405 13.4759 58.3974 12.2959 58.3974C11.116 58.3974 10.1592 57.4405 10.1592 56.2606C10.1592 55.08 11.116 54.1232 12.2959 54.1232C13.4759 54.1232 14.4327 55.08 14.4327 56.2606Z" fill="#89AFCE"/>
<path d="M39.0081 8.17934C38.4176 8.17934 37.9395 7.70186 37.9395 7.11126V2.83712C37.9395 2.24653 38.4176 1.76904 39.0081 1.76904C39.5981 1.76904 40.0762 2.24653 40.0762 2.83712V7.11126C40.0762 7.70186 39.5981 8.17934 39.0081 8.17934Z" fill="#89AFCE"/>
<path d="M43.2811 8.1793C43.0078 8.1793 42.7345 8.07536 42.5261 7.86627C42.1085 7.44931 42.1085 6.77313 42.5261 6.35556L46.2653 2.61576C46.6828 2.1988 47.359 2.1988 47.776 2.61576C48.1935 3.03333 48.1935 3.70951 47.776 4.12709L44.0368 7.86627C43.8277 8.07536 43.555 8.1793 43.2811 8.1793Z" fill="#89AFCE"/>
<path d="M34.7337 8.17925C34.4604 8.17925 34.1871 8.07532 33.9786 7.86623L30.7731 4.66078C30.3556 4.24382 30.3556 3.56763 30.7731 3.15006C31.1901 2.7331 31.8663 2.7331 32.2839 3.15006L35.4893 6.35551C35.9063 6.77308 35.9063 7.44927 35.4893 7.86623C35.2802 8.07532 35.0069 8.17925 34.7337 8.17925Z" fill="#89AFCE"/>
</g>
<defs>
<clipPath id="clip0_860_1339">
<rect width="65" height="65" fill="white"/>
</clipPath>
</defs>
</svg>
