<svg width="31" height="28" viewBox="0 0 31 28" fill="none" xmlns="http://www.w3.org/2000/svg">
<path d="M15.248 27.3309C14.8209 27.3309 14.4092 27.1762 14.0883 26.8952C12.8763 25.8354 11.7079 24.8396 10.677 23.9611L10.6718 23.9565C7.64938 21.3809 5.03945 19.1567 3.22351 16.9656C1.19356 14.5161 0.248047 12.1936 0.248047 9.65649C0.248047 7.19144 1.09331 4.91727 2.62796 3.25262C4.18092 1.56828 6.3118 0.640625 8.62877 0.640625C10.3605 0.640625 11.9464 1.18811 13.3424 2.26774C14.0468 2.81271 14.6854 3.47967 15.248 4.25764C15.8108 3.47967 16.4492 2.81271 17.1539 2.26774C18.5499 1.18811 20.1358 0.640625 21.8675 0.640625C24.1842 0.640625 26.3153 1.56828 27.8683 3.25262C29.403 4.91727 30.248 7.19144 30.248 9.65649C30.248 12.1936 29.3027 14.5161 27.2728 16.9654C25.4568 19.1567 22.8471 21.3807 19.8252 23.9561C18.7925 24.8359 17.6222 25.8334 16.4075 26.8956C16.0869 27.1762 15.6749 27.3309 15.248 27.3309ZM8.62877 2.39798C6.80847 2.39798 5.13627 3.12445 3.91976 4.44372C2.68518 5.7829 2.00517 7.6341 2.00517 9.65649C2.00517 11.7904 2.79824 13.6988 4.57642 15.8443C6.29509 17.9182 8.85147 20.0967 11.8114 22.6192L11.8169 22.6238C12.8516 23.5056 14.0246 24.5054 15.2455 25.5729C16.4737 24.5033 17.6485 23.502 18.6854 22.6187C21.645 20.0962 24.2012 17.9182 25.9198 15.8443C27.6978 13.6988 28.4909 11.7904 28.4909 9.65649C28.4909 7.6341 27.8109 5.7829 26.5763 4.44372C25.36 3.12445 23.6876 2.39798 21.8675 2.39798C20.534 2.39798 19.3097 2.82186 18.2287 3.65774C17.2654 4.40298 16.5943 5.34505 16.2009 6.00423C15.9985 6.3432 15.6424 6.54554 15.248 6.54554C14.8537 6.54554 14.4975 6.3432 14.2952 6.00423C13.902 5.34505 13.2309 4.40298 12.2673 3.65774C11.1863 2.82186 9.962 2.39798 8.62877 2.39798Z" fill="white"/>
</svg>
