<svg width="149" height="197" viewBox="0 0 149 197" fill="none" xmlns="http://www.w3.org/2000/svg">
<path d="M6.7399 190.613C6.7399 191.72 6.50765 192.576 6.04972 193.157C5.59117 193.739 4.99107 194.022 4.21472 194.022C3.44925 194.022 2.83088 193.731 2.37664 193.157C1.91687 192.576 1.6838 191.72 1.6838 190.613C1.6838 190.063 1.74412 189.564 1.86332 189.129C1.98129 188.698 2.15219 188.337 2.3711 188.055C2.60068 187.762 2.86678 187.545 3.16222 187.407C3.45909 187.269 3.81321 187.199 4.21472 187.199C4.60084 187.199 4.95311 187.271 5.26168 187.413C5.56861 187.555 5.8343 187.77 6.05198 188.054C6.26761 188.333 6.43769 188.691 6.55771 189.118C6.67855 189.549 6.7399 190.052 6.7399 190.613ZM7.07698 187.209L7.07678 187.209C6.74277 186.827 6.32772 186.527 5.84271 186.316C5.35893 186.106 4.80929 185.999 4.20897 185.999C3.61687 185.999 3.07236 186.103 2.59042 186.307C2.10705 186.512 1.68872 186.815 1.34589 187.21C1.00552 187.614 0.740038 188.103 0.55662 188.663C0.373817 189.221 0.281082 189.877 0.281082 190.613C0.281082 191.33 0.372588 191.982 0.553339 192.551C0.73491 193.124 0.999984 193.613 1.34076 194.005C1.68667 194.407 2.10624 194.714 2.58776 194.917C3.06723 195.119 3.61276 195.221 4.20897 195.221C4.7859 195.221 5.322 195.122 5.8027 194.926C6.28628 194.729 6.71487 194.42 7.07657 194.006C7.42166 193.613 7.68879 193.122 7.87056 192.545C8.05111 191.972 8.14261 191.322 8.14261 190.613C8.14261 189.885 8.04906 189.227 7.86441 188.657C7.67873 188.085 7.41386 187.598 7.07698 187.209Z" fill="black"/>
<path d="M10.5554 187.373H11.4062C11.7578 187.373 12.0551 187.398 12.2894 187.446C12.5173 187.494 12.7194 187.575 12.8897 187.687C13.0822 187.816 13.2274 187.983 13.3216 188.186C13.4176 188.392 13.4662 188.64 13.4662 188.922C13.4662 189.183 13.4293 189.413 13.3565 189.606C13.2845 189.797 13.1669 189.977 13.0071 190.14C12.8313 190.32 12.6066 190.446 12.3393 190.517C12.0621 190.59 11.6914 190.627 11.2375 190.627H10.5554V187.373ZM13.7955 186.738C13.511 186.542 13.1786 186.398 12.8075 186.31C12.4406 186.224 11.9927 186.18 11.4759 186.18H9.19921V195.041H10.5554V191.814H11.4294C12.0551 191.814 12.5816 191.736 12.9944 191.581C13.409 191.426 13.7752 191.193 14.0832 190.889C14.3286 190.644 14.5228 190.344 14.6611 189.997C14.799 189.651 14.869 189.28 14.869 188.892C14.869 188.397 14.7729 187.967 14.5836 187.615C14.3942 187.262 14.1291 186.968 13.7955 186.738Z" fill="black"/>
<path d="M14.8788 187.408H17.7856V195.041H19.1417V187.408H22.0485V186.18H14.8788V187.408Z" fill="black"/>
<path d="M28.6801 190.613C28.6801 191.72 28.4478 192.576 27.9899 193.157C27.5313 193.739 26.9312 194.022 26.1549 194.022C25.3894 194.022 24.7711 193.731 24.3168 193.157C23.857 192.576 23.624 191.72 23.624 190.613C23.624 190.063 23.6843 189.564 23.8035 189.129C23.9215 188.698 24.0924 188.337 24.3113 188.055C24.5409 187.762 24.807 187.545 25.1024 187.407C25.3993 187.269 25.7534 187.199 26.1549 187.199C26.541 187.199 26.8933 187.271 27.2019 187.413C27.5088 187.555 27.7745 187.77 27.9922 188.054C28.2078 188.333 28.3779 188.691 28.4979 189.118C28.6187 189.549 28.6801 190.052 28.6801 190.613ZM29.0172 187.209L29.017 187.209C28.6829 186.827 28.2679 186.527 27.7829 186.316C27.2991 186.106 26.7495 185.999 26.1492 185.999C25.557 185.999 25.0125 186.103 24.5306 186.307C24.0472 186.512 23.6289 186.815 23.2861 187.21C22.9457 187.614 22.6802 188.103 22.4968 188.663C22.314 189.221 22.2213 189.877 22.2213 190.613C22.2213 191.33 22.3128 191.982 22.4935 192.551C22.6751 193.124 22.9402 193.613 23.2809 194.005C23.6268 194.407 24.0464 194.714 24.5279 194.917C25.0074 195.119 25.5529 195.221 26.1492 195.221C26.7261 195.221 27.2622 195.122 27.7429 194.926C28.2264 194.729 28.655 194.42 29.0167 194.006C29.3618 193.613 29.629 193.122 29.8107 192.545C29.9913 191.972 30.0828 191.322 30.0828 190.613C30.0828 189.885 29.9892 189.227 29.8046 188.657C29.6189 188.085 29.354 187.598 29.0172 187.209Z" fill="black"/>
<path d="M31.1392 195.041H32.4953V187.408H36.2724V195.041H37.6286V186.18H31.1392V195.041Z" fill="black"/>
<path d="M39.1792 195.041H44.7966V193.813H40.5353V190.803H44.5059V189.575H40.5353V187.408H44.7966V186.18H39.1792V195.041Z" fill="black"/>
<path d="M50.9165 187.384V193.813H46.9501C47.3692 193.087 47.7211 192.181 47.9966 191.116C48.2847 190.001 48.4603 188.747 48.519 187.384H50.9165ZM52.2727 186.18H47.2365V186.282C47.2365 187.852 47.082 189.32 46.7771 190.645C46.479 191.941 46.0834 193.006 45.6011 193.813H45.0857V197H46.3836V195.018H51.7944V197H53.0923V193.813H52.2727V186.18Z" fill="black"/>
<path d="M55.3481 192.657V186.18H53.9977V195.041H55.3226L59.0727 188.454V195.041H60.4231V186.18H59.046L55.3481 192.657Z" fill="black"/>
<path d="M66.6361 190.216C66.3546 190.315 66.0214 190.4 65.6447 190.469C64.791 190.624 64.0992 190.615 63.7022 190.452C63.5018 190.369 63.3491 190.25 63.2488 190.097C63.1304 189.918 63.0576 189.728 63.0326 189.533C63.0061 189.327 62.9925 189.041 62.9925 188.683V186.18H61.6364V189.259C61.6364 189.704 61.7045 190.097 61.8387 190.425C61.9739 190.756 62.1663 191.032 62.4107 191.244C62.6569 191.453 62.9454 191.608 63.2681 191.703C63.5861 191.796 63.94 191.844 64.3202 191.844C64.7287 191.844 65.125 191.804 65.498 191.725C65.8331 191.655 66.2153 191.551 66.6361 191.417V195.041H67.9922V186.18H66.6361V190.216Z" fill="black"/>
<path d="M69.5429 195.041H75.1603V193.813H70.899V190.803H74.8696V189.575H70.899V187.408H75.1603V186.18H69.5429V195.041Z" fill="black"/>
<path d="M81.8635 186.476C81.6647 186.388 81.4683 186.313 81.2789 186.254C81.0594 186.187 80.8175 186.131 80.5598 186.088C80.3011 186.044 80.0207 186.022 79.7258 186.022C79.1294 186.022 78.5818 186.128 78.0983 186.336C77.6137 186.545 77.1888 186.852 76.8353 187.249C76.4754 187.656 76.1978 188.141 76.0101 188.69C75.8232 189.237 75.7284 189.886 75.7284 190.619C75.7284 191.355 75.8261 192.018 76.0187 192.588C76.212 193.161 76.4894 193.646 76.8424 194.031C77.1959 194.417 77.6223 194.711 78.1096 194.906C78.5942 195.1 79.1321 195.198 79.7084 195.198C80.0588 195.198 80.3483 195.175 80.5685 195.132C80.7867 195.089 81.0264 195.025 81.2806 194.943C81.5237 194.865 81.7344 194.783 81.9071 194.699C82.0752 194.618 82.2543 194.533 82.4439 194.444L82.5027 194.416V192.877H82.2703L82.2403 192.907C82.1534 192.994 82.0329 193.1 81.8819 193.222C81.7326 193.344 81.5516 193.465 81.3442 193.582C81.1314 193.701 80.8844 193.802 80.6103 193.88C80.338 193.959 80.0367 193.999 79.7141 193.999C79.3664 193.999 79.0324 193.928 78.7216 193.79C78.4118 193.651 78.1385 193.442 77.9093 193.169C77.6705 192.886 77.4795 192.532 77.3408 192.118C77.2015 191.703 77.1311 191.198 77.1311 190.619C77.1311 190.073 77.198 189.576 77.3301 189.143C77.461 188.713 77.6463 188.351 77.8802 188.069C78.1173 187.787 78.397 187.571 78.7109 187.428C79.025 187.283 79.3627 187.21 79.7141 187.21C80.0434 187.21 80.3368 187.248 80.5859 187.322C80.837 187.397 81.0729 187.494 81.2863 187.61C81.5077 187.734 81.6979 187.861 81.852 187.989C82.0093 188.119 82.1378 188.23 82.2375 188.322L82.267 188.35H82.5027V186.797L82.4496 186.768C82.2582 186.662 82.0608 186.564 81.8635 186.476Z" fill="black"/>
<path d="M87.159 189.821C87.3641 189.574 87.5504 189.184 87.7127 188.661C87.8656 188.169 88.033 187.832 88.2096 187.661C88.3785 187.497 88.6889 187.414 89.1322 187.414H89.5253V186.18H89.0682C88.4105 186.18 87.8863 186.312 87.5098 186.573C87.1331 186.834 86.8211 187.312 86.5814 187.995C86.5468 188.102 86.5014 188.234 86.4456 188.39C86.3898 188.546 86.3272 188.71 86.2587 188.882C86.0993 189.263 85.8915 189.559 85.641 189.76C85.4151 189.941 85.1088 190.047 84.7292 190.075V186.18H83.3731V195.041H84.7292V191.076H85.3028L88.3608 195.041H90.0852L86.5131 190.41C86.7605 190.238 86.9772 190.04 87.159 189.821Z" fill="black"/>
<path d="M91.8971 192.657V186.18H90.5467V195.041H91.8716L95.6219 188.454V195.041H96.9723V186.18H95.5952L91.8971 192.657Z" fill="black"/>
<path d="M100.175 185.168C100.546 185.543 101.108 185.734 101.846 185.734C102.585 185.734 103.147 185.543 103.518 185.168C103.888 184.794 104.084 184.298 104.1 183.692L104.103 183.587H102.862L102.86 183.687C102.853 184.097 102.766 184.39 102.601 184.56C102.438 184.728 102.184 184.813 101.846 184.813C101.513 184.813 101.259 184.727 101.094 184.557C100.928 184.385 100.84 184.093 100.833 183.687L100.831 183.587H99.5898L99.5926 183.692C99.6086 184.298 99.8046 184.794 100.175 185.168Z" fill="black"/>
<path d="M99.8733 192.657V186.18H98.5229V195.041H99.8478L103.598 188.454V195.041H104.948V186.18H103.571L99.8733 192.657Z" fill="black"/>
<path d="M116.5 194.416V192.877H116.267L116.237 192.907C116.15 192.994 116.03 193.1 115.879 193.222C115.73 193.344 115.549 193.465 115.341 193.582C115.128 193.701 114.881 193.802 114.607 193.881C114.335 193.959 114.034 193.999 113.711 193.999C113.364 193.999 113.03 193.928 112.718 193.79C112.409 193.651 112.136 193.443 111.906 193.169C111.668 192.886 111.477 192.532 111.338 192.118C111.199 191.703 111.128 191.198 111.128 190.619C111.128 190.073 111.195 189.577 111.327 189.143C111.458 188.713 111.643 188.351 111.877 188.069C112.114 187.787 112.394 187.572 112.708 187.428C113.022 187.283 113.36 187.21 113.711 187.21C114.041 187.21 114.334 187.248 114.583 187.322C114.834 187.397 115.07 187.494 115.283 187.61C115.505 187.734 115.695 187.861 115.849 187.989C116.006 188.119 116.135 188.231 116.235 188.322L116.264 188.35H116.5V186.797L116.447 186.768C116.255 186.662 116.058 186.564 115.861 186.476C115.662 186.388 115.465 186.313 115.276 186.254C115.057 186.187 114.815 186.131 114.557 186.088C114.298 186.045 114.018 186.023 113.723 186.023C113.127 186.023 112.579 186.128 112.095 186.336C111.611 186.545 111.186 186.852 110.832 187.249C110.473 187.656 110.195 188.141 110.007 188.691C109.82 189.237 109.725 189.886 109.725 190.619C109.725 191.355 109.823 192.018 110.016 192.588C110.209 193.161 110.486 193.646 110.84 194.031C111.193 194.417 111.619 194.711 112.107 194.906C112.591 195.1 113.129 195.198 113.706 195.198C114.056 195.198 114.345 195.176 114.566 195.132C114.784 195.089 115.024 195.025 115.278 194.943C115.521 194.865 115.732 194.783 115.904 194.699C116.072 194.618 116.251 194.533 116.441 194.444L116.5 194.416Z" fill="black"/>
<path d="M121.331 191.435H118.945L120.135 187.787L121.331 191.435ZM125.666 186.279C125.65 186.802 125.633 187.376 125.614 188C125.594 188.635 125.575 189.127 125.556 189.504C125.506 190.617 125.419 191.515 125.298 192.173C125.181 192.813 124.996 193.261 124.747 193.507C124.673 193.584 124.583 193.642 124.479 193.679C124.37 193.718 124.25 193.737 124.123 193.737C124.076 193.737 124.04 193.736 124.016 193.732C123.987 193.728 123.953 193.724 123.902 193.72H123.718V194.399L120.947 186.18H119.381L116.394 195.041H117.774L118.559 192.623H121.718L122.502 195.041H123.718H123.821C123.866 195.041 123.928 195.044 124.009 195.049C124.094 195.055 124.179 195.058 124.263 195.058C124.538 195.058 124.785 195.016 124.995 194.932C125.205 194.848 125.404 194.722 125.586 194.556C125.759 194.403 125.921 194.212 126.067 193.988C126.213 193.764 126.341 193.467 126.448 193.107C126.558 192.742 126.648 192.285 126.716 191.748C126.784 191.212 126.834 190.526 126.865 189.71C126.877 189.381 126.892 189.008 126.911 188.592C126.929 188.206 126.944 187.812 126.955 187.408H129.671V195.041H131.028V186.18H125.669L125.666 186.279Z" fill="black"/>
<path d="M138.543 190.613C138.543 191.72 138.311 192.576 137.853 193.157C137.401 193.731 136.783 194.022 136.018 194.022C135.252 194.022 134.634 193.731 134.18 193.157C133.72 192.576 133.487 191.72 133.487 190.613C133.487 190.063 133.547 189.564 133.666 189.129C133.784 188.698 133.956 188.337 134.174 188.055C134.403 187.763 134.67 187.545 134.965 187.407C135.262 187.269 135.616 187.199 136.018 187.199C136.404 187.199 136.756 187.271 137.065 187.413C137.372 187.555 137.637 187.77 137.855 188.054C138.071 188.333 138.241 188.691 138.361 189.118C138.482 189.548 138.543 190.051 138.543 190.613ZM138.88 187.209L138.88 187.209C138.546 186.827 138.131 186.527 137.646 186.316C137.162 186.106 136.612 185.999 136.012 185.999C135.42 185.999 134.875 186.103 134.394 186.307C133.91 186.512 133.492 186.815 133.149 187.21C132.809 187.614 132.543 188.102 132.359 188.663C132.177 189.221 132.084 189.877 132.084 190.613C132.084 191.33 132.176 191.982 132.357 192.551C132.538 193.124 132.803 193.613 133.144 194.005C133.49 194.407 133.909 194.714 134.391 194.917C134.87 195.119 135.416 195.221 136.012 195.221C136.589 195.221 137.125 195.122 137.606 194.926C138.089 194.729 138.518 194.42 138.88 194.006C139.225 193.613 139.492 193.122 139.674 192.545C139.854 191.971 139.946 191.321 139.946 190.613C139.946 189.885 139.852 189.227 139.667 188.657C139.482 188.085 139.217 187.597 138.88 187.209Z" fill="black"/>
<path d="M146.135 186.18V189.575H142.358V186.18H141.002V195.041H142.358V190.803H146.135V195.041H147.491V186.18H146.135Z" fill="black"/>
<path d="M110.246 160.363V142.24C106.524 144.265 103.364 148.273 100.768 154.265C99.8212 156.453 99.1601 158.486 98.7847 160.363H110.246ZM116.81 178.486H109.12C109.625 177.751 109.96 176.894 110.124 175.914C110.205 175.409 110.246 174.6 110.246 173.49V165.604H97.9519C97.9519 166.453 97.9275 168.094 97.8785 170.526C97.8456 172.078 97.9191 173.653 98.099 175.253C98.2459 176.609 98.5559 177.686 99.0297 178.486H91.0945C91.6494 177.67 92.0497 176.845 92.2947 176.012C92.5557 175.098 92.6866 174.257 92.6866 173.49V167.122C92.6866 162.224 93.6662 157.433 95.6253 152.746C97.6825 147.816 100.49 143.832 104.05 140.795C107.773 137.611 111.438 136.011 115.046 135.995H115.781C116.059 135.995 116.401 136.036 116.81 136.117C116.352 136.901 116.059 137.669 115.928 138.42C115.814 139.089 115.756 139.914 115.756 140.893V173.49C115.756 174.567 115.797 175.343 115.879 175.816C116.042 176.731 116.352 177.62 116.81 178.486Z" fill="#9DCBEA"/>
<path d="M148.267 178.828C143.793 177.751 139.679 175.955 135.924 173.441C131.776 170.666 128.576 167.433 126.323 163.743C123.793 159.596 122.519 155.073 122.503 150.175C122.503 146.012 123.74 142.57 126.213 139.852C128.687 137.134 131.793 135.766 135.532 135.75C136.512 135.75 137.564 135.783 138.691 135.848C141.581 136.028 143.246 136.117 143.687 136.117V143.514C142.364 142.648 141.165 142.036 140.087 141.677C139.14 141.367 137.915 141.211 136.413 141.211C133.817 141.211 131.785 142.134 130.315 143.979C128.96 145.677 128.274 147.857 128.258 150.518C128.225 154.42 129.466 158.192 131.981 161.832C134.103 164.902 136.838 167.457 140.185 169.498C143.173 171.31 145.867 172.233 148.267 172.265V178.828Z" fill="#9DCBEA"/>
<path d="M10.0976 138.185V173.012C10.0976 174.188 10.1417 175.034 10.2312 175.551C10.4091 176.567 10.7566 177.538 11.2736 178.464H2.85426C3.40636 177.663 3.77176 176.727 3.95025 175.658C4.05714 174.981 4.11049 174.099 4.11049 173.012V137.624C4.11049 136.501 4.05714 135.637 3.95025 135.031C3.75391 133.927 3.38872 132.991 2.85426 132.225H31.1057C30.6601 132.973 30.3214 133.829 30.0902 134.791C29.9474 135.931 29.8762 136.876 29.8762 137.624V173.012C29.8762 174.081 29.9297 174.928 30.0366 175.551C30.2326 176.585 30.5713 177.556 31.0522 178.464H22.6864C23.203 177.734 23.5505 176.798 23.7288 175.658C23.8531 174.874 23.9161 173.992 23.9161 173.012V138.185H10.0976Z" fill="#9DCBEA"/>
<path d="M91.0612 143.122C89.2326 142.093 87.5837 141.579 86.1143 141.579H75.6568V173.539C75.6568 175.041 76.1627 176.689 77.175 178.486H69.0199C69.5096 177.784 69.8441 176.927 70.024 175.914C70.122 175.359 70.1709 174.567 70.1709 173.539V141.114C70.1709 140.117 70.122 139.309 70.024 138.689C69.8607 137.709 69.5258 136.852 69.0199 136.117H91.0612V143.122Z" fill="#9DCBEA"/>
<path d="M44.5746 149.572V173.255H55.3013C56.4931 173.255 57.5624 173.067 58.5097 172.692C58.7707 172.545 59.3585 172.218 60.2731 171.712V178.716H37.9375C38.4437 177.982 38.7785 177.124 38.9418 176.145C39.0397 175.524 39.0887 174.716 39.0887 173.72V141.295C39.0887 140.266 39.0397 139.475 38.9418 138.919C38.7619 137.907 38.4275 137.05 37.9375 136.348H60.2731V143.352C59.3094 142.748 58.5747 142.356 58.0688 142.177C57.3991 141.932 56.4769 141.809 55.3013 141.809H44.5746V144.062H62.6485V151.091C61.7503 150.536 61.0156 150.152 60.4444 149.94C59.7747 149.695 58.8525 149.572 57.6769 149.572H44.5746Z" fill="#9DCBEA"/>
<path d="M108.418 158.588V140.465C104.695 142.49 101.536 146.498 98.94 152.49C97.993 154.678 97.3317 156.711 96.9563 158.588H108.418ZM114.981 176.711H107.291C107.797 175.976 108.132 175.119 108.295 174.139C108.377 173.634 108.418 172.826 108.418 171.715V163.829H96.1235C96.1235 164.678 96.0991 166.319 96.0502 168.751C96.0172 170.303 96.0907 171.878 96.2706 173.478C96.4175 174.834 96.7275 175.911 97.2012 176.711H89.2662C89.821 175.895 90.2215 175.07 90.4663 174.237C90.7272 173.323 90.8581 172.483 90.8581 171.715V165.347C90.8581 160.449 91.8378 155.658 93.7969 150.972C95.8541 146.041 98.6622 142.057 102.222 139.02C105.944 135.836 109.61 134.237 113.218 134.22H113.953C114.23 134.22 114.573 134.261 114.981 134.342C114.524 135.126 114.23 135.894 114.099 136.645C113.985 137.315 113.928 138.139 113.928 139.118V171.715C113.928 172.793 113.969 173.568 114.051 174.041C114.214 174.956 114.524 175.846 114.981 176.711Z" fill="black"/>
<path d="M146.438 177.054C141.965 175.976 137.85 174.18 134.095 171.666C129.948 168.891 126.748 165.658 124.495 161.968C121.964 157.821 120.691 153.298 120.675 148.4C120.675 144.237 121.911 140.796 124.385 138.077C126.858 135.359 129.964 133.992 133.703 133.975C134.683 133.975 135.736 134.008 136.863 134.073C139.753 134.253 141.418 134.342 141.859 134.342V141.739C140.536 140.873 139.336 140.261 138.259 139.902C137.312 139.592 136.087 139.437 134.585 139.437C131.989 139.437 129.956 140.359 128.487 142.204C127.132 143.902 126.446 146.082 126.43 148.743C126.397 152.645 127.638 156.417 130.152 160.057C132.275 163.127 135.01 165.682 138.357 167.723C141.344 169.535 144.038 170.458 146.438 170.49V177.054Z" fill="black"/>
<path d="M7.52916 134.821V171.022C7.52916 172.244 7.57512 173.124 7.66806 173.661C7.85291 174.717 8.21421 175.726 8.75154 176.689H0C0.574053 175.856 0.953814 174.884 1.13908 173.772C1.25028 173.068 1.30588 172.152 1.30588 171.022V134.237C1.30588 133.071 1.25028 132.172 1.13908 131.543C0.934939 130.394 0.555588 129.422 0 128.625H29.3664C28.9031 129.403 28.551 130.292 28.3106 131.293C28.162 132.478 28.0884 133.46 28.0884 134.237V171.022C28.0884 172.133 28.144 173.013 28.255 173.661C28.4585 174.735 28.8108 175.745 29.3108 176.689H20.6148C21.1517 175.93 21.5128 174.958 21.6983 173.772C21.8275 172.957 21.8928 172.041 21.8928 171.022V134.821H7.52916Z" fill="black"/>
<path d="M89.233 141.347C87.4042 140.318 85.7552 139.804 84.2858 139.804H73.8286V171.764C73.8286 173.266 74.3343 174.915 75.3466 176.711H67.1915C67.6812 176.009 68.0156 175.152 68.1955 174.139C68.2936 173.584 68.3426 172.793 68.3426 171.764V139.339C68.3426 138.343 68.2936 137.534 68.1955 136.914C68.0322 135.934 67.6974 135.077 67.1915 134.342H89.233V141.347Z" fill="black"/>
<path d="M42.746 147.798V171.48H53.4727C54.6645 171.48 55.734 171.293 56.681 170.917C56.942 170.77 57.5298 170.443 58.4444 169.937V176.941H36.1091C36.615 176.207 36.9499 175.35 37.1132 174.37C37.2113 173.75 37.2601 172.941 37.2601 171.945V139.52C37.2601 138.492 37.2113 137.7 37.1132 137.144C36.9333 136.132 36.5988 135.275 36.1091 134.573H58.4444V141.577C57.4808 140.973 56.7461 140.582 56.2401 140.402C55.5705 140.157 54.6483 140.034 53.4727 140.034H42.746V142.288H60.8198V149.316C59.9218 148.761 59.1871 148.377 58.6158 148.165C57.9461 147.92 57.0239 147.798 55.8483 147.798H42.746Z" fill="black"/>
<path d="M94.1328 69.3364C93.3457 69.1265 92.3421 68.7439 91.2249 68.0334C90.178 67.3672 89.195 66.1508 88.7069 65.8876C88.3151 65.6763 87.8454 65.5134 87.2591 65.4412C86.8972 65.3964 86.7271 65.476 86.6454 65.5421C86.3281 65.799 86.9206 66.4054 87.3163 67.0137C89.3727 70.1739 89.282 72.4939 88.8315 72.6628C88.511 72.783 88.0919 71.609 87.035 70.5633C86.4208 69.9554 85.9454 69.3268 84.8275 68.725C84.2811 68.431 83.586 68.1631 82.6654 67.9536C82.178 67.8867 81.5582 67.9302 80.5926 68.2718C77.6177 69.3239 76.6539 67.8559 75.8835 66.7142C76.5476 68.3623 77.6545 70.0112 79.6347 73.0175C81.2018 74.9846 82.96 76.5962 85.0599 77.573C88.9747 78.6199 91.6322 80.0857 93.5236 81.8066C94.0098 81.8558 94.3474 81.7922 94.5765 81.672C97.7443 85.3966 98.0939 83.5376 98.0939 83.5376C98.1132 82.9705 97.9326 82.2054 97.5976 81.322C101.913 85.3672 102.139 82.9943 102.139 82.9943C102.105 82.4038 101.893 81.6695 101.532 80.8388C104.418 82.6658 104.539 80.9644 104.539 80.9644C104.353 78.8542 101.636 74.9844 97.9613 71.5147C97.5578 70.765 97.2176 70.068 96.9443 69.4776C96.812 69.5373 96.4915 69.621 96.026 69.6257C95.8243 69.6276 95.0617 69.5843 94.1328 69.3364Z" fill="#9DCBEA"/>
<path d="M60.3094 128.896C60.7755 128.308 61.3395 127.794 62.12 127.444C62.6967 127.213 63.0295 126.691 63.3789 126.202C63.2049 125.995 63.0071 125.883 62.7855 125.866C62.6526 125.856 62.5112 125.88 62.3612 125.939C63.1684 123.965 64.8216 123.36 66.5959 122.952C66.7508 122.829 66.9028 122.706 67.0524 122.583C69.2942 120.733 70.9411 118.789 72.3641 116.81C72.7999 116 72.9765 115.147 72.9353 114.33C72.8594 112.826 72.7551 111.547 72.4523 110.907C71.5886 109.884 71.2318 108.301 70.9718 106.733C70.9429 106.558 70.915 106.384 70.8881 106.211C70.7798 105.519 70.6815 104.842 70.5574 104.231C70.4952 103.925 70.4267 103.636 70.3471 103.37C70.2927 103.223 70.2419 103.076 70.1945 102.93C69.4844 100.737 69.5818 98.6736 70.6624 97.1683C71.4558 96.1936 71.5547 95.192 71.5888 94.1411L71.5758 94.1376C71.3411 94.0732 71.1081 94.008 70.8766 93.9423C70.7999 93.9204 70.7244 93.8982 70.6481 93.8765C70.4878 93.8301 70.3276 93.7839 70.169 93.7372C70.0845 93.7123 70.001 93.6871 69.9171 93.6619C69.7675 93.6171 69.6182 93.5722 69.4698 93.5269C69.3845 93.5008 69.2997 93.4743 69.2148 93.4479C69.0685 93.4023 68.9228 93.3566 68.778 93.3106C68.6957 93.2844 68.6137 93.2579 68.5318 93.2314C68.3837 93.1836 68.2364 93.1352 68.0899 93.0868C68.0144 93.0615 67.9389 93.0365 67.8638 93.0113C67.7083 92.959 67.554 92.9062 67.4003 92.8531C67.3363 92.8309 67.2721 92.809 67.2081 92.7866C67.0368 92.7267 66.8667 92.666 66.6976 92.6048C66.6533 92.5888 66.6086 92.573 66.5645 92.557C65.6857 92.2368 64.8407 91.9017 64.0319 91.5505C64.0188 91.5446 64.0056 91.5388 63.9923 91.5331C63.8058 91.4518 63.6214 91.3696 63.4388 91.2867C63.4146 91.2756 63.3908 91.2645 63.3666 91.2534C63.1944 91.1746 63.0239 91.095 62.8553 91.0148C62.8282 91.0019 62.8013 90.989 62.7747 90.976C62.6081 90.8962 62.4435 90.8156 62.2806 90.7341C62.2554 90.7216 62.2301 90.7089 62.2049 90.6962C62.0373 90.6119 61.8715 90.5265 61.7078 90.4404C61.6904 90.4311 61.6729 90.4221 61.6555 90.4129C61.4766 90.3183 61.2999 90.2229 61.1259 90.1262C61.1251 90.1258 61.1243 90.1252 61.1235 90.1248H61.1237C58.8123 88.8409 56.9262 87.3672 55.5707 85.6571C53.439 82.9178 51.4982 80.2032 50.1443 77.5664C49.1952 77.4472 48.5717 78.0506 47.1901 76.9042C45.572 75.5626 44.2837 76.6001 43.7339 77.8338C42.8619 79.6983 41.99 81.5624 41.1186 83.4268C40.6597 84.435 40.1347 85.6822 42.302 85.8309C43.452 85.7503 45.1641 85.3108 43.8894 87.3282C44.1001 88.1821 44.4044 88.8366 45.2098 88.6187C45.9363 88.4693 46.6624 88.3202 47.3883 88.1708C49.2668 90.3655 50.1127 95.5108 49.3899 97.1727C48.3086 96.7839 46.162 96.227 44.5906 95.2213C43.969 94.8545 43.452 94.1249 42.9824 93.2306C42.5302 92.7124 42.0339 92.5156 41.4926 92.6391C41.1067 93.1453 40.6016 92.9027 39.9779 91.9114C39.8745 92.2585 39.9652 92.9058 40.1129 93.707C39.332 93.1465 38.8436 92.3654 38.4535 91.4407C36.3615 89.7358 35.5369 88.1353 35.3744 86.5898C34.9606 86.3167 34.675 85.9881 34.6295 85.5644C33.5464 84.7507 34.5039 81.3279 34.197 81.4289C33.2362 80.7888 33.2044 80.0945 32.7692 79.3208C30.3735 75.1057 31.6675 72.6849 33.4889 70.52C34.9628 68.7991 36.3914 67.0439 37.7197 65.2128C38.1932 63.4884 38.997 61.8932 40.7136 60.6542C43.0142 58.3476 44.8325 57.2885 47.0157 61.7976C47.7867 62.433 48.5095 62.7157 49.2101 62.8376C49.6939 60.9008 50.6494 60.4963 52.1637 59.3432C53.2739 56.2106 55.6519 54.2291 59.2585 53.1101C65.6669 50.5706 65.3681 48.9452 65.6004 47.2473C64.9911 47.1759 64.3932 47.07 63.8778 46.7231C62.1682 47.5011 60.3377 48.1562 59.1135 49.4255C58.8777 50.118 58.6945 50.8289 57.6197 51.2357C56.8909 52.3227 55.9478 52.6505 55.155 52.3075C54.5994 52.6054 54.2422 52.5285 53.5806 52.0541C52.2837 52.7061 51.7335 51.5562 51.1389 50.5123C49.8677 49.3898 50.0419 48.7598 50.4223 48.2001C51.4717 46.6205 52.5669 45.3795 53.669 44.187C53.835 43.6903 54.065 43.1846 54.3378 42.6731C54.7923 41.8209 55.3663 40.9526 55.9658 40.0805C55.3575 38.1952 57.1269 37.1191 58.7563 35.996C57.3197 35.1766 56.0046 34.7671 55.5399 37.2276C54.5003 36.1971 55.2759 34.2033 57.4356 34.3822C58.6502 34.4827 55.8739 31.6951 55.7484 30.4828C55.1739 29.7543 55.5711 29.1228 56.267 29.9709C56.6884 30.3058 57.1098 30.6406 57.5312 30.9754C57.3759 28.1201 58.6921 27.622 60.0564 27.1994C59.2842 27.925 58.4504 28.5668 58.6603 30.6256C60.237 27.09 62.1846 27.4261 64.0818 27.2394C63.2777 27.6386 62.3274 27.9882 62.1083 28.5869C62.6692 29.1068 63.0662 29.7391 63.3881 30.4225C64.0083 27.6343 66.0641 27.3173 67.9257 26.6665C66.8876 27.3321 65.5434 27.7952 65.7311 29.2697C70.138 26.0646 71.5576 27.7982 73.5746 28.5442C76.2713 27.4361 77.6356 28.3473 78.8098 29.5467C79.4759 28.3815 80.7566 27.8231 82.9338 28.1513C83.6935 28.7504 84.5406 29.0928 85.5808 28.8692C87.351 27.9353 87.7111 27.0518 88.154 26.1653C87.4413 28.0438 87.9763 30.6513 83.6338 30.4092C82.3167 30.0226 80.233 29.4338 80.2008 32.2005C82.2943 30.5341 83.9586 30.9939 85.4276 32.4198C87.8348 35.1893 88.5067 32.7316 87.0925 30.9674C89.9757 32.8143 90.5366 35.8565 83.2918 35.4562C87.1134 35.6754 89.9115 36.6856 90.567 39.3511C90.8764 39.3012 91.329 39.2175 91.901 39.0825C91.9978 39.0596 92.0991 39.0347 92.2028 39.0089C92.2255 39.0031 92.2489 38.9974 92.2721 38.9914C92.3765 38.965 92.483 38.9375 92.5938 38.9079C92.595 38.9075 92.5963 38.9073 92.5977 38.9069C92.7083 38.8772 92.8232 38.8454 92.9401 38.8123C92.9676 38.8047 92.9951 38.7967 93.0228 38.7889C93.1406 38.7553 93.2606 38.7204 93.3843 38.6831C93.3855 38.6827 93.3868 38.6825 93.388 38.682C93.5121 38.6447 93.6399 38.6047 93.7698 38.5637C93.8004 38.5538 93.8316 38.544 93.8625 38.5339C93.9926 38.4923 94.1245 38.4492 94.26 38.4036C94.2618 38.403 94.2636 38.4024 94.2657 38.4018C94.4013 38.356 94.5406 38.3076 94.6814 38.2578C94.7162 38.2455 94.7513 38.2329 94.7866 38.2204C94.9267 38.1702 95.0685 38.1187 95.2136 38.0643C95.2168 38.0631 95.2199 38.062 95.2232 38.0606C95.3703 38.0054 95.5203 37.9474 95.6719 37.8877C95.7088 37.8733 95.746 37.8585 95.7829 37.8437C95.9349 37.7834 96.0882 37.7215 96.2443 37.6564C96.2468 37.6554 96.2492 37.6546 96.2517 37.6534C96.4082 37.5883 96.5681 37.5198 96.7289 37.4496C96.7691 37.432 96.8093 37.4143 96.8502 37.3965C97.0122 37.3251 97.1756 37.252 97.3417 37.1755C97.3428 37.1751 97.3436 37.1747 97.3444 37.1745C97.5104 37.0978 97.6792 37.0177 97.8489 36.9361C97.891 36.9158 97.933 36.8955 97.9753 36.875C98.3177 36.7084 98.6669 36.5309 99.0222 36.3423C99.0662 36.3192 99.1103 36.2956 99.1542 36.272C99.3331 36.1762 99.513 36.0783 99.695 35.9765C100.776 35.3711 101.759 34.8022 102.657 34.2652C102.801 34.1793 102.942 34.0939 103.082 34.0096C103.578 33.7092 104.046 33.4198 104.489 33.1401C104.623 33.0552 104.755 32.9713 104.885 32.8882C105.252 32.6529 105.6 32.4249 105.931 32.2037C106.001 32.1572 106.07 32.111 106.138 32.0649C106.243 31.9941 106.347 31.9237 106.449 31.8541C106.523 31.8033 106.596 31.753 106.669 31.7029C106.906 31.5388 107.134 31.3786 107.351 31.2226C107.39 31.1952 107.427 31.1681 107.465 31.141C107.588 31.0517 107.709 30.9635 107.827 30.8767C107.868 30.846 107.91 30.8154 107.951 30.7848C108.07 30.6964 108.186 30.6092 108.298 30.5232C108.333 30.4964 108.368 30.4697 108.403 30.443C108.518 30.3552 108.629 30.2686 108.737 30.1835C108.903 30.0528 109.062 29.925 109.213 29.8004C109.319 29.7137 109.422 29.6283 109.521 29.5446C109.539 29.5292 109.557 29.514 109.575 29.4986C109.736 29.3616 109.889 29.2282 110.034 29.0988C110.201 28.9498 110.357 28.8056 110.504 28.6661C110.594 28.5805 110.681 28.4968 110.764 28.4148C110.808 28.3713 110.851 28.3282 110.894 28.2857C111.885 27.2888 112.394 26.543 112.904 25.9158C114.721 23.6777 115.912 20.8121 117.401 18.6401C117.401 18.6394 117.402 18.6388 117.402 18.6382C119.35 15.7985 120.922 13.6025 121.329 13.2689C121.379 13.2276 121.439 13.1969 121.429 13.2102C121.244 13.0766 121.056 12.9463 120.869 12.8144L120.868 12.814C120.512 12.5627 120.154 12.3146 119.794 12.0699C119.792 12.0684 119.79 12.0672 119.788 12.066C119.429 11.8222 119.067 11.5816 118.703 11.3444C118.7 11.342 118.696 11.3397 118.692 11.3372C118.331 11.1015 117.966 10.8693 117.6 10.6399C117.593 10.6358 117.587 10.6315 117.58 10.6274C117.217 10.4002 116.851 10.1762 116.483 9.95545C116.473 9.9495 116.463 9.94355 116.453 9.9378C116.089 9.71909 115.722 9.50367 115.353 9.29153C115.339 9.28373 115.325 9.27594 115.312 9.26794C114.946 9.05826 114.579 8.85166 114.209 8.64834C114.191 8.63849 114.173 8.62864 114.155 8.61859C113.79 8.41814 113.423 8.22077 113.054 8.02669C113.03 8.01417 113.006 8.00166 112.982 7.98935C112.619 7.79834 112.253 7.61041 111.886 7.42596C111.855 7.41078 111.825 7.3958 111.795 7.38082C111.433 7.19966 111.069 7.02117 110.704 6.84616C110.667 6.82873 110.631 6.8117 110.595 6.79446C110.235 6.62274 109.873 6.45368 109.509 6.28791C109.466 6.26842 109.423 6.24913 109.38 6.22964C109.023 6.06756 108.664 5.90794 108.303 5.75161C108.253 5.72986 108.202 5.70832 108.151 5.68657C107.797 5.53413 107.441 5.38395 107.084 5.23705C107.026 5.21325 106.968 5.19007 106.91 5.16668C106.559 5.02347 106.207 4.88273 105.854 4.74527C105.787 4.71921 105.72 4.69398 105.653 4.66813C105.306 4.53477 104.96 4.40346 104.611 4.27544C104.536 4.24795 104.46 4.22107 104.385 4.19379C104.043 4.06987 103.701 3.94738 103.356 3.82859C103.272 3.79966 103.188 3.77156 103.104 3.74283C102.767 3.62794 102.43 3.51448 102.091 3.40472C101.997 3.37436 101.903 3.34543 101.809 3.31547C101.478 3.20981 101.147 3.10538 100.814 3.00444C100.71 2.97285 100.606 2.94289 100.502 2.91191C100.177 2.81528 99.8521 2.71947 99.5255 2.62735C99.4121 2.59534 99.298 2.56518 99.1843 2.53359C98.8657 2.44557 98.5467 2.35817 98.2262 2.27446C98.1027 2.24205 97.9786 2.21168 97.8553 2.18009C97.5428 2.10028 97.2303 2.02108 96.9164 1.94558C96.7825 1.91337 96.6481 1.88321 96.5139 1.85162C96.2084 1.78001 95.9025 1.70882 95.5954 1.64112C95.4516 1.60952 95.3069 1.57998 95.1629 1.5492C94.8642 1.4854 94.5654 1.42159 94.2655 1.36168C94.1096 1.3305 93.9526 1.30198 93.7965 1.27182C93.5064 1.21581 93.2165 1.15959 92.9251 1.10748C92.7573 1.07732 92.5889 1.05004 92.4211 1.02111C92.1394 0.972689 91.8577 0.923655 91.5747 0.878518C91.3948 0.849795 91.2139 0.82415 91.0335 0.796658C90.7611 0.755624 90.4888 0.71336 90.2153 0.675405C90.0223 0.648323 89.8286 0.624934 89.6351 0.599493C89.3721 0.565025 89.1097 0.529532 88.8456 0.498141C88.6401 0.473522 88.4335 0.452595 88.2273 0.429821C87.9743 0.401919 87.7215 0.37258 87.4677 0.34714C87.2468 0.325392 87.0248 0.307338 86.8032 0.287231C86.5623 0.265689 86.3221 0.242301 86.0808 0.22322C85.8439 0.204345 85.6059 0.189573 85.3683 0.17316C85.1403 0.157362 84.9132 0.139718 84.6849 0.125972C84.4276 0.110789 84.1693 0.0999157 83.9114 0.0874006C83.7013 0.0771423 83.4916 0.064627 83.2811 0.0564204C82.9804 0.0443156 82.6784 0.0373401 82.3768 0.0291335C82.2077 0.0246199 82.0393 0.0176443 81.87 0.0141565C81.3981 0.00492402 80.9248 0 80.4507 0C78.0303 0 75.6387 0.122484 73.2816 0.361707C72.1029 0.481318 70.9329 0.629858 69.7722 0.807121C68.6116 0.984384 67.4604 1.18996 66.3193 1.42323C64.6076 1.77325 62.9187 2.18542 61.2548 2.65751C57.3726 3.75925 53.6276 5.18658 50.0511 6.90833C46.4749 8.63008 43.0671 10.646 39.8597 12.925C39.4014 13.2506 38.9474 13.5815 38.4974 13.9178C37.1474 14.9264 35.8352 15.9823 34.563 17.0833C34.1389 17.4503 33.7193 17.8223 33.3043 18.1994C32.4742 18.9531 31.6621 19.7266 30.869 20.519C29.6794 21.7075 28.5323 22.9385 27.4304 24.2097C26.6957 25.057 25.9811 25.9222 25.287 26.8044C24.9401 27.2455 24.5983 27.6909 24.2618 28.1404C23.5889 29.0395 22.9369 29.9553 22.3068 30.887C21.9919 31.3529 21.6823 31.823 21.3784 32.2967C20.7703 33.2441 20.1846 34.2072 19.6216 35.1852C18.2146 37.6302 16.9508 40.1679 15.842 42.787C15.3985 43.8348 14.9797 44.8955 14.5864 45.9685C11.8339 53.4794 10.3317 61.5925 10.3317 70.0561C10.3317 77.4659 11.4833 84.6069 13.6172 91.3103C13.8682 92.0989 14.1328 92.8814 14.4108 93.6578C14.5497 94.0457 14.6921 94.4325 14.8378 94.8174C15.857 97.5116 17.0378 100.127 18.3682 102.651C18.5584 103.012 18.7515 103.37 18.9476 103.727C19.3401 104.441 19.7443 105.147 20.1606 105.845C20.7849 106.893 21.4357 107.922 22.1123 108.934C23.0142 110.282 23.9619 111.597 24.9528 112.877C28.6688 117.677 32.9951 121.982 37.8151 125.676C41.6711 128.63 45.8434 131.194 50.2721 133.307H57.7417C57.8831 132.07 59.1516 130.465 60.3094 128.896Z" fill="#9DCBEA"/>
<path d="M116.789 28.1527C116.581 27.9451 116.418 27.719 116.297 27.481C116.093 27.7699 115.883 28.053 115.663 28.3242C115.537 28.4787 115.412 28.6404 115.279 28.8111C115.086 29.0594 114.878 29.3273 114.633 29.6197C115.558 29.2264 116.381 28.8536 117.161 28.4543C117.026 28.3653 116.901 28.265 116.789 28.1527Z" fill="#9DCBEA"/>
<path d="M116.645 35.844C115.862 35.9454 114.385 36.2453 112.956 36.5352C112.422 36.6435 111.864 36.7568 111.345 36.8588C111.984 36.5725 112.691 36.2742 113.387 35.9806C113.591 35.8945 113.796 35.8079 114.001 35.7209C113.525 35.6686 112.976 35.6364 112.411 35.6903C109.588 35.9603 105.6 37.0085 102.882 38.7764C100.914 40.0571 99.981 41.3338 96.8346 43.3338C95.924 43.9127 94.2271 44.6973 94.1594 44.7736C94.0915 44.8499 94.1237 44.8748 94.2661 44.8106C94.4032 44.7488 94.5472 44.6813 94.6976 44.6087C95.0874 44.4205 95.5211 44.1979 95.9916 43.9505C100.018 41.8328 105.469 38.5329 110.475 38.8121C112.177 38.9069 113.442 39.0161 114.135 39.1851C116.325 38.4508 118.923 37.4031 120.32 36.9527C122.225 36.3391 122.46 36.2008 124.415 35.8834L126.169 35.4823C126.169 35.4823 122.591 35.6001 121.425 35.6001C120.031 35.6001 117.94 35.6764 116.645 35.844Z" fill="#9DCBEA"/>
<path d="M126.509 26.653L126.4 26.4111H126.134C125.964 26.4111 125.916 26.4573 125.655 26.7131C125.491 26.8744 125.242 27.1179 125.108 27.2377C124.148 28.0935 123.31 28.782 122.104 29.5694C120.422 30.6675 118.855 31.3823 116.184 32.4783C115.709 32.6734 114.941 32.906 114.258 33.0933C115.273 32.0464 116.255 30.7362 117.152 29.3425C115.85 30.2087 114.574 30.9108 113.329 31.5275C112.952 31.7148 112.531 31.9083 112.087 32.1049C111.072 32.9428 109.735 33.9245 107.923 35.0935C109.343 35.0679 111.203 34.9704 112.235 34.9837C113.137 34.9956 114.057 35.2104 114.693 35.4255C115.374 35.1319 116.029 34.8401 116.589 34.5623C119.442 33.1487 122.843 31.1572 126.433 27.105C126.605 26.9107 126.534 26.7098 126.509 26.653Z" fill="#9DCBEA"/>
<path d="M46.1296 70.6117C46.884 70.8608 47.5294 70.9131 48.1129 70.8536C47.5939 70.0065 45.9802 69.8272 44.3206 68.4429C42.666 67.0628 42.3742 67.4378 41.4151 68.389C39.9279 69.8112 38.4408 71.2338 36.9534 72.6562C36.1606 73.4303 35.3402 74.2513 37.3071 75.1744C37.7459 75.6052 38.248 76.2552 37.7865 77.4761C37.4675 78.7299 37.4944 79.3001 38.0245 80.0945C38.3411 79.0814 38.6378 78.0625 38.9076 77.0361C38.725 75.2573 38.8969 73.4795 40.0489 71.703C41.3593 68.7201 42.4627 67.1982 46.1296 70.6117Z" fill="#9DCBEA"/>
<path d="M108.918 42.9864C108.91 43.0004 108.901 43.0131 108.893 43.0272C106.821 46.6478 107.078 46.156 105.618 47.784C103.189 50.4926 101.155 50.8399 101.051 51.36C100.995 51.6384 101.087 51.8085 101.273 51.9115C101.674 52.1329 101.928 52.1557 102.46 52.1955C102.794 52.2207 102.956 52.1737 102.953 52.2123C102.94 52.3754 102.298 52.4925 101.653 52.5621C100.821 52.6518 99.7563 53.2601 99.7026 53.8834C99.6464 54.5383 100.119 54.7541 100.388 54.8747C100.772 55.0477 101.136 55.0737 101.151 55.2034C101.156 55.2467 100.922 55.3761 100.722 55.3983C100.471 55.4262 100.356 55.3792 100.053 55.3423C99.8364 55.3158 99.686 55.3427 99.6043 55.4012C98.9941 55.8388 99.2348 57.458 100.739 59.8266C101.435 60.9228 101.897 62.3393 101.674 62.6339C101.541 62.8107 100.983 62.3327 100.461 61.9115C99.9338 61.486 98.0742 60.4946 94.8556 59.2815C93.8784 58.913 93.0321 58.7363 92.4674 58.8976C91.5586 59.1573 91.5828 61.2088 91.8501 62.5235C92.0306 63.4106 92.4615 65.0495 93.0074 65.8868C93.4647 66.5884 93.6053 67.7216 96.1795 69.1315C96.4359 69.2718 96.6083 69.3459 96.9097 69.4031C96.7285 69.0096 96.5779 68.6657 96.4626 68.3939C96.032 67.3779 95.4938 65.9165 95.3297 65.1088C95.0279 63.6242 95.1871 62.0937 95.6578 61.9593C95.7601 61.93 95.8834 61.9152 96.0238 61.9152C96.46 61.9152 97.0537 62.0555 97.7884 62.3325C101.223 63.6273 102.883 64.5766 103.281 64.8979C103.873 65.3759 111.466 67.4949 112.218 67.4949C112.42 67.4949 112.534 67.4009 112.593 67.3219C112.673 67.2173 112.7 67.0835 112.668 66.9549C112.592 66.6461 112.393 66.5138 109.544 65.1763C108.436 64.6562 106.889 63.9301 105.733 63.3109C104.994 62.9154 102.506 60.4954 103.485 59.3691C103.66 59.1664 104.276 59.0773 105.078 59.0773C106.113 59.0773 106.688 59.1608 108.155 59.4282C109.353 59.6465 111.581 60.2972 111.581 60.2972L110.433 59.6836C110.433 59.6836 103.543 57.707 103.211 56.5023C103.347 56.1732 104.082 55.7118 104.775 55.6371C105.987 55.5064 106.407 55.3232 106.439 54.9112L106.453 54.7323L106.329 54.593C106.243 54.5003 106.127 54.4531 105.982 54.4531C105.96 54.4531 105.93 54.4543 105.894 54.456C105.855 54.4578 105.805 54.4601 105.743 54.4601C105.685 54.4601 105.628 54.458 105.568 54.4535C105.034 54.4135 104.866 54.3942 104.549 54.2194C104.531 54.2096 104.524 54.2028 104.523 54.2012C104.524 54.2008 104.52 54.1833 104.525 54.1435C104.608 54.0584 104.898 53.8967 105.155 53.7529C106.003 53.2787 107.423 52.4852 109.001 50.725C109.197 50.507 109.361 50.3272 109.505 50.1705C110.454 49.1328 106.964 50.5636 108.779 47.3913C109.356 46.3837 113.046 44.7199 114.193 44.3705C115.613 43.9378 117.472 43.8602 117.906 43.7905C118.065 43.765 116.58 43.1992 116.68 43.1758C117.786 42.9181 120.969 42.2729 120.869 42.1188C120.622 41.7378 112.883 42.9669 108.918 42.9864Z" fill="#9DCBEA"/>
<path d="M141.586 3.13342C141.586 3.13342 141.086 2.78607 139.817 4.54578C136.672 8.90841 135.646 10.916 131.435 14.8864C134.312 11.2496 136.158 8.20654 136.051 6.79644C136.051 6.79644 131.392 12.4937 124.116 19.8973C122.464 21.5789 116.38 25.1321 113.166 27.3007C112.124 28.8167 110.964 30.2124 109.764 31.1697C109.643 31.2659 112.158 30.6443 113.263 30.1909C115.728 29.1792 117.46 28.4154 119.251 27.2459C120.45 26.4636 121.287 25.7835 122.304 24.8769C122.555 24.6533 123.137 24.0653 123.048 24.166C119.675 27.9741 116.407 30.0027 113.329 31.5275C111.109 32.6278 107.432 33.9411 106.071 34.8627C105.382 35.3292 110.286 34.9585 112.235 34.984C112.727 34.9903 113.223 35.058 113.677 35.1522C114.95 34.3301 116.223 33.4793 117.518 32.6014C122.822 28.9244 127.128 26.715 131.951 21.5015C134.366 18.8561 136.679 15.1584 138.412 12.1178C140.15 9.06906 141.954 3.38208 141.586 3.13342Z" fill="#9DCBEA"/>
<path d="M112.157 37.894C122.314 38.1189 137.218 27.6169 138.508 22.9451C138.508 22.9451 139.177 16.0675 112.157 37.894Z" fill="#9DCBEA"/>
<path d="M118.249 39.6646C118.172 39.6646 118.101 39.6217 118.066 39.5521C118.027 39.4754 118.04 39.3825 118.099 39.3193C129.93 26.6442 135.353 23.9836 137.819 23.9836C139.022 23.9836 139.368 24.6397 139.382 24.6676C139.401 24.7043 139.408 24.746 139.402 24.7866C139.163 26.6343 136.028 30.0659 131.602 33.3258C126.784 36.8751 121.801 39.2442 118.273 39.6631C118.265 39.6642 118.257 39.6646 118.249 39.6646Z" fill="white"/>
<path d="M137.819 23.7785C135.312 23.7785 129.831 26.4503 117.949 39.1794C117.831 39.3054 117.805 39.4913 117.882 39.6449C117.953 39.784 118.095 39.8698 118.248 39.8698C118.264 39.8698 118.281 39.8688 118.297 39.8669C121.859 39.4439 126.878 37.0605 131.724 33.4912C135.17 30.9529 139.302 27.1573 139.606 24.8131C139.616 24.7315 139.602 24.6486 139.565 24.5749C139.524 24.4935 139.124 23.7785 137.819 23.7785ZM137.819 24.1888C138.909 24.1888 139.199 24.7604 139.199 24.7604C138.715 28.4932 126.084 38.5288 118.249 39.4595C130.446 26.3929 135.677 24.1888 137.819 24.1888Z" fill="#9DCBEA"/>
<path d="M133.433 42.3367L133.411 42.3108L133.384 42.2891C131.839 41.0362 127.357 40.1942 122.231 40.1942V40.3993L122.231 40.1942C116.808 40.1944 112.025 41.1473 109.107 42.8092L108.027 43.4241L109.261 43.573C116.575 44.4565 122.351 44.9043 126.429 44.9043C128.79 44.9043 130.591 44.7533 131.782 44.4552C132.779 44.2062 133.368 43.8529 133.583 43.3752C133.788 42.9222 133.585 42.5092 133.433 42.3367Z" fill="#9DCBEA"/>
<path d="M105.094 42.6393C105.008 42.6393 104.931 42.5857 104.901 42.5049C104.871 42.4224 104.896 42.3299 104.965 42.2747C110.697 37.6326 122.427 35.2039 131.051 35.2039C134.744 35.2039 137.551 35.6546 138.955 36.4732C138.965 36.4788 138.974 36.4849 138.983 36.4921C139.005 36.5108 139.539 36.9601 139.303 37.6421C138.642 39.5589 132.171 41.9817 105.099 42.6393C105.097 42.6393 105.095 42.6393 105.094 42.6393Z" fill="white"/>
<path d="M131.052 34.9987V35.409L131.052 34.9987C122.39 34.9989 110.604 37.4437 104.836 42.1155C104.699 42.2259 104.648 42.4109 104.709 42.5759C104.768 42.7376 104.922 42.8447 105.094 42.8447C105.097 42.8447 105.1 42.8445 105.104 42.8445C117.665 42.5394 126.961 41.8147 132.735 40.6902C136.871 39.8845 139.083 38.9094 139.497 37.709C139.722 37.0582 139.361 36.5383 139.113 36.3337C139.096 36.3196 139.078 36.3071 139.059 36.296C137.624 35.4595 134.78 34.9987 131.052 34.9987ZM131.051 35.409C134.586 35.409 137.442 35.8288 138.852 36.6505C138.852 36.6505 144.709 41.4723 105.094 42.4343C110.971 37.6751 122.84 35.4093 131.051 35.409Z" fill="#9DCBEA"/>
<path d="M102.942 42.5558C102.86 42.5558 102.785 42.5074 102.753 42.4311C102.717 42.3467 102.741 42.2489 102.812 42.1912C109.187 37.0243 110.964 35.7164 113.907 33.5497C116.238 31.8332 119.43 29.4829 126.478 24.0267C132.771 19.1542 135.463 17.4762 138.497 15.927C139.504 15.4128 141.303 14.5501 142.036 14.5501C142.194 14.5501 142.309 14.5887 142.388 14.6679C142.451 14.7307 142.484 14.8133 142.483 14.9069C142.483 15.5921 142.011 16.0441 140.749 17.2525C140.141 17.835 139.308 18.6329 138.248 19.7281C136.646 21.3821 135.553 22.9453 134.396 24.6003C132.659 27.0841 130.864 29.6525 127.216 32.5679C121.966 36.7642 117.431 38.1476 114.995 38.8907C114.531 39.0321 114.131 39.1542 113.821 39.2666C113.766 39.2859 113.534 39.4038 113.266 39.5405C112.146 40.1111 109.817 41.2979 107.847 41.8318C106.308 42.2487 104.249 42.4356 103.37 42.5152C103.182 42.5322 103.043 42.5447 102.967 42.5542C102.959 42.5554 102.95 42.5558 102.942 42.5558Z" fill="white"/>
<path d="M142.036 14.3447C141.299 14.3447 139.654 15.1057 138.404 15.7441C135.358 17.2993 132.659 18.982 126.353 23.8642C119.307 29.3187 116.116 31.6684 113.786 33.384C110.84 35.5526 109.062 36.8616 102.683 42.0318C102.541 42.1471 102.493 42.3428 102.564 42.5112C102.629 42.6639 102.779 42.7609 102.942 42.7609C102.959 42.7609 102.976 42.7599 102.993 42.7576C103.063 42.749 103.207 42.7359 103.39 42.7193C104.274 42.6391 106.345 42.4511 107.9 42.0297C109.891 41.4905 112.233 40.2969 113.359 39.7234C113.592 39.6042 113.834 39.4811 113.889 39.46C114.196 39.3488 114.594 39.2274 115.055 39.0868C117.504 38.3396 122.063 36.9488 127.344 32.7281C131.015 29.7941 132.819 27.2135 134.564 24.7179C135.717 23.0696 136.805 21.5128 138.395 19.8708C139.453 18.7783 140.284 17.9821 140.891 17.4006C142.162 16.1834 142.688 15.6795 142.689 14.9071C142.689 14.76 142.634 14.6235 142.533 14.5228C142.415 14.4046 142.248 14.3447 142.036 14.3447ZM142.036 14.755C142.194 14.755 142.279 14.8032 142.279 14.9064C142.277 15.8096 141.244 16.3383 138.1 19.5852C134.023 23.7963 133.085 27.6146 127.088 32.4077C120.869 37.378 115.711 38.3628 113.751 39.0737C113.453 39.1773 110.296 40.9557 107.793 41.6335C105.95 42.1329 103.382 42.2956 102.942 42.3504C114.581 32.9163 111.03 36.2461 126.604 24.1887C133.126 19.1388 135.773 17.5484 138.59 16.1095C140.2 15.2874 141.515 14.755 142.036 14.755Z" fill="#9DCBEA"/>
<path d="M103.473 74.3236C101.952 72.3948 100.296 70.7668 98.6563 69.5568C97.1514 68.2769 95.5496 67.2499 93.9846 66.731C94.2273 67.1276 94.4635 67.5096 94.6966 67.8851C94.6514 68.0012 94.6605 68.1339 94.7267 68.2445C100.377 77.6694 104.214 82.4483 106.132 82.4483C106.725 82.4483 107.006 82.021 107.072 81.7951C107.079 81.7713 107.084 81.7471 107.086 81.7225C107.24 80.233 105.788 77.2597 103.473 74.3236Z" fill="#9DCBEA"/>
<path d="M125.143 58.7729C120.086 58.7729 109.552 56.1205 93.8347 50.8896C93.7524 50.8623 93.6964 50.7862 93.6943 50.6994C93.6925 50.6128 93.7452 50.5343 93.826 50.5033C96.3873 49.5236 99.6056 49.0267 103.392 49.0267C114.05 49.0267 125.562 52.8551 127.987 56.0249C128.012 56.0532 128.736 56.9186 128.372 57.7064C128.045 58.414 126.958 58.7729 125.143 58.7729Z" fill="white"/>
<path d="M103.392 48.8217V49.232L103.392 48.8217C99.5807 48.8217 96.3377 49.3231 93.7532 50.3118C93.5913 50.3738 93.4857 50.5307 93.4894 50.7041C93.4933 50.8775 93.6057 51.0297 93.7702 51.0845C109.509 56.3224 120.064 58.978 125.143 58.978C127.072 58.978 128.189 58.5903 128.558 57.7926C128.959 56.9245 128.236 56.0035 128.145 55.8936C126.877 54.2434 123.41 52.4934 118.63 51.0911C113.715 49.6489 108.161 48.8217 103.392 48.8217ZM103.392 49.232C113.604 49.232 125.364 52.9334 127.825 56.1498C127.825 56.1498 129.881 58.5677 125.143 58.5677C121.186 58.5677 112.492 56.8827 93.8997 50.6951C96.5945 49.6641 99.903 49.232 103.392 49.232Z" fill="#9DCBEA"/>
<path d="M121.742 62.8571C117.504 62.8571 108.177 59.829 94.7683 54.1006C94.6883 54.0664 94.6387 53.9853 94.6442 53.8983C94.65 53.8115 94.7099 53.7377 94.7938 53.7143C96.4255 53.2596 98.3323 53.029 100.462 53.029C109.988 53.029 122.136 57.6672 124.249 61.1292C124.255 61.1394 124.261 61.1503 124.265 61.1616C124.273 61.1811 124.446 61.6404 124.14 62.0877C123.791 62.5982 122.985 62.8571 121.742 62.8571Z" fill="white"/>
<path d="M100.464 52.8239H100.462C98.3134 52.8239 96.3879 53.0572 94.739 53.5166C94.5712 53.5633 94.4512 53.711 94.4397 53.8848C94.4282 54.0588 94.5277 54.2209 94.6879 54.2894C108.313 60.1106 117.416 63.0623 121.742 63.0623C123.057 63.0623 123.92 62.7734 124.31 62.2035C124.67 61.677 124.479 61.146 124.456 61.0872C124.448 61.0648 124.437 61.043 124.424 61.0223C122.285 57.5183 110.047 52.8239 100.464 52.8239ZM100.462 53.2342C110.057 53.2338 122.055 57.9297 124.074 61.2361C124.074 61.2361 124.626 62.652 121.742 62.652C118.596 62.652 111.359 60.9657 94.8492 53.9119C96.5371 53.4415 98.4474 53.2342 100.462 53.2342Z" fill="#9DCBEA"/>
<path d="M120.78 49.437C113.161 49.437 106.359 48.0552 102.583 45.741C102.509 45.696 102.472 45.6099 102.489 45.5255C102.506 45.441 102.574 45.3762 102.659 45.3633C111.316 44.0397 118.396 43.3686 123.704 43.3686C130.904 43.3686 133.423 44.5939 134.269 45.6218C134.727 46.1782 134.656 46.6258 134.646 46.6751C134.638 46.7159 134.618 46.7533 134.588 46.7824C132.963 48.3702 127.414 49.437 120.781 49.437H120.78Z" fill="white"/>
<path d="M123.704 43.1635C118.386 43.1635 111.295 43.8354 102.628 45.1603C102.458 45.1864 102.322 45.316 102.288 45.4849C102.254 45.6537 102.329 45.8259 102.476 45.916C106.283 48.2493 113.125 49.6424 120.78 49.6424C126.342 49.6424 132.813 48.8032 134.732 46.9291C134.791 46.871 134.831 46.7963 134.847 46.7147C134.859 46.6556 134.945 46.1207 134.428 45.4915C132.844 43.5674 127.722 43.1635 123.704 43.1635ZM123.704 43.5738C135.045 43.5738 134.445 46.6357 134.445 46.6357C132.81 48.2325 127.127 49.232 120.78 49.232C114.206 49.232 106.921 48.159 102.69 45.5659C112.315 44.0945 119.025 43.5738 123.704 43.5738Z" fill="#9DCBEA"/>
<path d="M120.64 68.739C117.602 68.739 109.465 66.7825 87.9483 57.4625C87.8689 57.4282 87.8194 57.3474 87.8252 57.261C87.8307 57.1746 87.89 57.101 87.9733 57.077C89.5908 56.6131 91.5171 56.3778 93.6986 56.3778C98.9183 56.3778 105.494 57.7608 111.287 60.0771C117.237 62.4558 121.257 65.3277 122.316 67.9567C122.325 67.9805 122.33 68.0059 122.33 68.0316C122.331 68.0708 122.32 68.2092 122.176 68.3553C121.923 68.6099 121.406 68.739 120.64 68.739Z" fill="white"/>
<path d="M93.7009 56.1728V56.5832L93.7001 56.1728C91.4976 56.1728 89.5522 56.4108 87.9169 56.88C87.7503 56.9278 87.6317 57.0749 87.6204 57.2479C87.6093 57.4208 87.7078 57.5821 87.8668 57.651C109.416 66.985 117.583 68.9444 120.64 68.9444C121.475 68.9444 122.025 68.7991 122.321 68.5C122.517 68.3032 122.536 68.1059 122.536 68.0302C122.535 67.9787 122.525 67.9278 122.506 67.8802C121.426 65.1999 117.365 62.2863 111.365 59.8871C105.548 57.5614 98.9449 56.1728 93.7009 56.1728ZM93.6986 56.5832C104.689 56.5823 119.933 62.5922 122.125 68.0336C122.125 68.0336 122.129 68.534 120.64 68.534C117.904 68.534 110.129 66.8472 88.0299 57.2746C89.6878 56.7988 91.6182 56.5832 93.6986 56.5832Z" fill="#9DCBEA"/>
<path d="M128.428 53.685C126.58 53.685 123.929 53.2552 121.121 52.8001C119.076 52.4684 116.96 52.1255 114.884 51.8951C112.532 51.6344 110.216 51.4093 107.976 51.1916C102.865 50.6949 98.0369 50.2259 93.8613 49.4336C93.7575 49.4139 93.6855 49.3185 93.6951 49.2132C93.705 49.108 93.793 49.0271 93.8987 49.0267C96.7977 49.0148 98.9025 48.7128 101.339 48.3632C103.917 47.9931 106.839 47.5737 111.334 47.4359C112.283 47.4067 113.213 47.392 114.099 47.392C124.491 47.392 128.483 49.3857 130.002 51.0585C130.964 52.1171 130.89 53.004 130.887 53.0412C130.881 53.0999 130.851 53.1532 130.803 53.1879C130.34 53.5223 129.563 53.685 128.428 53.685H128.428Z" fill="white"/>
<path d="M114.099 47.1868C113.211 47.1868 112.279 47.2015 111.328 47.2307C106.821 47.369 103.894 47.7893 101.31 48.1601C98.8807 48.5086 96.7829 48.8098 93.8979 48.8217C93.6865 48.8225 93.5103 48.9838 93.491 49.1945C93.4717 49.405 93.6153 49.5958 93.8232 49.6352C98.0077 50.429 102.84 50.8986 107.956 51.3959C110.195 51.6134 112.511 51.8385 114.861 52.0992C116.932 52.3288 119.045 52.6712 121.088 53.0026C123.904 53.4591 126.564 53.8901 128.428 53.8901C129.624 53.8901 130.417 53.7198 130.923 53.354C131.019 53.2851 131.08 53.1782 131.091 53.0611C131.101 52.9583 131.159 52.0266 130.154 50.9206C128.608 49.2171 124.567 47.1868 114.099 47.1868ZM114.099 47.5971C131.207 47.5971 130.683 53.0215 130.683 53.0215C130.23 53.3491 129.448 53.4798 128.428 53.4798C125.295 53.4798 119.916 52.247 114.907 51.6914C107.175 50.8338 99.8885 50.3683 93.8997 49.2321C99.9476 49.2072 102.69 47.9063 111.341 47.6408C112.309 47.6113 113.225 47.5971 114.099 47.5971Z" fill="#9DCBEA"/>
<path d="M116.185 72.6763C114.638 72.6763 111.394 71.8101 104.726 67.6838C104.081 67.2848 99.9761 64.0401 99.8154 63.3474C99.7929 63.25 99.8193 63.1796 99.8458 63.1376C99.9406 62.9866 100.138 62.9866 100.203 62.9866C100.885 62.9866 102.939 63.7239 105.113 64.5046C105.853 64.7701 106.552 65.021 107.175 65.2341C107.718 65.4198 108.322 65.6129 108.963 65.8172C110.795 66.4019 112.872 67.0648 113.942 67.7255C114.732 68.2125 115.589 69.0572 116.294 70.0432C116.799 70.7492 117.325 71.6811 117.288 72.1792C117.27 72.4114 117.137 72.5019 117.059 72.5354C116.908 72.5996 116.634 72.6763 116.185 72.6763Z" fill="white"/>
<path d="M100.203 62.7816C99.9539 62.7816 99.7752 62.8647 99.6722 63.0288C99.6058 63.1347 99.5857 63.2644 99.6158 63.394C99.6536 63.5569 99.7323 63.8961 101.879 65.7186C102.98 66.6535 104.157 67.5733 104.618 67.8584C111.327 72.01 114.612 72.8817 116.185 72.8817C116.573 72.8817 116.894 72.8286 117.139 72.7241C117.345 72.6365 117.474 72.4435 117.493 72.1946C117.545 71.4991 116.716 70.2808 116.461 69.924C115.741 68.9167 114.862 68.0517 114.05 67.5509C112.959 66.8771 110.959 66.2391 109.025 65.6219C108.386 65.418 107.782 65.2251 107.241 65.0401C106.619 64.8273 105.921 64.5766 105.182 64.3113C102.608 63.3873 100.871 62.7816 100.203 62.7816ZM100.203 63.1919C101.079 63.1919 104.731 64.615 107.108 65.4282C109.246 66.1597 112.427 67.0312 113.835 67.9001C115.785 69.1034 117.54 72.1076 116.979 72.3466C116.835 72.4076 116.586 72.4714 116.185 72.4714C114.806 72.4714 111.634 71.7172 104.834 67.5094C103.924 66.9465 99.8142 63.5748 100.02 63.2469C100.043 63.2094 100.106 63.1919 100.203 63.1919Z" fill="#9DCBEA"/>
<path d="M95.0786 68.0334C102.363 80.1848 105.125 82.0378 106.132 82.0378C106.574 82.0378 106.678 81.6802 106.678 81.6802C106.966 78.8939 100.851 70.075 95.0786 68.0334Z" fill="white"/>
<path d="M114.581 41.0858C115.143 40.8921 115.549 40.6369 115.779 40.2304C115.378 40.5136 114.979 40.7987 114.581 41.0858Z" fill="white"/>
<path d="M105.877 47.9063C106.783 47.1456 107.732 46.4246 108.719 45.7857C108.808 45.6353 108.905 45.4714 109.011 45.2903C107.944 46.1347 106.899 47.0073 105.877 47.9063Z" fill="white"/>
<path d="M139.051 5.44191C139.182 5.32148 139.311 5.20228 139.446 5.07897C139.637 4.90355 139.752 4.72055 139.817 4.54575C139.555 4.83852 139.299 5.13724 139.051 5.44191Z" fill="white"/>
<path d="M60.1855 50.0987C61.0326 49.3181 62.2386 48.79 63.5102 48.233C63.6175 48.186 63.726 48.1384 63.8354 48.0904C63.962 48.1433 64.0894 48.1888 64.2174 48.2284C64.1333 48.5737 63.9849 48.8839 63.6595 49.2387C62.9074 50.0585 61.327 50.9547 58.9608 51.9038C59.7064 51.355 59.9953 50.6504 60.1855 50.0987ZM120.633 12.6481C120.633 12.6481 120.32 12.8762 120.029 13.1515C119.673 13.489 118.893 14.2884 116.386 17.944C115.739 18.8869 115.145 19.9556 114.571 20.989C113.773 22.424 112.949 23.9079 111.948 25.1397C111.816 25.3024 111.689 25.4668 111.554 25.6407C110.302 27.2521 108.411 29.6872 99.0939 34.9023C95.7835 36.7552 92.984 37.5845 91.3595 37.9447C90.902 37.0176 90.1798 36.2576 89.2014 35.6737C89.7147 35.3012 90.0557 34.8299 90.2223 34.2612C90.6259 32.8829 89.8138 31.353 88.0432 30.1222C88.639 29.3425 88.8516 28.4023 89.0229 27.6456C89.1091 27.2642 89.1905 26.9039 89.305 26.6022C89.5377 25.9891 89.2488 25.3012 88.6483 25.038C88.4876 24.9676 88.32 24.9342 88.1547 24.9342C87.7019 24.9342 87.2679 25.1853 87.0531 25.6151L86.9772 25.7675C86.6151 26.4996 86.349 27.0371 85.1693 27.6924C85.095 27.702 85.0222 27.707 84.9514 27.707C84.5468 27.707 84.1482 27.5412 83.6964 27.1848C83.5284 27.0523 83.3289 26.9659 83.1172 26.9339C82.6476 26.8631 82.1989 26.8272 81.7834 26.8272C80.3563 26.8272 79.3728 27.2521 78.6973 27.8015C77.9423 27.2404 77.0086 26.8131 75.7778 26.8131C75.0909 26.8129 74.3718 26.9466 73.5918 27.2205C73.4402 27.153 73.2861 27.0798 73.1277 27.0045C72.3054 26.6141 71.3738 26.1715 70.1288 26.1715C69.7895 26.1715 69.4448 26.2047 69.0921 26.2722C69.0757 26.2234 69.0558 26.1752 69.0326 26.1276C68.8215 25.6939 68.3851 25.4354 67.9257 25.4354C67.7908 25.4354 67.6537 25.4575 67.5197 25.5045C67.3115 25.5771 67.1002 25.6457 66.8763 25.7183C66.2996 25.9052 65.6498 26.1159 65.0167 26.4382C64.7871 26.1707 64.4478 26.0084 64.0826 26.0084C64.0424 26.0084 64.002 26.0102 63.9611 26.0141C63.7554 26.0345 63.5451 26.0482 63.3225 26.063C62.6327 26.1079 61.8407 26.1598 61.031 26.4473C60.796 26.1426 60.4337 25.9682 60.0564 25.9682C59.9352 25.9682 59.8127 25.9862 59.692 26.0236C58.7577 26.3131 57.2258 26.7878 56.585 28.6093C56.2984 28.4261 55.998 28.3337 55.6864 28.3337C55.1329 28.3335 54.6388 28.6427 54.3971 29.1409C54.1325 29.6864 54.2074 30.3536 54.591 30.9732C54.7656 31.6408 55.2219 32.3511 55.8594 33.2944C55.8721 33.3131 55.885 33.3322 55.8983 33.3519C55.059 33.65 54.3994 34.2478 54.0672 35.0546C53.6327 36.1099 53.8707 37.306 54.6735 38.1019C54.7176 38.1458 54.7648 38.1858 54.814 38.2219C54.6033 38.8029 54.5822 39.3524 54.6487 39.8271C54.1569 40.5542 53.6645 41.3199 53.2519 42.094C52.978 42.6071 52.7609 43.0825 52.5923 43.5388C51.6024 44.6153 50.4768 45.8943 49.4005 47.5132C48.1923 49.2982 49.514 50.6986 50.1675 51.2948C50.6869 52.216 51.3986 53.4753 52.8777 53.4753C53.0593 53.4753 53.2435 53.454 53.4294 53.4117C53.7619 53.5867 54.1374 53.7148 54.5619 53.7148C54.7691 53.7148 54.9755 53.6844 55.185 53.6229C53.288 54.8551 51.9505 56.495 51.1369 58.5747C51.0146 58.6648 50.8954 58.7514 50.7784 58.8363C49.8525 59.509 49.0239 60.111 48.4547 61.2946C48.3009 61.2121 48.1488 61.1151 47.996 61.0022C47.1919 59.4003 45.9154 57.4393 43.89 57.4389C42.3457 57.4385 41.0282 58.6016 39.9106 59.7163C38.29 60.9126 37.2316 62.4922 36.5956 64.6657C35.4579 66.2225 34.1689 67.8342 32.554 69.7193C32.5517 69.722 32.5493 69.7248 32.547 69.7275C31.632 70.8153 30.6536 72.1657 30.3362 73.9342C30.0061 75.7737 30.4519 77.7347 31.6991 79.9292C31.7857 80.0832 31.8595 80.2552 31.9375 80.4371C32.1443 80.9187 32.3915 81.4946 32.9916 82.0454C32.9877 82.0813 32.984 82.1166 32.9803 82.1497C32.8496 83.3632 32.6597 85.1266 33.5101 86.1814C33.6418 86.578 33.8818 86.9368 34.2286 87.2548C34.5624 89.0311 35.619 90.656 37.4427 92.2011C37.7943 92.9746 38.3682 93.9701 39.3954 94.707C39.6092 94.8607 39.861 94.938 40.1131 94.938C40.3417 94.938 40.5708 94.8744 40.7725 94.7464C41.0119 94.5944 41.1859 94.3689 41.2754 94.1124C41.4567 94.0884 41.6783 94.0287 41.9069 93.8952C41.9266 93.9108 41.9487 93.9301 41.9729 93.9532C42.5927 95.0974 43.2224 95.8365 43.9448 96.2696C45.3044 97.1352 46.9601 97.6712 48.1702 98.0631C48.4849 98.1651 48.7567 98.2531 48.9738 98.3311C49.1109 98.3805 49.2516 98.4039 49.3899 98.4039C49.8671 98.4039 50.3185 98.1247 50.5189 97.6635C50.6898 97.2706 51.1988 95.7458 50.5714 92.6287C50.1313 90.4416 49.3119 88.525 48.3236 87.3705C48.0873 87.0942 47.744 86.9399 47.3885 86.9399C47.306 86.9399 47.2229 86.9481 47.1402 86.9651L45.2896 87.3455C45.5412 86.8063 45.7355 86.0782 45.3664 85.4085C45.0357 84.8082 44.4173 84.5039 43.5283 84.5039C43.2224 84.5037 42.9161 84.5353 42.6196 84.5655C42.5082 84.577 42.4015 84.5878 42.3026 84.5963C42.1676 84.584 42.0642 84.5673 41.9867 84.5505C42.0544 84.3435 42.1779 84.071 42.237 83.9418C42.9598 82.3952 43.683 80.8487 44.4062 79.3024L44.8492 78.3553C44.8522 78.3486 44.8553 78.3418 44.8584 78.3348C45.0759 77.8467 45.4218 77.5057 45.6996 77.5057C45.8848 77.5057 46.1353 77.6286 46.4043 77.8519C47.2264 78.534 48.0099 78.8518 48.8692 78.8518C49.0708 78.8518 49.2518 78.8356 49.4149 78.8184C50.5936 80.9761 52.2201 83.3556 54.5994 86.413C54.6017 86.4159 54.6037 86.4187 54.6062 86.4216C57.4457 90.0042 62.58 92.8324 70.2835 95.0529C70.2027 95.5775 70.0418 95.9811 69.7078 96.3914C69.692 96.4107 69.677 96.4304 69.6625 96.4507C68.3125 98.3315 68.1408 100.925 69.1781 103.758C69.359 104.377 69.4836 105.184 69.6153 106.036C69.9076 107.928 70.2373 110.063 71.3824 111.541C71.5933 112.16 71.6743 113.764 71.7059 114.392C71.7363 114.992 71.6013 115.602 71.3151 116.16C69.6401 118.479 68.0037 120.236 66.0432 121.818C64.0879 122.298 62.1869 123.113 61.222 125.473C61.0845 125.809 61.1044 126.181 61.2628 126.494C60.5402 126.88 59.9097 127.418 59.3447 128.131C59.3359 128.143 59.3273 128.154 59.3189 128.165C59.2155 128.305 59.111 128.446 59.0066 128.587C57.8127 130.194 56.6849 131.713 56.5188 133.167C56.5136 133.213 56.511 133.259 56.5108 133.304H57.7424C57.8854 132.068 59.1527 130.464 60.3094 128.896C60.7755 128.308 61.3397 127.794 62.12 127.445C62.6967 127.213 63.0297 126.691 63.3791 126.202C63.1005 125.871 62.7613 125.783 62.3613 125.939C63.1684 123.965 64.8216 123.36 66.5959 122.952C69.0739 120.992 70.8463 118.921 72.3641 116.81C72.8001 116 72.9767 115.147 72.9355 114.33C72.8594 112.826 72.7553 111.547 72.4525 110.907C70.9171 109.089 70.9835 105.499 70.3473 103.37C69.4758 101.014 69.51 98.774 70.6624 97.1684C71.4558 96.1936 71.5547 95.192 71.5888 94.1412C64.3528 92.1582 58.6209 89.5053 55.5709 85.657C53.439 82.9176 51.4982 80.2033 50.1445 77.5665C49.1954 77.4473 48.5719 78.0507 47.1901 76.9042C45.572 75.5626 44.2839 76.5999 43.7339 77.8338C42.8621 79.6981 41.9902 81.5623 41.1188 83.4268C40.6597 84.435 40.1347 85.6822 42.3022 85.8309C43.452 85.7503 45.1641 85.3106 43.8894 87.3282C44.1003 88.1821 44.4046 88.8366 45.21 88.6185C45.9363 88.4694 46.6626 88.3202 47.3883 88.1709C49.2668 90.3655 50.1129 95.5109 49.3901 97.1727C48.3087 96.7839 46.1622 96.2271 44.5906 95.2214C43.969 94.8545 43.4522 94.125 42.9826 93.2304C42.5304 92.7124 42.0341 92.5156 41.4926 92.6392C41.1067 93.1453 40.6016 92.9028 39.9781 91.9114C39.8747 92.2586 39.9652 92.9057 40.1131 93.707C39.3321 93.1465 38.8436 92.3655 38.4537 91.4408C36.3615 89.7359 35.5369 88.1354 35.3744 86.5899C34.9606 86.3168 34.675 85.9881 34.6295 85.5644C33.5466 84.7505 34.5041 81.328 34.1972 81.4289C33.2364 80.7886 33.2046 80.0945 32.7692 79.3208C30.3735 75.1057 31.6677 72.6848 33.4889 70.5201C34.9631 68.7991 36.3914 67.0439 37.7199 65.2126C38.1932 63.4884 38.997 61.8933 40.7136 60.6543C43.0142 58.3476 44.8325 57.2885 47.0157 61.7977C47.7867 62.4331 48.5095 62.7158 49.2104 62.8379C49.6941 60.9009 50.6494 60.4963 52.1637 59.3433C53.2739 56.2106 55.6519 54.2291 59.2587 53.1101C65.6671 50.5706 65.3684 48.9451 65.6006 47.2473C64.9911 47.1757 64.3934 47.0701 63.8778 46.7231C62.1684 47.5011 60.3379 48.1562 59.1137 49.4256C58.8778 50.118 58.6947 50.8289 57.6199 51.2357C56.8909 52.3227 55.948 52.6506 55.1552 52.3075C54.5996 52.6054 54.2424 52.5285 53.5808 52.0542C52.2839 52.7062 51.7335 51.5562 51.1389 50.5123C49.8677 49.3897 50.0419 48.7598 50.4223 48.2001C51.4717 46.6206 52.5671 45.3795 53.669 44.1871C53.8352 43.6904 54.065 43.1846 54.3381 42.6732C54.7925 41.8209 55.3665 40.9524 55.9658 40.0805C55.3575 38.195 57.1271 37.1191 58.7565 35.9961C57.3199 35.1766 56.0048 34.7671 55.5401 37.2277C54.5005 36.1971 55.2761 34.2033 57.4356 34.3822C58.6502 34.4828 55.8741 31.6952 55.7484 30.4829C55.1741 29.7541 55.5711 29.1228 56.267 29.9712C56.6886 30.3058 57.11 30.6406 57.5315 30.9755C57.3759 28.1202 58.6923 27.622 60.0564 27.1994C59.2842 27.9251 58.4506 28.5668 58.6603 30.6254C60.237 27.09 62.1846 27.4261 64.0818 27.2394C63.2777 27.6386 62.3274 27.9882 62.1085 28.5869C62.6694 29.1068 63.0664 29.7391 63.3881 30.4225C64.0085 27.6341 66.0641 27.3172 67.926 26.6666C66.8876 27.3321 65.5434 27.7952 65.7313 29.2697C70.1382 26.0646 71.5578 27.7983 73.5746 28.5442C76.2713 27.4361 77.6358 28.3471 78.8098 29.5467C79.4759 28.3813 80.7568 27.8231 82.934 28.1512C83.6935 28.7504 84.5409 29.0929 85.5808 28.8692C87.351 27.9353 87.7111 27.0519 88.154 26.1654C87.4415 28.0436 87.9764 30.6511 83.6338 30.4092C82.3167 30.0227 80.2332 29.4336 80.201 32.2005C82.2945 30.5341 83.9586 30.9939 85.4276 32.4198C87.835 35.1894 88.5067 32.7317 87.0925 30.9675C89.9757 32.8144 90.5368 35.8565 83.2918 35.4563C87.1134 35.6754 89.9117 36.6856 90.5672 39.3511C91.8091 39.1511 95.3521 38.4074 99.695 35.9766C110.186 30.1045 111.545 27.5884 112.904 25.9159C114.722 23.6777 115.912 20.812 117.401 18.6401C119.349 15.7994 120.197 14.7623 120.764 14.0765C120.806 14.0262 121.443 13.2201 121.429 13.2102C121.333 13.1409 120.633 12.6481 120.633 12.6481Z" fill="white"/>
<path d="M37.7874 74.0397C37.6577 73.9773 37.557 73.9217 37.4796 73.8745C37.5877 73.7576 37.718 73.6302 37.8079 73.5424L37.9345 73.4213C37.8764 73.6306 37.8278 73.8366 37.7874 74.0397ZM44.3206 68.443C42.666 67.0626 42.3742 67.4377 41.4153 68.3888C39.9281 69.811 38.4408 71.2338 36.9536 72.6562C36.1606 73.4303 35.3401 74.2512 37.3071 75.1742C37.7459 75.6051 38.2482 76.255 37.7865 77.4762C37.4675 78.73 37.4944 79.3001 38.0245 80.0945C38.3411 79.0812 38.6378 78.0624 38.9076 77.0359C38.725 75.2573 38.8969 73.4796 40.0489 71.7028C41.3593 68.7201 42.4629 67.1982 46.1296 70.6118C46.884 70.8608 47.5294 70.9132 48.1131 70.8535C47.5939 70.0063 45.9802 69.8272 44.3206 68.443Z" fill="white"/>
<path d="M109.109 42.6779C109.035 42.7909 108.962 42.9066 108.893 43.0271C108.829 43.1401 108.766 43.2494 108.706 43.3547C108.464 43.7759 108.258 44.1358 108.077 44.4468C107.987 44.6023 107.903 44.7455 107.825 44.8781C106.851 46.5339 106.759 46.512 105.618 47.784C103.189 50.4926 101.155 50.8397 101.051 51.3598C100.995 51.6385 101.087 51.8083 101.274 51.9113C101.625 52.1052 101.862 52.1466 102.273 52.1809C102.331 52.1856 102.394 52.1906 102.46 52.1955C102.502 52.1986 102.541 52.2006 102.577 52.2018C102.614 52.2029 102.647 52.2033 102.678 52.2033C102.771 52.2027 102.841 52.1977 102.886 52.1965C102.932 52.1953 102.954 52.1977 102.953 52.2121C102.94 52.3752 102.298 52.4924 101.653 52.5619C100.821 52.6518 99.7563 53.2599 99.7026 53.8832C99.6464 54.5381 100.12 54.7539 100.388 54.8747C100.532 54.9396 100.673 54.9837 100.794 55.0204C100.875 55.0448 100.947 55.0662 101.004 55.0879C101.091 55.1205 101.146 55.1546 101.151 55.2032C101.154 55.225 101.096 55.268 101.013 55.3087C100.993 55.3187 100.971 55.3288 100.947 55.3382C100.877 55.3665 100.797 55.3899 100.722 55.3981C100.659 55.4053 100.605 55.4076 100.554 55.4065C100.402 55.4032 100.281 55.3698 100.053 55.3421C99.9988 55.3355 99.9488 55.3323 99.903 55.3318C99.7656 55.331 99.6656 55.3571 99.6043 55.4012C98.9941 55.8386 99.2348 57.4578 100.739 59.8264C100.782 59.8949 100.825 59.9647 100.866 60.0355C100.908 60.106 100.949 60.1776 100.988 60.2497C101.54 61.2593 101.87 62.376 101.675 62.6339C101.665 62.6466 101.652 62.6552 101.638 62.6614C101.637 62.6618 101.636 62.662 101.635 62.6624C101.62 62.6681 101.603 62.6704 101.585 62.67H101.583C101.557 62.669 101.528 62.6634 101.495 62.6517H101.494H101.494C101.466 62.6419 101.436 62.6279 101.404 62.6117C101.4 62.6095 101.395 62.6074 101.391 62.605C101.325 62.5703 101.252 62.5237 101.173 62.4683C101.167 62.4646 101.162 62.4609 101.156 62.457C101.077 62.401 100.993 62.3372 100.905 62.2687C100.898 62.2627 100.89 62.2568 100.882 62.2508C100.795 62.1819 100.705 62.1091 100.615 62.0358C100.563 61.9942 100.512 61.9525 100.461 61.9113C99.9338 61.4858 98.0742 60.4946 94.8555 59.2813C94.1227 59.0051 93.4635 58.8365 92.9416 58.8375C92.7676 58.8379 92.6088 58.8572 92.4676 58.8974C92.2403 58.9624 92.0714 59.1393 91.95 59.3888C91.8893 59.5135 91.8406 59.6561 91.8025 59.8122C91.6111 60.5923 91.6829 61.7016 91.8501 62.5233C91.8503 62.5243 91.8507 62.5254 91.8509 62.5264C91.8667 62.6043 91.8852 62.6895 91.9049 62.7779C91.9088 62.7962 91.9128 62.8144 91.917 62.8333C91.9379 62.9252 91.9602 63.0214 91.9847 63.1216C91.9869 63.131 91.9896 63.1411 91.9918 63.1507C92.0169 63.2525 92.0437 63.3577 92.0723 63.4656C92.0741 63.4722 92.0758 63.4783 92.0772 63.4847C92.1078 63.5988 92.14 63.7155 92.174 63.8333C92.1765 63.8413 92.1785 63.8493 92.181 63.8571C92.2508 64.0977 92.3281 64.3429 92.4116 64.5815C92.413 64.5858 92.4147 64.5901 92.4161 64.5942C92.5017 64.8374 92.5936 65.0737 92.6915 65.291C92.6915 65.2912 92.6915 65.2914 92.6915 65.2916C92.7118 65.3365 92.7325 65.3802 92.753 65.4235C92.7614 65.4412 92.7698 65.4588 92.7785 65.4762C92.7785 65.4762 92.7787 65.4764 92.7787 65.4767C92.7961 65.5121 92.8135 65.5468 92.8314 65.5809C92.8464 65.6096 92.8615 65.6377 92.8767 65.6654C92.8899 65.6896 92.9032 65.714 92.9165 65.7372C92.9465 65.7891 92.9766 65.8396 93.0076 65.8868C93.0271 65.9169 93.046 65.9481 93.0649 65.9799C93.0649 65.9801 93.0651 65.9801 93.0651 65.9803C93.0675 65.9849 93.0704 65.9896 93.0731 65.9941C93.0928 66.0277 93.1118 66.062 93.1309 66.0971C93.1311 66.0973 93.1311 66.0975 93.1313 66.0977C93.134 66.1028 93.1367 66.1082 93.1395 66.1135C93.1806 66.1902 93.2214 66.2711 93.2645 66.3556C93.3063 66.4379 93.3498 66.5232 93.3983 66.6127C93.3989 66.6135 93.3993 66.6141 93.3997 66.6151C93.642 67.0628 96.3754 69.6093 95.684 69.6163C95.5833 69.6173 94.4231 69.4138 94.1327 69.3364C94.0343 69.3102 93.9325 69.2812 93.8279 69.2492C93.0932 69.0258 92.2025 68.6551 91.2249 68.0334C90.178 67.3673 89.195 66.1508 88.7069 65.8876C88.6089 65.8349 88.5061 65.785 88.3978 65.7389C88.073 65.6006 87.699 65.4953 87.2591 65.4412C87.2137 65.4356 87.1717 65.4319 87.1323 65.4299C87.0927 65.428 87.0562 65.4276 87.0221 65.4288C86.8178 65.4354 86.7068 65.4925 86.6454 65.5421C86.328 65.799 86.9206 66.4054 87.3163 67.0138C88.6657 69.0876 89.0906 70.7997 89.0959 71.7793C89.098 72.1525 89.0391 72.4195 88.9472 72.5596C88.9242 72.5947 88.8992 72.6219 88.8725 72.6406C88.8594 72.6501 88.8454 72.6576 88.8315 72.6628C88.7714 72.6853 88.7078 72.6624 88.6372 72.6033C88.3313 72.3472 87.8937 71.4129 87.035 70.5633C86.4208 69.9554 85.9454 69.3268 84.8273 68.725C84.5542 68.5779 84.244 68.4376 83.8866 68.3075C83.5296 68.1779 83.1256 68.0585 82.6654 67.9536C82.5438 67.9368 82.4135 67.9269 82.2717 67.9269C81.8464 67.9272 81.3167 68.0156 80.5926 68.2718C79.8489 68.5349 79.2308 68.6403 78.7101 68.6329C77.1479 68.6103 76.4612 67.5706 75.8835 66.7144C76.5476 68.3623 77.6545 70.0112 79.6347 73.0175C80.4183 74.0011 81.2496 74.8958 82.1476 75.6668C82.2598 75.763 82.3731 75.8574 82.4873 75.9499C82.7161 76.1348 82.9492 76.3116 83.1868 76.4799C83.3055 76.564 83.4256 76.6461 83.5466 76.7259C84.0314 77.0451 84.5351 77.3291 85.0599 77.573C85.2965 77.6364 85.5277 77.7012 85.7548 77.7675C85.7776 77.7741 85.7995 77.781 85.8219 77.7876C86.1071 77.8715 86.3837 77.9581 86.6549 78.0465C86.6588 78.0478 86.6627 78.049 86.6666 78.0504C87.454 78.3075 88.1844 78.5834 88.8614 78.8772C88.8614 78.8772 88.8614 78.8774 88.8616 78.8774C88.8916 78.8904 88.9211 78.9037 88.9509 78.9168C89.3218 79.0797 89.677 79.2482 90.0169 79.4213C90.0461 79.4361 90.0754 79.4507 90.1041 79.4657C90.1041 79.4657 90.1043 79.4657 90.1043 79.4659C90.5413 79.6913 90.9529 79.9256 91.3415 80.1673C91.3745 80.1878 91.4077 80.2081 91.4404 80.2289C91.5292 80.2851 91.617 80.3419 91.7036 80.3989C91.735 80.4197 91.7662 80.4404 91.7969 80.4611C91.8864 80.5208 91.975 80.5809 92.0618 80.6417C92.0737 80.6499 92.085 80.6581 92.0967 80.6663C92.3946 80.8758 92.6773 81.0904 92.9461 81.3097C92.959 81.3201 92.9721 81.3306 92.9848 81.3411C93.0686 81.41 93.1508 81.4793 93.2317 81.5489C93.2475 81.5624 93.2632 81.576 93.2788 81.5895C93.3615 81.6615 93.4436 81.7338 93.5236 81.8066C94.0098 81.8558 94.3473 81.7922 94.5765 81.672C97.7441 85.3966 98.0939 83.5376 98.0939 83.5376C98.1132 82.9705 97.9326 82.2054 97.5976 81.322C101.913 85.3672 102.138 82.9943 102.138 82.9943C102.105 82.4038 101.893 81.6695 101.532 80.8388C104.418 82.6658 104.539 80.9644 104.539 80.9644C104.352 78.8543 101.636 74.9844 97.9613 71.5147C97.7962 71.208 97.8963 70.5566 98.053 69.8537C98.7414 70.3906 99.4059 70.8842 100.051 71.3343C104.42 74.3841 107.463 75.7407 109.518 76.2913C112.317 77.0408 113.173 77.2324 113.287 76.2973C113.35 75.7811 112.362 74.0427 111.138 72.5198C109.163 70.0617 105.996 67.0474 102.28 64.1098C103.023 64.4201 103.501 64.6297 103.7 64.7159C107.107 66.1921 112.7 67.0835 112.668 66.9549C112.592 66.6461 112.52 66.9541 109.671 65.6166C108.563 65.0965 107.086 64.3242 105.733 63.3107C105.062 62.8085 102.506 60.4952 103.485 59.3689C103.66 59.1664 104.276 59.0771 105.078 59.0771C106.113 59.0771 106.688 59.1606 108.156 59.4282C109.353 59.6465 111.581 60.2971 111.581 60.2971L110.433 59.6834C110.433 59.6834 103.543 57.7068 103.21 56.5021C103.347 56.1732 104.082 55.7118 104.775 55.6371C105.987 55.5062 106.407 55.323 106.439 54.911L106.453 54.7321L106.329 54.5928C106.243 54.5001 106.127 54.4531 105.982 54.4531C105.96 54.4531 105.93 54.4541 105.894 54.4558C105.855 54.4576 105.805 54.4601 105.743 54.4601C105.685 54.4601 105.628 54.4578 105.568 54.4535C105.034 54.4133 104.866 54.394 104.549 54.2192C104.531 54.2096 104.524 54.2026 104.523 54.2012C104.524 54.2008 104.52 54.1833 104.525 54.1435C104.608 54.0582 104.898 53.8965 105.155 53.7527C106.003 53.2785 107.423 52.485 109.001 50.7251C109.197 50.507 109.361 50.327 109.505 50.1703C110.455 49.1326 106.964 50.5636 108.779 47.3911C109.356 46.3836 113.046 44.7199 114.193 44.3705C115.613 43.9376 117.472 43.86 117.906 43.7905C118.065 43.7648 116.58 43.199 116.68 43.1756C117.786 42.9179 120.969 42.2729 120.869 42.1186C120.643 41.7694 113.373 42.5332 109.109 42.6779Z" fill="#9DCBEA"/>
<path d="M126.509 26.653L126.4 26.4111H126.134C125.964 26.4111 125.916 26.4573 125.655 26.7131C125.491 26.8744 125.242 27.1179 125.108 27.2377C124.148 28.0935 123.31 28.782 122.104 29.5694C120.422 30.6675 118.855 31.3823 116.184 32.4783C115.709 32.6734 114.941 32.906 114.258 33.0933C115.273 32.0464 116.255 30.7362 117.152 29.3425L117.151 29.3429C116.507 29.7719 115.868 30.1611 115.237 30.5183C115.229 30.5226 115.222 30.5271 115.214 30.5314C115.088 30.6024 114.963 30.6718 114.838 30.7405C114.778 30.7733 114.718 30.8062 114.659 30.8386C114.557 30.8938 114.454 30.9487 114.353 31.0027C114.259 31.0524 114.166 31.101 114.073 31.1494C113.998 31.1882 113.923 31.2276 113.848 31.2659C113.675 31.3548 113.502 31.4422 113.329 31.5275C111.109 32.6276 107.432 33.9409 106.071 34.8625C105.381 35.329 110.286 34.9583 112.235 34.9837C113.137 34.9956 114.057 35.2104 114.693 35.4255C115.374 35.1319 116.029 34.8401 116.589 34.5623C119.442 33.1487 122.843 31.1572 126.433 27.105C126.604 26.9107 126.534 26.7098 126.509 26.653Z" fill="#9DCBEA"/>
<path d="M116.645 35.844C115.862 35.9454 114.385 36.2453 112.956 36.5352C112.422 36.6435 111.864 36.7568 111.345 36.8588C111.984 36.5725 112.691 36.2742 113.387 35.9806C113.591 35.8945 113.796 35.8079 114.001 35.7209C113.839 35.7031 113.667 35.6897 113.49 35.6791C113.492 35.6784 113.494 35.6778 113.495 35.6774C113.152 35.6567 112.785 35.6546 112.411 35.6903C111.37 35.79 110.171 35.996 108.936 36.304C108.863 36.3222 108.79 36.3415 108.717 36.3604C108.608 36.3887 108.499 36.4176 108.389 36.4474C108.315 36.4677 108.241 36.4876 108.166 36.5085C108.008 36.5531 107.85 36.5992 107.692 36.6468C107.622 36.668 107.553 36.6899 107.483 36.7117C107.354 36.7517 107.226 36.7927 107.098 36.8347C107.043 36.853 106.988 36.8707 106.932 36.8891C106.767 36.9447 106.603 37.0028 106.439 37.0621C106.38 37.0836 106.32 37.1054 106.261 37.1273C106.091 37.1905 105.921 37.2551 105.753 37.3222C105.72 37.3354 105.688 37.3491 105.655 37.3622C105.504 37.4236 105.355 37.4864 105.206 37.5506C105.16 37.5705 105.115 37.59 105.069 37.6101C104.9 37.685 104.733 37.7615 104.568 37.8403C104.532 37.8577 104.496 37.8758 104.46 37.8934C104.31 37.966 104.163 38.0403 104.018 38.1164C103.99 38.131 103.961 38.1453 103.933 38.1601C103.771 38.2463 103.612 38.3353 103.456 38.4258C103.421 38.4465 103.386 38.4673 103.35 38.488C103.191 38.5821 103.034 38.678 102.882 38.7764C100.976 40.0171 100.04 41.254 97.1234 43.1483C97.0293 43.2094 96.933 43.2712 96.8346 43.3338C96.7209 43.406 96.5947 43.4817 96.461 43.5588C96.1267 43.7513 95.7453 43.9526 95.3902 44.1352C95.3192 44.1717 95.2492 44.2076 95.1809 44.2422C94.7029 44.4856 94.3053 44.6807 94.1906 44.7513C94.1744 44.7613 94.1637 44.7689 94.1594 44.7736C94.1254 44.8118 94.1165 44.837 94.134 44.8448C94.1514 44.8526 94.1949 44.8426 94.2661 44.8106C94.4032 44.7488 94.5472 44.6813 94.6976 44.6087C95.0874 44.4205 95.5211 44.1979 95.9915 43.9505C100.018 41.8328 105.469 38.5329 110.475 38.8121C112.177 38.9069 113.442 39.0161 114.135 39.1851C116.325 38.4508 118.923 37.4031 120.32 36.9527C122.225 36.3391 122.46 36.2008 124.415 35.8834L126.169 35.4823C126.169 35.4823 122.591 35.6001 121.425 35.6001C120.031 35.6001 117.94 35.6764 116.645 35.844Z" fill="#9DCBEA"/>
<path d="M46.1296 70.6118C42.4627 67.1982 41.3593 68.7201 40.0489 71.703C38.8969 73.4796 38.725 75.2573 38.9076 77.0361C38.6378 78.0625 38.3411 79.0814 38.0245 80.0945C37.4944 79.3001 37.4675 78.73 37.7865 77.4762C38.248 76.2552 37.7459 75.6053 37.3071 75.1744C35.3402 74.2514 36.1606 73.4303 36.9534 72.6562C38.4408 71.2338 39.9279 69.8112 41.4151 68.389C42.3743 67.4379 42.666 67.0628 44.3207 68.443C45.9802 69.8272 47.5939 70.0065 48.1129 70.8537C47.5294 70.9131 46.884 70.8608 46.1296 70.6118ZM122.304 24.8769C121.287 25.7835 120.45 26.4637 119.251 27.2459C117.46 28.4154 115.728 29.1792 113.263 30.1909C112.158 30.6443 109.643 31.266 109.764 31.1697C112.639 28.8764 115.289 24.0692 116.616 21.1115C117.628 18.8549 118.94 17.048 119.538 16.1014C119.782 15.7148 120.722 14.1678 121.429 13.2101C121.439 13.1966 121.38 13.2276 121.329 13.269C120.922 13.6026 119.349 15.7994 117.401 18.6403C115.912 20.8122 114.722 23.6779 112.904 25.9159C111.545 27.5884 110.186 30.1045 99.695 35.9766C95.3523 38.4076 91.8091 39.1511 90.5672 39.3513C89.9117 36.6856 87.1134 35.6756 83.2918 35.4565C90.5368 35.8565 89.9757 32.8143 87.0927 30.9676C88.5067 32.7317 87.835 35.1895 85.4276 32.42C83.9586 30.9939 82.2945 30.5343 80.201 32.2005C80.2332 29.4338 82.3167 30.0229 83.6338 30.4092C87.9764 30.6513 87.4415 28.0438 88.1542 26.1655C87.7111 27.0519 87.351 27.9355 85.5811 28.8692C84.5409 29.0928 83.6935 28.7506 82.934 28.1513C80.7568 27.8233 79.4762 28.3815 78.81 29.5469C77.6358 28.3473 76.2715 27.4363 73.5748 28.5442C71.5578 27.7983 70.1383 26.0648 65.7313 29.2697C65.5434 27.7954 66.8878 27.3321 67.926 26.6666C66.0643 27.3173 64.0085 27.6343 63.3883 30.4225C63.0664 29.7393 62.6694 29.1068 62.1085 28.5871C62.3276 27.9884 63.2779 27.6386 64.0818 27.2394C62.1846 27.4263 60.2372 27.09 58.6605 30.6256C58.4506 28.567 59.2844 27.925 60.0564 27.1996C58.6923 27.6222 57.3759 28.1204 57.5315 30.9756C57.1101 30.6408 56.6886 30.3058 56.2672 29.9712C55.5713 29.123 55.1741 29.7543 55.7484 30.483C55.8741 31.6952 58.6502 34.4827 57.4356 34.3822C55.2761 34.2035 54.5005 36.1971 55.5401 37.2279C56.0048 34.7673 57.3199 35.1768 58.7565 35.9963C57.1271 37.1193 55.3577 38.1952 55.9658 40.0807C55.3666 40.9526 54.7925 41.8209 54.3381 42.6734C54.0652 43.1848 53.8352 43.6904 53.6692 44.1873C52.5671 45.3797 51.4719 46.6207 50.4223 48.2001C50.0421 48.7598 49.8679 49.3899 51.1391 50.5123C51.7335 51.5564 52.2839 52.7062 53.5808 52.0541C54.2425 52.5285 54.5996 52.6054 55.1552 52.3077C55.948 52.6506 56.8911 52.3227 57.6199 51.2357C58.6948 50.8289 58.878 50.1182 59.1137 49.4258C60.3379 48.1562 62.1684 47.5013 63.8778 46.7233C64.3934 47.0701 64.9913 47.1759 65.6006 47.2475C65.3684 48.9453 65.6671 50.5706 59.2587 53.1103C55.6521 54.2291 53.2741 56.2106 52.1639 59.3435C50.6496 60.4965 49.6941 60.9009 49.2104 62.8378C48.5097 62.7158 47.7869 62.433 47.0157 61.7979C44.8327 57.2887 43.0142 58.3476 40.7138 60.6543C38.997 61.8935 38.1932 63.4886 37.7199 65.2128C36.3916 67.0441 34.9631 68.7993 33.4892 70.5203C31.6677 72.685 30.3737 75.1059 32.7692 79.321C33.2046 80.0945 33.2364 80.7888 34.1972 81.4289C34.5041 81.328 33.5466 84.7507 34.6295 85.5644C34.675 85.9883 34.9608 86.3168 35.3746 86.5898C35.5371 88.1354 36.3617 89.7358 38.4537 91.4408C38.8436 92.3657 39.3323 93.1467 40.1131 93.707C39.9654 92.9059 39.8747 92.2588 39.9781 91.9116C40.6018 92.903 41.1069 93.1455 41.4927 92.6391C42.0341 92.5156 42.5304 92.7124 42.9826 93.2306C43.4522 94.1249 43.9692 94.8545 44.5909 95.2216C46.1622 96.2273 48.3089 96.7841 49.3901 97.1727C50.1129 95.511 49.267 90.3657 47.3885 88.1708C46.6626 88.3202 45.9365 88.4696 45.21 88.6187C44.4046 88.8368 44.1003 88.1823 43.8896 87.3284C45.1641 85.3108 43.4522 85.7505 42.3022 85.8309C40.1347 85.6824 40.6597 84.435 41.1188 83.4268C41.9902 81.5625 42.8621 79.6983 43.7341 77.834C44.2839 76.6001 45.5722 75.5626 47.1901 76.9044C48.5719 78.0509 49.1954 77.4475 50.1445 77.5665C51.4982 80.2032 53.439 82.9178 55.5709 85.6572C58.6209 89.5052 64.3528 92.1584 71.5888 94.1414C71.5547 95.1922 71.4558 96.1938 70.6627 97.1686C69.51 98.7742 69.4758 101.014 70.3473 103.37C70.9837 105.499 70.9171 109.089 72.4525 110.907C72.7553 111.548 72.8596 112.826 72.9355 114.33C72.9767 115.147 72.8003 116 72.3643 116.81C70.8463 118.921 69.0739 120.992 66.5959 122.952C64.8216 123.36 63.1684 123.965 62.3615 125.939C62.7613 125.783 63.1007 125.871 63.3791 126.202C63.0297 126.691 62.6967 127.213 62.12 127.444C61.3397 127.794 60.7757 128.308 60.3096 128.896C59.1519 130.465 57.8833 132.07 57.742 133.307C61.2751 132.998 63.8826 132.301 65.7227 131.283C65.8425 130.315 65.8115 129.45 65.7588 128.6C66.1862 128.231 66.4695 127.752 66.687 127.224C67.0688 126.87 67.4742 126.679 67.5534 127.686C67.5577 128.102 67.4237 128.537 67.1511 128.99C67.5175 128.95 67.8587 128.725 68.1748 128.315C69.0535 128.603 69.628 127.406 70.2203 126.296C70.2919 126.494 70.3637 126.693 70.4353 126.892C71.223 125.872 71.0521 125.29 70.9374 124.681C71.447 123.399 73.7906 121.384 76.1063 119.38C76.9231 118.988 77.62 118.629 78.16 118.3C79.6333 117.404 79.5055 115.938 79.0925 115.09C78.5109 114.514 78.3233 113.802 78.1922 113.071C77.9661 108.009 79.8266 104.371 81.2732 103.31C82.8115 104.606 84.4381 105.515 86.1526 106.037C88.3584 108.13 90.6917 110.055 92.3876 112.819C92.4067 114.532 92.2992 116.237 92.8234 117.981C92.7296 119.586 92.0276 121.095 90.7178 122.508C89.9018 123.388 88.9468 124.299 87.6257 125.383C86.4608 126.34 85.777 127.331 86.0527 128.231C86.0055 129.086 85.6849 129.68 85.0907 130.014C84.8864 130.121 84.6515 129.995 84.3946 130.349C83.2295 131.955 82.3854 133.275 82.5549 134.332C85.2228 135.229 91.5491 133.002 90.7748 130.132C90.95 129.781 91.0522 129.439 90.9939 129.12C91.5091 127.792 91.9036 127.907 92.3224 127.734C92.5628 127.969 92.7021 128.337 92.7407 128.838C92.9754 128.764 93.2064 128.721 93.4957 128.155C95.8787 126.609 95.2975 125.325 95.1171 124.006C95.0002 122.059 96.4318 118.263 98.5676 113.628C100.388 109.996 99.2455 109.173 97.6799 108.75C96.0283 107.798 95.126 105.712 94.1793 103.693C93.4758 101.84 94.3264 99.8794 95.3986 97.9037C96.9392 95.5293 97.1001 92.3012 97.3221 89.8684C97.3826 89.8368 97.4408 89.8085 97.4995 89.7795C98.98 89.1431 100.137 88.9211 101.095 89.6647C102.285 90.5883 100.937 94.3434 98.9416 91.4568C98.87 92.6018 98.6961 93.7232 100.257 95.2347C97.763 97.4328 97.3578 98.9049 97.2507 100.274C97.7141 99.2812 98.2835 99.005 98.8678 98.8306C96.8409 101.342 96.9189 103.867 99.5378 106.408C98.2137 103.834 99.36 102.938 100.693 102.132C99.6343 104.593 99.442 106.927 101.647 108.908C100.534 112.315 99.7984 113.989 102.03 116.665C103.165 117.875 104.014 118.03 103.123 119.233C103.991 119.099 104.406 118.451 104.215 117.896C104.34 118.179 104.38 118.458 104.344 118.892C104.191 120.699 104.617 121.49 104.967 121.899C106.597 123.806 108.855 124.202 110.754 124.018C110.99 124.007 111.224 123.987 111.455 123.95C112.259 123.821 112.977 123.574 113.615 123.236C113.76 123.163 113.89 123.09 113.997 123.018C113.998 123.017 113.999 123.017 114 123.016C116.377 121.549 117.535 118.763 117.762 116.215C116.156 119.988 114.608 119.309 113.061 119.547C115.561 117.286 115.601 116.015 115.382 113.061C113.18 119.465 108.539 116.453 110.681 113.537C113.969 111.023 113.798 108.193 112.139 106.024C109.712 102.627 113.136 99.2034 113.399 97.2683C115.331 84.6438 105.55 79.8957 96.9911 86.6629C95.254 82.8868 92.3109 79.5123 85.0599 77.5732C82.9601 76.5964 81.2018 74.9849 79.6347 73.0177C77.6545 70.0114 76.5476 68.3625 75.8835 66.7144C76.6539 67.8562 77.6178 69.3241 80.5927 68.2721C81.5582 67.9305 82.1782 67.8868 82.6657 67.9536C83.586 68.1633 84.2813 68.4313 84.8275 68.7253C85.9454 69.327 86.4208 69.9556 87.0351 70.5635C88.0919 71.6091 88.511 72.7832 88.8315 72.663C89.2822 72.4939 89.3727 70.1739 87.3166 67.014C86.9206 66.4057 86.3281 65.7992 86.6455 65.5423C86.7271 65.4761 86.8974 65.3967 87.2591 65.4412C87.8457 65.5134 88.3151 65.6765 88.707 65.8878C89.195 66.1509 90.178 67.3675 91.225 68.0337C92.3423 68.7439 93.3458 69.1266 94.1328 69.3367C95.0618 69.5843 95.8244 69.6278 96.026 69.6257C96.7172 69.619 97.0988 69.4362 96.9999 69.4198C96.6393 69.3598 96.461 69.2856 96.1797 69.1315C93.6055 67.7216 93.4647 66.5885 93.0076 65.8868C92.4617 65.0495 92.0306 63.4107 91.8501 62.5235C91.5828 61.2088 91.5586 59.1574 92.4676 58.8976C93.0323 58.7364 93.8786 58.913 94.8558 59.2815C98.0742 60.4946 99.934 61.486 100.461 61.9115C100.983 62.3327 101.541 62.8108 101.675 62.6339C101.898 62.3393 101.435 60.9228 100.739 59.8266C99.2348 57.458 98.9942 55.8388 99.6043 55.4012C99.6862 55.3427 99.8366 55.3159 100.053 55.3423C100.356 55.3793 100.472 55.4262 100.722 55.3983C100.923 55.3762 101.156 55.2467 101.151 55.2034C101.136 55.0738 100.772 55.0477 100.388 54.8748C100.12 54.7541 99.6464 54.5383 99.7028 53.8834C99.7563 53.2601 100.821 52.6518 101.653 52.5621C102.298 52.4926 102.94 52.3754 102.953 52.2123C102.956 52.1738 102.794 52.2207 102.46 52.1955C101.928 52.1557 101.675 52.1329 101.274 51.9116C101.087 51.8086 100.995 51.6385 101.051 51.3601C101.155 50.84 103.189 50.4926 105.618 47.784C107.078 46.156 106.821 46.6478 108.893 43.0273C109.498 41.9717 110.296 41.2091 111.45 40.632C112.176 40.2688 113.157 40.1913 113.509 40.109C114.492 39.88 114.687 39.6966 114.725 39.5961C114.891 39.1605 113.266 38.9679 110.475 38.8121C105.469 38.5331 100.018 41.833 95.9918 43.9505C95.5213 44.1979 95.0874 44.4206 94.6978 44.6087C94.5474 44.6813 94.4034 44.7488 94.2663 44.8108C94.1239 44.8748 94.0917 44.8502 94.1596 44.7738C94.2273 44.6975 95.9243 43.9128 96.8348 43.3338C99.9812 41.3338 100.914 40.0571 102.883 38.7767C105.601 37.0085 109.588 35.9606 112.411 35.6906C113.901 35.548 115.28 36.0045 115.511 35.853C115.683 35.74 113.925 35.0061 112.236 34.984C110.286 34.9585 105.382 35.3293 106.071 34.8627C107.432 33.9411 111.109 32.6278 113.33 31.5277C116.407 30.0028 119.675 27.9739 123.048 24.166C123.137 24.0653 122.555 24.6533 122.304 24.8769Z" fill="black"/>
</svg>
