<svg width="57" height="68" viewBox="0 0 57 68" fill="none" xmlns="http://www.w3.org/2000/svg">
<path d="M42.0812 61.0601V54.2702C40.6864 55.0287 39.5028 56.5305 38.5302 58.7754C38.1753 59.5952 37.9276 60.3568 37.787 61.0601H42.0812ZM44.5402 67.8501H41.6591C41.8486 67.5748 41.974 67.2536 42.0353 66.8866C42.0658 66.6971 42.0812 66.3943 42.0812 65.9782V63.0236H37.475C37.475 63.3419 37.4658 63.9566 37.4475 64.8679C37.4352 65.4493 37.4627 66.0394 37.5301 66.6388C37.5851 67.1467 37.7013 67.5504 37.8788 67.8501H34.9058C35.1137 67.5442 35.2637 67.2353 35.3554 66.9233C35.4532 66.5807 35.5023 66.2658 35.5023 65.9782V63.5926C35.5023 61.7574 35.8693 59.9622 36.6033 58.2065C37.3741 56.3592 38.4261 54.8666 39.7598 53.7287C41.1545 52.5359 42.5277 51.9366 43.8796 51.9304H44.1549C44.2588 51.9304 44.3872 51.9457 44.5402 51.9762C44.3688 52.2699 44.2588 52.5575 44.2098 52.8388C44.1671 53.0898 44.1456 53.3985 44.1456 53.7656V65.9782C44.1456 66.382 44.1608 66.6725 44.1916 66.8499C44.2525 67.1925 44.3688 67.5258 44.5402 67.8501Z" fill="#9DCBEA"/>
<path d="M56.326 67.9784C54.6498 67.5748 53.1084 66.9019 51.7015 65.9598C50.1476 64.9201 48.9487 63.7088 48.1047 62.3264C47.1564 60.7726 46.6793 59.0782 46.6733 57.243C46.6733 55.6833 47.1366 54.394 48.0634 53.3755C48.9901 52.357 50.1538 51.8447 51.5547 51.8386C51.9217 51.8386 52.3162 51.851 52.7383 51.8754C53.8211 51.9427 54.445 51.9762 54.6102 51.9762V54.7473C54.1146 54.4231 53.6651 54.1937 53.2613 54.0591C52.9066 53.9431 52.4477 53.8848 51.885 53.8848C50.9123 53.8848 50.1508 54.2305 49.6003 54.9217C49.0925 55.558 48.8356 56.3745 48.8296 57.3715C48.8172 58.8336 49.2821 60.2466 50.2242 61.6106C51.0193 62.7607 52.044 63.718 53.2981 64.4826C54.4175 65.1616 55.4268 65.5073 56.326 65.5194V67.9784Z" fill="#9DCBEA"/>
<path d="M4.55943 52.751V65.7992C4.55943 66.2398 4.57595 66.5569 4.60947 66.7505C4.67611 67.131 4.80632 67.495 5.00003 67.842H1.84562C2.05247 67.5416 2.18937 67.1911 2.25625 66.7905C2.2963 66.537 2.31628 66.2064 2.31628 65.7992V52.5407C2.31628 52.1202 2.2963 51.7964 2.25625 51.5693C2.18269 51.1555 2.04586 50.805 1.84562 50.5179H12.4303C12.2634 50.7983 12.1365 51.1187 12.0498 51.4792C11.9963 51.9065 11.9697 52.2604 11.9697 52.5407V65.7992C11.9697 66.1997 11.9897 66.5169 12.0298 66.7505C12.1032 67.1377 12.2301 67.5016 12.4103 67.842H9.27593C9.46948 67.5684 9.5997 67.2178 9.6665 66.7905C9.71308 66.4969 9.73668 66.1664 9.73668 65.7992V52.751H4.55943Z" fill="#9DCBEA"/>
<path d="M34.8933 54.6005C34.2082 54.2151 33.5904 54.0224 33.0399 54.0224H29.1219V65.9966C29.1219 66.5593 29.3114 67.177 29.6907 67.85H26.6353C26.8188 67.5869 26.9441 67.2659 27.0115 66.8866C27.0482 66.6786 27.0665 66.382 27.0665 65.9966V53.8481C27.0665 53.4748 27.0482 53.1721 27.0115 52.9397C26.9503 52.5727 26.8248 52.2515 26.6353 51.9762H34.8933V54.6005Z" fill="#9DCBEA"/>
<path d="M17.4766 57.0174V65.8902H21.4955C21.942 65.8902 22.3426 65.82 22.6975 65.6792C22.7953 65.6241 23.0155 65.5018 23.3582 65.3121V67.9364H14.99C15.1796 67.6611 15.305 67.34 15.3662 66.973C15.4029 66.7405 15.4213 66.4377 15.4213 66.0645V53.9161C15.4213 53.5307 15.4029 53.2341 15.3662 53.026C15.2988 52.6468 15.1735 52.3257 14.99 52.0626H23.3582V54.6868C22.9972 54.4606 22.7219 54.3138 22.5323 54.2464C22.2814 54.1547 21.9359 54.1088 21.4955 54.1088H17.4766V54.9529H24.2482V57.5863C23.9116 57.3784 23.6364 57.2346 23.4224 57.1551C23.1715 57.0632 22.826 57.0174 22.3855 57.0174H17.4766Z" fill="#9DCBEA"/>
<path d="M41.3962 60.3951V53.6052C40.0014 54.3637 38.8178 55.8655 37.8452 58.1104C37.4903 58.9302 37.2426 59.6918 37.1019 60.3951H41.3962ZM43.8551 67.1851H40.9741C41.1635 66.9098 41.2889 66.5886 41.3502 66.2216C41.3808 66.0321 41.3962 65.7293 41.3962 65.3132V62.3587H36.7899C36.7899 62.6769 36.7808 63.2916 36.7625 64.2029C36.7501 64.7843 36.7776 65.3745 36.845 65.9738C36.9001 66.4817 37.0162 66.8855 37.1937 67.1851H34.2208C34.4286 66.8792 34.5787 66.5703 34.6704 66.2583C34.7682 65.9158 34.8172 65.6008 34.8172 65.3132V62.9276C34.8172 61.0924 35.1843 59.2972 35.9183 57.5415C36.689 55.6942 37.7411 54.2016 39.0747 53.0638C40.4694 51.871 41.8427 51.2716 43.1946 51.2654H43.4699C43.5738 51.2654 43.7022 51.2808 43.8551 51.3113C43.6838 51.6049 43.5738 51.8925 43.5247 52.1738C43.482 52.4248 43.4606 52.7335 43.4606 53.1006V65.3132C43.4606 65.717 43.4758 66.0075 43.5065 66.1849C43.5676 66.5275 43.6838 66.8608 43.8551 67.1851Z" fill="black"/>
<path d="M55.641 67.3135C53.9648 66.9098 52.4234 66.2369 51.0165 65.2949C49.4627 64.2551 48.2637 63.0438 47.4196 61.6614C46.4715 60.1077 45.9943 58.4132 45.9883 56.5781C45.9883 55.0183 46.4516 53.729 47.3783 52.7105C48.3051 51.6921 49.4688 51.1798 50.8697 51.1737C51.2367 51.1737 51.6312 51.186 52.0533 51.2104C53.136 51.2777 53.7599 51.3113 53.9251 51.3113V54.0823C53.4296 53.7581 52.9801 53.5287 52.5763 53.3941C52.2215 53.2781 51.7627 53.2198 51.2 53.2198C50.2274 53.2198 49.4658 53.5655 48.9152 54.2567C48.4074 54.893 48.1506 55.7095 48.1446 56.7065C48.1322 58.1686 48.5972 59.5816 49.5392 60.9457C50.3344 62.0957 51.359 63.0531 52.613 63.8177C53.7324 64.4966 54.7418 64.8423 55.641 64.8544V67.3135Z" fill="black"/>
<path d="M3.59713 51.4905V65.0535C3.59713 65.5115 3.61434 65.8411 3.64916 66.0424C3.71842 66.4379 3.85379 66.8162 4.0551 67.1769H0.776245C0.99132 66.8647 1.1336 66.5004 1.20301 66.0841C1.24468 65.8204 1.26551 65.4769 1.26551 65.0535V51.2719C1.26551 50.8348 1.24468 50.4982 1.20301 50.2623C1.12653 49.8321 0.984402 49.4678 0.776245 49.1693H11.7787C11.6051 49.4608 11.4732 49.7938 11.3831 50.1686C11.3275 50.6127 11.2999 50.9805 11.2999 51.2719V65.0535C11.2999 65.4699 11.3207 65.7995 11.3623 66.0424C11.4385 66.4449 11.5705 66.8231 11.7578 67.1769H8.49981C8.70097 66.8924 8.83625 66.5282 8.90574 66.0841C8.95417 65.7788 8.97861 65.4353 8.97861 65.0535V51.4905H3.59713Z" fill="black"/>
<path d="M34.2083 53.9355C33.5231 53.5501 32.9054 53.3574 32.3548 53.3574H28.4369V65.3317C28.4369 65.8943 28.6264 66.5121 29.0056 67.1851H25.9502C26.1337 66.922 26.259 66.6009 26.3264 66.2216C26.3632 66.0136 26.3815 65.717 26.3815 65.3317V53.1832C26.3815 52.81 26.3632 52.5072 26.3264 52.2747C26.2652 51.9077 26.1398 51.5865 25.9502 51.3113H34.2083V53.9355Z" fill="black"/>
<path d="M16.7915 56.3524V65.2253H20.8104C21.2569 65.2253 21.6576 65.155 22.0124 65.0143C22.1102 64.9592 22.3304 64.8369 22.6731 64.6472V67.2714H14.3049C14.4945 66.9961 14.6199 66.675 14.6811 66.308C14.7178 66.0756 14.7361 65.7728 14.7361 65.3995V53.2511C14.7361 52.8658 14.7178 52.5691 14.6811 52.3611C14.6137 51.9819 14.4884 51.6607 14.3049 51.3976H22.6731V54.0219C22.312 53.7956 22.0368 53.6488 21.8472 53.5815C21.5963 53.4897 21.2508 53.4438 20.8104 53.4438H16.7915V54.288H23.5631V56.9214C23.2266 56.7134 22.9513 56.5696 22.7373 56.4901C22.4864 56.3984 22.1408 56.3524 21.7004 56.3524H16.7915Z" fill="black"/>
<path d="M36.0441 26.9561C35.7492 26.8774 35.3732 26.7341 34.9546 26.4679C34.5624 26.2183 34.1941 25.7625 34.0112 25.6639C33.8644 25.5847 33.6885 25.5237 33.4688 25.4967C33.3332 25.4799 33.2695 25.5097 33.2389 25.5345C33.12 25.6307 33.342 25.8579 33.4902 26.0858C34.2607 27.2698 34.2267 28.139 34.0579 28.2023C33.9378 28.2474 33.7808 27.8075 33.3849 27.4157C33.1547 27.188 32.9766 26.9524 32.5578 26.727C32.3531 26.6168 32.0926 26.5165 31.7477 26.438C31.5651 26.4129 31.3329 26.4292 30.9711 26.5572C29.8566 26.9514 29.4954 26.4014 29.2068 25.9736C29.4556 26.5911 29.8703 27.2089 30.6122 28.3352C31.1994 29.0722 31.8581 29.676 32.6449 30.042C34.1116 30.4342 35.1072 30.9834 35.8159 31.6281C35.998 31.6466 36.1245 31.6228 36.2103 31.5777C37.3972 32.9732 37.5282 32.2767 37.5282 32.2767C37.5354 32.0642 37.4677 31.7776 37.3422 31.4466C38.9591 32.9622 39.0435 32.0731 39.0435 32.0731C39.0312 31.8519 38.9515 31.5768 38.8163 31.2656C39.8975 31.9501 39.943 31.3126 39.943 31.3126C39.8731 30.522 38.8554 29.0721 37.4785 27.7722C37.3273 27.4913 37.1999 27.2302 37.0975 27.0089C37.0479 27.0313 36.9278 27.0627 36.7534 27.0644C36.6779 27.0651 36.3921 27.0489 36.0441 26.9561Z" fill="#9DCBEA"/>
<path d="M23.3718 49.2707C23.5464 49.0502 23.7578 48.8577 24.0502 48.7268C24.2662 48.6402 24.3909 48.4445 24.5218 48.2612C24.4566 48.1838 24.3825 48.1419 24.2995 48.1356C24.2497 48.1319 24.1967 48.1409 24.1406 48.1627C24.4429 47.4232 25.0623 47.1967 25.7271 47.0436C25.7851 46.9977 25.8421 46.9517 25.8981 46.9054C26.7381 46.2123 27.3551 45.484 27.8882 44.7425C28.0515 44.439 28.1177 44.1193 28.1022 43.8133C28.0738 43.2499 28.0347 42.7708 27.9213 42.5309C27.5977 42.1477 27.464 41.5545 27.3666 40.9669C27.3558 40.9016 27.3453 40.8363 27.3352 40.7715C27.2947 40.5121 27.2578 40.2584 27.2113 40.0295C27.188 39.9151 27.1624 39.8068 27.1325 39.7071C27.1122 39.6519 27.0931 39.5969 27.0754 39.5422C26.8093 38.7205 26.8458 37.9476 27.2507 37.3836C27.5479 37.0184 27.585 36.6431 27.5977 36.2494L27.5929 36.2481C27.505 36.224 27.4176 36.1995 27.3309 36.1749C27.3022 36.1667 27.2739 36.1584 27.2453 36.1502C27.1853 36.1329 27.1252 36.1156 27.0658 36.0981C27.0342 36.0888 27.0029 36.0793 26.9714 36.0698C26.9154 36.0531 26.8594 36.0362 26.8039 36.0193C26.7719 36.0095 26.7401 35.9996 26.7083 35.9897C26.6535 35.9726 26.5989 35.9555 26.5447 35.9382C26.5138 35.9284 26.4831 35.9185 26.4524 35.9086C26.3969 35.8907 26.3417 35.8725 26.2868 35.8544C26.2586 35.8449 26.2303 35.8355 26.2021 35.8261C26.1439 35.8065 26.0861 35.7867 26.0285 35.7668C26.0045 35.7585 25.9805 35.7503 25.9565 35.7419C25.8923 35.7195 25.8286 35.6967 25.7652 35.6738C25.7486 35.6678 25.7319 35.6619 25.7153 35.6559C25.3861 35.5359 25.0695 35.4104 24.7665 35.2788C24.7616 35.2766 24.7566 35.2744 24.7517 35.2723C24.6818 35.2418 24.6127 35.211 24.5443 35.1799C24.5352 35.1758 24.5263 35.1716 24.5172 35.1675C24.4527 35.138 24.3888 35.1082 24.3257 35.0781C24.3155 35.0733 24.3054 35.0684 24.2954 35.0636C24.233 35.0337 24.1714 35.0035 24.1103 34.9729C24.1009 34.9683 24.0914 34.9635 24.082 34.9587C24.0192 34.9271 23.9571 34.8952 23.8957 34.8629C23.8892 34.8594 23.8827 34.856 23.8761 34.8526C23.8091 34.8171 23.7429 34.7814 23.6777 34.7452C23.6774 34.745 23.6771 34.7448 23.6768 34.7446H23.6769C22.8109 34.2636 22.1043 33.7115 21.5964 33.0708C20.7977 32.0444 20.0706 31.0274 19.5633 30.0395C19.2077 29.9949 18.9741 30.2209 18.4565 29.7914C17.8503 29.2888 17.3676 29.6775 17.1616 30.1397C16.8349 30.8382 16.5082 31.5367 16.1818 32.2352C16.0098 32.6129 15.8131 33.0802 16.6252 33.1359C17.056 33.1057 17.6975 32.941 17.2199 33.6969C17.2988 34.0168 17.4128 34.262 17.7146 34.1804C17.9868 34.1244 18.2588 34.0685 18.5308 34.0126C19.2346 34.8348 19.5515 36.7626 19.2807 37.3852C18.8756 37.2395 18.0713 37.0309 17.4826 36.6541C17.2497 36.5167 17.056 36.2433 16.88 35.9083C16.7106 35.7141 16.5247 35.6404 16.3219 35.6867C16.1773 35.8763 15.9881 35.7854 15.7544 35.414C15.7157 35.5441 15.7496 35.7866 15.805 36.0868C15.5124 35.8768 15.3294 35.5841 15.1833 35.2377C14.3995 34.5989 14.0905 33.9993 14.0296 33.4202C13.8746 33.3179 13.7676 33.1948 13.7505 33.036C13.3448 32.7312 13.7035 31.4488 13.5885 31.4866C13.2285 31.2468 13.2166 30.9867 13.0536 30.6968C12.156 29.1176 12.6408 28.2106 13.3232 27.3995C13.8754 26.7547 14.4107 26.0971 14.9083 25.4111C15.0857 24.765 15.3869 24.1674 16.03 23.7032C16.892 22.839 17.5732 22.4422 18.3912 24.1316C18.68 24.3696 18.9508 24.4755 19.2134 24.5212C19.3946 23.7956 19.7526 23.644 20.3199 23.212C20.7359 22.0383 21.6268 21.2959 22.9781 20.8767C25.379 19.9252 25.2671 19.3163 25.3541 18.6801C25.1258 18.6534 24.9018 18.6137 24.7088 18.4837C24.0682 18.7752 23.3824 19.0207 22.9237 19.4962C22.8354 19.7557 22.7668 20.022 22.3641 20.1744C22.091 20.5817 21.7377 20.7045 21.4407 20.576C21.2325 20.6876 21.0987 20.6588 20.8508 20.4811C20.3649 20.7253 20.1587 20.2945 19.936 19.9034C19.4597 19.4829 19.525 19.2468 19.6675 19.0371C20.0607 18.4453 20.471 17.9803 20.8839 17.5336C20.9461 17.3475 21.0323 17.158 21.1345 16.9664C21.3048 16.6471 21.5198 16.3218 21.7444 15.995C21.5165 15.2887 22.1794 14.8855 22.7899 14.4647C22.2517 14.1577 21.759 14.0043 21.5849 14.9262C21.1954 14.54 21.4859 13.7931 22.2951 13.8601C22.7502 13.8977 21.71 12.8533 21.663 12.3991C21.4477 12.1262 21.5966 11.8896 21.8573 12.2074C22.0152 12.3328 22.1731 12.4582 22.3309 12.5837C22.2728 11.5139 22.7659 11.3273 23.277 11.169C22.9877 11.4408 22.6753 11.6813 22.7539 12.4526C23.3447 11.128 24.0744 11.2539 24.7852 11.1839C24.4839 11.3335 24.1279 11.4645 24.0458 11.6888C24.2559 11.8836 24.4047 12.1205 24.5253 12.3765C24.7576 11.3319 25.5279 11.2132 26.2254 10.9693C25.8364 11.2187 25.3328 11.3922 25.4031 11.9446C27.0542 10.7438 27.5861 11.3933 28.3417 11.6728C29.3521 11.2577 29.8633 11.599 30.3032 12.0484C30.5528 11.6119 31.0326 11.4026 31.8483 11.5256C32.1329 11.7501 32.4503 11.8784 32.84 11.7946C33.5032 11.4447 33.6381 11.1137 33.8041 10.7815C33.5371 11.4853 33.7375 12.4622 32.1106 12.3715C31.6171 12.2267 30.8364 12.0061 30.8243 13.0427C31.6087 12.4184 32.2322 12.5906 32.7826 13.1248C33.6845 14.1625 33.9362 13.2417 33.4064 12.5807C34.4866 13.2727 34.6968 14.4124 31.9824 14.2625C33.4142 14.3446 34.4625 14.7231 34.7081 15.7217C34.824 15.7031 34.9936 15.6717 35.2079 15.6211C35.2442 15.6125 35.2822 15.6032 35.321 15.5935C35.3295 15.5914 35.3383 15.5892 35.347 15.587C35.3861 15.5771 35.426 15.5668 35.4675 15.5557C35.468 15.5555 35.4684 15.5555 35.469 15.5553C35.5104 15.5442 35.5534 15.5323 35.5973 15.5199C35.6076 15.517 35.6179 15.514 35.6282 15.5111C35.6724 15.4985 35.7173 15.4854 35.7637 15.4715C35.7641 15.4713 35.7646 15.4712 35.7651 15.4711C35.8116 15.4571 35.8595 15.4421 35.9081 15.4267C35.9196 15.423 35.9312 15.4193 35.9429 15.4156C35.9916 15.4 36.041 15.3838 36.0917 15.3668C36.0924 15.3665 36.0931 15.3663 36.0939 15.3661C36.1447 15.3489 36.1969 15.3308 36.2496 15.3121C36.2627 15.3075 36.2758 15.3028 36.2891 15.2981C36.3416 15.2793 36.3947 15.26 36.449 15.2396C36.4503 15.2392 36.4514 15.2388 36.4526 15.2382C36.5078 15.2176 36.5639 15.1958 36.6207 15.1734C36.6346 15.1681 36.6485 15.1625 36.6623 15.157C36.7193 15.1344 36.7767 15.1112 36.8352 15.0868C36.8361 15.0864 36.8371 15.0861 36.838 15.0857C36.8966 15.0613 36.9565 15.0356 37.0168 15.0093C37.0318 15.0027 37.0469 14.9961 37.0622 14.9894C37.1229 14.9627 37.1841 14.9353 37.2464 14.9066C37.2468 14.9065 37.2471 14.9063 37.2474 14.9062C37.3096 14.8775 37.3728 14.8475 37.4364 14.8169C37.4521 14.8093 37.4679 14.8017 37.4837 14.794C37.612 14.7316 37.7429 14.6651 37.876 14.5945C37.8924 14.5858 37.909 14.5769 37.9254 14.5681C37.9924 14.5322 38.0599 14.4955 38.128 14.4574C38.5332 14.2306 38.9015 14.0174 39.2377 13.8163C39.2916 13.7841 39.3447 13.7521 39.397 13.7205C39.5828 13.608 39.7583 13.4995 39.924 13.3947C39.9744 13.3629 40.0238 13.3315 40.0724 13.3003C40.2099 13.2122 40.3406 13.1268 40.4645 13.0439C40.4907 13.0265 40.5165 13.0092 40.5421 12.9919C40.5815 12.9653 40.6203 12.939 40.6584 12.9129C40.6862 12.8939 40.7136 12.875 40.7408 12.8563C40.8297 12.7948 40.915 12.7347 40.9965 12.6763C41.0109 12.666 41.0249 12.6559 41.039 12.6457C41.0854 12.6123 41.1306 12.5792 41.1746 12.5467C41.1903 12.5352 41.2057 12.5237 41.2211 12.5123C41.2657 12.4792 41.3091 12.4465 41.3513 12.4143C41.3645 12.4042 41.3776 12.3942 41.3906 12.3842C41.4335 12.3513 41.4752 12.3189 41.5157 12.287C41.5779 12.238 41.6374 12.1901 41.6942 12.1435C41.7339 12.111 41.7722 12.079 41.8094 12.0476C41.8162 12.0419 41.823 12.0362 41.8297 12.0304C41.8902 11.9791 41.9474 11.9291 42.0017 11.8806C42.0642 11.8248 42.1227 11.7707 42.1777 11.7185C42.2115 11.6864 42.244 11.6551 42.2752 11.6243C42.2916 11.608 42.3079 11.5919 42.3237 11.576C42.695 11.2025 42.886 10.9231 43.0768 10.6881C43.7579 9.84952 44.2039 8.77592 44.7618 7.96212C44.7619 7.96189 44.7622 7.96166 44.7623 7.96143C45.4919 6.89751 46.081 6.07473 46.2334 5.94975C46.2523 5.9343 46.2745 5.92277 46.2708 5.92776C46.2014 5.87772 46.1311 5.82891 46.0611 5.77949L46.0608 5.77933C45.9275 5.68517 45.7933 5.59224 45.6582 5.50053C45.6575 5.5 45.6567 5.49953 45.656 5.49907C45.5215 5.40775 45.386 5.31759 45.2496 5.22873C45.2483 5.22781 45.2469 5.22696 45.2455 5.22604C45.1101 5.13772 44.9736 5.05071 44.8364 4.96477C44.8339 4.96323 44.8314 4.96162 44.829 4.96008C44.6927 4.87499 44.5557 4.79105 44.4179 4.70834C44.4142 4.70611 44.4105 4.70388 44.4067 4.70173C44.2701 4.61979 44.1327 4.53908 43.9944 4.4596C43.9893 4.45667 43.9841 4.45375 43.979 4.45076C43.8421 4.3722 43.7045 4.29479 43.566 4.21862C43.5592 4.21493 43.5524 4.21124 43.5456 4.20747C43.4088 4.13237 43.2713 4.05842 43.133 3.98571C43.1241 3.98102 43.1152 3.97633 43.1062 3.97172C42.97 3.90015 42.833 3.82974 42.6953 3.76064C42.684 3.75495 42.6727 3.74934 42.6614 3.74373C42.5258 3.67586 42.3895 3.60898 42.2525 3.54341C42.2389 3.53688 42.2253 3.5305 42.2118 3.52404C42.0769 3.4597 41.9413 3.39637 41.8051 3.33426C41.789 3.32695 41.7729 3.31973 41.7567 3.31243C41.6228 3.2517 41.4883 3.1919 41.3532 3.13332C41.3343 3.12518 41.3153 3.11711 41.2963 3.10896C41.1635 3.05185 41.0302 2.99558 40.8963 2.94054C40.8747 2.93162 40.8529 2.92294 40.8313 2.91418C40.6999 2.86052 40.568 2.80779 40.4354 2.75629C40.4105 2.74653 40.3853 2.73707 40.3602 2.72739C40.2304 2.67742 40.1005 2.62823 39.9699 2.58026C39.9416 2.56996 39.9134 2.55989 39.8852 2.54967C39.7571 2.50324 39.6288 2.45735 39.4998 2.41285C39.4684 2.40201 39.4367 2.39148 39.4052 2.38072C39.279 2.33767 39.1526 2.29516 39.0255 2.25404C38.9905 2.24266 38.9553 2.23182 38.9202 2.2206C38.7962 2.18101 38.6721 2.14189 38.5473 2.10407C38.5085 2.09223 38.4694 2.08101 38.4304 2.0694C38.3088 2.0332 38.1869 1.9973 38.0645 1.96279C38.022 1.9508 37.9793 1.9395 37.9367 1.92766C37.8173 1.89468 37.6978 1.86194 37.5777 1.83058C37.5315 1.81843 37.485 1.80705 37.4388 1.79522C37.3217 1.76532 37.2046 1.73564 37.087 1.70736C37.0368 1.69529 36.9865 1.68399 36.9362 1.67215C36.8218 1.64533 36.7071 1.61865 36.5921 1.59329C36.5382 1.58145 36.484 1.57038 36.43 1.55885C36.3181 1.53494 36.2062 1.51104 36.0938 1.48859C36.0354 1.47691 35.9766 1.46622 35.9181 1.45493C35.8094 1.43394 35.7008 1.41288 35.5916 1.39335C35.5288 1.38205 35.4657 1.37183 35.4028 1.36099C35.2972 1.34285 35.1917 1.32448 35.0857 1.30757C35.0183 1.29681 34.9505 1.2872 34.8829 1.2769C34.7808 1.26153 34.6788 1.24569 34.5764 1.23147C34.504 1.22133 34.4315 1.21256 34.359 1.20303C34.2605 1.19012 34.1621 1.17682 34.0632 1.16506C33.9862 1.15583 33.9088 1.14799 33.8315 1.13946C33.7368 1.12901 33.6421 1.11802 33.547 1.10848C33.4642 1.10034 33.381 1.09357 33.298 1.08604C33.2078 1.07797 33.1177 1.0692 33.0273 1.06206C32.9386 1.05498 32.8494 1.04945 32.7604 1.0433C32.675 1.03738 32.5899 1.03077 32.5043 1.02562C32.4079 1.01993 32.3112 1.01586 32.2146 1.01117C32.1358 1.00733 32.0573 1.00264 31.9784 0.999563C31.8657 0.995027 31.7526 0.992414 31.6396 0.989339C31.5762 0.987648 31.5131 0.985035 31.4497 0.983728C31.2729 0.980269 31.0956 0.978424 30.918 0.978424C30.0111 0.978424 29.1151 1.02431 28.232 1.11394C27.7904 1.15876 27.352 1.21441 26.9172 1.28082C26.4823 1.34723 26.051 1.42426 25.6235 1.51165C24.9822 1.64279 24.3494 1.79722 23.726 1.97409C22.2715 2.38687 20.8684 2.92163 19.5284 3.5667C18.1886 4.21177 16.9118 4.96707 15.7101 5.82092C15.5384 5.94291 15.3683 6.06689 15.1997 6.19288C14.6939 6.57074 14.2023 6.96638 13.7256 7.37885C13.5667 7.51637 13.4096 7.65573 13.2541 7.79701C12.943 8.07942 12.6388 8.36921 12.3416 8.66607C11.896 9.11137 11.4662 9.57257 11.0533 10.0488C10.7781 10.3663 10.5103 10.6905 10.2503 11.021C10.1203 11.1862 9.99226 11.3531 9.8662 11.5215C9.61407 11.8584 9.36979 12.2015 9.13373 12.5506C9.01574 12.7251 8.89975 12.9012 8.7859 13.0787C8.55807 13.4337 8.33861 13.7945 8.12769 14.1609C7.60053 15.077 7.12703 16.0277 6.71164 17.009C6.54545 17.4016 6.38856 17.799 6.24121 18.201C5.20996 21.0151 4.64713 24.0547 4.64713 27.2257C4.64713 30.0019 5.07859 32.6773 5.87809 35.1888C5.9721 35.4843 6.07126 35.7774 6.17541 36.0683C6.22745 36.2137 6.2808 36.3586 6.33537 36.5028C6.71725 37.5122 7.15962 38.492 7.65811 39.4377C7.72936 39.5728 7.80169 39.7072 7.87518 39.841C8.02223 40.1084 8.17366 40.3729 8.32962 40.6345C8.56353 41.0269 8.80735 41.4127 9.06086 41.7915C9.39877 42.2967 9.75382 42.7895 10.1251 43.2691C11.5173 45.0674 13.1382 46.6803 14.9441 48.0642C16.3888 49.1712 17.952 50.1317 19.6112 50.9234H22.4098C22.4628 50.4599 22.938 49.8586 23.3718 49.2707Z" fill="#9DCBEA"/>
<path d="M44.5324 11.5262C44.4546 11.4484 44.3936 11.3637 44.3481 11.2745C44.2716 11.3827 44.1931 11.4888 44.1106 11.5904C44.0635 11.6483 44.0165 11.7089 43.9669 11.7728C43.8946 11.8658 43.8165 11.9662 43.7248 12.0758C44.0711 11.9284 44.3797 11.7887 44.6719 11.6391C44.6214 11.6058 44.5745 11.5682 44.5324 11.5262Z" fill="#9DCBEA"/>
<path d="M44.4784 14.4078C44.1853 14.4457 43.6317 14.5581 43.0964 14.6667C42.8965 14.7073 42.6874 14.7497 42.4927 14.788C42.7322 14.6807 42.9971 14.569 43.2579 14.459C43.3343 14.4267 43.4112 14.3942 43.4879 14.3616C43.3094 14.342 43.1038 14.33 42.8921 14.3502C41.8345 14.4513 40.3406 14.8441 39.3222 15.5064C38.5848 15.9862 38.2352 16.4646 37.0563 17.2139C36.7152 17.4308 36.0794 17.7247 36.0541 17.7533C36.0286 17.7819 36.0407 17.7912 36.094 17.7672C36.1454 17.744 36.1994 17.7188 36.2557 17.6915C36.4017 17.6211 36.5642 17.5377 36.7405 17.4449C38.2491 16.6515 40.2912 15.4152 42.167 15.5198C42.8046 15.5553 43.2786 15.5962 43.5383 15.6596C44.3586 15.3844 45.3321 14.9919 45.8556 14.8232C46.5693 14.5932 46.657 14.5414 47.3895 14.4225L48.0469 14.2722C48.0469 14.2722 46.7061 14.3164 46.2696 14.3164C45.747 14.3164 44.9635 14.345 44.4784 14.4078Z" fill="#9DCBEA"/>
<path d="M48.1741 10.9643L48.1333 10.8736H48.0339C47.9698 10.8736 47.9522 10.8909 47.8544 10.9868C47.7927 11.0472 47.6997 11.1384 47.6493 11.1833C47.2895 11.5039 46.9758 11.7619 46.5239 12.0569C45.8938 12.4683 45.3066 12.7361 44.306 13.1468C44.1278 13.2199 43.8401 13.307 43.5842 13.3772C43.9645 12.9849 44.3323 12.4941 44.6684 11.9719C44.1808 12.2964 43.7026 12.5595 43.2363 12.7905C43.0948 12.8607 42.9371 12.9332 42.7708 13.0069C42.3906 13.3208 41.8896 13.6886 41.2106 14.1266C41.7427 14.117 42.4396 14.0805 42.8264 14.0855C43.1644 14.0899 43.5088 14.1704 43.7474 14.251C44.0025 14.141 44.2476 14.0316 44.4575 13.9276C45.5265 13.398 46.8006 12.6518 48.1456 11.1336C48.21 11.0608 48.1837 10.9855 48.1741 10.9643Z" fill="#9DCBEA"/>
<path d="M18.0592 27.4339C18.3418 27.5272 18.5837 27.5468 18.8023 27.5245C18.6078 27.2071 18.0032 27.1399 17.3814 26.6213C16.7615 26.1042 16.6522 26.2447 16.2929 26.6011C15.7356 27.1339 15.1785 27.6669 14.6212 28.1998C14.3242 28.4899 14.0168 28.7975 14.7537 29.1433C14.9182 29.3047 15.1063 29.5482 14.9334 30.0057C14.8138 30.4754 14.8239 30.689 15.0225 30.9867C15.1411 30.6071 15.2523 30.2254 15.3534 29.8408C15.285 29.1744 15.3494 28.5083 15.781 27.8427C16.2719 26.7251 16.6853 26.1549 18.0592 27.4339Z" fill="#9DCBEA"/>
<path d="M41.5837 17.0837C41.5807 17.089 41.5773 17.0937 41.5743 17.099C40.7979 18.4555 40.8941 18.2713 40.3472 18.8812C39.4372 19.896 38.6749 20.0262 38.6359 20.221C38.6151 20.3253 38.6494 20.389 38.7194 20.4276C38.8697 20.5106 38.9645 20.5191 39.164 20.534C39.2891 20.5435 39.3498 20.5259 39.3486 20.5403C39.3438 20.6014 39.1033 20.6453 38.8617 20.6714C38.55 20.705 38.151 20.9329 38.1309 21.1664C38.1098 21.4118 38.2871 21.4926 38.3876 21.5378C38.5316 21.6026 38.668 21.6124 38.6735 21.661C38.6753 21.6772 38.5879 21.7257 38.5128 21.734C38.4189 21.7444 38.3759 21.7268 38.2621 21.713C38.181 21.7031 38.1247 21.7132 38.0941 21.7351C37.8655 21.899 37.9556 22.5057 38.5191 23.3931C38.7798 23.8038 38.9532 24.3345 38.8697 24.4449C38.8195 24.5111 38.6105 24.332 38.415 24.1742C38.2175 24.0148 37.5208 23.6434 36.3149 23.1889C35.9488 23.0508 35.6317 22.9846 35.4202 23.045C35.0796 23.1424 35.0887 23.911 35.1889 24.4035C35.2565 24.7359 35.4179 25.3499 35.6225 25.6636C35.7938 25.9265 35.8465 26.351 36.8109 26.8793C36.907 26.9318 36.9716 26.9596 37.0845 26.981C37.0166 26.8336 36.9602 26.7048 36.917 26.6029C36.7556 26.2223 36.554 25.6748 36.4925 25.3721C36.3795 24.8159 36.4391 24.2425 36.6154 24.1921C36.6538 24.1811 36.7 24.1756 36.7526 24.1756C36.916 24.1756 37.1384 24.2282 37.4137 24.332C38.7005 24.8171 39.3224 25.1727 39.4714 25.2931C39.6934 25.4722 42.5381 26.2661 42.8199 26.2661C42.8957 26.2661 42.9382 26.2309 42.9605 26.2013C42.9902 26.1621 43.0004 26.112 42.9885 26.0638C42.96 25.9481 42.8856 25.8985 41.8181 25.3974C41.4028 25.2026 40.8233 24.9305 40.3902 24.6985C40.1134 24.5503 39.181 23.6437 39.5479 23.2217C39.6137 23.1457 39.8442 23.1124 40.1447 23.1124C40.5327 23.1124 40.7481 23.1437 41.2978 23.2438C41.7466 23.3256 42.5813 23.5694 42.5813 23.5694L42.1511 23.3395C42.1511 23.3395 39.5699 22.599 39.4452 22.1476C39.4963 22.0243 39.7718 21.8514 40.0313 21.8235C40.4856 21.7745 40.6429 21.7059 40.6549 21.5515L40.66 21.4845L40.6135 21.4323C40.5813 21.3975 40.5377 21.3799 40.4836 21.3799C40.4751 21.3799 40.4641 21.3803 40.4507 21.3809C40.4361 21.3816 40.4172 21.3825 40.3941 21.3825C40.3722 21.3825 40.3507 21.3817 40.3284 21.38C40.1282 21.365 40.0653 21.3578 39.9467 21.2923C39.94 21.2886 39.9374 21.2861 39.9368 21.2855C39.9371 21.2853 39.9357 21.2788 39.9375 21.2639C39.9689 21.232 40.0772 21.1714 40.1736 21.1175C40.4914 20.9399 41.0233 20.6426 41.6147 19.9831C41.6879 19.9014 41.7496 19.8341 41.8033 19.7753C42.1592 19.3865 40.8514 19.9226 41.5316 18.7341C41.7476 18.3566 43.1301 17.7332 43.5597 17.6023C44.0918 17.4402 44.7882 17.4111 44.9509 17.385C45.0107 17.3755 44.4541 17.1635 44.4916 17.1547C44.9059 17.0582 46.0986 16.8164 46.0611 16.7587C45.9686 16.6159 43.0691 17.0764 41.5837 17.0837Z" fill="#9DCBEA"/>
<path d="M53.8231 2.15239C53.8231 2.15239 53.6357 2.02226 53.1602 2.68155C51.9817 4.31606 51.5976 5.06821 50.0196 6.55576C51.0976 5.19319 51.7891 4.05309 51.7491 3.52478C51.7491 3.52478 50.0037 5.65932 47.2778 8.43317C46.6587 9.06317 44.3792 10.3944 43.1752 11.2069C42.7847 11.7749 42.35 12.2978 41.9004 12.6565C41.8552 12.6925 42.7973 12.4596 43.2113 12.2898C44.135 11.9107 44.784 11.6245 45.455 11.1864C45.904 10.8933 46.2176 10.6385 46.5987 10.2988C46.6927 10.215 46.9109 9.99473 46.8776 10.0325C45.6136 11.4592 44.3894 12.2193 43.2363 12.7906C42.4045 13.2028 41.0266 13.6948 40.5168 14.0401C40.2586 14.2149 42.0961 14.076 42.8264 14.0855C43.0106 14.0879 43.1965 14.1133 43.3666 14.1486C43.8434 13.8406 44.3203 13.5218 44.8056 13.1929C46.7927 11.8153 48.4061 10.9875 50.2131 9.0342C51.1177 8.04307 51.9845 6.65768 52.6339 5.51849C53.2851 4.37624 53.9609 2.24556 53.8231 2.15239Z" fill="#9DCBEA"/>
<path d="M42.797 15.1758C46.6027 15.2601 52.1863 11.3254 52.6696 9.57503C52.6696 9.57503 52.9205 6.99828 42.797 15.1758Z" fill="#9DCBEA"/>
<path d="M45.0793 15.8392C45.0506 15.8392 45.0239 15.8231 45.0108 15.7971C44.9961 15.7683 45.0011 15.7335 45.0231 15.7098C49.456 10.9609 51.4878 9.96413 52.4115 9.96413C52.8622 9.96413 52.9919 10.2099 52.9973 10.2204C53.0042 10.2342 53.0069 10.2498 53.0048 10.265C52.915 10.9573 51.7406 12.2429 50.0825 13.4643C48.2772 14.7941 46.4101 15.6817 45.0884 15.8386C45.0853 15.839 45.0823 15.8392 45.0793 15.8392Z" fill="white"/>
<path d="M52.4115 9.88728C51.4724 9.88728 49.4186 10.8883 44.9669 15.6574C44.9229 15.7046 44.913 15.7743 44.9422 15.8318C44.9685 15.8839 45.0218 15.9161 45.0792 15.9161C45.0852 15.9161 45.0914 15.9157 45.0975 15.915C46.4319 15.7565 48.3124 14.8635 50.128 13.5263C51.419 12.5753 52.9671 11.1532 53.0811 10.2749C53.0851 10.2443 53.0797 10.2133 53.0658 10.1857C53.0503 10.1552 52.9004 9.88728 52.4115 9.88728ZM52.4115 10.041C52.8201 10.041 52.9286 10.2552 52.9286 10.2552C52.7471 11.6537 48.0151 15.4137 45.0793 15.7623C49.6491 10.8668 51.6091 10.041 52.4115 10.041Z" fill="#9DCBEA"/>
<path d="M50.7685 16.8403L50.76 16.8306L50.75 16.8225C50.171 16.353 48.4918 16.0376 46.5714 16.0376V16.1144L46.5713 16.0376C44.5398 16.0377 42.7477 16.3947 41.6545 17.0173L41.2499 17.2477L41.7121 17.3035C44.4522 17.6345 46.6164 17.8023 48.1443 17.8023C49.0286 17.8023 49.7034 17.7457 50.1499 17.634C50.5231 17.5407 50.7439 17.4084 50.8247 17.2294C50.9014 17.0597 50.8255 16.905 50.7685 16.8403Z" fill="#9DCBEA"/>
<path d="M40.1507 16.9537C40.1186 16.9537 40.0897 16.9336 40.0786 16.9033C40.0673 16.8724 40.0768 16.8378 40.1024 16.8171C42.2501 15.0779 46.6447 14.1679 49.8759 14.1679C51.2595 14.1679 52.3112 14.3368 52.8374 14.6435C52.8409 14.6456 52.8443 14.6479 52.8475 14.6506C52.8561 14.6576 53.0559 14.8259 52.9677 15.0814C52.72 15.7996 50.2955 16.7073 40.1526 16.9537C40.152 16.9537 40.1513 16.9537 40.1507 16.9537Z" fill="white"/>
<path d="M49.8764 14.0911V14.2448L49.8762 14.0911C46.6311 14.0911 42.2154 15.0071 40.054 16.7574C40.0028 16.7988 39.9838 16.8681 40.0065 16.9299C40.0287 16.9905 40.0865 17.0306 40.1507 17.0306C40.152 17.0306 40.1533 17.0306 40.1544 17.0306C44.8606 16.9163 48.3437 16.6448 50.5068 16.2234C52.0565 15.9216 52.8853 15.5562 53.0404 15.1065C53.1246 14.8627 52.9894 14.6679 52.8963 14.5912C52.89 14.5859 52.8832 14.5812 52.8761 14.5771C52.3384 14.2637 51.2731 14.0911 49.8764 14.0911ZM49.8759 14.2448C51.2005 14.2448 52.2705 14.4021 52.7987 14.7099C52.7987 14.7099 54.9929 16.5165 40.1508 16.8769C42.3526 15.0938 46.7995 14.2449 49.8759 14.2448Z" fill="#9DCBEA"/>
<path d="M39.3444 16.9224C39.314 16.9224 39.2859 16.9043 39.2738 16.8757C39.2603 16.8441 39.2694 16.8074 39.296 16.7858C41.6842 14.85 42.3499 14.36 43.4526 13.5482C44.326 12.9051 45.5222 12.0245 48.1626 9.98029C50.5205 8.15476 51.529 7.52606 52.6657 6.94564C53.0429 6.75301 53.7169 6.42978 53.9917 6.42978C54.0507 6.42978 54.0938 6.44423 54.1235 6.4739C54.1469 6.49742 54.1593 6.5284 54.1592 6.56345C54.1589 6.82019 53.982 6.98953 53.5094 7.44228C53.2815 7.6605 52.9695 7.95944 52.5722 8.36976C51.9722 8.98946 51.5627 9.57512 51.1291 10.1952C50.4785 11.1258 49.8057 12.0881 48.439 13.1804C46.472 14.7525 44.7729 15.2708 43.8602 15.5493C43.6865 15.6022 43.5366 15.6479 43.4204 15.6901C43.3998 15.6973 43.313 15.7415 43.2125 15.7927C42.7931 16.0065 41.9204 16.4511 41.1821 16.6511C40.6056 16.8073 39.8344 16.8774 39.505 16.9072C39.4345 16.9136 39.3823 16.9183 39.3539 16.9218C39.3508 16.9223 39.3476 16.9224 39.3444 16.9224Z" fill="white"/>
<path d="M53.9917 6.35281C53.7154 6.35281 53.0992 6.63791 52.6308 6.87713C51.4897 7.45978 50.4782 8.09025 48.1156 9.91938C45.476 11.963 44.2803 12.8433 43.4072 13.4861C42.3036 14.2986 41.6373 14.789 39.2477 16.7261C39.1944 16.7693 39.1762 16.8426 39.2031 16.9057C39.2275 16.9629 39.2835 16.9993 39.3445 16.9993C39.3508 16.9993 39.3571 16.9989 39.3635 16.998C39.3898 16.9948 39.4439 16.9899 39.5123 16.9837C39.8436 16.9536 40.6195 16.8832 41.2023 16.7253C41.948 16.5233 42.8256 16.0761 43.2473 15.8612C43.3349 15.8166 43.4255 15.7705 43.446 15.7625C43.561 15.7209 43.7101 15.6754 43.8827 15.6227C44.8004 15.3428 46.5086 14.8217 48.4871 13.2404C49.8624 12.1411 50.5384 11.1742 51.1922 10.2392C51.6239 9.62168 52.0317 9.03841 52.6275 8.42324C53.0237 8.01392 53.3352 7.7156 53.5626 7.49775C54.0387 7.0417 54.2358 6.85291 54.2362 6.56351C54.2363 6.50839 54.2155 6.45728 54.1779 6.41953C54.1337 6.37526 54.071 6.35281 53.9917 6.35281ZM53.9917 6.50655C54.0506 6.50655 54.0826 6.52461 54.0825 6.56328C54.0819 6.90165 53.695 7.09973 52.517 8.31624C50.9894 9.89394 50.6378 11.3245 48.3911 13.1203C46.0611 14.9825 44.1288 15.3514 43.3943 15.6178C43.2828 15.6566 42.0998 16.3229 41.1621 16.5769C40.4714 16.764 39.5095 16.8249 39.3445 16.8454C43.7052 13.3109 42.3748 14.5584 48.2097 10.041C50.6534 8.14897 51.6449 7.5531 52.7006 7.01403C53.3038 6.70602 53.7963 6.50655 53.9917 6.50655Z" fill="#9DCBEA"/>
<path d="M39.5436 28.8246C38.9737 28.1019 38.3532 27.492 37.7389 27.0386C37.175 26.5591 36.5749 26.1743 35.9886 25.9799C36.0795 26.1285 36.168 26.2716 36.2553 26.4123C36.2384 26.4558 36.2418 26.5055 36.2666 26.547C38.3835 30.0781 39.8211 31.8686 40.5397 31.8686C40.762 31.8686 40.8674 31.7085 40.892 31.6238C40.8946 31.6149 40.8964 31.6058 40.8973 31.5966C40.955 31.0386 40.411 29.9246 39.5436 28.8246Z" fill="#9DCBEA"/>
<path d="M47.6624 22.9983C45.7677 22.9983 41.8211 22.0046 35.9324 20.0448C35.9016 20.0345 35.8806 20.006 35.8798 19.9735C35.8791 19.9411 35.8989 19.9116 35.9292 19.9C36.8888 19.533 38.0945 19.3468 39.513 19.3468C43.5063 19.3468 47.8194 20.7811 48.7281 21.9687C48.7372 21.9794 49.0085 22.3036 48.872 22.5988C48.7495 22.8639 48.3425 22.9983 47.6624 22.9983Z" fill="white"/>
<path d="M39.5133 19.27V19.4237L39.5131 19.27C38.0852 19.27 36.8702 19.4579 35.9019 19.8283C35.8412 19.8515 35.8016 19.9103 35.803 19.9753C35.8045 20.0402 35.8466 20.0973 35.9083 20.1178C41.8048 22.0802 45.7595 23.0752 47.6624 23.0752C48.3852 23.0752 48.8037 22.9299 48.9419 22.631C49.0923 22.3058 48.8212 21.9607 48.7872 21.9195C48.312 21.3013 47.013 20.6456 45.2224 20.1202C43.3808 19.5799 41.2999 19.27 39.5133 19.27ZM39.5131 19.4237C43.3391 19.4237 47.7451 20.8105 48.6671 22.0156C48.6671 22.0156 49.4375 22.9214 47.6624 22.9214C46.18 22.9214 42.9224 22.2901 35.9568 19.9719C36.9664 19.5856 38.206 19.4237 39.5131 19.4237Z" fill="#9DCBEA"/>
<path d="M46.3884 24.5285C44.8004 24.5285 41.3057 23.394 36.2822 21.2478C36.2522 21.235 36.2336 21.2046 36.2357 21.172C36.2379 21.1395 36.2603 21.1118 36.2918 21.1031C36.9031 20.9327 37.6175 20.8463 38.4153 20.8463C41.9846 20.8463 46.5356 22.5841 47.3275 23.8811C47.3298 23.885 47.3318 23.889 47.3335 23.8933C47.3364 23.9006 47.4013 24.0727 47.2868 24.2402C47.156 24.4315 46.8537 24.5285 46.3884 24.5285Z" fill="white"/>
<path d="M38.416 20.7695H38.4154C37.6104 20.7695 36.889 20.8569 36.2712 21.029C36.2083 21.0465 36.1634 21.1018 36.1591 21.167C36.1548 21.2321 36.1921 21.2929 36.2521 21.3185C41.3569 23.4995 44.7673 24.6054 46.3884 24.6054C46.8807 24.6054 47.2043 24.4972 47.3502 24.2836C47.4851 24.0864 47.4138 23.8874 47.4052 23.8654C47.4019 23.857 47.3979 23.8489 47.3932 23.8411C46.5917 22.5283 42.0067 20.7695 38.416 20.7695ZM38.4154 20.9232C42.0104 20.9231 46.5056 22.6824 47.262 23.9212C47.262 23.9212 47.4686 24.4517 46.3884 24.4517C45.2095 24.4517 42.4979 23.8199 36.3125 21.1771C36.9449 21.0008 37.6606 20.9232 38.4154 20.9232Z" fill="#9DCBEA"/>
<path d="M46.0278 19.5005C43.1733 19.5005 40.6246 18.9828 39.2101 18.1158C39.1825 18.0989 39.1685 18.0666 39.1749 18.0351C39.1813 18.0034 39.2067 17.9791 39.2386 17.9742C42.4819 17.4784 45.1347 17.2269 47.1231 17.2269C49.8207 17.2269 50.7647 17.686 51.0817 18.0711C51.2531 18.2796 51.2264 18.4473 51.2228 18.4657C51.2198 18.481 51.2122 18.495 51.2011 18.5059C50.5921 19.1008 48.5131 19.5005 46.0283 19.5005H46.0278Z" fill="white"/>
<path d="M47.1231 17.1501C45.1308 17.1501 42.4742 17.4018 39.2269 17.8982C39.1632 17.908 39.1123 17.9566 39.0995 18.0198C39.0867 18.0831 39.1149 18.1476 39.1699 18.1813C40.5962 19.0555 43.1598 19.5775 46.0278 19.5775C48.1116 19.5775 50.536 19.2631 51.2548 18.5609C51.2771 18.5391 51.2922 18.5112 51.2982 18.4806C51.3026 18.4584 51.3349 18.258 51.1411 18.0223C50.5478 17.3014 48.6287 17.1501 47.1231 17.1501ZM47.1231 17.3038C51.3724 17.3038 51.1475 18.451 51.1475 18.451C50.535 19.0492 48.4057 19.4237 46.0278 19.4237C43.5648 19.4237 40.8352 19.0217 39.2502 18.0502C42.8564 17.4989 45.3702 17.3038 47.1231 17.3038Z" fill="#9DCBEA"/>
<path d="M45.9753 26.7322C44.8371 26.7322 41.7883 25.9992 33.727 22.5074C33.6973 22.4945 33.6787 22.4642 33.6809 22.4319C33.683 22.3995 33.7052 22.3719 33.7364 22.3629C34.3424 22.1891 35.0641 22.101 35.8814 22.101C37.837 22.101 40.3005 22.6191 42.4713 23.4869C44.7004 24.3781 46.2063 25.4541 46.6031 26.4391C46.6067 26.448 46.6086 26.4576 46.6087 26.4672C46.6088 26.4819 46.6049 26.5337 46.5506 26.5885C46.4561 26.6839 46.2625 26.7322 45.9753 26.7322Z" fill="white"/>
<path d="M35.8823 22.0242V22.1779L35.882 22.0242C35.0568 22.0242 34.3279 22.1133 33.7152 22.2891C33.6528 22.307 33.6084 22.3622 33.6042 22.427C33.6 22.4918 33.6369 22.5522 33.6965 22.578C41.7699 26.0751 44.8299 26.8092 45.9753 26.8092C46.288 26.8092 46.4942 26.7547 46.6053 26.6427C46.6784 26.569 46.6858 26.495 46.6855 26.4666C46.6854 26.4474 46.6816 26.4283 46.6744 26.4105C46.2699 25.4063 44.7485 24.3147 42.5002 23.4158C40.321 22.5444 37.847 22.0242 35.8823 22.0242ZM35.8814 22.1779C39.9991 22.1776 45.7105 24.4293 46.5318 26.468C46.5318 26.468 46.5333 26.6554 45.9753 26.6554C44.9503 26.6554 42.0374 26.0234 33.7576 22.4369C34.3787 22.2587 35.102 22.1779 35.8814 22.1779Z" fill="#9DCBEA"/>
<path d="M48.8931 21.0921C48.2009 21.0921 47.2074 20.931 46.1557 20.7606C45.3892 20.6363 44.5965 20.5078 43.8187 20.4215C42.9377 20.3238 42.0698 20.2395 41.2305 20.1579C39.3156 19.9718 37.5068 19.7961 35.9424 19.4992C35.9035 19.4919 35.8765 19.4561 35.8801 19.4167C35.8838 19.3772 35.9168 19.347 35.9564 19.3468C37.0425 19.3423 37.8311 19.2292 38.7441 19.0982C39.71 18.9595 40.8047 18.8024 42.4889 18.7508C42.8443 18.7399 43.1928 18.7343 43.5245 18.7343C47.4182 18.7343 48.9139 19.4813 49.483 20.108C49.8432 20.5047 49.8157 20.837 49.8143 20.8509C49.8123 20.8729 49.8008 20.8928 49.7829 20.9058C49.6096 21.0311 49.3185 21.0921 48.8933 21.0921H48.8931Z" fill="white"/>
<path d="M43.5247 18.6575C43.1921 18.6575 42.8428 18.663 42.4865 18.6739C40.798 18.7257 39.7011 18.8832 38.7331 19.0221C37.823 19.1527 37.037 19.2656 35.9561 19.27C35.8769 19.2703 35.8109 19.3307 35.8036 19.4097C35.7964 19.4885 35.8502 19.56 35.9281 19.5748C37.4959 19.8722 39.3063 20.0481 41.223 20.2345C42.0621 20.3159 42.9297 20.4003 43.8102 20.498C44.5861 20.584 45.3777 20.7123 46.1432 20.8364C47.1982 21.0074 48.1947 21.1689 48.8931 21.1689C49.3414 21.1689 49.6384 21.1051 49.828 20.9681C49.8638 20.9423 49.8867 20.9022 49.8908 20.8583C49.8946 20.8198 49.9163 20.4708 49.54 20.0564C48.9605 19.4181 47.4465 18.6575 43.5247 18.6575ZM43.5247 18.8112C49.9342 18.8112 49.7379 20.8435 49.7379 20.8435C49.5681 20.9662 49.2754 21.0152 48.8931 21.0152C47.7195 21.0152 45.704 20.5533 43.8272 20.3452C40.9305 20.0238 38.2005 19.8494 35.9568 19.4237C38.2227 19.4144 39.2502 18.927 42.4913 18.8276C42.8538 18.8165 43.1973 18.8112 43.5247 18.8112Z" fill="#9DCBEA"/>
<path d="M44.3063 28.2074C43.7266 28.2074 42.5112 27.8828 40.0128 26.3369C39.7712 26.1874 38.2333 24.9717 38.1732 24.7122C38.1647 24.6757 38.1746 24.6493 38.1845 24.6336C38.22 24.577 38.2941 24.577 38.3184 24.577C38.5737 24.577 39.3433 24.8533 40.158 25.1458C40.4352 25.2452 40.6969 25.3392 40.9304 25.4191C41.1339 25.4887 41.3604 25.561 41.6002 25.6376C42.2869 25.8566 43.065 26.105 43.466 26.3525C43.7617 26.535 44.0829 26.8514 44.347 27.2209C44.5362 27.4854 44.7333 27.8345 44.7193 28.0211C44.7128 28.1081 44.6628 28.142 44.6336 28.1546C44.577 28.1786 44.4744 28.2074 44.3063 28.2074Z" fill="white"/>
<path d="M38.3184 24.5002C38.225 24.5002 38.1581 24.5314 38.1195 24.5929C38.0946 24.6325 38.0871 24.6811 38.0984 24.7297C38.1125 24.7907 38.142 24.9178 38.9462 25.6006C39.3587 25.9509 39.7998 26.2955 39.9725 26.4023C42.4861 27.9577 43.7167 28.2843 44.3063 28.2843C44.4517 28.2843 44.5719 28.2644 44.6638 28.2253C44.7409 28.1925 44.7891 28.1201 44.7961 28.0269C44.8156 27.7663 44.5053 27.3099 44.4096 27.1762C44.1398 26.7988 43.8105 26.4747 43.5065 26.2871C43.0974 26.0347 42.3482 25.7956 41.6237 25.5644C41.3842 25.488 41.158 25.4157 40.9554 25.3464C40.7222 25.2667 40.4607 25.1727 40.1837 25.0734C39.2194 24.7271 38.5686 24.5002 38.3184 24.5002ZM38.3184 24.654C38.6467 24.654 40.0148 25.1871 40.9056 25.4918C41.7065 25.7658 42.8982 26.0924 43.4257 26.4179C44.1564 26.8687 44.8137 27.9943 44.6036 28.0839C44.5498 28.1067 44.4564 28.1306 44.3063 28.1306C43.7895 28.1306 42.601 27.848 40.0533 26.2716C39.7125 26.0606 38.1727 24.7974 38.2497 24.6746C38.2586 24.6605 38.2822 24.654 38.3184 24.654Z" fill="#9DCBEA"/>
<path d="M36.3984 26.4679C39.1277 31.0205 40.1623 31.7148 40.5397 31.7148C40.7053 31.7148 40.7444 31.5808 40.7444 31.5808C40.8523 30.5369 38.561 27.2328 36.3984 26.4679Z" fill="white"/>
<path d="M43.7052 16.3716C43.9157 16.2991 44.068 16.2035 44.154 16.0512C44.0039 16.1573 43.8542 16.2641 43.7052 16.3716Z" fill="white"/>
<path d="M40.4442 18.927C40.7838 18.642 41.1392 18.3719 41.5089 18.1325C41.5425 18.0762 41.5787 18.0148 41.6183 17.9469C41.2187 18.2633 40.8272 18.5902 40.4442 18.927Z" fill="white"/>
<path d="M52.8731 3.01731C52.9222 2.97218 52.9705 2.92752 53.021 2.88133C53.0929 2.81561 53.1358 2.74704 53.1602 2.68155C53.0619 2.79124 52.9662 2.90316 52.8731 3.01731Z" fill="white"/>
<path d="M23.3254 19.7485C23.6428 19.456 24.0946 19.2581 24.571 19.0494C24.6112 19.0318 24.6519 19.014 24.6928 18.996C24.7403 19.0158 24.788 19.0329 24.836 19.0477C24.8045 19.1771 24.7489 19.2933 24.627 19.4262C24.3452 19.7334 23.7531 20.0691 22.8666 20.4247C23.1459 20.2191 23.2541 19.9551 23.3254 19.7485ZM45.9725 5.71716C45.9725 5.71716 45.8554 5.80264 45.7465 5.9058C45.6129 6.03224 45.3207 6.33172 44.3815 7.70133C44.1392 8.05461 43.9167 8.45501 43.7015 8.84219C43.4027 9.3798 43.0937 9.93579 42.7189 10.3973C42.6693 10.4583 42.6216 10.5198 42.571 10.585C42.1021 11.1887 41.3936 12.1011 37.9028 14.055C36.6626 14.7491 35.6137 15.0598 35.0051 15.1948C34.8337 14.8475 34.5631 14.5627 34.1965 14.344C34.3888 14.2044 34.5166 14.0278 34.579 13.8147C34.7302 13.2984 34.426 12.7252 33.7626 12.264C33.9858 11.9719 34.0654 11.6196 34.1296 11.3362C34.1619 11.1933 34.1924 11.0583 34.2353 10.9452C34.3225 10.7155 34.2143 10.4578 33.9893 10.3592C33.9291 10.3328 33.8663 10.3203 33.8043 10.3203C33.6347 10.3203 33.4721 10.4144 33.3916 10.5754L33.3632 10.6325C33.2275 10.9068 33.1278 11.1082 32.6858 11.3537C32.658 11.3573 32.6307 11.3591 32.6042 11.3591C32.4526 11.3591 32.3033 11.297 32.134 11.1635C32.071 11.1139 31.9963 11.0815 31.917 11.0695C31.741 11.043 31.5729 11.0295 31.4173 11.0295C30.8826 11.0295 30.5141 11.1887 30.261 11.3946C29.9782 11.1843 29.6283 11.0242 29.1672 11.0242C28.9099 11.0242 28.6404 11.0743 28.3482 11.1769C28.2914 11.1516 28.2337 11.1242 28.1743 11.0959C27.8662 10.9497 27.5172 10.7839 27.0508 10.7839C26.9236 10.7839 26.7945 10.7963 26.6623 10.8216C26.6562 10.8033 26.6487 10.7852 26.6401 10.7674C26.561 10.6049 26.3975 10.5081 26.2254 10.5081C26.1748 10.5081 26.1234 10.5164 26.0732 10.534C25.9952 10.5612 25.916 10.5869 25.8322 10.6141C25.6161 10.6841 25.3727 10.763 25.1354 10.8838C25.0494 10.7836 24.9223 10.7228 24.7855 10.7228C24.7704 10.7228 24.7553 10.7234 24.74 10.7249C24.6629 10.7325 24.5841 10.7377 24.5007 10.7432C24.2422 10.76 23.9455 10.7795 23.6421 10.8872C23.5541 10.773 23.4184 10.7077 23.277 10.7077C23.2316 10.7077 23.1857 10.7145 23.1405 10.7284C22.7905 10.8369 22.2165 11.0148 21.9764 11.6972C21.869 11.6286 21.7565 11.594 21.6398 11.594C21.4324 11.5939 21.2473 11.7097 21.1567 11.8964C21.0576 12.1008 21.0856 12.3507 21.2294 12.5829C21.2948 12.833 21.4657 13.0991 21.7045 13.4525C21.7093 13.4595 21.7142 13.4667 21.7192 13.4741C21.4047 13.5858 21.1576 13.8097 21.0331 14.112C20.8703 14.5074 20.9595 14.9555 21.2603 15.2537C21.2768 15.2702 21.2945 15.2851 21.3129 15.2987C21.234 15.5164 21.2261 15.7222 21.251 15.9001C21.0667 16.1725 20.8822 16.4594 20.7276 16.7494C20.625 16.9416 20.5437 17.1197 20.4805 17.2907C20.1096 17.694 19.6879 18.1732 19.2847 18.7798C18.832 19.4485 19.3272 19.9732 19.572 20.1966C19.7666 20.5417 20.0333 21.0135 20.5874 21.0135C20.6555 21.0135 20.7245 21.0055 20.7941 20.9897C20.9187 21.0553 21.0594 21.1032 21.2184 21.1032C21.2961 21.1032 21.3734 21.0919 21.4519 21.0688C20.7412 21.5305 20.2401 22.1449 19.9352 22.9241C19.8894 22.9578 19.8447 22.9903 19.8009 23.0221C19.454 23.2741 19.1436 23.4997 18.9303 23.9431C18.8727 23.9122 18.8157 23.8758 18.7585 23.8336C18.4572 23.2334 17.9789 22.4987 17.2201 22.4985C16.6415 22.4984 16.1479 22.9341 15.7292 23.3518C15.122 23.8 14.7255 24.3918 14.4872 25.2061C14.0609 25.7894 13.578 26.3933 12.973 27.0995C12.9721 27.1005 12.9712 27.1016 12.9703 27.1026C12.6275 27.5101 12.2609 28.0161 12.142 28.6787C12.0183 29.3679 12.1854 30.1026 12.6526 30.9247C12.6851 30.9825 12.7128 31.0469 12.742 31.1151C12.8194 31.2955 12.9121 31.5112 13.1369 31.7176C13.1354 31.7311 13.1341 31.7443 13.1327 31.7567C13.0837 32.2113 13.0125 32.872 13.3312 33.2672C13.3805 33.4158 13.4704 33.5502 13.6003 33.6694C13.7254 34.3349 14.1213 34.9437 14.8045 35.5226C14.9363 35.8124 15.1513 36.1853 15.5362 36.4614C15.6163 36.519 15.7106 36.548 15.8051 36.548C15.8907 36.548 15.9765 36.5241 16.0521 36.4762C16.1418 36.4192 16.207 36.3347 16.2405 36.2387C16.3085 36.2297 16.3915 36.2073 16.4771 36.1573C16.4845 36.1631 16.4928 36.1703 16.5019 36.179C16.7341 36.6077 16.97 36.8846 17.2406 37.0468C17.75 37.3712 18.3703 37.572 18.8237 37.7188C18.9416 37.757 19.0435 37.79 19.1248 37.8192C19.1762 37.8377 19.2289 37.8465 19.2807 37.8465C19.4595 37.8465 19.6286 37.7419 19.7037 37.5691C19.7677 37.4219 19.9584 36.8506 19.7234 35.6828C19.5585 34.8634 19.2515 34.1453 18.8812 33.7127C18.7927 33.6092 18.6641 33.5514 18.5308 33.5514C18.4999 33.5514 18.4688 33.5545 18.4378 33.5608L17.7445 33.7033C17.8387 33.5013 17.9115 33.2285 17.7732 32.9776C17.6493 32.7527 17.4177 32.6387 17.0846 32.6387C16.97 32.6387 16.8552 32.6505 16.7441 32.6618C16.7024 32.6661 16.6624 32.6702 16.6254 32.6733C16.5748 32.6687 16.5361 32.6625 16.507 32.6562C16.5324 32.5786 16.5786 32.4765 16.6008 32.4281C16.8716 31.8487 17.1425 31.2693 17.4135 30.6899L17.5795 30.3351C17.5806 30.3326 17.5818 30.33 17.5829 30.3274C17.6644 30.1445 17.794 30.0168 17.8981 30.0168C17.9675 30.0168 18.0613 30.0628 18.1621 30.1465C18.4701 30.402 18.7637 30.5211 19.0856 30.5211C19.1612 30.5211 19.229 30.515 19.2901 30.5086C19.7317 31.317 20.3411 32.2085 21.2325 33.354C21.2334 33.3551 21.2341 33.3561 21.235 33.3572C22.2989 34.6995 24.2225 35.7591 27.1087 36.591C27.0784 36.7876 27.0182 36.9388 26.893 37.0925C26.8871 37.0997 26.8815 37.1071 26.876 37.1147C26.3702 37.8194 26.3059 38.7911 26.6946 39.8524C26.7623 40.0844 26.809 40.3866 26.8584 40.706C26.9679 41.4149 27.0914 42.2149 27.5204 42.7685C27.5994 43.0005 27.6298 43.6014 27.6416 43.8366C27.653 44.0614 27.6024 44.2898 27.4952 44.4991C26.8677 45.3679 26.2546 46.0263 25.52 46.6188C24.7875 46.7986 24.0752 47.104 23.7137 47.9881C23.6622 48.114 23.6697 48.2535 23.729 48.3709C23.4583 48.5153 23.2221 48.7171 23.0104 48.9842C23.0071 48.9884 23.0038 48.9927 23.0007 48.9968C22.9619 49.0494 22.9228 49.1021 22.8837 49.1548C22.4364 49.7572 22.0139 50.3262 21.9516 50.871C21.9497 50.8881 21.9487 50.9053 21.9486 50.9223H22.41C22.4636 50.459 22.9384 49.8581 23.3718 49.2707C23.5464 49.0502 23.7578 48.8578 24.0502 48.7269C24.2662 48.6402 24.391 48.4445 24.5219 48.2613C24.4175 48.1374 24.2904 48.1045 24.1406 48.1627C24.443 47.4233 25.0623 47.1967 25.7271 47.0436C26.6555 46.3093 27.3196 45.5334 27.8882 44.7425C28.0516 44.439 28.1178 44.1193 28.1023 43.8134C28.0738 43.2499 28.0348 42.7709 27.9214 42.5309C27.3461 41.8497 27.371 40.5048 27.1326 39.7072C26.8061 38.8244 26.8189 37.9852 27.2507 37.3836C27.5479 37.0184 27.585 36.6431 27.5977 36.2494C24.8867 35.5065 22.7392 34.5125 21.5965 33.0707C20.7977 32.0444 20.0706 31.0274 19.5634 30.0395C19.2078 29.9949 18.9742 30.2209 18.4565 29.7914C17.8503 29.2888 17.3677 29.6774 17.1616 30.1397C16.835 30.8382 16.5083 31.5366 16.1819 32.2352C16.0098 32.6129 15.8131 33.0802 16.6252 33.1359C17.056 33.1057 17.6975 32.941 17.2199 33.6969C17.2989 34.0168 17.4129 34.262 17.7147 34.1803C17.9868 34.1244 18.2589 34.0685 18.5308 34.0126C19.2346 34.8348 19.5516 36.7626 19.2808 37.3852C18.8756 37.2396 18.0714 37.0309 17.4826 36.6541C17.2497 36.5167 17.0561 36.2434 16.8801 35.9082C16.7107 35.7141 16.5248 35.6404 16.3219 35.6867C16.1773 35.8763 15.9881 35.7855 15.7545 35.414C15.7157 35.5441 15.7496 35.7865 15.8051 36.0868C15.5124 35.8768 15.3294 35.5841 15.1834 35.2377C14.3995 34.5989 14.0905 33.9993 14.0296 33.4202C13.8746 33.3179 13.7676 33.1948 13.7505 33.0361C13.3448 32.7311 13.7036 31.4488 13.5886 31.4866C13.2286 31.2467 13.2167 30.9867 13.0536 30.6968C12.156 29.1176 12.6409 28.2106 13.3232 27.3995C13.8755 26.7548 14.4107 26.0972 14.9084 25.411C15.0857 24.765 15.3869 24.1674 16.03 23.7032C16.892 22.839 17.5732 22.4422 18.3912 24.1316C18.68 24.3696 18.9509 24.4756 19.2134 24.5213C19.3947 23.7956 19.7526 23.644 20.3199 23.212C20.7359 22.0383 21.6268 21.2959 22.9782 20.8767C25.3791 19.9252 25.2672 19.3162 25.3542 18.6801C25.1258 18.6533 24.9019 18.6137 24.7088 18.4838C24.0683 18.7752 23.3825 19.0207 22.9238 19.4962C22.8354 19.7557 22.7669 20.022 22.3641 20.1744C22.091 20.5817 21.7378 20.7045 21.4407 20.576C21.2326 20.6876 21.0988 20.6588 20.8509 20.4811C20.365 20.7254 20.1587 20.2945 19.936 19.9034C19.4597 19.4828 19.525 19.2468 19.6675 19.0371C20.0607 18.4453 20.4711 17.9803 20.8839 17.5336C20.9462 17.3475 21.0323 17.158 21.1346 16.9664C21.3048 16.6471 21.5199 16.3217 21.7444 15.995C21.5165 15.2886 22.1795 14.8855 22.79 14.4647C22.2518 14.1577 21.759 14.0043 21.5849 14.9262C21.1955 14.5401 21.486 13.7931 22.2951 13.8601C22.7502 13.8978 21.7101 12.8534 21.663 12.3992C21.4478 12.1261 21.5966 11.8896 21.8573 12.2074C22.0152 12.3328 22.1731 12.4583 22.331 12.5837C22.2728 11.5139 22.7659 11.3273 23.277 11.169C22.9877 11.4408 22.6754 11.6813 22.7539 12.4526C23.3447 11.128 24.0744 11.2539 24.7852 11.184C24.4839 11.3335 24.1279 11.4645 24.0459 11.6888C24.256 11.8836 24.4047 12.1205 24.5253 12.3766C24.7577 11.3319 25.5279 11.2131 26.2254 10.9693C25.8364 11.2187 25.3328 11.3922 25.4032 11.9446C27.0543 10.7438 27.5861 11.3933 28.3417 11.6728C29.3521 11.2577 29.8633 11.599 30.3032 12.0484C30.5528 11.6118 31.0326 11.4026 31.8484 11.5256C32.1329 11.7501 32.4504 11.8784 32.84 11.7946C33.5032 11.4447 33.6381 11.1137 33.8041 10.7816C33.5371 11.4853 33.7375 12.4622 32.1106 12.3716C31.6171 12.2267 30.8365 12.0061 30.8244 13.0427C31.6088 12.4184 32.2322 12.5906 32.7826 13.1249C33.6846 14.1625 33.9362 13.2417 33.4064 12.5807C34.4866 13.2727 34.6968 14.4125 31.9824 14.2625C33.4142 14.3446 34.4626 14.7231 34.7082 15.7218C35.1735 15.6468 36.5009 15.3682 38.128 14.4574C42.0584 12.2574 42.5679 11.3147 43.0768 10.6881C43.7579 9.84954 44.2039 8.77586 44.7618 7.96214C45.4916 6.89783 45.8092 6.50927 46.0219 6.25232C46.0375 6.23348 46.2761 5.93147 46.2709 5.92779C46.2349 5.90181 45.9725 5.71716 45.9725 5.71716Z" fill="white"/>
<path d="M14.9337 28.7182C14.8851 28.6948 14.8474 28.674 14.8184 28.6563C14.8589 28.6125 14.9077 28.5648 14.9414 28.5319L14.9888 28.4865C14.967 28.5649 14.9488 28.6421 14.9337 28.7182ZM17.3814 26.6213C16.7615 26.1041 16.6522 26.2447 16.2929 26.601C15.7357 27.1339 15.1785 27.6669 14.6213 28.1999C14.3242 28.4899 14.0168 28.7974 14.7537 29.1433C14.9182 29.3047 15.1063 29.5482 14.9334 30.0057C14.8138 30.4754 14.8239 30.6891 15.0225 30.9867C15.1411 30.607 15.2523 30.2253 15.3534 29.8407C15.285 29.1744 15.3494 28.5083 15.781 27.8427C16.2719 26.7252 16.6854 26.155 18.0592 27.4339C18.3418 27.5272 18.5837 27.5468 18.8023 27.5244C18.6078 27.207 18.0032 27.1399 17.3814 26.6213Z" fill="white"/>
<path d="M41.6551 16.9681C41.6273 17.0105 41.6001 17.0538 41.5743 17.099C41.55 17.1413 41.5266 17.1823 41.504 17.2217C41.4136 17.3795 41.3361 17.5144 41.2685 17.6309C41.2347 17.6891 41.2034 17.7428 41.1742 17.7925C40.8092 18.4129 40.7745 18.4046 40.3472 18.8812C39.4372 19.896 38.6749 20.0261 38.636 20.2209C38.6151 20.3253 38.6494 20.389 38.7195 20.4276C38.851 20.5002 38.94 20.5157 39.0938 20.5286C39.1157 20.5303 39.1391 20.5322 39.164 20.534C39.1796 20.5352 39.1942 20.5359 39.2079 20.5364C39.2216 20.5368 39.2342 20.5369 39.2458 20.5369C39.2807 20.5367 39.3066 20.5349 39.3237 20.5344C39.3408 20.5339 39.3491 20.5349 39.3486 20.5402C39.3439 20.6013 39.1033 20.6452 38.8617 20.6713C38.55 20.705 38.151 20.9328 38.1309 21.1663C38.1098 21.4117 38.2872 21.4925 38.3876 21.5378C38.4416 21.5621 38.4945 21.5786 38.5399 21.5924C38.5701 21.6015 38.5971 21.6095 38.6186 21.6177C38.651 21.6299 38.6715 21.6427 38.6735 21.6609C38.6745 21.669 38.653 21.6852 38.622 21.7004C38.6142 21.7042 38.6059 21.7079 38.5972 21.7115C38.5709 21.7221 38.541 21.7308 38.5128 21.7339C38.4893 21.7366 38.4691 21.7374 38.45 21.7371C38.393 21.7358 38.3474 21.7233 38.2621 21.7129C38.2419 21.7105 38.2231 21.7092 38.206 21.7091C38.1545 21.7088 38.117 21.7185 38.0941 21.7351C37.8655 21.8989 37.9556 22.5056 38.5191 23.393C38.5354 23.4187 38.5513 23.4448 38.5669 23.4713C38.5825 23.4978 38.5977 23.5246 38.6125 23.5516C38.8191 23.9299 38.9428 24.3482 38.8697 24.4449C38.866 24.4496 38.8613 24.4529 38.8561 24.4552C38.8557 24.4553 38.8551 24.4554 38.8547 24.4556C38.8493 24.4577 38.8431 24.4586 38.8361 24.4584H38.8354C38.8256 24.458 38.8147 24.4559 38.8023 24.4516H38.8022H38.8022C38.7917 24.4479 38.7803 24.4426 38.7683 24.4366C38.7667 24.4357 38.7651 24.435 38.7635 24.434C38.7389 24.421 38.7113 24.4036 38.6816 24.3828C38.6796 24.3815 38.6776 24.3801 38.6756 24.3786C38.6459 24.3576 38.6142 24.3337 38.5816 24.308C38.5787 24.3058 38.5758 24.3036 38.5729 24.3014C38.5402 24.2755 38.5065 24.2482 38.4726 24.2208C38.4533 24.2052 38.4341 24.1896 38.4151 24.1741C38.2175 24.0147 37.5208 23.6434 36.3149 23.1888C36.0403 23.0853 35.7933 23.0221 35.5978 23.0225C35.5326 23.0227 35.4731 23.0299 35.4202 23.045C35.3351 23.0693 35.2718 23.1356 35.2263 23.2291C35.2035 23.2758 35.1853 23.3292 35.171 23.3877C35.0993 23.68 35.1262 24.0956 35.1889 24.4034C35.1889 24.4038 35.1891 24.4042 35.1892 24.4046C35.1951 24.4338 35.202 24.4657 35.2094 24.4988C35.2108 24.5057 35.2124 24.5125 35.2139 24.5196C35.2218 24.554 35.2301 24.5901 35.2393 24.6276C35.2401 24.6311 35.2411 24.6349 35.242 24.6385C35.2514 24.6766 35.2614 24.7161 35.2721 24.7565C35.2728 24.759 35.2734 24.7613 35.2739 24.7636C35.2854 24.8064 35.2975 24.8501 35.3102 24.8942C35.3112 24.8972 35.3119 24.9002 35.3128 24.9032C35.339 24.9933 35.368 25.0852 35.3992 25.1746C35.3998 25.1762 35.4004 25.1778 35.4009 25.1793C35.433 25.2704 35.4674 25.359 35.5041 25.4404C35.5041 25.4405 35.5041 25.4405 35.5041 25.4406C35.5117 25.4574 35.5195 25.4738 35.5271 25.49C35.5303 25.4966 35.5335 25.5033 35.5367 25.5098C35.5367 25.5098 35.5368 25.5099 35.5368 25.5099C35.5433 25.5232 35.5498 25.5362 35.5565 25.549C35.5621 25.5598 35.5678 25.5703 35.5735 25.5807C35.5784 25.5897 35.5834 25.5989 35.5884 25.6076C35.5996 25.627 35.6109 25.6459 35.6225 25.6636C35.6298 25.6749 35.6369 25.6866 35.644 25.6985C35.644 25.6986 35.6441 25.6986 35.6441 25.6987C35.645 25.7003 35.6461 25.7021 35.6471 25.7038C35.6544 25.7164 35.6616 25.7292 35.6687 25.7424C35.6688 25.7425 35.6688 25.7425 35.6689 25.7426C35.6699 25.7445 35.6709 25.7465 35.672 25.7485C35.6873 25.7773 35.7026 25.8076 35.7188 25.8392C35.7345 25.8701 35.7508 25.902 35.7689 25.9356C35.7691 25.9359 35.7693 25.9361 35.7694 25.9365C35.8602 26.1042 36.8843 27.0583 36.6253 27.0609C36.5875 27.0613 36.1529 26.985 36.0441 26.9561C36.0072 26.9462 35.9691 26.9354 35.9299 26.9234C35.6546 26.8397 35.3209 26.7008 34.9546 26.4679C34.5624 26.2183 34.1941 25.7625 34.0112 25.6639C33.9745 25.6442 33.936 25.6255 33.8954 25.6082C33.7737 25.5564 33.6336 25.5169 33.4688 25.4966C33.4518 25.4946 33.436 25.4932 33.4213 25.4924C33.4065 25.4917 33.3928 25.4916 33.38 25.492C33.3035 25.4945 33.2619 25.5159 33.2389 25.5345C33.12 25.6307 33.342 25.8579 33.4902 26.0858C33.9958 26.8628 34.155 27.5043 34.157 27.8713C34.1578 28.0111 34.1357 28.1111 34.1013 28.1636C34.0926 28.1768 34.0833 28.187 34.0733 28.194C34.0684 28.1975 34.0631 28.2004 34.0579 28.2023C34.0354 28.2108 34.0116 28.2022 33.9851 28.18C33.8705 28.0841 33.7065 27.734 33.3849 27.4157C33.1547 27.188 32.9766 26.9524 32.5577 26.727C32.4554 26.6719 32.3391 26.6193 32.2052 26.5706C32.0715 26.522 31.9201 26.4772 31.7477 26.438C31.7022 26.4317 31.6533 26.428 31.6002 26.428C31.4409 26.4281 31.2424 26.4612 30.9711 26.5572C30.6925 26.6557 30.4609 26.6952 30.2658 26.6925C29.6805 26.684 29.4233 26.2945 29.2068 25.9737C29.4556 26.5911 29.8703 27.2089 30.6122 28.3352C30.9058 28.7037 31.2173 29.0389 31.5537 29.3278C31.5958 29.3638 31.6382 29.3992 31.681 29.4339C31.7667 29.5031 31.854 29.5694 31.9431 29.6324C31.9876 29.6639 32.0325 29.6947 32.0779 29.7246C32.2595 29.8442 32.4482 29.9506 32.6449 30.042C32.7335 30.0657 32.8201 30.09 32.9052 30.1148C32.9137 30.1173 32.922 30.1199 32.9303 30.1224C33.0372 30.1538 33.1408 30.1863 33.2424 30.2194C33.2439 30.2198 33.2453 30.2203 33.2468 30.2208C33.5418 30.3172 33.8155 30.4205 34.0691 30.5306C34.0691 30.5306 34.0691 30.5307 34.0692 30.5307C34.0804 30.5355 34.0915 30.5405 34.1026 30.5455C34.2416 30.6065 34.3747 30.6696 34.502 30.7345C34.513 30.74 34.524 30.7455 34.5347 30.7511C34.5347 30.7511 34.5348 30.7511 34.5348 30.7512C34.6985 30.8356 34.8527 30.9234 34.9983 31.014C35.0107 31.0216 35.0231 31.0293 35.0353 31.037C35.0686 31.0581 35.1015 31.0794 35.134 31.1007C35.1457 31.1085 35.1574 31.1163 35.1689 31.124C35.2025 31.1464 35.2357 31.1689 35.2682 31.1917C35.2726 31.1948 35.2769 31.1978 35.2813 31.2009C35.3929 31.2794 35.4988 31.3598 35.5995 31.442C35.6043 31.4459 35.6092 31.4498 35.614 31.4537C35.6454 31.4795 35.6762 31.5055 35.7065 31.5316C35.7124 31.5367 35.7183 31.5417 35.7242 31.5468C35.7551 31.5738 35.7859 31.6008 35.8159 31.6281C35.998 31.6466 36.1245 31.6227 36.2103 31.5777C37.3971 32.9732 37.5282 32.2767 37.5282 32.2767C37.5354 32.0642 37.4677 31.7776 37.3422 31.4466C38.9591 32.9622 39.0434 32.0731 39.0434 32.0731C39.0311 31.8519 38.9515 31.5768 38.8163 31.2655C39.8975 31.9501 39.943 31.3126 39.943 31.3126C39.873 30.522 38.8554 29.0721 37.4785 27.7722C37.4166 27.6572 37.4541 27.4132 37.5129 27.1498C37.7708 27.351 38.0197 27.5359 38.2614 27.7046C39.8984 28.8472 41.0382 29.3555 41.8084 29.5618C42.8568 29.8426 43.1775 29.9144 43.2204 29.564C43.2441 29.3706 42.8737 28.7193 42.4152 28.1487C41.6753 27.2278 40.4888 26.0984 39.0967 24.9979C39.3749 25.1141 39.5539 25.1926 39.6284 25.2249C40.905 25.778 43.0004 26.112 42.9886 26.0638C42.9601 25.9481 42.9331 26.0635 41.8655 25.5624C41.4504 25.3675 40.8973 25.0782 40.3902 24.6985C40.1388 24.5103 39.181 23.6436 39.5479 23.2216C39.6137 23.1457 39.8442 23.1123 40.1447 23.1123C40.5327 23.1123 40.7481 23.1436 41.2979 23.2438C41.7466 23.3256 42.5813 23.5694 42.5813 23.5694L42.1511 23.3394C42.1511 23.3394 39.5699 22.5989 39.4452 22.1475C39.4963 22.0243 39.7718 21.8514 40.0313 21.8235C40.4856 21.7744 40.6429 21.7058 40.6549 21.5514L40.6601 21.4844L40.6135 21.4322C40.5813 21.3975 40.5377 21.3799 40.4837 21.3799C40.4751 21.3799 40.4641 21.3802 40.4507 21.3809C40.4361 21.3816 40.4172 21.3825 40.3942 21.3825C40.3723 21.3825 40.3507 21.3816 40.3284 21.38C40.1283 21.3649 40.0652 21.3577 39.9467 21.2922C39.94 21.2886 39.9374 21.286 39.9368 21.2855C39.9371 21.2853 39.9357 21.2788 39.9375 21.2639C39.9689 21.2319 40.0773 21.1713 40.1737 21.1174C40.4914 20.9398 41.0233 20.6425 41.6147 19.9831C41.688 19.9014 41.7496 19.834 41.8034 19.7753C42.1593 19.3865 40.8514 19.9226 41.5316 18.734C41.7476 18.3565 43.1301 17.7332 43.5597 17.6023C44.0918 17.4401 44.7883 17.411 44.9509 17.385C45.0107 17.3754 44.4541 17.1634 44.4916 17.1546C44.9059 17.0581 46.0986 16.8164 46.0611 16.7586C45.9763 16.6278 43.2525 16.9139 41.6551 16.9681Z" fill="#9DCBEA"/>
<path d="M48.1741 10.9643L48.1333 10.8736H48.0339C47.9698 10.8736 47.9522 10.8909 47.8544 10.9868C47.7927 11.0472 47.6997 11.1384 47.6493 11.1833C47.2895 11.5039 46.9758 11.7619 46.5239 12.0569C45.8938 12.4683 45.3066 12.7361 44.306 13.1468C44.1278 13.2199 43.8401 13.307 43.5842 13.3772C43.9645 12.9849 44.3323 12.4941 44.6684 11.9719L44.6682 11.9721C44.4267 12.1328 44.1876 12.2786 43.9511 12.4124C43.9481 12.414 43.9453 12.4157 43.9425 12.4174C43.8953 12.444 43.8484 12.4699 43.8015 12.4957C43.779 12.508 43.7567 12.5203 43.7344 12.5324C43.6961 12.5531 43.6578 12.5737 43.6197 12.5939C43.5846 12.6125 43.5497 12.6307 43.5148 12.6489C43.4868 12.6634 43.4586 12.6782 43.4307 12.6925C43.3656 12.7258 43.3009 12.7586 43.2363 12.7905C42.4044 13.2027 41.0266 13.6947 40.5167 14.04C40.2585 14.2148 42.0961 14.0759 42.8264 14.0855C43.1644 14.0899 43.5088 14.1704 43.7474 14.251C44.0025 14.141 44.2476 14.0316 44.4575 13.9276C45.5265 13.398 46.8006 12.6518 48.1456 11.1336C48.21 11.0608 48.1837 10.9855 48.1741 10.9643Z" fill="#9DCBEA"/>
<path d="M44.4784 14.4078C44.1853 14.4457 43.6317 14.5581 43.0964 14.6667C42.8965 14.7073 42.6874 14.7497 42.4927 14.788C42.7322 14.6807 42.997 14.569 43.2579 14.459C43.3343 14.4267 43.4112 14.3942 43.4879 14.3616C43.4273 14.355 43.3626 14.35 43.2966 14.346C43.2973 14.3457 43.2979 14.3455 43.2985 14.3453C43.1698 14.3376 43.0323 14.3368 42.8921 14.3502C42.5023 14.3875 42.053 14.4647 41.5903 14.5801C41.563 14.5869 41.5356 14.5942 41.5083 14.6012C41.4674 14.6118 41.4264 14.6227 41.3854 14.6338C41.3575 14.6414 41.3297 14.6489 41.3018 14.6567C41.2427 14.6734 41.1835 14.6907 41.1243 14.7085C41.0981 14.7165 41.072 14.7247 41.0458 14.7328C40.9977 14.7478 40.9498 14.7632 40.9018 14.779C40.881 14.7858 40.8603 14.7924 40.8396 14.7993C40.7777 14.8202 40.7162 14.8419 40.6549 14.8641C40.6326 14.8722 40.6103 14.8803 40.5881 14.8886C40.5242 14.9122 40.4606 14.9365 40.3976 14.9616C40.3854 14.9665 40.3733 14.9717 40.3611 14.9766C40.3045 14.9996 40.2485 15.0231 40.1929 15.0471C40.1757 15.0546 40.1586 15.0619 40.1416 15.0694C40.0783 15.0975 40.0157 15.1262 39.9539 15.1557C39.9403 15.1622 39.9267 15.169 39.9131 15.1756C39.8572 15.2028 39.8021 15.2306 39.7476 15.2591C39.7371 15.2646 39.7265 15.27 39.716 15.2755C39.6552 15.3078 39.5957 15.3412 39.5372 15.3751C39.5239 15.3828 39.5107 15.3906 39.4976 15.3984C39.4379 15.4336 39.3791 15.4695 39.3222 15.5064C38.6078 15.9712 38.2574 16.4347 37.1646 17.1444C37.1293 17.1673 37.0932 17.1904 37.0563 17.2139C37.0138 17.2409 36.9665 17.2693 36.9164 17.2982C36.7912 17.3703 36.6483 17.4457 36.5152 17.5141C36.4886 17.5278 36.4624 17.5413 36.4368 17.5543C36.2577 17.6454 36.1087 17.7185 36.0658 17.745C36.0597 17.7487 36.0557 17.7516 36.0541 17.7533C36.0413 17.7676 36.038 17.7771 36.0445 17.78C36.0511 17.7829 36.0674 17.7792 36.094 17.7672C36.1454 17.744 36.1994 17.7188 36.2557 17.6915C36.4017 17.6211 36.5642 17.5377 36.7405 17.445C38.2491 16.6515 40.2912 15.4152 42.167 15.5198C42.8046 15.5553 43.2786 15.5962 43.5383 15.6596C44.3586 15.3844 45.3321 14.9919 45.8556 14.8232C46.5693 14.5932 46.657 14.5414 47.3895 14.4225L48.0469 14.2722C48.0469 14.2722 46.7061 14.3164 46.2696 14.3164C45.747 14.3164 44.9635 14.345 44.4784 14.4078Z" fill="#9DCBEA"/>
<path d="M18.0592 27.4339C16.6853 26.155 16.2719 26.7252 15.781 27.8427C15.3494 28.5083 15.285 29.1744 15.3534 29.8408C15.2523 30.2254 15.1412 30.6071 15.0225 30.9867C14.8239 30.6891 14.8138 30.4755 14.9334 30.0057C15.1063 29.5483 14.9182 29.3048 14.7537 29.1433C14.0168 28.7975 14.3242 28.4899 14.6212 28.1999C15.1785 27.6669 15.7356 27.1339 16.2929 26.6011C16.6522 26.2447 16.7615 26.1042 17.3815 26.6213C18.0032 27.1399 18.6078 27.2071 18.8023 27.5245C18.5837 27.5468 18.3418 27.5272 18.0592 27.4339ZM46.5987 10.2988C46.2176 10.6385 45.9039 10.8933 45.455 11.1864C44.784 11.6246 44.135 11.9107 43.2113 12.2898C42.7973 12.4597 41.8552 12.6926 41.9004 12.6565C42.9775 11.7973 43.9707 9.99621 44.4676 8.88808C44.8469 8.04262 45.3384 7.36565 45.5623 7.01098C45.6539 6.86616 46.006 6.28657 46.2709 5.92775C46.2747 5.92268 46.2524 5.93428 46.2335 5.94981C46.0809 6.0748 45.4917 6.89783 44.7619 7.96222C44.2039 8.77593 43.758 9.84962 43.0768 10.6881C42.5679 11.3147 42.0584 12.2574 38.128 14.4574C36.501 15.3682 35.1735 15.6468 34.7082 15.7218C34.4626 14.7231 33.4142 14.3447 31.9824 14.2626C34.6968 14.4125 34.4866 13.2727 33.4065 12.5808C33.9362 13.2417 33.6846 14.1626 32.7826 13.1249C32.2322 12.5906 31.6088 12.4185 30.8244 13.0427C30.8365 12.0061 31.6171 12.2268 32.1106 12.3716C33.7375 12.4623 33.5371 11.4854 33.8042 10.7816C33.6381 11.1137 33.5032 11.4448 32.8401 11.7946C32.4504 11.8784 32.1329 11.7502 31.8484 11.5256C31.0326 11.4027 30.5528 11.6119 30.3032 12.0485C29.8633 11.599 29.3522 11.2578 28.3418 11.6728C27.5861 11.3933 27.0543 10.7439 25.4032 11.9446C25.3328 11.3923 25.8365 11.2187 26.2254 10.9693C25.5279 11.2132 24.7577 11.3319 24.5254 12.3766C24.4048 12.1206 24.256 11.8836 24.0459 11.6889C24.128 11.4646 24.484 11.3335 24.7852 11.184C24.0744 11.254 23.3447 11.128 22.754 12.4527C22.6754 11.6814 22.9878 11.4409 23.277 11.169C22.7659 11.3274 22.2728 11.514 22.331 12.5838C22.1731 12.4583 22.0152 12.3328 21.8574 12.2074C21.5966 11.8897 21.4478 12.1262 21.663 12.3992C21.7101 12.8534 22.7502 13.8978 22.2951 13.8601C21.486 13.7931 21.1955 14.5401 21.5849 14.9263C21.759 14.0044 22.2518 14.1578 22.79 14.4648C22.1795 14.8856 21.5166 15.2887 21.7444 15.9951C21.5199 16.3218 21.3048 16.6471 21.1346 16.9665C21.0323 17.1581 20.9462 17.3475 20.884 17.5337C20.4711 17.9804 20.0607 18.4454 19.6675 19.0371C19.5251 19.2468 19.4598 19.4829 19.9361 19.9034C20.1587 20.2946 20.365 20.7254 20.8509 20.4811C21.0988 20.6588 21.2326 20.6876 21.4407 20.5761C21.7378 20.7045 22.0911 20.5817 22.3642 20.1745C22.7669 20.022 22.8355 19.7558 22.9238 19.4963C23.3825 19.0207 24.0683 18.7753 24.7088 18.4838C24.9019 18.6137 25.1259 18.6534 25.3542 18.6802C25.2672 19.3163 25.3791 19.9252 22.9782 20.8768C21.6269 21.2959 20.7359 22.0383 20.32 23.2121C19.7527 23.6441 19.3947 23.7956 19.2134 24.5213C18.9509 24.4756 18.6801 24.3696 18.3912 24.1317C17.5733 22.4423 16.892 22.839 16.0301 23.7032C15.3869 24.1675 15.0857 24.7651 14.9084 25.4111C14.4108 26.0972 13.8755 26.7548 13.3233 27.3996C12.6409 28.2106 12.1561 29.1177 13.0536 30.6969C13.2167 30.9867 13.2286 31.2468 13.5886 31.4866C13.7036 31.4488 13.3448 32.7312 13.7505 33.0361C13.7676 33.1949 13.8747 33.3179 14.0297 33.4202C14.0906 33.9993 14.3995 34.5989 15.1834 35.2377C15.3294 35.5842 15.5125 35.8769 15.8051 36.0868C15.7497 35.7866 15.7157 35.5442 15.7545 35.4141C15.9882 35.7855 16.1774 35.8764 16.3219 35.6867C16.5248 35.6404 16.7107 35.7141 16.8801 35.9083C17.0561 36.2434 17.2498 36.5167 17.4827 36.6542C18.0714 37.031 18.8757 37.2396 19.2808 37.3852C19.5516 36.7627 19.2346 34.8349 18.5308 34.0126C18.2589 34.0685 17.9869 34.1245 17.7147 34.1804C17.4129 34.2621 17.2989 34.0169 17.22 33.697C17.6975 32.9411 17.0561 33.1058 16.6252 33.1359C15.8131 33.0803 16.0098 32.6129 16.1819 32.2352C16.5083 31.5367 16.835 30.8383 17.1617 30.1398C17.3677 29.6775 17.8503 29.2888 18.4565 29.7915C18.9742 30.221 19.2078 29.995 19.5634 30.0395C20.0706 31.0274 20.7977 32.0445 21.5965 33.0708C22.7392 34.5125 24.8867 35.5066 27.5977 36.2495C27.585 36.6432 27.5479 37.0185 27.2508 37.3837C26.8189 37.9852 26.8061 38.8245 27.1326 39.7072C27.3711 40.5048 27.3461 41.8497 27.9214 42.531C28.0348 42.7709 28.0739 43.2499 28.1023 43.8133C28.1178 44.1194 28.0516 44.439 27.8883 44.7425C27.3196 45.5334 26.6555 46.3094 25.7271 47.0437C25.0624 47.1967 24.443 47.4233 24.1406 48.1627C24.2904 48.1045 24.4176 48.1374 24.5219 48.2613C24.391 48.4445 24.2662 48.6402 24.0502 48.7269C23.7578 48.8578 23.5465 49.0502 23.3719 49.2707C22.9381 49.8586 22.4628 50.4599 22.4099 50.9234C23.7336 50.8074 24.7105 50.5463 25.4 50.165C25.4448 49.8023 25.4332 49.4783 25.4135 49.1598C25.5736 49.0215 25.6798 48.8422 25.7612 48.6441C25.9043 48.5117 26.0562 48.4399 26.0858 48.8174C26.0875 48.9732 26.0373 49.1361 25.9351 49.306C26.0724 49.2908 26.2002 49.2065 26.3187 49.0532C26.6479 49.1611 26.8631 48.7124 27.085 48.2966C27.1119 48.3709 27.1388 48.4453 27.1656 48.5197C27.4607 48.1379 27.3967 47.9195 27.3537 47.6915C27.5446 47.2111 28.4227 46.4561 29.2903 45.7053C29.5963 45.5587 29.8574 45.4242 30.0597 45.3009C30.6117 44.965 30.5638 44.4157 30.4091 44.098C30.1912 43.8824 30.1209 43.6156 30.0718 43.3415C29.9871 41.445 30.6841 40.0821 31.2261 39.6845C31.8025 40.1702 32.4119 40.5107 33.0543 40.7062C33.8807 41.4903 34.7549 42.2118 35.3903 43.2472C35.3974 43.889 35.3571 44.5277 35.5535 45.1813C35.5184 45.7824 35.2554 46.3478 34.7646 46.8773C34.4589 47.207 34.1011 47.5483 33.6062 47.9546C33.1697 48.3129 32.9135 48.6843 33.0168 49.0216C32.9991 49.3418 32.879 49.5646 32.6564 49.6895C32.5798 49.7297 32.4918 49.6823 32.3956 49.815C31.959 50.4169 31.6428 50.9112 31.7063 51.3072C32.7059 51.6435 35.0761 50.809 34.786 49.7337C34.8516 49.6021 34.8899 49.4743 34.8681 49.3547C35.0611 48.857 35.2089 48.9002 35.3658 48.8353C35.4559 48.9234 35.5081 49.0612 35.5225 49.2489C35.6105 49.2212 35.697 49.2052 35.8054 48.9929C36.6982 48.414 36.4805 47.933 36.4129 47.4386C36.3691 46.709 36.9055 45.2869 37.7057 43.5504C38.3876 42.1897 37.9596 41.8811 37.3731 41.7229C36.7543 41.3663 36.4162 40.5847 36.0615 39.8281C35.798 39.1338 36.1167 38.3993 36.5184 37.6591C37.0956 36.7695 37.1558 35.5601 37.239 34.6486C37.2617 34.6367 37.2835 34.6261 37.3055 34.6153C37.8602 34.3769 38.2938 34.2937 38.6527 34.5723C39.0985 34.9183 38.5933 36.3252 37.8458 35.2437C37.819 35.6727 37.7538 36.0928 38.3385 36.6591C37.4042 37.4827 37.2524 38.0342 37.2122 38.5472C37.3859 38.1752 37.5992 38.0717 37.8181 38.0064C37.0587 38.9472 37.0879 39.8932 38.0692 40.8452C37.5731 39.881 38.0025 39.5451 38.5019 39.2431C38.1053 40.1654 38.0333 41.0399 38.8592 41.7821C38.4424 43.0583 38.1668 43.6857 39.0029 44.6882C39.4281 45.1414 39.7462 45.1995 39.4123 45.6502C39.7374 45.6 39.8931 45.3575 39.8214 45.1493C39.8685 45.2553 39.8834 45.3601 39.8697 45.5227C39.8126 46.1996 39.9722 46.4961 40.1031 46.6491C40.7139 47.3637 41.5599 47.512 42.2713 47.4429C42.3597 47.439 42.4477 47.4316 42.5339 47.4177C42.8352 47.3693 43.1041 47.2766 43.3433 47.1502C43.3976 47.1228 43.4462 47.0953 43.4865 47.0685C43.4869 47.0682 43.4872 47.0679 43.4875 47.0675C44.3781 46.518 44.812 45.4744 44.8971 44.5195C44.2952 45.9332 43.7155 45.6787 43.1359 45.7679C44.0723 44.9208 44.0873 44.4447 44.0053 43.3379C43.1805 45.7373 41.4415 44.6087 42.2441 43.5162C43.4759 42.5742 43.4118 41.5141 42.7904 40.7015C41.881 39.4286 43.1639 38.1461 43.2625 37.421C43.9864 32.6912 40.3218 30.9122 37.115 33.4476C36.4642 32.0329 35.3615 30.7685 32.6449 30.0421C31.8581 29.6761 31.1994 29.0723 30.6123 28.3353C29.8703 27.209 29.4556 26.5912 29.2068 25.9737C29.4954 26.4015 29.8566 26.9515 30.9711 26.5573C31.3329 26.4293 31.5652 26.4129 31.7478 26.438C32.0926 26.5165 32.3531 26.6169 32.5578 26.7271C32.9766 26.9525 33.1547 27.1881 33.3849 27.4158C33.7808 27.8075 33.9378 28.2475 34.0579 28.2024C34.2268 28.1391 34.2607 27.2699 33.4903 26.0859C33.342 25.858 33.12 25.6308 33.2389 25.5346C33.2695 25.5097 33.3333 25.48 33.4688 25.4967C33.6886 25.5237 33.8644 25.5848 34.0113 25.664C34.1941 25.7626 34.5624 26.2184 34.9546 26.468C35.3733 26.7341 35.7492 26.8774 36.0441 26.9562C36.3921 27.0489 36.6779 27.0652 36.7534 27.0645C37.0124 27.0619 37.1554 26.9934 37.1183 26.9873C36.9832 26.9648 36.9164 26.937 36.811 26.8793C35.8465 26.3511 35.7938 25.9265 35.6225 25.6636C35.418 25.3499 35.2565 24.7359 35.1889 24.4035C35.0887 23.911 35.0796 23.1424 35.4202 23.0451C35.6318 22.9846 35.9489 23.0508 36.315 23.1889C37.5208 23.6434 38.2176 24.0148 38.4151 24.1742C38.6106 24.3321 38.8196 24.5112 38.8697 24.4449C38.9533 24.3345 38.7799 23.8038 38.5191 23.3931C37.9556 22.5057 37.8655 21.899 38.0941 21.7351C38.1247 21.7132 38.1811 21.7031 38.2622 21.713C38.3759 21.7269 38.419 21.7445 38.5128 21.734C38.588 21.7257 38.6754 21.6772 38.6735 21.661C38.6681 21.6124 38.5316 21.6026 38.3876 21.5378C38.2872 21.4926 38.1098 21.4118 38.131 21.1664C38.151 20.9329 38.55 20.705 38.8617 20.6714C39.1033 20.6453 39.3439 20.6014 39.3486 20.5403C39.3498 20.5259 39.2892 20.5435 39.164 20.534C38.9645 20.5191 38.8697 20.5106 38.7195 20.4277C38.6495 20.3891 38.6151 20.3253 38.636 20.221C38.675 20.0262 39.4372 19.896 40.3473 18.8812C40.8942 18.2713 40.798 18.4555 41.5743 17.0991C41.8007 16.7036 42.0998 16.4179 42.5322 16.2016C42.8043 16.0656 43.1716 16.0365 43.3038 16.0057C43.6717 15.9199 43.745 15.8512 43.7593 15.8135C43.8215 15.6503 43.2127 15.5782 42.167 15.5198C40.2912 15.4153 38.2492 16.6516 36.7406 17.445C36.5643 17.5377 36.4018 17.6211 36.2558 17.6916C36.1994 17.7188 36.1455 17.7441 36.0941 17.7673C36.0408 17.7913 36.0287 17.782 36.0542 17.7534C36.0795 17.7248 36.7153 17.4308 37.0564 17.2139C38.2353 16.4646 38.5849 15.9863 39.3223 15.5065C40.3407 14.8441 41.8346 14.4514 42.8922 14.3503C43.4506 14.2969 43.9672 14.4679 44.0535 14.4112C44.1179 14.3688 43.4593 14.0939 42.8265 14.0856C42.0962 14.076 40.2586 14.2149 40.5168 14.0401C41.0266 13.6948 42.4045 13.2028 43.2364 12.7906C44.3895 12.2193 45.6136 11.4591 46.8775 10.0325C46.9109 9.99474 46.6927 10.215 46.5987 10.2988Z" fill="black"/>
</svg>
