<svg width="91" height="109" viewBox="0 0 91 109" fill="none" xmlns="http://www.w3.org/2000/svg">
<path d="M67.1976 97.7449V86.6986C64.9285 87.9326 63.0029 90.3757 61.4206 94.0279C60.8433 95.3616 60.4403 96.6006 60.2115 97.7449H67.1976ZM71.198 108.791H66.5109C66.8192 108.343 67.0231 107.821 67.1229 107.224C67.1726 106.915 67.1976 106.423 67.1976 105.746V100.939H59.7039C59.7039 101.457 59.689 102.457 59.6591 103.94C59.6391 104.885 59.6839 105.846 59.7936 106.821C59.8831 107.647 60.0721 108.304 60.3608 108.791H55.5241C55.8624 108.294 56.1064 107.791 56.2557 107.283C56.4148 106.726 56.4946 106.214 56.4946 105.746V101.865C56.4946 98.8792 57.0917 95.9587 58.2858 93.1024C59.5397 90.0971 61.2512 87.6688 63.421 85.8177C65.6899 83.8771 67.924 82.9021 70.1233 82.8921H70.5713C70.7403 82.8921 70.9492 82.917 71.198 82.9666C70.9193 83.4443 70.7403 83.9123 70.6606 84.3698C70.591 84.7781 70.5561 85.2805 70.5561 85.8776V105.746C70.5561 106.403 70.5809 106.875 70.6309 107.164C70.7301 107.721 70.9193 108.264 71.198 108.791Z" fill="#9DCBEA"/>
<path d="M90.372 109C87.6451 108.343 85.1374 107.249 82.8486 105.716C80.3206 104.025 78.3702 102.054 76.997 99.8049C75.4543 97.2772 74.6781 94.5205 74.6684 91.535C74.6684 88.9974 75.4221 86.8999 76.9298 85.2431C78.4375 83.5861 80.3306 82.7526 82.6097 82.7426C83.2069 82.7426 83.8486 82.7628 84.5353 82.8025C86.2968 82.9121 87.3119 82.9666 87.5806 82.9666V87.4748C86.7744 86.9473 86.0431 86.5741 85.3862 86.3552C84.809 86.1663 84.0625 86.0716 83.1471 86.0716C81.5647 86.0716 80.3258 86.6339 79.4301 87.7585C78.604 88.7936 78.1861 90.122 78.1764 91.744C78.1562 94.1226 78.9125 96.4214 80.4452 98.6405C81.7387 100.512 83.4058 102.069 85.4459 103.313C87.2671 104.417 88.9092 104.98 90.372 105V109Z" fill="#9DCBEA"/>
<path d="M6.15473 84.227V105.455C6.15473 106.171 6.18161 106.687 6.23614 107.002C6.34456 107.621 6.5564 108.213 6.87153 108.778H1.73973C2.07625 108.289 2.29897 107.719 2.40777 107.067C2.47292 106.655 2.50543 106.117 2.50543 105.455V83.8849C2.50543 83.2007 2.47292 82.674 2.40777 82.3046C2.28809 81.6313 2.0655 81.0612 1.73973 80.594H18.9597C18.688 81.0503 18.4816 81.5715 18.3406 82.158C18.2536 82.8532 18.2102 83.4288 18.2102 83.8849V105.455C18.2102 106.106 18.2428 106.622 18.308 107.002C18.4274 107.632 18.6339 108.224 18.927 108.778H13.8279C14.1427 108.333 14.3546 107.763 14.4632 107.067C14.539 106.59 14.5774 106.052 14.5774 105.455V84.227H6.15473Z" fill="#9DCBEA"/>
<path d="M55.5039 87.2359C54.3893 86.6089 53.3842 86.2954 52.4886 86.2954H46.1145V105.776C46.1145 106.691 46.4229 107.696 47.0399 108.791H42.0692C42.3677 108.363 42.5715 107.841 42.6812 107.224C42.741 106.885 42.7707 106.403 42.7707 105.776V86.0119C42.7707 85.4046 42.741 84.912 42.6812 84.534C42.5817 83.9369 42.3776 83.4144 42.0692 82.9666H55.5039V87.2359Z" fill="#9DCBEA"/>
<path d="M27.1693 91.1678V105.603H33.7074C34.4338 105.603 35.0856 105.489 35.663 105.26C35.8221 105.17 36.1803 104.971 36.7378 104.662V108.932H23.1238C23.4323 108.484 23.6364 107.961 23.7359 107.364C23.7956 106.986 23.8255 106.493 23.8255 105.886V86.1224C23.8255 85.4955 23.7956 85.013 23.7359 84.6744C23.6263 84.0576 23.4224 83.5351 23.1238 83.107H36.7378V87.3763C36.1504 87.0083 35.7026 86.7695 35.3942 86.6599C34.9861 86.5106 34.424 86.4359 33.7074 86.4359H27.1693V87.8093H38.1857V92.0933C37.6382 91.7552 37.1904 91.5212 36.8422 91.3919C36.4341 91.2425 35.8719 91.1678 35.1554 91.1678H27.1693Z" fill="#9DCBEA"/>
<path d="M66.0832 96.663V85.6167C63.814 86.8507 61.8885 89.2939 60.3062 92.9461C59.7289 94.2798 59.3259 95.5188 59.097 96.663H66.0832ZM70.0835 107.709H65.3964C65.7047 107.261 65.9087 106.739 66.0084 106.142C66.0581 105.834 66.0832 105.341 66.0832 104.664V99.8575H58.5894C58.5894 100.375 58.5746 101.375 58.5448 102.858C58.5247 103.804 58.5694 104.764 58.6791 105.739C58.7686 106.565 58.9576 107.222 59.2463 107.709H54.4098C54.7479 107.212 54.992 106.709 55.1412 106.202C55.3003 105.644 55.3801 105.132 55.3801 104.664V100.783C55.3801 97.7974 55.9772 94.8769 57.1713 92.0205C58.4252 89.0153 60.1368 86.587 62.3065 84.736C64.5755 82.7954 66.8095 81.8202 69.009 81.8102H69.4568C69.6259 81.8102 69.8348 81.8352 70.0835 81.8848C69.8048 82.3625 69.6259 82.8304 69.5461 83.288C69.4765 83.6963 69.4418 84.1986 69.4418 84.7957V104.664C69.4418 105.321 69.4664 105.794 69.5164 106.082C69.6157 106.64 69.8048 107.182 70.0835 107.709Z" fill="black"/>
<path d="M89.2575 107.918C86.5306 107.261 84.023 106.167 81.7341 104.634C79.2063 102.943 77.2557 100.972 75.8825 98.7231C74.34 96.1953 73.5636 93.4386 73.5539 90.4533C73.5539 87.9156 74.3077 85.818 75.8153 84.1612C77.323 82.5043 79.2163 81.6709 81.4953 81.6609C82.0924 81.6609 82.7342 81.6809 83.4208 81.7207C85.1823 81.8302 86.1974 81.8848 86.4661 81.8848V86.3929C85.6599 85.8654 84.9286 85.4923 84.2717 85.2733C83.6946 85.0845 82.9481 84.9897 82.0326 84.9897C80.4503 84.9897 79.2113 85.5521 78.3157 86.6767C77.4896 87.7117 77.0716 89.0402 77.0619 90.6621C77.0417 93.0407 77.7982 95.3396 79.3307 97.5586C80.6244 99.4297 82.2913 100.987 84.3315 102.231C86.1526 103.336 87.7947 103.898 89.2575 103.918V107.918Z" fill="black"/>
<path d="M4.58919 82.1764V104.241C4.58919 104.987 4.61721 105.523 4.67385 105.85C4.78653 106.494 5.00675 107.109 5.33426 107.696H0C0.349898 107.188 0.581371 106.595 0.694294 105.918C0.762073 105.489 0.795963 104.93 0.795963 104.241V81.8208C0.795963 81.1096 0.762073 80.5621 0.694294 80.1782C0.569867 79.4784 0.338643 78.8856 0 78.4001H17.8995C17.6171 78.8743 17.4025 79.4161 17.2559 80.0259C17.1654 80.7483 17.1205 81.3467 17.1205 81.8208V104.241C17.1205 104.919 17.1544 105.455 17.222 105.85C17.3461 106.505 17.5608 107.12 17.8656 107.696H12.5652C12.8925 107.233 13.1126 106.641 13.2256 105.918C13.3044 105.421 13.3442 104.863 13.3442 104.241V82.1764H4.58919Z" fill="black"/>
<path d="M54.3895 86.1541C53.2748 85.5271 52.2697 85.2136 51.3741 85.2136H45.0002V104.694C45.0002 105.609 45.3084 106.615 45.9254 107.709H40.9547C41.2532 107.281 41.457 106.759 41.5667 106.142C41.6265 105.804 41.6564 105.321 41.6564 104.694V84.9301C41.6564 84.323 41.6265 83.8304 41.5667 83.4522C41.4672 82.8551 41.2631 82.3326 40.9547 81.8848H54.3895V86.1541Z" fill="black"/>
<path d="M26.0547 90.086V104.521H32.5928C33.3192 104.521 33.9711 104.407 34.5484 104.178C34.7074 104.088 35.0657 103.889 35.6232 103.581V107.85H22.0093C22.3177 107.402 22.5218 106.88 22.6213 106.283C22.6811 105.904 22.7109 105.412 22.7109 104.804V85.0406C22.7109 84.4139 22.6811 83.9312 22.6213 83.5926C22.5117 82.9757 22.3078 82.4533 22.0093 82.0252H35.6232V86.2945C35.0358 85.9265 34.588 85.6877 34.2796 85.5781C33.8715 85.4288 33.3094 85.3541 32.5928 85.3541H26.0547V86.7275H37.0711V91.0117C36.5237 90.6734 36.0759 90.4394 35.7276 90.3101C35.3195 90.1608 34.7573 90.086 34.0408 90.086H26.0547Z" fill="black"/>
<path d="M57.376 42.2621C56.8963 42.1342 56.2846 41.901 55.6037 41.4679C54.9655 41.0619 54.3664 40.3204 54.0689 40.16C53.83 40.0312 53.5438 39.9319 53.1864 39.8879C52.9658 39.8606 52.8621 39.9091 52.8124 39.9494C52.6189 40.106 52.9801 40.4756 53.2213 40.8464C54.4747 42.7726 54.4194 44.1867 54.1448 44.2896C53.9495 44.3629 53.694 43.6473 53.0498 43.0099C52.6754 42.6394 52.3857 42.2562 51.7043 41.8895C51.3712 41.7103 50.9476 41.5469 50.3865 41.4193C50.0893 41.3785 49.7115 41.405 49.123 41.6132C47.3098 42.2545 46.7223 41.3597 46.2527 40.6638C46.6575 41.6684 47.3322 42.6734 48.5392 44.5058C49.4943 45.7048 50.566 46.6871 51.8459 47.2825C54.2321 47.9206 55.8519 48.814 57.0048 49.863C57.3011 49.893 57.5068 49.8542 57.6465 49.7809C59.5773 52.0511 59.7904 50.918 59.7904 50.918C59.8022 50.5724 59.6921 50.1061 59.4879 49.5676C62.1184 52.0333 62.2557 50.5869 62.2557 50.5869C62.2356 50.227 62.106 49.7794 61.8861 49.2731C63.6451 50.3867 63.7191 49.3496 63.7191 49.3496C63.6053 48.0634 61.9497 45.7047 59.7096 43.5898C59.4637 43.1329 59.2563 42.7081 59.0898 42.3482C59.0091 42.3845 58.8138 42.4356 58.53 42.4384C58.4071 42.4396 57.9423 42.4132 57.376 42.2621Z" fill="#9DCBEA"/>
<path d="M36.7599 78.565C37.0441 78.2063 37.3878 77.8932 37.8635 77.6802C38.2151 77.5393 38.4179 77.2209 38.6309 76.9228C38.5248 76.7969 38.4043 76.7286 38.2692 76.7183C38.1882 76.7123 38.102 76.727 38.0106 76.7625C38.5025 75.5595 39.5102 75.1909 40.5917 74.9418C40.6861 74.8672 40.7788 74.7923 40.8699 74.717C42.2364 73.5894 43.2402 72.4045 44.1075 71.1982C44.3732 70.7045 44.4808 70.1844 44.4557 69.6866C44.4094 68.77 44.3459 67.9906 44.1613 67.6002C43.6348 66.9768 43.4174 66.0118 43.2589 65.0559C43.2413 64.9496 43.2243 64.8434 43.2079 64.738C43.1419 64.316 43.082 63.9033 43.0063 63.5309C42.9684 63.3448 42.9267 63.1686 42.8782 63.0064C42.845 62.9166 42.814 62.8271 42.7851 62.738C42.3523 61.4012 42.4117 60.1438 43.0704 59.2263C43.5539 58.6322 43.6142 58.0217 43.635 57.3811L43.6271 57.379C43.484 57.3398 43.342 57.3 43.2009 57.26C43.1541 57.2466 43.1081 57.2331 43.0616 57.2198C42.9639 57.1916 42.8663 57.1634 42.7696 57.1349C42.7181 57.1198 42.6672 57.1044 42.616 57.089C42.5249 57.0618 42.4338 57.0344 42.3434 57.0067C42.2914 56.9909 42.2398 56.9747 42.188 56.9586C42.0988 56.9308 42.01 56.9029 41.9217 56.8749C41.8716 56.8589 41.8216 56.8428 41.7717 56.8267C41.6814 56.7975 41.5916 56.768 41.5023 56.7385C41.4563 56.7231 41.4103 56.7079 41.3645 56.6925C41.2697 56.6606 41.1757 56.6284 41.082 56.5961C41.043 56.5826 41.0039 56.5692 40.9648 56.5555C40.8604 56.519 40.7568 56.482 40.6537 56.4447C40.6267 56.435 40.5994 56.4254 40.5725 56.4156C40.0369 56.2204 39.5219 56.0162 39.0289 55.8021C39.0209 55.7985 39.0129 55.795 39.0048 55.7915C38.8911 55.7419 38.7787 55.6918 38.6674 55.6413C38.6526 55.6345 38.6381 55.6278 38.6233 55.621C38.5184 55.573 38.4145 55.5245 38.3117 55.4756C38.2952 55.4677 38.2788 55.4598 38.2626 55.452C38.161 55.4033 38.0607 55.3542 37.9614 55.3045C37.9461 55.2969 37.9307 55.2891 37.9153 55.2814C37.8131 55.23 37.7121 55.178 37.6123 55.1254C37.6017 55.1198 37.591 55.1143 37.5804 55.1087C37.4714 55.051 37.3637 54.9929 37.2576 54.934C37.2571 54.9337 37.2566 54.9334 37.2561 54.9331H37.2563C35.8474 54.1505 34.6978 53.2523 33.8716 52.21C32.5723 50.5402 31.3893 48.8857 30.5641 47.2785C29.9856 47.2058 29.6055 47.5736 28.7634 46.8748C27.7771 46.0571 26.9919 46.6895 26.6568 47.4414C26.1253 48.5779 25.5938 49.7141 25.0627 50.8505C24.783 51.465 24.463 52.2252 25.784 52.3159C26.485 52.2667 27.5285 51.9989 26.7516 53.2285C26.88 53.749 27.0655 54.1479 27.5564 54.0151C27.9992 53.9241 28.4418 53.8331 28.8842 53.7421C30.0292 55.0798 30.5448 58.216 30.1042 59.2289C29.4452 58.992 28.1368 58.6526 27.179 58.0395C26.8001 57.816 26.485 57.3713 26.1987 56.8262C25.9231 56.5103 25.6206 56.3903 25.2907 56.4656C25.0555 56.7741 24.7476 56.6263 24.3674 56.0221C24.3044 56.2337 24.3597 56.6282 24.4497 57.1165C23.9738 56.7749 23.676 56.2988 23.4383 55.7352C22.1631 54.696 21.6605 53.7205 21.5615 52.7784C21.3093 52.612 21.1352 52.4117 21.1074 52.1534C20.4473 51.6575 21.0309 49.5712 20.8438 49.6327C20.2582 49.2426 20.2388 48.8194 19.9736 48.3478C18.5133 45.7786 19.302 44.3031 20.4123 42.9835C21.3106 41.9346 22.1814 40.8648 22.991 39.7487C23.2796 38.6976 23.7696 37.7253 24.8159 36.9701C26.2181 35.5642 27.3264 34.9186 28.6571 37.667C29.1271 38.0543 29.5676 38.2267 29.9947 38.3009C30.2896 37.1204 30.8719 36.8738 31.795 36.171C32.4716 34.2616 33.9211 33.0538 36.1194 32.3718C40.0254 30.8239 39.8434 29.8332 39.9849 28.7983C39.6135 28.7548 39.2491 28.6902 38.935 28.4788C37.8929 28.953 36.7772 29.3523 36.031 30.126C35.8873 30.548 35.7756 30.9813 35.1205 31.2293C34.6763 31.8919 34.1014 32.0917 33.6182 31.8826C33.2796 32.0642 33.0619 32.0173 32.6586 31.7282C31.8681 32.1256 31.5327 31.4247 31.1703 30.7884C30.3955 30.1042 30.5017 29.7202 30.7335 29.379C31.3732 28.4163 32.0407 27.6598 32.7125 26.933C32.8136 26.6302 32.9538 26.322 33.1201 26.0102C33.3971 25.4908 33.747 24.9615 34.1124 24.4299C33.7417 23.2808 34.8201 22.6249 35.8133 21.9404C34.9377 21.4409 34.1361 21.1913 33.8528 22.6911C33.2192 22.0629 33.6919 20.8477 35.0083 20.9567C35.7486 21.018 34.0564 19.3189 33.9799 18.58C33.6297 18.1359 33.8718 17.751 34.296 18.268C34.5529 18.472 34.8097 18.6761 35.0666 18.8802C34.9719 17.1399 35.7741 16.8362 36.6057 16.5786C36.135 17.0209 35.6268 17.4121 35.7548 18.667C36.7158 16.512 37.9029 16.7168 39.0593 16.603C38.5692 16.8464 37.99 17.0594 37.8564 17.4244C38.1983 17.7412 38.4403 18.1267 38.6365 18.5432C39.0145 16.8437 40.2675 16.6505 41.4023 16.2539C40.7695 16.6595 39.9502 16.9418 40.0646 17.8405C42.7507 15.887 43.616 16.9436 44.8454 17.3983C46.4891 16.7229 47.3207 17.2783 48.0363 18.0094C48.4424 17.2992 49.223 16.9588 50.55 17.1589C51.0131 17.524 51.5294 17.7327 52.1635 17.5964C53.2424 17.0272 53.4619 16.4887 53.7319 15.9484C53.2974 17.0933 53.6236 18.6826 50.9767 18.5351C50.1739 18.2995 48.9038 17.9406 48.8842 19.6269C50.1602 18.6112 51.1747 18.8915 52.07 19.7606C53.5373 21.4487 53.9468 19.9507 53.0849 18.8753C54.8422 20.0011 55.1841 21.8554 50.7682 21.6114C53.0976 21.7449 54.8031 22.3607 55.2026 23.9854C55.3912 23.955 55.6671 23.904 56.0157 23.8217C56.0747 23.8077 56.1365 23.7925 56.1997 23.7768C56.2135 23.7733 56.2278 23.7698 56.2419 23.7662C56.3056 23.75 56.3705 23.7333 56.438 23.7153C56.4388 23.715 56.4395 23.7149 56.4404 23.7146C56.5078 23.6965 56.5778 23.6771 56.6491 23.657C56.6659 23.6524 56.6826 23.6475 56.6995 23.6427C56.7713 23.6222 56.8444 23.601 56.9198 23.5782C56.9206 23.578 56.9213 23.5778 56.9221 23.5776C56.9978 23.5548 57.0757 23.5304 57.1548 23.5054C57.1735 23.4994 57.1925 23.4934 57.2113 23.4873C57.2906 23.4619 57.371 23.4356 57.4536 23.4079C57.4547 23.4075 57.4558 23.4071 57.4571 23.4068C57.5397 23.3789 57.6246 23.3494 57.7104 23.319C57.7317 23.3115 57.7531 23.3038 57.7746 23.2962C57.86 23.2656 57.9464 23.2342 58.0348 23.201C58.0368 23.2003 58.0387 23.1997 58.0407 23.1988C58.1304 23.1652 58.2218 23.1298 58.3142 23.0934C58.3367 23.0846 58.3593 23.0756 58.3818 23.0666C58.4745 23.0299 58.5679 22.9921 58.6631 22.9524C58.6646 22.9518 58.6661 22.9513 58.6676 22.9506C58.763 22.9109 58.8604 22.8692 58.9585 22.8264C58.983 22.8156 59.0075 22.8049 59.0324 22.794C59.1312 22.7505 59.2307 22.706 59.332 22.6593C59.3326 22.6591 59.3331 22.6588 59.3336 22.6587C59.4348 22.6119 59.5377 22.5632 59.6411 22.5134C59.6668 22.501 59.6924 22.4886 59.7182 22.4761C59.9269 22.3746 60.1397 22.2664 60.3563 22.1515C60.3831 22.1373 60.4099 22.123 60.4367 22.1086C60.5458 22.0502 60.6554 21.9905 60.7663 21.9285C61.4255 21.5595 62.0246 21.2127 62.5716 20.8854C62.6593 20.833 62.7457 20.781 62.8307 20.7296C63.1331 20.5465 63.4186 20.3701 63.6882 20.1997C63.7701 20.1479 63.8505 20.0967 63.9296 20.0461C64.1533 19.9027 64.3659 19.7637 64.5675 19.6289C64.6101 19.6005 64.652 19.5724 64.6936 19.5443C64.7578 19.5011 64.8209 19.4582 64.8828 19.4158C64.9281 19.3848 64.9728 19.3542 65.0169 19.3237C65.1616 19.2236 65.3004 19.1259 65.433 19.0309C65.4563 19.0142 65.4791 18.9976 65.5021 18.9811C65.5775 18.9267 65.651 18.873 65.7227 18.8201C65.7482 18.8013 65.7733 18.7827 65.7984 18.764C65.8709 18.7101 65.9415 18.657 66.0102 18.6046C66.0317 18.5882 66.053 18.572 66.0741 18.5557C66.1439 18.5022 66.2117 18.4494 66.2776 18.3975C66.3788 18.3179 66.4756 18.2399 66.5681 18.164C66.6326 18.1111 66.695 18.0591 66.7554 18.0081C66.7665 17.9987 66.7775 17.9895 66.7884 17.9801C66.8868 17.8966 66.98 17.8153 67.0683 17.7364C67.1699 17.6456 67.2651 17.5577 67.3546 17.4726C67.4097 17.4205 67.4624 17.3695 67.5132 17.3194C67.54 17.2929 67.5664 17.2667 67.5921 17.2408C68.1962 16.6331 68.5069 16.1786 68.8174 15.7963C69.9253 14.4321 70.6509 12.6855 71.5585 11.3615C71.5588 11.3612 71.5592 11.3608 71.5594 11.3604C72.7464 9.62955 73.7047 8.29101 73.9527 8.08767C73.9834 8.06254 74.0196 8.04378 74.0136 8.05191C73.9007 7.9705 73.7862 7.89109 73.6724 7.81068L73.6719 7.81043C73.4551 7.65724 73.2366 7.50605 73.0169 7.35686C73.0158 7.35599 73.0145 7.35524 73.0133 7.35449C72.7944 7.20593 72.5741 7.05924 72.3523 6.91468C72.3501 6.91318 72.3478 6.9118 72.3455 6.9103C72.1252 6.76661 71.9032 6.62505 71.68 6.48525C71.6758 6.48274 71.6718 6.48012 71.6678 6.47762C71.4461 6.33918 71.2233 6.20263 70.9991 6.06807C70.9931 6.06444 70.9871 6.06082 70.9809 6.05731C70.7587 5.92401 70.5351 5.7927 70.3101 5.6634C70.3019 5.65865 70.2934 5.65389 70.285 5.64902C70.0623 5.52121 69.8384 5.39528 69.6132 5.27136C69.6021 5.26535 69.5911 5.25935 69.58 5.25322C69.3575 5.13105 69.1338 5.01075 68.9088 4.89245C68.8943 4.88482 68.8798 4.87719 68.8652 4.86969C68.6436 4.75326 68.4207 4.63871 68.1967 4.52629C68.1784 4.51704 68.16 4.50791 68.1416 4.49878C67.9209 4.38836 67.6992 4.27956 67.4763 4.17289C67.4542 4.16226 67.432 4.15188 67.4102 4.14138C67.1906 4.03671 66.97 3.93367 66.7484 3.83262C66.7222 3.82074 66.696 3.80899 66.6697 3.79711C66.4519 3.69832 66.233 3.60102 66.0132 3.50573C65.9824 3.49248 65.9515 3.47935 65.9207 3.46609C65.7046 3.37318 65.4878 3.28164 65.2699 3.1921C65.2347 3.1776 65.1994 3.16346 65.1642 3.14921C64.9504 3.06192 64.7358 2.97613 64.5202 2.89235C64.4795 2.87647 64.4385 2.86109 64.3978 2.84533C64.1867 2.76405 63.9752 2.68401 63.7627 2.60598C63.7168 2.58922 63.6708 2.57284 63.6249 2.55621C63.4166 2.48068 63.2079 2.40602 62.998 2.33361C62.9469 2.31598 62.8954 2.29885 62.8441 2.28134C62.6388 2.21131 62.4332 2.14216 62.2265 2.07525C62.1694 2.05675 62.1122 2.03911 62.0551 2.02086C61.8534 1.95645 61.6515 1.8928 61.4484 1.83128C61.3852 1.81202 61.3217 1.79376 61.2583 1.77488C61.0604 1.71598 60.8621 1.65758 60.6631 1.60143C60.5939 1.58192 60.5244 1.56354 60.4551 1.54428C60.2609 1.49063 60.0664 1.43736 59.8711 1.38634C59.7958 1.36658 59.7202 1.34807 59.645 1.32881C59.4545 1.28017 59.2641 1.2319 59.0728 1.18588C58.9911 1.16624 58.9092 1.14786 58.8274 1.1286C58.6412 1.08496 58.4547 1.04157 58.2675 1.0003C58.1799 0.98104 58.0917 0.963033 58.0039 0.944275C57.8219 0.905383 57.6398 0.866492 57.4569 0.829976C57.3619 0.810968 57.2662 0.793586 57.1711 0.775203C56.9943 0.741064 56.8176 0.706799 56.64 0.675036C56.5377 0.656653 56.435 0.640021 56.3327 0.622388C56.161 0.592876 55.9893 0.562988 55.8169 0.535477C55.7072 0.517969 55.5969 0.502338 55.487 0.485581C55.3209 0.46057 55.155 0.434809 54.9883 0.411675C54.8706 0.395168 54.7526 0.380911 54.6346 0.365405C54.4743 0.344396 54.3144 0.322762 54.1534 0.303628C54.0281 0.288622 53.9022 0.275867 53.7765 0.261986C53.6223 0.244979 53.4683 0.227096 53.3136 0.21159C53.1789 0.198334 53.0436 0.187329 52.9085 0.175074C52.7617 0.161944 52.6153 0.147688 52.4682 0.136058C52.3238 0.124553 52.1787 0.115549 52.0339 0.105545C51.895 0.0959156 51.7565 0.0851611 51.6173 0.0767825C51.4605 0.0675286 51.3031 0.0609009 51.1459 0.0532726C51.0178 0.04702 50.89 0.0393916 50.7617 0.0343895C50.5784 0.0270114 50.3943 0.0227597 50.2105 0.0177575C50.1075 0.0150064 50.0048 0.0107546 49.9016 0.00862868C49.614 0.0030013 49.3255 0 49.0365 0C47.5613 0 46.1035 0.0746567 44.6668 0.220468C43.9484 0.293374 43.2352 0.383913 42.5278 0.491958C41.8203 0.600004 41.1187 0.725307 40.4231 0.867493C39.3798 1.08083 38.3504 1.33206 37.3362 1.61981C34.9699 2.29135 32.6872 3.16134 30.5073 4.21078C28.3275 5.26023 26.2504 6.489 24.2954 7.87809C24.016 8.07654 23.7393 8.27825 23.4651 8.48322C22.6422 9.09795 21.8424 9.7416 21.0669 10.4126C20.8084 10.6364 20.5527 10.8631 20.2997 11.0929C19.7938 11.5524 19.2988 12.0238 18.8153 12.5068C18.0903 13.2312 17.3911 13.9815 16.7195 14.7563C16.2716 15.2728 15.8361 15.8002 15.413 16.3379C15.2016 16.6068 14.9932 16.8782 14.7881 17.1522C14.378 17.7002 13.9805 18.2585 13.5965 18.8263C13.4045 19.1103 13.2158 19.3968 13.0306 19.6856C12.66 20.2631 12.303 20.8501 11.9598 21.4462C11.1022 22.9364 10.3319 24.4832 9.65609 26.0796C9.38572 26.7183 9.13049 27.3648 8.89076 28.0188C7.21305 32.5969 6.29741 37.542 6.29741 42.7008C6.29741 47.2172 6.99934 51.5698 8.30001 55.6557C8.45295 56.1364 8.61427 56.6133 8.78372 57.0865C8.86838 57.323 8.95516 57.5587 9.04395 57.7933C9.66521 59.4355 10.3849 61.0296 11.1959 62.5681C11.3118 62.7879 11.4295 63.0065 11.549 63.2241C11.7882 63.6592 12.0346 64.0895 12.2883 64.515C12.6689 65.1536 13.0655 65.7811 13.478 66.3975C14.0277 67.2193 14.6053 68.021 15.2093 68.8012C17.4743 71.7268 20.1113 74.3508 23.0491 76.6022C25.3995 78.4032 27.9426 79.9657 30.642 81.2538H35.1949C35.2811 80.4997 36.0543 79.5214 36.7599 78.565Z" fill="#9DCBEA"/>
<path d="M71.1854 17.1597C71.0588 17.0332 70.9596 16.8954 70.8855 16.7503C70.7611 16.9264 70.6334 17.099 70.4991 17.2643C70.4226 17.3584 70.346 17.457 70.2654 17.561C70.1477 17.7123 70.0208 17.8757 69.8715 18.0539C70.435 17.8141 70.937 17.5869 71.4124 17.3436C71.3302 17.2893 71.2538 17.2281 71.1854 17.1597Z" fill="#9DCBEA"/>
<path d="M71.0975 21.8477C70.6206 21.9095 69.72 22.0923 68.8491 22.269C68.524 22.3351 68.1839 22.4041 67.8671 22.4662C68.2568 22.2918 68.6876 22.11 69.1119 21.931C69.2363 21.8785 69.3614 21.8257 69.4862 21.7727C69.1958 21.7408 68.8613 21.7212 68.5169 21.7541C66.7963 21.9186 64.3659 22.5575 62.7092 23.6351C61.5094 24.4157 60.9407 25.1939 59.0229 26.4129C58.4679 26.7658 57.4336 27.244 57.3923 27.2905C57.3509 27.337 57.3705 27.3522 57.4573 27.313C57.5409 27.2754 57.6286 27.2343 57.7203 27.19C57.9579 27.0753 58.2223 26.9396 58.509 26.7888C60.9633 25.498 64.2855 23.4867 67.3371 23.6569C68.3746 23.7146 69.1456 23.7812 69.5681 23.8842C70.9026 23.4366 72.4863 22.798 73.338 22.5235C74.4992 22.1495 74.6419 22.0652 75.8335 21.8717L76.9029 21.6273C76.9029 21.6273 74.7218 21.699 74.0116 21.699C73.1613 21.699 71.8868 21.7456 71.0975 21.8477Z" fill="#9DCBEA"/>
<path d="M77.1099 16.2456L77.0435 16.0982H76.8818C76.7776 16.0982 76.7489 16.1263 76.5898 16.2823C76.4895 16.3805 76.3381 16.529 76.2562 16.602C75.6708 17.1236 75.1605 17.5433 74.4253 18.0232C73.4002 18.6925 72.4449 19.1282 70.817 19.7962C70.5271 19.9152 70.0592 20.057 69.6427 20.1712C70.2615 19.533 70.8599 18.7344 71.4066 17.8849C70.6134 18.4129 69.8354 18.8408 69.0769 19.2167C68.8465 19.3309 68.59 19.4488 68.3196 19.5686C67.701 20.0794 66.8859 20.6777 65.7812 21.3903C66.6468 21.3747 67.7807 21.3153 68.41 21.3234C68.9598 21.3306 69.5201 21.4616 69.9082 21.5926C70.3233 21.4137 70.7221 21.2359 71.0636 21.0665C72.8027 20.2049 74.8755 18.991 77.0635 16.5211C77.1683 16.4027 77.1255 16.2803 77.1099 16.2456Z" fill="#9DCBEA"/>
<path d="M28.117 43.0394C28.5768 43.1912 28.9703 43.2231 29.3259 43.1869C29.0095 42.6705 28.026 42.5612 27.0144 41.7175C26.0059 40.8763 25.8281 41.1049 25.2434 41.6846C24.3369 42.5515 23.4305 43.4186 22.5239 44.2856C22.0407 44.7574 21.5406 45.2579 22.7395 45.8205C23.007 46.0831 23.313 46.4793 23.0318 47.2234C22.8373 47.9876 22.8537 48.3352 23.1768 48.8194C23.3698 48.2019 23.5506 47.5808 23.715 46.9552C23.6037 45.871 23.7085 44.7874 24.4107 43.7046C25.2094 41.8864 25.882 40.9588 28.117 43.0394Z" fill="#9DCBEA"/>
<path d="M66.3882 26.2012C66.3833 26.2097 66.3778 26.2175 66.373 26.2261C65.1099 28.4329 65.2664 28.1331 64.3766 29.1254C62.8961 30.7764 61.656 30.9881 61.5926 31.3051C61.5587 31.4748 61.6146 31.5785 61.7284 31.6413C61.9729 31.7762 62.1272 31.7901 62.4517 31.8143C62.6553 31.8297 62.7539 31.8011 62.7521 31.8246C62.7443 31.924 62.3529 31.9954 61.96 32.0378C61.4528 32.0924 60.8037 32.4632 60.771 32.8431C60.7367 33.2423 61.0251 33.3739 61.1887 33.4474C61.4229 33.5528 61.6448 33.5687 61.6537 33.6477C61.6567 33.6741 61.5145 33.753 61.3924 33.7665C61.2395 33.7835 61.1695 33.7549 60.9844 33.7324C60.8525 33.7163 60.7608 33.7326 60.7111 33.7683C60.3392 34.035 60.4859 35.0219 61.4025 36.4657C61.8267 37.1338 62.1088 37.9972 61.9729 38.1768C61.8913 38.2846 61.5513 37.9932 61.2332 37.7365C60.9119 37.4771 59.7784 36.8728 57.8166 36.1334C57.221 35.9088 56.7051 35.8011 56.361 35.8994C55.807 36.0578 55.8218 37.3082 55.9847 38.1095C56.0947 38.6502 56.3574 39.6491 56.6901 40.1595C56.9689 40.5872 57.0545 41.2778 58.6236 42.1372C58.7799 42.2227 58.8849 42.2679 59.0686 42.3028C58.9582 42.0629 58.8664 41.8533 58.7961 41.6876C58.5337 41.0684 58.2056 40.1776 58.1056 39.6853C57.9216 38.7804 58.0187 37.8475 58.3056 37.7656C58.368 37.7477 58.4431 37.7387 58.5287 37.7387C58.7945 37.7387 59.1564 37.8243 59.6042 37.9931C61.6976 38.7823 62.7094 39.3609 62.9519 39.5567C63.3129 39.8481 67.941 41.1397 68.3995 41.1397C68.5228 41.1397 68.5919 41.0824 68.6282 41.0342C68.6764 40.9705 68.6931 40.8889 68.6737 40.8105C68.6273 40.6223 68.5062 40.5416 66.7695 39.7264C66.094 39.4094 65.1512 38.9669 64.4465 38.5894C63.9962 38.3483 62.4794 36.8733 63.0762 36.1868C63.1834 36.0633 63.5583 36.009 64.0471 36.009C64.6784 36.009 65.0288 36.0599 65.9232 36.2228C66.6533 36.3559 68.0113 36.7525 68.0113 36.7525L67.3114 36.3785C67.3114 36.3785 63.1121 35.1738 62.9091 34.4394C62.9923 34.2389 63.4406 33.9576 63.8627 33.9121C64.6017 33.8324 64.8577 33.7208 64.8772 33.4697L64.8856 33.3606L64.8099 33.2757C64.7575 33.2192 64.6865 33.1904 64.5986 33.1904C64.5847 33.1904 64.5668 33.1912 64.5451 33.1922C64.5212 33.1933 64.4906 33.1947 64.4529 33.1947C64.4173 33.1947 64.3824 33.1934 64.3461 33.1907C64.0204 33.1663 63.9179 33.1545 63.7251 33.048C63.7142 33.042 63.71 33.0378 63.709 33.0368C63.7095 33.0366 63.7072 33.026 63.7101 33.0017C63.7611 32.9498 63.9374 32.8513 64.0943 32.7636C64.6112 32.4746 65.4766 31.9909 66.4386 30.9181C66.5578 30.7851 66.6581 30.6756 66.7455 30.5801C67.3245 29.9475 65.1968 30.8197 66.3034 28.8861C66.655 28.272 68.904 27.2578 69.603 27.0448C70.4686 26.7811 71.6016 26.7338 71.8663 26.6913C71.9635 26.6758 71.0581 26.3309 71.119 26.3166C71.793 26.1596 73.7333 25.7663 73.6724 25.6724C73.5219 25.4401 68.8047 26.1893 66.3882 26.2012Z" fill="#9DCBEA"/>
<path d="M86.3002 1.90991C86.3002 1.90991 85.9952 1.69819 85.2217 2.77077C83.3044 5.4299 82.6795 6.65354 80.1123 9.07359C81.866 6.85688 82.9911 5.00209 82.926 4.1426C82.926 4.1426 80.0864 7.6152 75.6518 12.1279C74.6446 13.1528 70.9362 15.3186 68.9775 16.6404C68.3422 17.5644 67.6349 18.4152 66.9035 18.9987C66.8299 19.0573 68.3626 18.6784 69.0361 18.402C70.5389 17.7854 71.5947 17.3198 72.6864 16.607C73.4167 16.1302 73.9269 15.7157 74.5469 15.163C74.6999 15.0267 75.0549 14.6683 75.0006 14.7297C72.9444 17.0508 70.9528 18.2874 69.0769 19.2168C67.7236 19.8874 65.482 20.6879 64.6525 21.2496C64.2325 21.534 67.2218 21.308 68.41 21.3235C68.7096 21.3274 69.012 21.3687 69.2887 21.4261C70.0644 20.925 70.8404 20.4064 71.6298 19.8713C74.8626 17.6301 77.4873 16.2834 80.4272 13.1057C81.8988 11.4932 83.3089 9.23941 84.3655 7.3861C85.4248 5.52781 86.5243 2.06147 86.3002 1.90991Z" fill="#9DCBEA"/>
<path d="M68.3621 23.0973C74.5534 23.2343 83.6373 16.8331 84.4235 13.9855C84.4235 13.9855 84.8317 9.79351 68.3621 23.0973Z" fill="#9DCBEA"/>
<path d="M72.0751 24.1765C72.0284 24.1765 71.985 24.1503 71.9636 24.1079C71.9398 24.0612 71.9478 24.0045 71.9837 23.966C79.1954 16.2402 82.5008 14.6185 84.0037 14.6185C84.7369 14.6185 84.9478 15.0184 84.9566 15.0355C84.9679 15.0578 84.9722 15.0832 84.9689 15.108C84.8228 16.2342 82.9122 18.3259 80.2146 20.3128C77.2776 22.4762 74.2402 23.9202 72.0899 24.1756C72.0849 24.1762 72.08 24.1765 72.0751 24.1765Z" fill="white"/>
<path d="M84.0037 14.4935C82.4759 14.4935 79.1346 16.1221 71.8923 23.8808C71.8206 23.9575 71.8045 24.0708 71.852 24.1645C71.8949 24.2493 71.9816 24.3016 72.075 24.3016C72.0848 24.3016 72.0948 24.3009 72.1046 24.2998C74.2756 24.0419 77.335 22.5892 80.2886 20.4137C82.389 18.8665 84.9076 16.553 85.0929 15.1242C85.0994 15.0744 85.0906 15.0239 85.068 14.979C85.0429 14.9293 84.799 14.4935 84.0037 14.4935ZM84.0037 14.7436C84.6683 14.7436 84.8449 15.092 84.8449 15.092C84.5497 17.3672 76.8513 23.4842 72.0751 24.0515C79.5095 16.0871 82.6983 14.7436 84.0037 14.7436Z" fill="#9DCBEA"/>
<path d="M81.3307 25.8051L81.3168 25.7894L81.3005 25.7761C80.3587 25.0124 77.6267 24.4992 74.5025 24.4992V24.6243L74.5024 24.4992C71.1974 24.4993 68.2819 25.0802 66.5034 26.0931L65.8451 26.4679L66.5972 26.5587C71.055 27.0972 74.5757 27.3702 77.0615 27.3702C78.5001 27.3702 79.598 27.2781 80.3243 27.0964C80.9315 26.9446 81.2907 26.7293 81.4221 26.4382C81.5469 26.1621 81.4233 25.9103 81.3307 25.8051Z" fill="#9DCBEA"/>
<path d="M64.057 25.9896C64.0047 25.9896 63.9577 25.957 63.9397 25.9077C63.9212 25.8574 63.9367 25.801 63.9783 25.7674C67.4723 22.9379 74.6218 21.4576 79.8786 21.4576C82.1295 21.4576 83.8405 21.7323 84.6965 22.2313C84.7022 22.2346 84.7077 22.2384 84.713 22.2428C84.7269 22.2542 85.052 22.528 84.9086 22.9437C84.5055 24.1121 80.5612 25.5888 64.06 25.9896C64.059 25.9896 64.058 25.9896 64.057 25.9896Z" fill="white"/>
<path d="M79.8793 21.3325V21.5826L79.8791 21.3325C74.5997 21.3326 67.4159 22.8228 63.8997 25.6703C63.8164 25.7376 63.7854 25.8504 63.8223 25.951C63.8585 26.0495 63.9525 26.1148 64.057 26.1148C64.059 26.1148 64.0611 26.1147 64.063 26.1147C71.7194 25.9287 77.3859 25.487 80.905 24.8016C83.4261 24.3105 84.7744 23.7161 85.0268 22.9845C85.1637 22.5878 84.9438 22.2709 84.7924 22.1462C84.782 22.1376 84.771 22.13 84.7594 22.1232C83.8847 21.6134 82.1515 21.3325 79.8793 21.3325ZM79.8786 21.5826C82.0335 21.5826 83.7742 21.8385 84.6335 22.3393C84.6335 22.3393 88.2032 25.2783 64.0571 25.8647C67.6391 22.9638 74.8737 21.5827 79.8786 21.5826Z" fill="#9DCBEA"/>
<path d="M62.7452 25.9387C62.6957 25.9387 62.65 25.9092 62.6303 25.8627C62.6084 25.8113 62.6232 25.7516 62.6665 25.7165C66.5518 22.5672 67.6348 21.77 69.4287 20.4493C70.8496 19.4031 72.7956 17.9705 77.0912 14.6448C80.9272 11.6749 82.5678 10.6521 84.4171 9.70785C85.0309 9.39447 86.1274 8.86862 86.5744 8.86862C86.6703 8.86862 86.7405 8.89213 86.7888 8.9404C86.8269 8.97867 86.847 9.02906 86.8469 9.08609C86.8464 9.50377 86.5587 9.77926 85.7897 10.5158C85.4191 10.8708 84.9113 11.3572 84.2651 12.0247C83.2889 13.0329 82.6227 13.9857 81.9173 14.9945C80.8589 16.5084 79.7644 18.0739 77.5408 19.8509C74.3409 22.4086 71.5767 23.2518 70.0918 23.7048C69.8092 23.7909 69.5653 23.8653 69.3763 23.9339C69.3429 23.9456 69.2016 24.0175 69.0381 24.1008C68.3557 24.4486 66.936 25.172 65.735 25.4974C64.7969 25.7515 63.5423 25.8654 63.0064 25.914C62.8918 25.9243 62.8069 25.932 62.7607 25.9377C62.7556 25.9385 62.7505 25.9387 62.7452 25.9387Z" fill="white"/>
<path d="M86.5744 8.74341C86.125 8.74341 85.1224 9.20723 84.3603 9.59639C82.5041 10.5443 80.8584 11.57 77.0147 14.5457C72.7205 17.8704 70.7752 19.3026 69.3549 20.3483C67.5594 21.6701 66.4755 22.468 62.5879 25.6193C62.5012 25.6896 62.4716 25.8089 62.5153 25.9115C62.555 26.0046 62.6461 26.0637 62.7453 26.0637C62.7556 26.0637 62.7659 26.0631 62.7763 26.0617C62.8191 26.0565 62.9071 26.0485 63.0184 26.0384C63.5574 25.9895 64.8196 25.8749 65.7677 25.6181C66.981 25.2894 68.4087 24.5619 69.0948 24.2123C69.2372 24.1397 69.3846 24.0646 69.4179 24.0518C69.6051 23.984 69.8476 23.91 70.1284 23.8243C71.6214 23.3688 74.4004 22.5211 77.6191 19.9485C79.8566 18.1601 80.9564 16.5872 82.02 15.0661C82.7223 14.0614 83.3858 13.1125 84.355 12.1117C84.9996 11.4458 85.5063 10.9605 85.8764 10.6061C86.6508 9.86413 86.9714 9.557 86.9722 9.08618C86.9723 8.99651 86.9386 8.91335 86.8773 8.85195C86.8054 8.77992 86.7035 8.74341 86.5744 8.74341ZM86.5744 8.99351C86.6702 8.99351 86.7222 9.0229 86.7221 9.0858C86.7212 9.63629 86.0917 9.95855 84.1753 11.9376C81.6901 14.5043 81.1181 16.8317 77.4629 19.7532C73.6724 22.7827 70.5287 23.383 69.3339 23.8163C69.1524 23.8794 67.2278 24.9634 65.7023 25.3766C64.5787 25.681 63.0138 25.7801 62.7454 25.8135C69.8396 20.0632 67.6753 22.0928 77.1678 14.7436C81.1434 11.6655 82.7565 10.6961 84.474 9.81911C85.4553 9.31803 86.2565 8.99351 86.5744 8.99351Z" fill="#9DCBEA"/>
<path d="M63.0693 45.3019C62.1422 44.1263 61.1326 43.134 60.1332 42.3964C59.2159 41.6163 58.2397 40.9903 57.2857 40.6741C57.4337 40.9158 57.5776 41.1486 57.7197 41.3775C57.6922 41.4483 57.6977 41.5292 57.7381 41.5966C61.1819 47.3413 63.5208 50.2541 64.6898 50.2541C65.0514 50.2541 65.2229 49.9936 65.263 49.856C65.2671 49.8415 65.2701 49.8267 65.2715 49.8117C65.3654 48.9038 64.4804 47.0915 63.0693 45.3019Z" fill="#9DCBEA"/>
<path d="M76.2774 35.8234C73.195 35.8234 66.7745 34.2067 57.1943 31.0184C57.1442 31.0017 57.1101 30.9553 57.1088 30.9024C57.1077 30.8497 57.1398 30.8018 57.1891 30.7829C58.7502 30.1858 60.7118 29.8829 63.0196 29.8829C69.5161 29.8829 76.5329 32.2164 78.0112 34.1484C78.026 34.1657 78.4675 34.6932 78.2454 35.1734C78.046 35.6047 77.3839 35.8234 76.2774 35.8234Z" fill="white"/>
<path d="M63.0199 29.7579V30.0081L63.0197 29.7579C60.6967 29.7579 58.72 30.0636 57.1447 30.6662C57.046 30.704 56.9816 30.7996 56.9839 30.9053C56.9862 31.011 57.0548 31.1038 57.1551 31.1372C66.748 34.3298 73.1817 35.9484 76.2775 35.9484C77.4534 35.9484 78.1342 35.7121 78.3591 35.2259C78.6037 34.6968 78.1627 34.1354 78.1074 34.0684C77.3342 33.0626 75.221 31.9959 72.3079 31.1412C69.3118 30.2622 65.9265 29.7579 63.0199 29.7579ZM63.0197 30.0081C69.2441 30.0081 76.412 32.2641 77.912 34.2246C77.912 34.2246 79.1654 35.6983 76.2775 35.6983C73.8658 35.6983 68.5662 34.6713 57.234 30.8998C58.8765 30.2714 60.8932 30.0081 63.0197 30.0081Z" fill="#9DCBEA"/>
<path d="M74.2048 38.3128C71.6213 38.3128 65.936 36.4671 57.7634 32.9755C57.7147 32.9547 57.6844 32.9053 57.6878 32.8522C57.6913 32.7993 57.7278 32.7543 57.779 32.7401C58.7735 32.4629 59.9357 32.3224 61.2337 32.3224C67.0404 32.3224 74.4444 35.1495 75.7327 37.2596C75.7364 37.2659 75.7397 37.2725 75.7424 37.2794C75.7471 37.2912 75.8527 37.5712 75.6664 37.8439C75.4536 38.155 74.9619 38.3128 74.2048 38.3128Z" fill="white"/>
<path d="M61.2348 32.1974H61.2338C59.9242 32.1974 58.7506 32.3396 57.7456 32.6196C57.6433 32.6481 57.5701 32.7381 57.5631 32.844C57.5561 32.9501 57.6168 33.0489 57.7144 33.0906C66.0193 36.6388 71.5675 38.4379 74.2048 38.4379C75.0057 38.4379 75.5322 38.2618 75.7696 37.9144C75.989 37.5935 75.873 37.2699 75.859 37.234C75.8536 37.2204 75.8472 37.2071 75.8395 37.1945C74.5355 35.0587 67.0764 32.1974 61.2348 32.1974ZM61.2338 32.4475C67.0824 32.4472 74.3955 35.3094 75.626 37.3248C75.626 37.3248 75.9621 38.1878 74.2048 38.1878C72.287 38.1878 67.8756 37.16 57.8127 32.8605C58.8415 32.5738 60.0059 32.4475 61.2338 32.4475Z" fill="#9DCBEA"/>
<path d="M73.6182 30.133C68.9743 30.133 64.8279 29.2907 62.5267 27.8801C62.4818 27.8528 62.4591 27.8002 62.4694 27.7488C62.4798 27.6973 62.5212 27.6578 62.5731 27.6499C67.8495 26.8432 72.1652 26.4342 75.4002 26.4342C79.7888 26.4342 81.3245 27.181 81.8401 27.8075C82.1191 28.1466 82.0756 28.4195 82.0697 28.4495C82.0649 28.4744 82.0525 28.4972 82.0345 28.5149C81.0437 29.4827 77.6615 30.133 73.619 30.133H73.6182Z" fill="white"/>
<path d="M75.4002 26.3091C72.1589 26.3091 67.837 26.7186 62.5541 27.5262C62.4504 27.5421 62.3675 27.6212 62.3468 27.7241C62.326 27.827 62.3718 27.9319 62.4613 27.9868C64.7817 29.409 68.9523 30.2581 73.6182 30.2581C77.0082 30.2581 80.9524 29.7467 82.1219 28.6043C82.1582 28.5689 82.1827 28.5234 82.1924 28.4736C82.1996 28.4376 82.2522 28.1116 81.9368 27.7281C80.9717 26.5553 77.8495 26.3091 75.4002 26.3091ZM75.4002 26.5592C82.3131 26.5592 81.9472 28.4255 81.9472 28.4255C80.9508 29.3988 77.4867 30.008 73.6182 30.008C69.6112 30.008 65.1705 29.354 62.592 27.7735C68.4587 26.8766 72.5483 26.5592 75.4002 26.5592Z" fill="#9DCBEA"/>
<path d="M73.5328 41.8979C71.6811 41.8979 66.7211 40.7054 53.6064 35.0247C53.5581 35.0038 53.5279 34.9545 53.5314 34.9019C53.5348 34.8492 53.5709 34.8043 53.6217 34.7897C54.6076 34.5069 55.7817 34.3635 57.1114 34.3635C60.2929 34.3635 64.3007 35.2065 67.8322 36.6183C71.4586 38.0682 73.9087 39.8187 74.5542 41.4211C74.5601 41.4356 74.5631 41.4511 74.5632 41.4668C74.5634 41.4907 74.5571 41.5751 74.4688 41.6641C74.315 41.8193 74 41.8979 73.5328 41.8979Z" fill="white"/>
<path d="M57.1128 34.2386V34.4887L57.1123 34.2386C55.7698 34.2386 54.5841 34.3837 53.5873 34.6697C53.4858 34.6988 53.4135 34.7885 53.4066 34.8939C53.3998 34.9993 53.4599 35.0976 53.5568 35.1396C66.6912 40.8289 71.6693 42.0231 73.5327 42.0231C74.0416 42.0231 74.377 41.9346 74.5577 41.7523C74.6766 41.6324 74.6886 41.5121 74.6882 41.4659C74.688 41.4345 74.6819 41.4035 74.6701 41.3745C74.0121 39.7408 71.5369 37.9649 67.8794 36.5026C64.334 35.085 60.3091 34.2386 57.1128 34.2386ZM57.1114 34.4887C63.8104 34.4882 73.1021 38.1514 74.4381 41.468C74.4381 41.468 74.4405 41.773 73.5327 41.773C71.8653 41.773 67.1264 40.7449 53.6562 34.9101C54.6668 34.6201 55.8434 34.4887 57.1114 34.4887Z" fill="#9DCBEA"/>
<path d="M78.2796 32.7222C77.1535 32.7222 75.5372 32.4602 73.8263 32.1829C72.5792 31.9807 71.2897 31.7717 70.0243 31.6313C68.591 31.4723 67.1791 31.3351 65.8136 31.2025C62.6983 30.8997 59.7557 30.6138 57.2106 30.1309C57.1473 30.1189 57.1034 30.0607 57.1093 29.9966C57.1153 29.9324 57.169 29.8831 57.2334 29.8829C59.0004 29.8756 60.2833 29.6916 61.7685 29.4785C63.34 29.2529 65.1209 28.9973 67.8609 28.9132C68.4391 28.8955 69.0061 28.8865 69.5457 28.8865C75.8803 28.8865 78.3135 30.1017 79.2394 31.1213C79.8254 31.7666 79.7807 32.3072 79.7784 32.3298C79.775 32.3656 79.7564 32.3981 79.7273 32.4192C79.4453 32.6231 78.9718 32.7222 78.28 32.7222H78.2796Z" fill="white"/>
<path d="M69.5459 28.7614C69.0048 28.7614 68.4366 28.7704 67.857 28.7882C65.1101 28.8725 63.3254 29.1287 61.7508 29.3547C60.27 29.5671 58.9913 29.7507 57.2329 29.758C57.1041 29.7585 56.9966 29.8567 56.9849 29.9852C56.9731 30.1135 57.0607 30.2298 57.1873 30.2538C59.7379 30.7376 62.6832 31.0239 65.8015 31.327C67.1666 31.4596 68.578 31.5967 70.0105 31.7557C71.2728 31.8956 72.5606 32.1043 73.806 32.3063C75.5224 32.5845 77.1435 32.8473 78.2796 32.8473C79.009 32.8473 79.4922 32.7435 79.8005 32.5205C79.8588 32.4785 79.8961 32.4133 79.9028 32.3419C79.909 32.2793 79.9442 31.7114 79.3321 31.0372C78.3893 29.9989 75.9263 28.7614 69.5459 28.7614ZM69.5459 29.0115C79.9734 29.0115 79.654 32.3178 79.654 32.3178C79.3779 32.5175 78.9015 32.5972 78.2796 32.5972C76.3703 32.5972 73.0914 31.8457 70.0382 31.5071C65.3255 30.9844 60.8843 30.7006 57.234 30.0081C60.9203 29.9929 62.592 29.2 67.8647 29.0382C68.4546 29.0201 69.0133 29.0115 69.5459 29.0115Z" fill="#9DCBEA"/>
<path d="M70.8176 44.2978C69.8745 44.2978 67.8971 43.7699 63.8327 41.2548C63.4396 41.0116 60.9377 39.0339 60.8398 38.6117C60.826 38.5523 60.8421 38.5094 60.8583 38.4838C60.916 38.3917 61.0365 38.3917 61.076 38.3917C61.4914 38.3917 62.7434 38.8412 64.0689 39.317C64.5198 39.4788 64.9456 39.6318 65.3254 39.7617C65.6565 39.8749 66.025 39.9925 66.4151 40.1171C67.5322 40.4735 68.7981 40.8775 69.4505 41.2802C69.9316 41.5771 70.4541 42.0919 70.8838 42.6929C71.1915 43.1232 71.5123 43.6912 71.4895 43.9948C71.4789 44.1364 71.3976 44.1916 71.3501 44.2119C71.2579 44.2511 71.091 44.2978 70.8176 44.2978Z" fill="white"/>
<path d="M61.0761 38.2668C60.9242 38.2668 60.8153 38.3175 60.7525 38.4175C60.712 38.482 60.6997 38.5611 60.7181 38.6401C60.7411 38.7394 60.7891 38.9461 62.0974 40.0569C62.7684 40.6268 63.4861 41.1874 63.767 41.3612C67.8564 43.8917 69.8583 44.423 70.8176 44.423C71.0541 44.423 71.2497 44.3907 71.3991 44.327C71.5245 44.2736 71.6029 44.1559 71.6144 44.0042C71.6461 43.5803 71.1412 42.8377 70.9857 42.6203C70.5466 42.0063 70.011 41.479 69.5163 41.1738C68.8508 40.7631 67.632 40.3742 66.4533 39.998C66.0637 39.8737 65.6957 39.7562 65.366 39.6434C64.9868 39.5137 64.5612 39.3609 64.1106 39.1992C62.5419 38.636 61.483 38.2668 61.0761 38.2668ZM61.0761 38.5169C61.6102 38.5169 63.8359 39.3843 65.285 39.88C66.5879 40.3258 68.5268 40.857 69.3849 41.3866C70.5738 42.1201 71.6431 43.9512 71.3012 44.0969C71.2136 44.134 71.0617 44.1729 70.8176 44.1729C69.9768 44.1729 68.0432 43.7132 63.8986 41.1485C63.3441 40.8054 60.839 38.7503 60.9643 38.5504C60.9787 38.5276 61.0171 38.5169 61.0761 38.5169Z" fill="#9DCBEA"/>
<path d="M57.9525 41.4679C62.3927 48.8744 64.0759 50.0039 64.6898 50.0039C64.9592 50.0039 65.0228 49.786 65.0228 49.786C65.1983 48.0876 61.4708 42.7123 57.9525 41.4679Z" fill="white"/>
<path d="M69.8396 25.0427C70.1821 24.9246 70.4299 24.7691 70.5698 24.5213C70.3255 24.6939 70.082 24.8677 69.8396 25.0427Z" fill="white"/>
<path d="M64.5344 29.2C65.0869 28.7363 65.6651 28.2969 66.2666 27.9074C66.3212 27.8158 66.3801 27.7159 66.4445 27.6054C65.7945 28.1202 65.1575 28.652 64.5344 29.2Z" fill="white"/>
<path d="M84.7546 3.31698C84.8344 3.24358 84.9131 3.17092 84.9952 3.09576C85.1122 2.98884 85.182 2.8773 85.2216 2.77075C85.0618 2.9492 84.9061 3.13128 84.7546 3.31698Z" fill="white"/>
<path d="M36.6844 30.5363C37.2008 30.0605 37.9358 29.7386 38.7109 29.3991C38.7763 29.3704 38.8424 29.3414 38.9091 29.3122C38.9863 29.3444 39.0639 29.3722 39.1419 29.3963C39.0907 29.6068 39.0003 29.7959 38.8019 30.0121C38.3435 30.5118 37.3802 31.058 35.938 31.6365C36.3924 31.302 36.5685 30.8726 36.6844 30.5363ZM73.5282 7.70929C73.5282 7.70929 73.3378 7.84835 73.1606 8.01617C72.9433 8.22188 72.4678 8.70909 70.9399 10.9373C70.5457 11.512 70.1837 12.1634 69.8337 12.7933C69.3475 13.6679 68.8448 14.5724 68.235 15.3232C68.1543 15.4224 68.0767 15.5226 67.9944 15.6286C67.2316 16.6108 66.079 18.095 60.3999 21.2738C58.3822 22.4031 56.6759 22.9086 55.6857 23.1282C55.4068 22.5631 54.9666 22.0999 54.3703 21.744C54.6832 21.5169 54.891 21.2296 54.9925 20.883C55.2385 20.0429 54.7435 19.1103 53.6643 18.3601C54.0275 17.8849 54.1571 17.3118 54.2615 16.8506C54.314 16.6182 54.3636 16.3986 54.4334 16.2146C54.5752 15.841 54.3991 15.4217 54.0331 15.2612C53.9352 15.2183 53.833 15.1979 53.7322 15.1979C53.4563 15.1979 53.1918 15.351 53.0608 15.613L53.0146 15.7059C52.7939 16.1521 52.6317 16.4797 51.9126 16.8791C51.8673 16.885 51.8229 16.888 51.7798 16.888C51.5332 16.888 51.2902 16.787 51.0148 16.5698C50.9124 16.489 50.7909 16.4363 50.6618 16.4168C50.3756 16.3737 50.1021 16.3518 49.8489 16.3518C48.979 16.3518 48.3795 16.6108 47.9678 16.9457C47.5076 16.6037 46.9385 16.3432 46.1883 16.3432C45.7696 16.343 45.3313 16.4246 44.8559 16.5915C44.7635 16.5504 44.6695 16.5057 44.573 16.4598C44.0718 16.2219 43.5039 15.9521 42.7451 15.9521C42.5383 15.9521 42.3282 15.9724 42.1132 16.0135C42.1032 15.9838 42.0911 15.9544 42.0769 15.9254C41.9483 15.661 41.6823 15.5034 41.4023 15.5034C41.32 15.5034 41.2365 15.5169 41.1548 15.5456C41.0279 15.5899 40.8991 15.6316 40.7626 15.6759C40.4111 15.7898 40.0151 15.9182 39.6292 16.1147C39.4892 15.9516 39.2824 15.8527 39.0598 15.8527C39.0353 15.8527 39.0106 15.8538 38.9858 15.8562C38.8603 15.8686 38.7321 15.877 38.5965 15.886C38.176 15.9134 37.6933 15.945 37.1997 16.1202C37.0566 15.9345 36.8357 15.8282 36.6057 15.8282C36.5318 15.8282 36.4572 15.8392 36.3837 15.862C35.8142 16.0384 34.8804 16.3278 34.4899 17.438C34.3152 17.3263 34.1321 17.2701 33.9421 17.2701C33.6047 17.2699 33.3036 17.4584 33.1563 17.762C32.995 18.0945 33.0406 18.5012 33.2745 18.8789C33.3809 19.2858 33.659 19.7187 34.0475 20.2937C34.0553 20.3051 34.0632 20.3167 34.0713 20.3287C33.5597 20.5104 33.1577 20.8748 32.9552 21.3665C32.6903 22.0098 32.8354 22.7389 33.3247 23.224C33.3516 23.2507 33.3804 23.2751 33.4104 23.2971C33.282 23.6513 33.2691 23.9862 33.3096 24.2755C33.0099 24.7187 32.7097 25.1854 32.4582 25.6572C32.2913 25.97 32.159 26.2597 32.0562 26.5379C31.4528 27.194 30.7668 27.9736 30.1107 28.9604C29.3743 30.0483 30.1799 30.902 30.5782 31.2654C30.8948 31.8269 31.3286 32.5944 32.2301 32.5944C32.3408 32.5944 32.4531 32.5814 32.5664 32.5557C32.7691 32.6623 32.998 32.7404 33.2567 32.7404C33.383 32.7404 33.5088 32.7219 33.6365 32.6843C32.4803 33.4354 31.665 34.435 31.1691 35.7026C31.0945 35.7575 31.0219 35.8103 30.9506 35.8621C30.3862 36.2721 29.8812 36.639 29.5343 37.3604C29.4405 37.3102 29.3478 37.251 29.2546 37.1822C28.7646 36.2058 27.9865 35.0106 26.752 35.0103C25.8107 35.0101 25.0076 35.719 24.3264 36.3984C23.3386 37.1276 22.6935 38.0904 22.3058 39.4152C21.6124 40.3641 20.8267 41.3465 19.8424 42.4955C19.841 42.4971 19.8395 42.4989 19.8382 42.5005C19.2804 43.1635 18.684 43.9866 18.4906 45.0646C18.2894 46.1858 18.5611 47.3811 19.3213 48.7186C19.3741 48.8125 19.4191 48.9173 19.4666 49.0283C19.5927 49.3218 19.7434 49.6728 20.1091 50.0086C20.1068 50.0304 20.1045 50.0519 20.1023 50.0721C20.0226 50.8118 19.9068 51.8866 20.4251 52.5295C20.5054 52.7712 20.6517 52.9899 20.8631 53.1838C21.0665 54.2665 21.7106 55.2569 22.8222 56.1987C23.0365 56.6701 23.3863 57.2769 24.0124 57.7261C24.1427 57.8197 24.2962 57.8669 24.4499 57.8669C24.5892 57.8669 24.7288 57.8281 24.8518 57.7501C24.9977 57.6574 25.1038 57.52 25.1583 57.3637C25.2688 57.349 25.4039 57.3126 25.5432 57.2312C25.5552 57.2407 25.5687 57.2525 25.5835 57.2666C25.9612 57.964 26.345 58.4145 26.7853 58.6785C27.6141 59.2061 28.6232 59.5328 29.3608 59.7717C29.5526 59.8338 29.7183 59.8875 29.8506 59.935C29.9342 59.9651 30.02 59.9794 30.1042 59.9794C30.3951 59.9794 30.6702 59.8092 30.7924 59.5281C30.8966 59.2886 31.2068 58.3592 30.8244 56.4593C30.5562 55.1262 30.0567 53.958 29.4543 53.2543C29.3103 53.0859 29.1011 52.9918 28.8844 52.9918C28.8341 52.9918 28.7834 52.9968 28.733 53.0072L27.6051 53.239C27.7584 52.9104 27.8768 52.4666 27.6518 52.0584C27.4502 51.6925 27.0733 51.5071 26.5315 51.5071C26.345 51.5069 26.1583 51.5262 25.9776 51.5446C25.9097 51.5516 25.8447 51.5582 25.7844 51.5633C25.7021 51.5558 25.6391 51.5457 25.5918 51.5355C25.6331 51.4093 25.7084 51.2432 25.7444 51.1644C26.185 50.2218 26.6258 49.2791 27.0666 48.3366L27.3366 47.7594C27.3385 47.7552 27.3403 47.7511 27.3422 47.7468C27.4748 47.4493 27.6856 47.2415 27.8549 47.2415C27.9678 47.2415 28.1205 47.3164 28.2845 47.4525C28.7856 47.8683 29.2631 48.062 29.7869 48.062C29.9098 48.062 30.0201 48.0521 30.1195 48.0416C30.8379 49.3568 31.8293 50.8071 33.2796 52.6707C33.281 52.6724 33.2822 52.6742 33.2837 52.6759C35.0145 54.8596 38.1439 56.5835 42.8394 57.9369C42.7901 58.2567 42.6921 58.5027 42.4885 58.7528C42.4789 58.7645 42.4697 58.7765 42.4609 58.7889C41.638 59.9353 41.5333 61.5162 42.1656 63.2427C42.2759 63.6202 42.3518 64.1118 42.4321 64.6315C42.6103 65.7847 42.8112 67.0862 43.5092 67.9868C43.6377 68.3642 43.6871 69.3419 43.7064 69.7245C43.7249 70.0902 43.6426 70.4618 43.4682 70.8024C42.4472 72.2157 41.4498 73.2868 40.2548 74.2507C39.063 74.5432 37.9043 75.0402 37.3162 76.4784C37.2324 76.6832 37.2445 76.9102 37.3411 77.1012C36.9006 77.3361 36.5163 77.6644 36.1719 78.0989C36.1666 78.1058 36.1613 78.1127 36.1562 78.1195C36.0932 78.205 36.0295 78.2908 35.9659 78.3764C35.2382 79.3565 34.5508 80.2821 34.4495 81.1685C34.4463 81.1964 34.4447 81.2243 34.4446 81.2519H35.1953C35.2824 80.4982 36.0549 79.5207 36.7599 78.565C37.0441 78.2064 37.388 77.8932 37.8635 77.6804C38.2151 77.5393 38.418 77.221 38.631 76.9229C38.4612 76.7214 38.2544 76.6677 38.0106 76.7625C38.5025 75.5595 39.5102 75.1908 40.5917 74.9419C42.1021 73.7472 43.1824 72.485 44.1075 71.1983C44.3733 70.7044 44.481 70.1845 44.4558 69.6868C44.4094 68.77 44.346 67.9907 44.1614 67.6003C43.2255 66.492 43.2661 64.3041 42.8783 63.0064C42.3471 61.5703 42.3679 60.205 43.0704 59.2263C43.5539 58.6322 43.6142 58.0217 43.635 57.3812C39.2245 56.1725 35.7308 54.5555 33.8717 52.2099C32.5723 50.5402 31.3893 48.8857 30.5642 47.2785C29.9857 47.2059 29.6057 47.5736 28.7634 46.8749C27.7771 46.0571 26.9921 46.6894 26.6568 47.4415C26.1254 48.5778 25.594 49.7141 25.0629 50.8505C24.783 51.465 24.463 52.2252 25.7842 52.3159C26.485 52.2668 27.5285 51.9988 26.7516 53.2285C26.8801 53.749 27.0656 54.1479 27.5565 54.015C27.9992 53.9241 28.4419 53.8332 28.8842 53.7421C30.0292 55.0798 30.5449 58.216 30.1044 59.229C29.4452 58.992 28.1369 58.6526 27.179 58.0396C26.8001 57.816 26.4851 57.3713 26.1988 56.8261C25.9232 56.5103 25.6207 56.3904 25.2907 56.4657C25.0555 56.7742 24.7476 56.6264 24.3676 56.0221C24.3045 56.2337 24.3597 56.6281 24.4499 57.1166C23.9738 56.7749 23.676 56.2988 23.4384 55.7352C22.1631 54.696 21.6605 53.7205 21.5615 52.7785C21.3093 52.612 21.1352 52.4117 21.1074 52.1535C20.4474 51.6574 21.031 49.5712 20.844 49.6328C20.2583 49.2425 20.2389 48.8194 19.9736 48.3479C18.5133 45.7786 19.3022 44.303 20.4123 42.9836C21.3108 41.9346 22.1814 40.8648 22.9911 39.7486C23.2796 38.6976 23.7696 37.7254 24.8159 36.9702C26.2181 35.5642 27.3264 34.9187 28.6571 37.6671C29.1271 38.0544 29.5676 38.2267 29.9948 38.3011C30.2897 37.1205 30.8719 36.8739 31.795 36.1711C32.4716 34.2616 33.9211 33.0539 36.1195 32.3718C40.0256 30.8239 39.8435 29.8331 39.9851 28.7983C39.6135 28.7547 39.2492 28.6903 38.935 28.4788C37.893 28.953 36.7773 29.3523 36.0311 30.126C35.8873 30.5481 35.7758 30.9814 35.1206 31.2294C34.6763 31.8919 34.1016 32.0917 33.6184 31.8826C33.2797 32.0642 33.062 32.0173 32.6587 31.7282C31.8682 32.1256 31.5327 31.4247 31.1703 30.7884C30.3955 30.1041 30.5017 29.7202 30.7335 29.3791C31.3732 28.4163 32.0408 27.6598 32.7125 26.933C32.8138 26.6303 32.9538 26.322 33.1203 26.0103C33.3973 25.4908 33.7472 24.9614 34.1124 24.43C33.7417 23.2807 34.8202 22.625 35.8134 21.9404C34.9378 21.441 34.1362 21.1914 33.853 22.6911C33.2193 22.063 33.692 20.8477 35.0083 20.9568C35.7486 21.018 34.0565 19.3189 33.9799 18.58C33.6299 18.1358 33.8718 17.751 34.296 18.2681C34.553 18.4721 34.8099 18.6762 35.0667 18.8802C34.9719 17.1399 35.7743 16.8363 36.6057 16.5786C36.135 17.021 35.627 17.4121 35.7548 18.6669C36.7158 16.512 37.9029 16.7168 39.0593 16.603C38.5692 16.8464 37.99 17.0595 37.8565 17.4244C38.1984 17.7413 38.4404 18.1267 38.6365 18.5432C39.0146 16.8436 40.2675 16.6504 41.4024 16.2539C40.7695 16.6596 39.9502 16.9418 40.0647 17.8406C42.7508 15.887 43.6161 16.9437 44.8454 17.3984C46.4891 16.723 47.3208 17.2782 48.0363 18.0094C48.4424 17.2991 49.2231 16.9588 50.5501 17.1588C51.0131 17.524 51.5296 17.7328 52.1635 17.5965C53.2424 17.0272 53.4619 16.4887 53.7319 15.9484C53.2976 17.0932 53.6236 18.6825 50.9767 18.5351C50.1739 18.2995 48.904 17.9405 48.8843 19.6269C50.1604 18.6113 51.1747 18.8915 52.07 19.7606C53.5374 21.4487 53.9468 19.9507 53.0849 18.8754C54.8422 20.0011 55.1842 21.8554 50.7682 21.6114C53.0976 21.745 54.8032 22.3607 55.2027 23.9854C55.9597 23.8635 58.1192 23.4102 60.7663 21.9285C67.1606 18.3494 67.9894 16.8157 68.8174 15.7963C69.9253 14.4321 70.6509 12.6854 71.5587 11.3616C72.7459 9.63008 73.2626 8.99794 73.6085 8.57992C73.6339 8.54927 74.0221 8.05794 74.0137 8.05195C73.9551 8.00968 73.5282 7.70929 73.5282 7.70929Z" fill="white"/>
<path d="M23.0322 45.1289C22.9532 45.0908 22.8918 45.0569 22.8447 45.0282C22.9106 44.9569 22.99 44.8793 23.0448 44.8257L23.1219 44.7519C23.0865 44.8795 23.0569 45.0051 23.0322 45.1289ZM27.0144 41.7175C26.0059 40.8762 25.8281 41.1048 25.2436 41.6845C24.3371 42.5514 23.4305 43.4186 22.524 44.2856C22.0407 44.7574 21.5406 45.2578 22.7395 45.8204C23.007 46.083 23.3131 46.4792 23.0317 47.2235C22.8373 47.9877 22.8537 48.3352 23.1768 48.8194C23.3698 48.2018 23.5506 47.5808 23.715 46.9551C23.6037 45.871 23.7085 44.7875 24.4107 43.7045C25.2094 41.8865 25.8821 40.9588 28.117 43.0395C28.5768 43.1913 28.9703 43.2232 29.326 43.1868C29.0095 42.6704 28.026 42.5613 27.0144 41.7175Z" fill="white"/>
<path d="M66.5044 26.0131C66.4591 26.082 66.415 26.1525 66.373 26.2259C66.3334 26.2949 66.2954 26.3615 66.2587 26.4257C66.1115 26.6824 65.9854 26.9017 65.8755 27.0913C65.8205 27.1861 65.7696 27.2734 65.7221 27.3542C65.1283 28.3635 65.0718 28.3501 64.3766 29.1254C62.8961 30.7764 61.656 30.988 61.5927 31.305C61.5587 31.4748 61.6146 31.5783 61.7285 31.6411C61.9425 31.7593 62.0873 31.7845 62.3375 31.8054C62.3732 31.8083 62.4112 31.8113 62.4517 31.8143C62.4771 31.8162 62.5008 31.8174 62.5231 31.8182C62.5454 31.8188 62.5659 31.8191 62.5847 31.8191C62.6415 31.8187 62.6837 31.8157 62.7115 31.8149C62.7394 31.8142 62.7528 31.8157 62.7521 31.8244C62.7444 31.9239 62.353 31.9953 61.96 32.0377C61.4528 32.0924 60.8037 32.4631 60.771 32.843C60.7367 33.2422 61.0252 33.3737 61.1886 33.4474C61.2764 33.4869 61.3626 33.5138 61.4364 33.5362C61.4855 33.551 61.5294 33.5641 61.5644 33.5773C61.6171 33.5972 61.6505 33.618 61.6537 33.6476C61.6553 33.6608 61.6205 33.6871 61.5699 33.7119C61.5573 33.718 61.5438 33.7241 61.5295 33.7299C61.4868 33.7471 61.4381 33.7614 61.3924 33.7664C61.3541 33.7708 61.3212 33.7721 61.2902 33.7715C61.1974 33.7695 61.1232 33.7491 60.9844 33.7323C60.9515 33.7283 60.921 33.7262 60.8932 33.726C60.8094 33.7255 60.7485 33.7414 60.7111 33.7683C60.3392 34.0349 60.4859 35.0218 61.4025 36.4655C61.429 36.5073 61.455 36.5498 61.4803 36.593C61.5057 36.636 61.5304 36.6796 61.5544 36.7235C61.8907 37.3389 62.0919 38.0196 61.973 38.1768C61.967 38.1845 61.9592 38.1898 61.9508 38.1935C61.9501 38.1938 61.9492 38.1939 61.9486 38.1941C61.9397 38.1976 61.9296 38.199 61.9183 38.1988H61.9172C61.9012 38.1981 61.8834 38.1948 61.8633 38.1876H61.8632H61.8631C61.8461 38.1816 61.8275 38.1731 61.8079 38.1633C61.8054 38.1619 61.8028 38.1606 61.8002 38.1591C61.7601 38.138 61.7152 38.1096 61.667 38.0758C61.6637 38.0736 61.6605 38.0713 61.6571 38.069C61.6088 38.0348 61.5573 37.9959 61.5042 37.9542C61.4995 37.9505 61.4948 37.9469 61.4902 37.9433C61.4369 37.9013 61.382 37.8569 61.3268 37.8122C61.2956 37.7868 61.2643 37.7615 61.2333 37.7363C60.9119 37.477 59.7784 36.8728 57.8166 36.1333C57.3699 35.9649 56.9681 35.8622 56.65 35.8628C56.5439 35.863 56.4471 35.8748 56.3611 35.8993C56.2225 35.9389 56.1196 36.0467 56.0456 36.1988C56.0086 36.2748 55.9789 36.3617 55.9557 36.4569C55.839 36.9324 55.8828 37.6085 55.9847 38.1094C55.9848 38.11 55.9851 38.1106 55.9852 38.1112C55.9948 38.1588 56.0061 38.2106 56.0181 38.2645C56.0205 38.2757 56.023 38.2868 56.0255 38.2983C56.0382 38.3543 56.0518 38.413 56.0667 38.474C56.0681 38.4798 56.0697 38.4859 56.0711 38.4918C56.0864 38.5538 56.1027 38.6179 56.1201 38.6837C56.1213 38.6877 56.1223 38.6915 56.1231 38.6954C56.1418 38.7649 56.1614 38.836 56.1822 38.9078C56.1837 38.9127 56.1849 38.9176 56.1864 38.9223C56.2289 39.069 56.2761 39.2184 56.327 39.3639C56.3278 39.3665 56.3288 39.3691 56.3297 39.3716C56.3819 39.5198 56.4379 39.6639 56.4975 39.7963C56.4975 39.7964 56.4975 39.7966 56.4975 39.7967C56.5099 39.8241 56.5225 39.8507 56.5351 39.8771C56.5402 39.8879 56.5453 39.8986 56.5506 39.9092C56.5506 39.9092 56.5507 39.9094 56.5507 39.9095C56.5613 39.9311 56.5719 39.9523 56.5828 39.973C56.592 39.9905 56.6012 40.0077 56.6105 40.0245C56.6185 40.0393 56.6266 40.0542 56.6347 40.0683C56.653 40.0999 56.6714 40.1307 56.6902 40.1595C56.7021 40.1779 56.7136 40.1969 56.7251 40.2162C56.7251 40.2164 56.7253 40.2164 56.7253 40.2165C56.7268 40.2192 56.7285 40.2221 56.7301 40.2249C56.7421 40.2454 56.7538 40.2663 56.7654 40.2877C56.7655 40.2878 56.7655 40.2879 56.7656 40.288C56.7673 40.2912 56.7689 40.2944 56.7707 40.2977C56.7957 40.3444 56.8205 40.3937 56.8468 40.4452C56.8723 40.4954 56.8988 40.5474 56.9283 40.6019C56.9287 40.6024 56.929 40.6028 56.9292 40.6034C57.0769 40.8763 58.743 42.4284 58.3216 42.4327C58.2602 42.4333 57.553 42.3093 57.376 42.2621C57.316 42.2461 57.254 42.2285 57.1902 42.209C56.7424 42.0728 56.1995 41.8468 55.6037 41.4679C54.9655 41.0619 54.3664 40.3204 54.0689 40.16C54.0091 40.1278 53.9465 40.0974 53.8804 40.0693C53.6825 39.985 53.4545 39.9209 53.1864 39.8879C53.1587 39.8845 53.1331 39.8822 53.1091 39.881C53.085 39.8799 53.0627 39.8796 53.0419 39.8804C52.9174 39.8844 52.8497 39.9191 52.8124 39.9494C52.6189 40.1059 52.9801 40.4756 53.2213 40.8464C54.0438 42.1104 54.3027 43.154 54.306 43.7511C54.3072 43.9786 54.2713 44.1413 54.2153 44.2267C54.2013 44.2481 54.1861 44.2647 54.1698 44.2761C54.1618 44.2818 54.1533 44.2865 54.1448 44.2896C54.1081 44.3033 54.0694 44.2893 54.0264 44.2533C53.8399 44.0973 53.5732 43.5278 53.0498 43.0099C52.6754 42.6394 52.3857 42.2562 51.7041 41.8895C51.5377 41.7998 51.3486 41.7143 51.1308 41.635C50.9132 41.5559 50.6669 41.4832 50.3865 41.4193C50.3123 41.409 50.2329 41.403 50.1465 41.403C49.8872 41.4031 49.5643 41.457 49.123 41.6132C48.6697 41.7735 48.2929 41.8378 47.9756 41.8333C47.0234 41.8195 46.6048 41.1858 46.2527 40.6639C46.6575 41.6684 47.3322 42.6734 48.5392 44.5058C49.0167 45.1053 49.5235 45.6507 50.0708 46.1206C50.1392 46.1793 50.2082 46.2368 50.2779 46.2932C50.4173 46.4059 50.5594 46.5137 50.7042 46.6162C50.7766 46.6675 50.8498 46.7175 50.9236 46.7661C51.2191 46.9607 51.5261 47.1338 51.8459 47.2825C51.9901 47.3211 52.1311 47.3606 52.2695 47.401C52.2834 47.405 52.2968 47.4093 52.3104 47.4133C52.4842 47.4644 52.6528 47.5172 52.8181 47.5711C52.8205 47.5719 52.8229 47.5726 52.8252 47.5735C53.3052 47.7302 53.7504 47.8984 54.163 48.0774C54.163 48.0774 54.163 48.0776 54.1632 48.0776C54.1814 48.0855 54.1994 48.0936 54.2176 48.1016C54.4437 48.2009 54.6601 48.3035 54.8673 48.4091C54.8851 48.4181 54.903 48.427 54.9205 48.4361C54.9205 48.4361 54.9206 48.4361 54.9206 48.4362C55.187 48.5737 55.4378 48.7165 55.6747 48.8638C55.6948 48.8763 55.7151 48.8887 55.735 48.9013C55.7891 48.9356 55.8426 48.9702 55.8954 49.005C55.9145 49.0176 55.9335 49.0302 55.9523 49.0429C56.0068 49.0792 56.0608 49.1159 56.1137 49.1529C56.121 49.1579 56.1279 49.1629 56.135 49.1679C56.3166 49.2956 56.4889 49.4264 56.6527 49.5601C56.6606 49.5665 56.6686 49.5728 56.6764 49.5792C56.7274 49.6212 56.7775 49.6635 56.8268 49.7059C56.8364 49.7141 56.8461 49.7224 56.8556 49.7306C56.906 49.7745 56.956 49.8186 57.0047 49.863C57.3011 49.893 57.5068 49.8542 57.6465 49.7809C59.5772 52.0511 59.7904 50.918 59.7904 50.918C59.8022 50.5724 59.6921 50.1061 59.4879 49.5676C62.1184 52.0332 62.2556 50.5869 62.2556 50.5869C62.2356 50.227 62.106 49.7794 61.8861 49.2731C63.6451 50.3867 63.7191 49.3496 63.7191 49.3496C63.6052 48.0634 61.9497 45.7047 59.7096 43.5898C59.609 43.4028 59.67 43.0058 59.7655 42.5774C60.1851 42.9046 60.5901 43.2055 60.9833 43.4799C63.6464 45.3388 65.5008 46.1656 66.7539 46.5013C68.4595 46.9581 68.9812 47.0749 69.051 46.5049C69.0895 46.1903 68.487 45.1307 67.741 44.2024C66.5373 42.7042 64.607 40.8669 62.3423 39.0764C62.7948 39.2655 63.0861 39.3933 63.2072 39.4458C65.2841 40.3456 68.6931 40.8889 68.6738 40.8105C68.6274 40.6223 68.5835 40.81 66.8467 39.9948C66.1714 39.6778 65.2715 39.2071 64.4465 38.5893C64.0376 38.2832 62.4794 36.8732 63.0762 36.1867C63.1834 36.0632 63.5583 36.0088 64.0472 36.0088C64.6784 36.0088 65.0288 36.0597 65.9233 36.2228C66.6533 36.3559 68.0113 36.7524 68.0113 36.7524L67.3114 36.3784C67.3114 36.3784 63.1121 35.1736 62.9091 34.4393C62.9923 34.2388 63.4406 33.9576 63.8627 33.9121C64.6017 33.8323 64.8577 33.7206 64.8772 33.4695L64.8857 33.3605L64.8099 33.2756C64.7575 33.219 64.6865 33.1904 64.5987 33.1904C64.5847 33.1904 64.5668 33.191 64.5451 33.192C64.5213 33.1931 64.4905 33.1946 64.453 33.1946C64.4174 33.1946 64.3824 33.1933 64.3461 33.1906C64.0205 33.1661 63.9179 33.1544 63.7251 33.0478C63.7142 33.042 63.71 33.0377 63.709 33.0368C63.7095 33.0366 63.7072 33.026 63.7101 33.0017C63.7611 32.9497 63.9376 32.8511 64.0944 32.7635C64.6112 32.4745 65.4766 31.9908 66.4387 30.9181C66.5579 30.7851 66.6581 30.6755 66.7456 30.5799C67.3246 29.9474 65.1968 30.8196 66.3036 28.8859C66.655 28.2718 68.904 27.2578 69.603 27.0448C70.4686 26.7809 71.6017 26.7337 71.8663 26.6913C71.9635 26.6756 71.0581 26.3307 71.119 26.3165C71.793 26.1594 73.7335 25.7663 73.6724 25.6722C73.5344 25.4594 69.1031 25.9249 66.5044 26.0131Z" fill="#9DCBEA"/>
<path d="M77.1099 16.2456L77.0435 16.0982H76.8818C76.7776 16.0982 76.7489 16.1263 76.5898 16.2823C76.4895 16.3805 76.3381 16.529 76.2562 16.602C75.6708 17.1236 75.1605 17.5433 74.4253 18.0232C73.4002 18.6925 72.4449 19.1282 70.817 19.7962C70.5271 19.9152 70.0592 20.057 69.6427 20.1712C70.2615 19.533 70.8599 18.7344 71.4066 17.8849L71.4064 17.8852C71.0134 18.1467 70.6244 18.3839 70.2396 18.6016C70.2349 18.6042 70.2302 18.607 70.2256 18.6096C70.149 18.6529 70.0727 18.6952 69.9963 18.737C69.9597 18.7571 69.9234 18.7771 69.8871 18.7968C69.8248 18.8305 69.7625 18.864 69.7005 18.8969C69.6435 18.9271 69.5867 18.9568 69.5298 18.9863C69.4843 19.0099 69.4385 19.0339 69.393 19.0573C69.2872 19.1115 69.1819 19.1647 69.0769 19.2167C67.7234 19.8873 65.482 20.6877 64.6524 21.2495C64.2323 21.5339 67.2218 21.3079 68.41 21.3234C68.9598 21.3306 69.5201 21.4616 69.9082 21.5926C70.3233 21.4137 70.7221 21.2359 71.0636 21.0665C72.8027 20.2049 74.8755 18.991 77.0635 16.5211C77.1683 16.4027 77.1255 16.2803 77.1099 16.2456Z" fill="#9DCBEA"/>
<path d="M71.0975 21.8477C70.6206 21.9095 69.72 22.0923 68.8491 22.269C68.524 22.3351 68.1839 22.4041 67.8671 22.4662C68.2568 22.2918 68.6876 22.11 69.1119 21.931C69.2363 21.8785 69.3614 21.8257 69.4862 21.7727C69.3875 21.7618 69.2823 21.7537 69.1749 21.7472C69.176 21.7468 69.177 21.7464 69.178 21.7462C68.9687 21.7336 68.745 21.7323 68.5169 21.7541C67.8826 21.8148 67.1518 21.9404 66.399 22.1281C66.3546 22.1392 66.3101 22.151 66.2656 22.1625C66.199 22.1797 66.1324 22.1974 66.0656 22.2155C66.0202 22.2279 65.9751 22.24 65.9297 22.2528C65.8335 22.2799 65.7372 22.308 65.6409 22.3371C65.5983 22.3499 65.5557 22.3633 65.5132 22.3766C65.4349 22.401 65.3569 22.426 65.2789 22.4516C65.2451 22.4627 65.2114 22.4735 65.1777 22.4847C65.077 22.5186 64.977 22.554 64.8772 22.5902C64.8409 22.6033 64.8047 22.6166 64.7685 22.6299C64.6646 22.6684 64.5611 22.7078 64.4587 22.7487C64.4388 22.7567 64.4191 22.7651 64.3993 22.7731C64.3072 22.8105 64.2161 22.8488 64.1256 22.8879C64.0976 22.9 64.0699 22.9119 64.0421 22.9242C63.9392 22.9698 63.8373 23.0165 63.7369 23.0645C63.7146 23.0751 63.6926 23.0861 63.6705 23.0969C63.5795 23.1411 63.4897 23.1864 63.4012 23.2328C63.3841 23.2417 63.3668 23.2504 63.3498 23.2595C63.2509 23.312 63.154 23.3662 63.0588 23.4214C63.0372 23.434 63.0158 23.4467 62.9944 23.4593C62.8974 23.5167 62.8017 23.5751 62.7092 23.6351C61.5469 24.3913 60.9768 25.1452 59.1989 26.2999C59.1415 26.3371 59.0829 26.3748 59.0229 26.4129C58.9536 26.4569 58.8767 26.5031 58.7951 26.5501C58.5914 26.6674 58.359 26.7901 58.1425 26.9014C58.0992 26.9236 58.0566 26.9455 58.0149 26.9666C57.7236 27.115 57.4812 27.2339 57.4113 27.2769C57.4014 27.283 57.3949 27.2877 57.3923 27.2905C57.3715 27.3138 57.3662 27.3292 57.3768 27.3339C57.3874 27.3387 57.4139 27.3326 57.4573 27.313C57.5409 27.2754 57.6286 27.2343 57.7203 27.19C57.9579 27.0753 58.2223 26.9396 58.509 26.7888C60.9633 25.498 64.2855 23.4867 67.3371 23.6569C68.3746 23.7146 69.1456 23.7812 69.5681 23.8842C70.9026 23.4367 72.4863 22.798 73.338 22.5235C74.4992 22.1495 74.6419 22.0652 75.8335 21.8717L76.9029 21.6273C76.9029 21.6273 74.7218 21.699 74.0116 21.699C73.1613 21.699 71.8868 21.7456 71.0975 21.8477Z" fill="#9DCBEA"/>
<path d="M28.117 43.0395C25.882 40.9589 25.2094 41.8865 24.4107 43.7046C23.7085 44.7875 23.6037 45.8711 23.715 46.9553C23.5506 47.5809 23.3698 48.2019 23.1768 48.8194C22.8537 48.3352 22.8373 47.9877 23.0318 47.2235C23.313 46.4793 23.007 46.0831 22.7395 45.8205C21.5406 45.2579 22.0407 44.7575 22.5239 44.2856C23.4305 43.4186 24.3369 42.5515 25.2434 41.6847C25.8281 41.1049 26.0059 40.8763 27.0144 41.7175C28.026 42.5613 29.0095 42.6706 29.3259 43.1869C28.9703 43.2232 28.5769 43.1913 28.117 43.0395ZM74.5469 15.1631C73.9269 15.7157 73.4167 16.1302 72.6864 16.607C71.5947 17.3198 70.5389 17.7854 69.0361 18.402C68.3626 18.6784 66.8299 19.0573 66.9035 18.9987C68.6558 17.6008 70.2715 14.6707 71.08 12.868C71.697 11.4925 72.4966 10.3912 72.861 9.81416C73.0099 9.57856 73.5827 8.63564 74.0137 8.05189C74.0198 8.04364 73.9836 8.06252 73.9528 8.08778C73.7046 8.29112 72.7461 9.63008 71.5587 11.3617C70.6509 12.6855 69.9255 14.4322 68.8174 15.7963C67.9894 16.8158 67.1606 18.3494 60.7664 21.9285C58.1194 23.4103 55.9597 23.8635 55.2028 23.9855C54.8032 22.3607 53.0976 21.7451 50.7682 21.6115C55.1842 21.8554 54.8422 20.0011 53.085 18.8755C53.9468 19.9507 53.5374 21.4488 52.07 19.7607C51.1747 18.8915 50.1604 18.6114 48.8843 19.6269C48.904 17.9406 50.1739 18.2996 50.9767 18.5351C53.6236 18.6827 53.2976 17.0934 53.732 15.9485C53.4619 16.4887 53.2424 17.0273 52.1636 17.5965C51.5296 17.7328 51.0131 17.5242 50.5502 17.1589C49.2231 16.9589 48.4425 17.2992 48.0365 18.0095C47.3208 17.2783 46.4892 16.7231 44.8455 17.3984C43.6161 16.9437 42.7509 15.8871 40.0647 17.8406C39.9502 16.9419 40.7696 16.6596 41.4024 16.2539C40.2677 16.6506 39.0146 16.8438 38.6366 18.5432C38.4404 18.1268 38.1984 17.7413 37.8565 17.4245C37.9901 17.0596 38.5693 16.8464 39.0593 16.603C37.9029 16.717 36.7159 16.512 35.7549 18.667C35.627 17.4123 36.1352 17.021 36.6058 16.5788C35.7743 16.8364 34.9719 17.14 35.0667 18.8804C34.8099 18.6763 34.553 18.4721 34.2961 18.2681C33.872 17.7511 33.6299 18.1359 33.9799 18.5801C34.0565 19.3189 35.7486 21.018 35.0083 20.9568C33.692 20.8478 33.2193 22.063 33.853 22.6912C34.1362 21.1915 34.9378 21.4411 35.8134 21.9405C34.8202 22.6251 33.7418 23.2809 34.1124 24.4301C33.7472 24.9616 33.3973 25.4908 33.1203 26.0104C32.954 26.3222 32.8138 26.6303 32.7126 26.9332C32.0408 27.66 31.3733 28.4164 30.7335 29.3791C30.5018 29.7202 30.3956 30.1043 31.1705 30.7884C31.5327 31.4248 31.8682 32.1256 32.6587 31.7282C33.062 32.0173 33.2797 32.0642 33.6184 31.8828C34.1016 32.0917 34.6764 31.8919 35.1206 31.2294C35.7758 30.9814 35.8874 30.5482 36.0311 30.1261C36.7773 29.3523 37.893 28.9531 38.935 28.4789C39.2492 28.6903 39.6137 28.7548 39.9851 28.7985C39.8435 29.8333 40.0256 30.8239 36.1195 32.372C33.9212 33.0539 32.4718 34.2616 31.7951 36.1712C30.8721 36.874 30.2897 37.1205 29.9948 38.3011C29.5678 38.2267 29.1272 38.0544 28.6571 37.6672C27.3266 34.9188 26.2181 35.5642 24.816 36.9702C23.7696 37.7255 23.2796 38.6978 22.9911 39.7487C22.1815 40.8649 21.3108 41.9348 20.4124 42.9837C19.3022 44.3031 18.5135 45.7788 19.9736 48.348C20.2389 48.8194 20.2583 49.2426 20.844 49.6328C21.031 49.5712 20.4474 51.6575 21.1074 52.1535C21.1352 52.4118 21.3094 52.612 21.5616 52.7785C21.6607 53.7205 22.1633 54.696 23.4384 55.7352C23.676 56.299 23.9739 56.7751 24.4499 57.1166C24.3598 56.6282 24.3045 56.2338 24.3676 56.0222C24.7477 56.6265 25.0556 56.7743 25.2907 56.4657C25.6207 56.3904 25.9232 56.5103 26.1988 56.8262C26.4851 57.3713 26.8002 57.816 27.1791 58.0397C28.1369 58.6527 29.4453 58.9921 30.1044 59.229C30.5449 58.2162 30.0293 55.08 28.8844 53.7421C28.4419 53.8332 27.9994 53.9242 27.5565 54.0151C27.0656 54.1481 26.8801 53.7491 26.7517 53.2287C27.5285 51.9989 26.4851 52.2669 25.7842 52.3159C24.463 52.2254 24.783 51.4651 25.0629 50.8505C25.594 49.7142 26.1254 48.578 26.6569 47.4416C26.9921 46.6895 27.7773 46.0571 28.7634 46.875C29.6057 47.5738 29.9857 47.206 30.5642 47.2785C31.3893 48.8857 32.5723 50.5403 33.8717 52.21C35.7308 54.5555 39.2245 56.1727 43.635 57.3813C43.6142 58.0218 43.5539 58.6323 43.0705 59.2265C42.3679 60.2051 42.3471 61.5705 42.8783 63.0064C43.2662 64.3041 43.2256 66.492 44.1615 67.6004C44.346 67.9908 44.4096 68.77 44.4558 69.6866C44.481 70.1846 44.3734 70.7046 44.1077 71.1983C43.1824 72.485 42.1021 73.7474 40.5917 74.942C39.5102 75.191 38.5026 75.5595 38.0107 76.7625C38.2545 76.6678 38.4613 76.7214 38.631 76.923C38.418 77.221 38.2151 77.5393 37.8635 77.6803C37.388 77.8932 37.0442 78.2064 36.7601 78.565C36.0544 79.5216 35.2812 80.4997 35.195 81.2538C37.3486 81.0651 38.9379 80.6403 40.0595 80.0199C40.1325 79.4299 40.1136 78.9028 40.0815 78.3847C40.342 78.1596 40.5147 77.8679 40.6472 77.5457C40.8799 77.3303 41.127 77.2134 41.1753 77.8276C41.1779 78.0811 41.0963 78.3461 40.9301 78.6225C41.1534 78.5978 41.3614 78.4606 41.5541 78.2111C42.0897 78.3867 42.4398 77.6568 42.8009 76.9804C42.8445 77.1012 42.8883 77.2222 42.9319 77.3433C43.412 76.7221 43.3078 76.3668 43.2379 75.9959C43.5486 75.2144 44.977 73.9861 46.3885 72.7647C46.8864 72.5261 47.3112 72.3074 47.6403 72.1068C48.5383 71.5602 48.4604 70.6667 48.2087 70.1498C47.8541 69.7989 47.7398 69.365 47.6599 68.9191C47.5221 65.8338 48.6561 63.6164 49.5379 62.9696C50.4755 63.7598 51.4669 64.3137 52.512 64.6318C53.8564 65.9074 55.2787 67.0812 56.3123 68.7656C56.324 69.8097 56.2584 70.8489 56.578 71.9122C56.5208 72.8901 56.0929 73.8099 55.2945 74.6714C54.7972 75.2077 54.2151 75.763 53.4099 76.4239C52.6998 77.0069 52.283 77.6111 52.4511 78.1598C52.4223 78.6807 52.2269 79.0431 51.8647 79.2464C51.7402 79.3118 51.597 79.2347 51.4404 79.4505C50.7302 80.4297 50.2158 81.2339 50.3191 81.8782C51.9452 82.4253 55.8013 81.0677 55.3293 79.3183C55.4361 79.1043 55.4984 78.8963 55.4629 78.7017C55.7769 77.892 56.0173 77.9623 56.2726 77.8567C56.4191 78 56.5041 78.2243 56.5276 78.5295C56.6706 78.4845 56.8114 78.4585 56.9878 78.1131C58.4402 77.1713 58.086 76.3887 57.976 75.5844C57.9048 74.3975 58.7774 72.0839 60.0792 69.259C61.1887 67.0451 60.4924 66.5432 59.5381 66.2858C58.5314 65.7056 57.9814 64.4342 57.4044 63.2033C56.9756 62.0737 57.4941 60.8788 58.1476 59.6745C59.0866 58.2273 59.1847 56.2597 59.32 54.7768C59.3569 54.7576 59.3924 54.7403 59.4282 54.7227C60.3305 54.3348 61.036 54.1995 61.6198 54.6527C62.3451 55.2156 61.5233 57.5045 60.3072 55.745C60.2635 56.4429 60.1575 57.1264 61.1088 58.0477C59.5887 59.3875 59.3418 60.2848 59.2765 61.1194C59.559 60.5141 59.906 60.3458 60.2621 60.2395C59.0267 61.7702 59.0743 63.3092 60.6706 64.8578C59.8635 63.2892 60.5621 62.7428 61.3746 62.2515C60.7293 63.752 60.6122 65.1746 61.9559 66.3821C61.2777 68.4584 60.8294 69.4791 62.1896 71.11C62.8814 71.8473 63.3988 71.9417 62.8557 72.675C63.3846 72.5934 63.6379 72.1988 63.5211 71.8601C63.5978 72.0325 63.6221 72.2031 63.5998 72.4676C63.5069 73.5688 63.7666 74.0511 63.9795 74.3001C64.9731 75.4626 66.3496 75.7039 67.507 75.5915C67.6508 75.5851 67.7938 75.5731 67.9341 75.5505C68.4242 75.4717 68.8618 75.3209 69.2509 75.1153C69.3392 75.0707 69.4183 75.026 69.4839 74.9824C69.4845 74.9819 69.4849 74.9814 69.4855 74.9808C70.9344 74.0867 71.6402 72.389 71.7788 70.8355C70.7995 73.1354 69.8565 72.7214 68.9134 72.8665C70.4368 71.4884 70.4612 70.7138 70.3279 68.9132C68.986 72.8167 66.1569 70.9806 67.4626 69.2033C69.4667 67.6708 69.3622 65.9461 68.3513 64.6241C66.8719 62.5532 68.959 60.4667 69.1194 59.2872C70.2971 51.5924 64.3352 48.6983 59.1183 52.823C58.0595 50.5214 56.2656 48.4645 51.846 47.2827C50.566 46.6873 49.4943 45.705 48.5392 44.506C47.3322 42.6736 46.6575 41.6685 46.2527 40.664C46.7223 41.3599 47.3098 42.2546 49.1231 41.6134C49.7115 41.4052 50.0895 41.3785 50.3866 41.4193C50.9476 41.5471 51.3714 41.7104 51.7043 41.8896C52.3857 42.2564 52.6754 42.6396 53.0498 43.0101C53.694 43.6474 53.9495 44.363 54.1448 44.2898C54.4195 44.1867 54.4747 42.7726 53.2214 40.8466C52.9801 40.4758 52.6189 40.1061 52.8124 39.9495C52.8621 39.9092 52.9659 39.8608 53.1864 39.8879C53.5439 39.9319 53.83 40.0313 54.0689 40.1601C54.3664 40.3205 54.9655 41.062 55.6037 41.4681C56.2847 41.901 56.8963 42.1342 57.376 42.2623C57.9423 42.4132 58.4071 42.4397 58.53 42.4385C58.9513 42.4344 59.1839 42.3229 59.1237 42.3129C58.9038 42.2764 58.7951 42.2311 58.6237 42.1372C57.0547 41.2779 56.9689 40.5872 56.6903 40.1595C56.3575 39.6492 56.0948 38.6502 55.9847 38.1095C55.8218 37.3082 55.807 36.0578 56.3611 35.8995C56.7053 35.8012 57.2211 35.9088 57.8167 36.1334C59.7784 36.8729 60.912 37.4771 61.2333 37.7365C61.5514 37.9932 61.8915 38.2846 61.973 38.1768C62.1089 37.9972 61.8268 37.1339 61.4025 36.4657C60.4859 35.022 60.3392 34.035 60.7111 33.7683C60.761 33.7327 60.8526 33.7163 60.9846 33.7324C61.1695 33.7549 61.2397 33.7836 61.3924 33.7666C61.5147 33.753 61.6569 33.6741 61.6537 33.6478C61.645 33.5687 61.4229 33.5528 61.1887 33.4474C61.0252 33.3739 60.7367 33.2423 60.7711 32.8432C60.8037 32.4633 61.4529 32.0925 61.96 32.0378C62.353 31.9954 62.7444 31.924 62.7521 31.8246C62.7539 31.8011 62.6554 31.8297 62.4517 31.8144C62.1272 31.7901 61.973 31.7762 61.7285 31.6413C61.6147 31.5785 61.5587 31.4748 61.5927 31.3051C61.6561 30.9881 62.8963 30.7764 64.3768 29.1255C65.2665 28.1332 65.1101 28.4329 66.373 26.2261C66.7413 25.5827 67.2278 25.1179 67.9313 24.7661C68.3739 24.5448 68.9716 24.4975 69.1865 24.4474C69.7852 24.3078 69.9044 24.196 69.9276 24.1347C70.0289 23.8692 69.0385 23.7518 67.3371 23.6569C64.2856 23.4868 60.9634 25.4982 58.5092 26.7889C58.2224 26.9397 57.9579 27.0753 57.7204 27.19C57.6288 27.2343 57.541 27.2754 57.4575 27.3132C57.3707 27.3522 57.351 27.3372 57.3924 27.2907C57.4337 27.2442 58.468 26.7658 59.023 26.4129C60.9408 25.1939 61.5095 24.4157 62.7093 23.6353C64.366 22.5576 66.7964 21.9188 68.517 21.7542C69.4255 21.6673 70.2659 21.9455 70.4063 21.8533C70.5111 21.7844 69.4397 21.337 68.4101 21.3235C67.222 21.308 64.2324 21.534 64.6525 21.2496C65.482 20.6879 67.7236 19.8874 69.077 19.2169C70.9529 18.2874 72.9444 17.0507 75.0005 14.7297C75.0549 14.6683 74.6999 15.0267 74.5469 15.1631Z" fill="black"/>
</svg>
