<svg width="45" height="45" viewBox="0 0 45 45" fill="none" xmlns="http://www.w3.org/2000/svg">
<circle cx="22.5" cy="22.5" r="22.5" fill="white"/>
<rect x="12.75" y="13.75" width="18.5" height="18.5" rx="3.25" stroke="#FFBB95" stroke-width="1.5"/>
<path d="M21.8451 18.101C20.5216 18.101 19.4452 19.1774 19.4452 20.5009C19.4452 21.8245 20.5216 22.9009 21.8451 22.9009C23.1687 22.9009 24.2451 21.8245 24.2451 20.5009C24.2451 19.1774 23.1687 18.101 21.8451 18.101ZM21.8451 21.7009C21.1834 21.7009 20.6452 21.1627 20.6452 20.5009C20.6452 19.8392 21.1834 19.301 21.8451 19.301C22.5069 19.301 23.0451 19.8392 23.0451 20.5009C23.0451 21.1627 22.5069 21.7009 21.8451 21.7009Z" fill="#FFBB95"/>
<path d="M25.0274 22.8343C24.7928 22.5997 24.4136 22.5997 24.179 22.8343C22.8926 24.1207 20.7986 24.1207 19.5116 22.8343C19.277 22.5997 18.8978 22.5997 18.6633 22.8343C18.4287 23.0689 18.4287 23.4481 18.6633 23.6833C19.4096 24.4297 20.3558 24.8551 21.3314 24.9661L19.6208 26.6767C19.3862 26.9112 19.3862 27.2904 19.6208 27.525C19.8554 27.7596 20.2346 27.7596 20.4692 27.525L21.845 26.1493L23.2208 27.525C23.3378 27.642 23.4914 27.7008 23.645 27.7008C23.7986 27.7008 23.9522 27.642 24.0692 27.525C24.3038 27.2904 24.3038 26.9112 24.0692 26.6767L22.3586 24.9661C23.3342 24.8551 24.2804 24.4297 25.0268 23.6833C25.2613 23.4487 25.2613 23.0689 25.0274 22.8343Z" fill="#FFBB95"/>
</svg>
