<svg width="100" height="101" viewBox="0 0 100 101" fill="none" xmlns="http://www.w3.org/2000/svg">
<g clip-path="url(#clip0_450_458)">
<path d="M96.5781 27.8561L71.1018 1.38364C70.7391 1.00708 70.2387 0.794189 69.716 0.794189H31.7453C27.4959 0.794189 24.0387 4.25005 24.0387 8.49771V35.4096H8.65059C5.47129 35.4096 2.88477 37.9954 2.88477 41.1739V70.0301C2.88477 73.2085 5.47129 75.7942 8.65059 75.7942H24.0387V93.1042C24.0387 97.3444 27.4959 100.794 31.7453 100.794H89.409C93.6584 100.794 97.1156 97.3463 97.1156 93.1084V29.1897C97.1156 28.6924 96.9228 28.2145 96.5781 27.8561ZM70.1926 5.98579L91.1064 27.7172H70.1926V5.98579ZM8.65059 71.9481C7.59199 71.9481 6.73105 71.0877 6.73105 70.0301V41.1739C6.73105 40.1163 7.59219 39.2557 8.65059 39.2557H60.5807C61.6393 39.2557 62.5002 40.1163 62.5002 41.1739V70.0301C62.5002 71.0877 61.6391 71.9481 60.5807 71.9481H8.65059ZM93.2693 93.1084C93.2693 95.2256 91.5375 96.9481 89.4088 96.9481H31.7453C29.6166 96.9481 27.8848 95.2239 27.8848 93.1043V75.7942H60.5807C63.76 75.7942 66.3465 73.2085 66.3465 70.0301V41.1739C66.3465 37.9954 63.76 35.4096 60.5807 35.4096H27.8848V8.49771C27.8848 6.37056 29.6166 4.64028 31.7453 4.64028H66.3463V29.6403C66.3463 30.7024 67.2074 31.5633 68.2693 31.5633H93.2693V93.1084Z" fill="#89AFCE"/>
<path d="M25.876 49.6017C25.2375 48.7716 24.4449 48.2325 23.4984 47.9847C22.8824 47.8194 21.5603 47.7368 19.532 47.7368H14.1797V64.2558H17.515V58.0245H19.6898C21.1998 58.0245 22.3529 57.9456 23.1492 57.7878C23.7352 57.6601 24.3117 57.3991 24.8789 57.0046C25.4461 56.6102 25.9137 56.0675 26.2818 55.3765C26.65 54.6854 26.834 53.8327 26.834 52.8186C26.8338 51.504 26.5144 50.4317 25.876 49.6017ZM23.0195 54.1483C22.768 54.5165 22.4205 54.7868 21.9771 54.9597C21.5338 55.1325 20.6551 55.2188 19.3404 55.2188H17.515V50.5313H19.1264C20.3283 50.5313 21.1283 50.5688 21.5264 50.644C22.0672 50.7417 22.5143 50.9858 22.8672 51.3765C23.2203 51.7671 23.3969 52.263 23.3969 52.8638C23.3971 53.352 23.2711 53.7802 23.0195 54.1483Z" fill="#89AFCE"/>
<path d="M42.8682 52.2497C42.5076 51.1942 41.9816 50.3022 41.2906 49.5735C40.5996 48.8448 39.7693 48.3378 38.8004 48.0522C38.0793 47.8419 37.0313 47.7368 35.6566 47.7368H29.5605V64.2558H35.8369C37.0689 64.2558 38.0529 64.1393 38.7891 63.9063C39.7732 63.5909 40.5545 63.1515 41.1328 62.588C41.899 61.8442 42.4887 60.8716 42.902 59.6696C43.24 58.6854 43.409 57.5136 43.409 56.154C43.409 54.6065 43.2287 53.3052 42.8682 52.2497ZM39.6229 59.0331C39.3975 59.7731 39.1064 60.3046 38.7496 60.6274C38.3928 60.9505 37.9439 61.1796 37.4031 61.3147C36.99 61.42 36.3176 61.4726 35.3861 61.4726H32.8959V50.5313H34.3945C35.7541 50.5313 36.667 50.5839 37.1326 50.6892C37.7561 50.8243 38.2707 51.0835 38.6764 51.4667C39.082 51.8499 39.3975 52.3831 39.6229 53.0667C39.8482 53.7503 39.9609 54.7306 39.9609 56.0077C39.9609 57.2847 39.8482 58.2931 39.6229 59.0331Z" fill="#89AFCE"/>
<path d="M57.5842 50.5313V47.7368H46.2598V64.2558H49.5951V57.2358H56.4912V54.4413H49.5951V50.5313H57.5842Z" fill="#89AFCE"/>
</g>
<defs>
<clipPath id="clip0_450_458">
<rect width="100" height="100" fill="white" transform="translate(0 0.794189)"/>
</clipPath>
</defs>
</svg>
