<svg width="25" height="25" viewBox="0 0 25 25" fill="none" xmlns="http://www.w3.org/2000/svg">
<path d="M23.6925 16.8745L21.1773 14.8728C19.5387 13.5688 16.9951 13.6922 15.5002 15.1442L15.4004 15.2412C15.1497 15.4847 14.7414 15.4828 14.4943 15.2427L9.63473 10.5221C9.3894 10.2838 9.38455 9.90047 9.62095 9.6571C9.62527 9.65267 9.62964 9.64831 9.63407 9.64395L9.62071 9.65692C9.62514 9.65262 9.62958 9.64825 9.63401 9.64395C11.1206 8.18602 11.2629 5.70374 9.96062 4.10443L7.92066 1.59917C6.60944 -0.011196 4.33056 -0.135589 2.83588 1.31634L2.46118 1.68033C-0.193661 4.25925 -0.819263 8.90742 1.17212 11.9979C1.17212 11.9979 2.34438 14.6388 6.30044 18.4817C10.2565 22.3246 12.9751 23.4634 12.9751 23.4634C16.1863 25.3507 20.9399 24.7917 23.5942 22.2133L23.951 21.8667C25.4469 20.4136 25.33 18.1777 23.6925 16.8745ZM22.144 20.1113L21.7871 20.458C19.9649 22.2281 16.5032 22.6355 14.298 21.3394L14.1479 21.2512L13.9869 21.1838C13.7893 21.101 13.2938 20.84 12.5448 20.352C11.2145 19.4852 9.72056 18.2934 8.10741 16.7264C6.49426 15.1594 5.26731 13.7082 4.37506 12.4159C3.87266 11.6883 3.60397 11.207 3.5188 11.015L3.44166 10.8412L3.33828 10.6808C1.99753 8.6001 2.42979 5.22158 4.26821 3.43574L4.64291 3.07176C5.0584 2.66815 5.55517 2.69561 5.91645 3.13931L7.95641 5.64457C8.45941 6.26229 8.39431 7.33773 7.8138 7.90168C6.57889 9.1153 6.585 11.0704 7.82776 12.2776L12.6873 16.9982C13.9331 18.2083 15.9595 18.209 17.2075 16.9967L17.3074 16.8997C17.874 16.3493 18.936 16.2983 19.5579 16.7932L22.073 18.7949C22.5426 19.1686 22.5701 19.6974 22.144 20.1113Z" fill="white"/>
</svg>
