<svg width="100" height="100" viewBox="0 0 100 100" fill="none" xmlns="http://www.w3.org/2000/svg">
<path d="M94.0638 78.0078C97.7943 65.6363 97.7943 53.1137 94.0638 40.7422C95.2588 39.9881 96.2679 38.9737 97.0156 37.7747C97.7633 36.5758 98.2304 35.2233 98.3818 33.8185C98.5332 32.4136 98.3651 30.9927 97.8901 29.6619C97.4151 28.3312 96.6453 27.125 95.6385 26.1336C94.6317 25.1422 93.4138 24.3912 92.0758 23.9368C90.7379 23.4823 89.3145 23.3362 87.9122 23.5094C86.5098 23.6825 85.1647 24.1703 83.9775 24.9365C82.7902 25.7027 81.7915 26.7273 81.056 27.9338C60.5343 24.0418 39.464 24.0418 18.9423 27.9338C18.2068 26.7273 17.2081 25.7027 16.0208 24.9365C14.8336 24.1703 13.4885 23.6825 12.0861 23.5094C10.6838 23.3362 9.2604 23.4823 7.92246 23.9368C6.58452 24.3912 5.36661 25.1422 4.35978 26.1336C3.35294 27.125 2.58323 28.3312 2.10819 29.6619C1.63315 30.9927 1.46506 32.4136 1.6165 33.8185C1.76793 35.2233 2.23497 36.5758 2.9827 37.7747C3.73043 38.9737 4.73951 39.9881 5.93449 40.7422C2.20402 53.1137 2.20402 65.6363 5.93449 78.0078C4.73951 78.7619 3.73043 79.7763 2.9827 80.9752C2.23497 82.1742 1.76793 83.5267 1.6165 84.9315C1.46506 86.3364 1.63315 87.7573 2.10819 89.0881C2.58323 90.4188 3.35294 91.625 4.35978 92.6164C5.36661 93.6078 6.58452 94.3588 7.92246 94.8132C9.2604 95.2676 10.6838 95.4138 12.0861 95.2406C13.4885 95.0675 14.8336 94.5796 16.0208 93.8135C17.2081 93.0473 18.2068 92.0227 18.9423 90.8162C39.464 94.7082 60.5343 94.7082 81.056 90.8162C81.7915 92.0227 82.7902 93.0473 83.9775 93.8135C85.1647 94.5796 86.5098 95.0675 87.9122 95.2406C89.3145 95.4138 90.7379 95.2676 92.0758 94.8132C93.4138 94.3588 94.6317 93.6078 95.6385 92.6164C96.6453 91.625 97.4151 90.4188 97.8901 89.0881C98.3651 87.7573 98.5332 86.3364 98.3818 84.9315C98.2304 83.5267 97.7633 82.1742 97.0156 80.9752C96.2679 79.7763 95.2588 78.7619 94.0638 78.0078ZM89.0624 92.1875C87.8463 92.1872 86.6566 91.8324 85.6391 91.1663C84.6216 90.5003 83.8203 89.5519 83.3335 88.4375C83.1913 88.1116 82.9421 87.844 82.6272 87.679C82.3122 87.5139 81.9504 87.4613 81.6015 87.5299C60.7341 91.6381 39.2658 91.6381 18.3984 87.5299C18.0495 87.4613 17.6876 87.5139 17.3727 87.679C17.0577 87.844 16.8085 88.1116 16.6663 88.4375C16.259 89.3702 15.6301 90.1893 14.8342 90.8237C14.0384 91.4581 13.0996 91.8885 12.0996 92.0775C11.0995 92.2666 10.0684 92.2085 9.09593 91.9085C8.12341 91.6084 7.23888 91.0754 6.51922 90.3557C5.79956 89.636 5.26653 88.7515 4.96646 87.779C4.66639 86.8065 4.60836 85.7754 4.79741 84.7753C4.98645 83.7753 5.41686 82.8366 6.05123 82.0407C6.68559 81.2448 7.50472 80.6159 8.43742 80.2086C8.79228 80.0535 9.0769 79.7722 9.23609 79.4191C9.39527 79.0661 9.41767 78.6665 9.29894 78.2979C5.25402 65.7416 5.25402 53.0084 9.29894 40.4521C9.41767 40.0835 9.39527 39.6839 9.23609 39.3309C9.0769 38.9778 8.79228 38.6965 8.43742 38.5414C7.50472 38.1341 6.68559 37.5052 6.05123 36.7093C5.41686 35.9134 4.98645 34.9747 4.79741 33.9746C4.60836 32.9746 4.66639 31.9435 4.96646 30.971C5.26653 29.9985 5.79956 29.114 6.51922 28.3943C7.23888 27.6746 8.12341 27.1416 9.09593 26.8415C10.0684 26.5415 11.0995 26.4834 12.0996 26.6725C13.0996 26.8615 14.0384 27.2919 14.8342 27.9263C15.6301 28.5607 16.259 29.3798 16.6663 30.3125C16.8087 30.6383 17.0579 30.9057 17.3728 31.0707C17.6877 31.2357 18.0495 31.2884 18.3984 31.2201C39.2658 27.1119 60.7341 27.1119 81.6015 31.2201C81.9504 31.2884 82.3121 31.2357 82.627 31.0707C82.9419 30.9057 83.1911 30.6383 83.3335 30.3125C83.7408 29.3798 84.3697 28.5607 85.1656 27.9263C85.9615 27.2919 86.9002 26.8615 87.9003 26.6725C88.9003 26.4834 89.9314 26.5415 90.9039 26.8415C91.8764 27.1416 92.761 27.6746 93.4806 28.3943C94.2003 29.114 94.7333 29.9985 95.0334 30.971C95.3335 31.9435 95.3915 32.9746 95.2024 33.9746C95.0134 34.9747 94.583 35.9134 93.9486 36.7093C93.3143 37.5052 92.4951 38.1341 91.5624 38.5414C91.2076 38.6965 90.923 38.9778 90.7638 39.3309C90.6046 39.6839 90.5822 40.0835 90.7009 40.4521C94.7458 53.0084 94.7458 65.7416 90.7009 78.2979C90.5822 78.6665 90.6046 79.0661 90.7638 79.4191C90.923 79.7722 91.2076 80.0535 91.5624 80.2086C92.8788 80.7827 93.9574 81.7926 94.6166 83.0686C95.2759 84.3445 95.4756 85.8085 95.1822 87.2144C94.8888 88.6202 94.1202 89.8822 93.0056 90.7879C91.8911 91.6936 90.4986 92.1879 89.0624 92.1875Z" fill="#89AFCE"/>
<path d="M74.7628 82.4741C61.4494 84.523 47.9333 84.9122 34.5241 83.6329C34.3198 83.6133 34.1137 83.6341 33.9175 83.6942C33.7213 83.7542 33.5388 83.8523 33.3805 83.9829C33.2222 84.1135 33.0912 84.274 32.9949 84.4552C32.8986 84.6364 32.839 84.8348 32.8194 85.0391C32.7998 85.2434 32.8206 85.4495 32.8807 85.6457C32.9408 85.8419 33.0389 86.0244 33.1695 86.1827C33.3001 86.341 33.4605 86.472 33.6418 86.5683C33.823 86.6646 34.0214 86.7242 34.2256 86.7438C39.4487 87.2447 44.6926 87.4952 49.9575 87.4952C58.4208 87.494 66.8718 86.8481 75.237 85.5631C75.6435 85.4968 76.0074 85.2727 76.2495 84.9395C76.4916 84.6063 76.5924 84.191 76.5299 83.7839C76.4674 83.3768 76.2467 83.0108 75.9157 82.7656C75.5848 82.5204 75.1704 82.4157 74.7628 82.4745V82.4741Z" fill="#89AFCE"/>
<path d="M54.6875 34.375H57.6865L53.4678 39.6484C53.2838 39.8782 53.1685 40.1553 53.1351 40.4478C53.1017 40.7403 53.1516 41.0362 53.2791 41.3016C53.4066 41.5669 53.6064 41.7909 53.8556 41.9476C54.1047 42.1043 54.3931 42.1875 54.6875 42.1875H60.9375C61.3519 42.1875 61.7493 42.0229 62.0424 41.7299C62.3354 41.4368 62.5 41.0394 62.5 40.625C62.5 40.2106 62.3354 39.8132 62.0424 39.5201C61.7493 39.2271 61.3519 39.0625 60.9375 39.0625H57.9385L62.1572 33.7891C62.3412 33.5593 62.4566 33.2822 62.4899 32.9897C62.5233 32.6972 62.4734 32.4013 62.3459 32.1359C62.2185 31.8706 62.0186 31.6466 61.7695 31.4899C61.5203 31.3332 61.2319 31.25 60.9375 31.25H54.6875C54.2731 31.25 53.8757 31.4146 53.5826 31.7076C53.2896 32.0007 53.125 32.3981 53.125 32.8125C53.125 33.2269 53.2896 33.6243 53.5826 33.9174C53.8757 34.2104 54.2731 34.375 54.6875 34.375Z" fill="#89AFCE"/>
<path d="M68.75 15.625H71.749L67.5303 20.8984C67.3463 21.1282 67.231 21.4053 67.1976 21.6978C67.1642 21.9903 67.2141 22.2862 67.3416 22.5516C67.4691 22.8169 67.6689 23.0409 67.9181 23.1976C68.1672 23.3543 68.4556 23.4375 68.75 23.4375H75C75.4144 23.4375 75.8118 23.2729 76.1049 22.9799C76.3979 22.6868 76.5625 22.2894 76.5625 21.875C76.5625 21.4606 76.3979 21.0632 76.1049 20.7701C75.8118 20.4771 75.4144 20.3125 75 20.3125H72.001L76.2197 15.0391C76.4037 14.8093 76.5191 14.5322 76.5524 14.2397C76.5858 13.9472 76.5359 13.6513 76.4084 13.3859C76.281 13.1206 76.0811 12.8966 75.832 12.7399C75.5828 12.5832 75.2944 12.5 75 12.5H68.75C68.3356 12.5 67.9382 12.6646 67.6451 12.9576C67.3521 13.2507 67.1875 13.6481 67.1875 14.0625C67.1875 14.4769 67.3521 14.8743 67.6451 15.1674C67.9382 15.4604 68.3356 15.625 68.75 15.625Z" fill="#89AFCE"/>
<path d="M49.9998 7.8125H52.9988L48.78 13.0859C48.596 13.3157 48.4807 13.5928 48.4473 13.8853C48.414 14.1778 48.4639 14.4737 48.5913 14.7391C48.7188 15.0044 48.9186 15.2284 49.1678 15.3851C49.417 15.5418 49.7054 15.625 49.9998 15.625H56.2498C56.6642 15.625 57.0616 15.4604 57.3546 15.1674C57.6477 14.8743 57.8123 14.4769 57.8123 14.0625C57.8123 13.6481 57.6477 13.2507 57.3546 12.9576C57.0616 12.6646 56.6642 12.5 56.2498 12.5H53.2507L57.4695 7.22656C57.6535 6.99677 57.7688 6.71967 57.8022 6.4272C57.8356 6.13472 57.7857 5.83876 57.6582 5.57342C57.5307 5.30807 57.3309 5.08413 57.0817 4.9274C56.8325 4.77066 56.5441 4.6875 56.2498 4.6875H49.9998C49.5854 4.6875 49.1879 4.85212 48.8949 5.14515C48.6019 5.43817 48.4373 5.8356 48.4373 6.25C48.4373 6.6644 48.6019 7.06183 48.8949 7.35485C49.1879 7.64788 49.5854 7.8125 49.9998 7.8125Z" fill="#89AFCE"/>
</svg>
