<svg width="25" height="25" viewBox="0 0 25 25" fill="none" xmlns="http://www.w3.org/2000/svg">
<path d="M20.7991 4.34673C18.8905 1.58452 15.8658 0 12.501 0C9.13619 0 6.11143 1.58452 4.20289 4.34673C2.30372 7.09497 1.86519 10.5743 3.0275 13.6483C3.33839 14.4877 3.83258 15.3033 4.49283 16.0676L11.8355 24.6923C12.0016 24.8875 12.2449 25 12.501 25C12.7571 25 13.0004 24.8875 13.1665 24.6923L20.5071 16.0699C21.1703 15.3013 21.6638 14.4866 21.9721 13.6539C23.1368 10.5743 22.6982 7.09497 20.7991 4.34673ZM20.3352 13.0416C20.0975 13.6841 19.7093 14.3193 19.1822 14.9303C19.1808 14.9318 19.1793 14.9333 19.1781 14.935L12.501 22.7777L5.81973 14.9301C5.29293 14.3196 4.90479 13.6845 4.66471 13.0358C3.70347 10.4936 4.06827 7.61685 5.64083 5.34092C7.21832 3.05772 9.71891 1.74824 12.501 1.74824C15.283 1.74824 17.7833 3.05767 19.3608 5.34092C20.9337 7.61685 21.2988 10.4936 20.3352 13.0416Z" fill="white"/>
<path d="M12.5006 5.18646C9.80156 5.18646 7.60547 7.38226 7.60547 10.0816C7.60547 12.7809 9.80127 14.9767 12.5006 14.9767C15.1999 14.9767 17.3957 12.7809 17.3957 10.0816C17.3957 7.38256 15.1996 5.18646 12.5006 5.18646ZM12.5006 13.2284C10.7654 13.2284 9.35371 11.8167 9.35371 10.0815C9.35371 8.34637 10.7654 6.93466 12.5006 6.93466C14.2357 6.93466 15.6475 8.34637 15.6475 10.0815C15.6475 11.8167 14.2357 13.2284 12.5006 13.2284Z" fill="white"/>
</svg>
