<svg width="65" height="65" viewBox="0 0 65 65" fill="none" xmlns="http://www.w3.org/2000/svg">
<path d="M43.6717 24.5233V19.2969C43.6705 18.8262 43.5597 18.3623 43.3482 17.9419C43.1367 17.5215 42.8301 17.1561 42.4529 16.8746L56.5772 2.7493C56.7192 2.60726 56.8159 2.42631 56.8551 2.22933C56.8942 2.03235 56.8741 1.82817 56.7973 1.64262C56.7204 1.45706 56.5903 1.29846 56.4233 1.18686C56.2563 1.07526 56.06 1.01567 55.8592 1.01562H42.656C42.3867 1.01568 42.1284 1.12272 41.938 1.3132L32.4998 10.7514L23.0616 1.3132C22.8712 1.12272 22.6129 1.01568 22.3435 1.01562H9.14041C8.93957 1.01567 8.74325 1.07526 8.57627 1.18686C8.40929 1.29846 8.27915 1.45706 8.2023 1.64262C8.12545 1.82817 8.10533 2.03235 8.1445 2.22933C8.18367 2.42631 8.28037 2.60726 8.42236 2.7493L22.5467 16.8746C22.1694 17.1561 21.8629 17.5215 21.6514 17.9419C21.4398 18.3623 21.3291 18.8262 21.3279 19.2969V24.5233C17.3716 26.9561 14.3175 30.6138 12.6298 34.9408C10.942 39.2677 10.7127 44.0273 11.9769 48.4964C13.241 52.9655 15.9294 56.8999 19.6336 59.7016C23.3378 62.5034 27.8553 64.0195 32.4998 64.0195C37.1442 64.0195 41.6618 62.5034 45.366 59.7016C49.0702 56.8999 51.7586 52.9655 53.0227 48.4964C54.2868 44.0273 54.0576 39.2677 52.3698 34.9408C50.682 30.6138 47.628 26.9561 43.6717 24.5233ZM43.0765 3.04688H53.4074L40.2043 16.25H29.8734L43.0765 3.04688ZM21.9231 3.04688L31.0637 12.1875L27.0012 16.25H24.7953L11.5921 3.04688H21.9231ZM23.3592 19.2969C23.3592 19.0275 23.4662 18.7692 23.6566 18.5787C23.8471 18.3883 24.1054 18.2812 24.3748 18.2812H40.6248C40.8941 18.2812 41.1525 18.3883 41.3429 18.5787C41.5334 18.7692 41.6404 19.0275 41.6404 19.2969V23.4152C38.7891 22.0415 35.6648 21.3282 32.4998 21.3282C29.3348 21.3282 26.2105 22.0415 23.3592 23.4152V19.2969ZM32.4998 61.9531C28.6832 61.9531 24.9524 60.8214 21.779 58.701C18.6057 56.5807 16.1323 53.5669 14.6718 50.0408C13.2113 46.5148 12.8291 42.6348 13.5737 38.8916C14.3183 35.1484 16.1561 31.71 18.8548 29.0113C21.5535 26.3126 24.9919 24.4747 28.7351 23.7302C32.4784 22.9856 36.3583 23.3677 39.8844 24.8283C43.4104 26.2888 46.4242 28.7621 48.5445 31.9355C50.6649 35.1088 51.7967 38.8397 51.7967 42.6562C51.791 47.7724 49.7561 52.6773 46.1385 56.295C42.5209 59.9126 37.6159 61.9475 32.4998 61.9531Z" fill="#89AFCE"/>
<path d="M32.5 27.4219C29.4869 27.4219 26.5415 28.3154 24.0362 29.9893C21.531 31.6633 19.5783 34.0426 18.4253 36.8263C17.2722 39.61 16.9705 42.6731 17.5584 45.6283C18.1462 48.5835 19.5971 51.298 21.7277 53.4286C23.8582 55.5591 26.5727 57.0101 29.5279 57.5979C32.4831 58.1857 35.5462 57.884 38.3299 56.731C41.1137 55.5779 43.4929 53.6253 45.1669 51.12C46.8409 48.6147 47.7344 45.6693 47.7344 42.6562C47.7298 38.6172 46.1233 34.745 43.2673 31.889C40.4113 29.033 36.539 27.4264 32.5 27.4219ZM32.5 55.8594C29.8887 55.8594 27.336 55.085 25.1647 53.6342C22.9935 52.1835 21.3012 50.1214 20.3019 47.7089C19.3026 45.2963 19.0411 42.6416 19.5506 40.0804C20.06 37.5193 21.3175 35.1667 23.164 33.3202C25.0105 31.4737 27.363 30.2163 29.9242 29.7068C32.4854 29.1974 35.1401 29.4588 37.5526 30.4582C39.9652 31.4575 42.0272 33.1497 43.478 35.321C44.9288 37.4922 45.7031 40.0449 45.7031 42.6562C45.6991 46.1567 44.3068 49.5126 41.8316 51.9878C39.3564 54.463 36.0005 55.8553 32.5 55.8594Z" fill="#89AFCE"/>
<path d="M40.6255 39.6093H35.264L33.4633 34.2103C33.3965 34.0071 33.2673 33.8302 33.094 33.7047C32.9208 33.5793 32.7123 33.5118 32.4984 33.5118C32.2846 33.5118 32.0761 33.5793 31.9029 33.7047C31.7296 33.8302 31.6004 34.0071 31.5336 34.2103L29.737 39.6093H24.3755C24.165 39.6092 23.9596 39.6746 23.7879 39.7963C23.6161 39.918 23.4864 40.09 23.4167 40.2887C23.347 40.4873 23.3407 40.7027 23.3988 40.905C23.4568 41.1074 23.5763 41.2867 23.7407 41.4182L28.2348 45.0094L26.4829 49.3888C26.404 49.5863 26.3891 49.8035 26.4402 50.01C26.4914 50.2164 26.6061 50.4015 26.7681 50.5393C26.9301 50.6771 27.1312 50.7605 27.3432 50.7779C27.5552 50.7952 27.7672 50.7456 27.9495 50.636L32.5005 47.9029L37.0556 50.636C37.2378 50.7456 37.4499 50.7952 37.6618 50.7779C37.8738 50.7605 38.0749 50.6771 38.2369 50.5393C38.3989 50.4015 38.5136 50.2164 38.5648 50.01C38.6159 49.8035 38.601 49.5863 38.5221 49.3888L36.7661 45.0094L41.2562 41.4182C41.4203 41.2869 41.5397 41.108 41.5979 40.906C41.656 40.704 41.6501 40.489 41.5809 40.2906C41.5117 40.0921 41.3826 39.92 41.2115 39.798C41.0404 39.676 40.8356 39.6101 40.6255 39.6093ZM34.9126 43.8943C34.7431 44.0309 34.622 44.2183 34.5672 44.429C34.5123 44.6396 34.5266 44.8623 34.6079 45.0642L35.522 47.3433L33.0296 45.8483C32.8717 45.7534 32.6908 45.7033 32.5066 45.7033C32.3223 45.7033 32.1415 45.7534 31.9835 45.8483L29.4912 47.3433L30.4052 45.0642C30.4865 44.8623 30.5008 44.6396 30.446 44.429C30.3911 44.2183 30.27 44.0309 30.1006 43.8943L27.271 41.6406H30.4692C30.6823 41.6404 30.8899 41.5732 31.0627 41.4486C31.2355 41.3239 31.3647 41.148 31.432 40.9459L32.5005 37.7426L33.5689 40.9459C33.6362 41.148 33.7654 41.3239 33.9382 41.4486C34.111 41.5732 34.3187 41.6404 34.5317 41.6406H37.7299L34.9126 43.8943Z" fill="#89AFCE"/>
<path d="M62.9688 27.4219C61.6224 27.4203 60.3317 26.8847 59.3798 25.9327C58.4278 24.9808 57.8922 23.6901 57.8906 22.3438C57.8906 22.0744 57.7836 21.8161 57.5932 21.6256C57.4027 21.4351 57.1444 21.3281 56.875 21.3281C56.6056 21.3281 56.3473 21.4351 56.1568 21.6256C55.9664 21.8161 55.8594 22.0744 55.8594 22.3438C55.8578 23.6901 55.3222 24.9808 54.3702 25.9327C53.4183 26.8847 52.1276 27.4203 50.7812 27.4219C50.5119 27.4219 50.2536 27.5289 50.0631 27.7193C49.8726 27.9098 49.7656 28.1681 49.7656 28.4375C49.7656 28.7069 49.8726 28.9652 50.0631 29.1557C50.2536 29.3461 50.5119 29.4531 50.7812 29.4531C52.1276 29.4547 53.4183 29.9903 54.3702 30.9423C55.3222 31.8942 55.8578 33.1849 55.8594 34.5312C55.8594 34.8006 55.9664 35.0589 56.1568 35.2494C56.3473 35.4399 56.6056 35.5469 56.875 35.5469C57.1444 35.5469 57.4027 35.4399 57.5932 35.2494C57.7836 35.0589 57.8906 34.8006 57.8906 34.5312C57.8922 33.1849 58.4278 31.8942 59.3798 30.9423C60.3317 29.9903 61.6224 29.4547 62.9688 29.4531C63.2381 29.4531 63.4964 29.3461 63.6869 29.1557C63.8774 28.9652 63.9844 28.7069 63.9844 28.4375C63.9844 28.1681 63.8774 27.9098 63.6869 27.7193C63.4964 27.5289 63.2381 27.4219 62.9688 27.4219ZM56.875 30.875C56.2726 29.8765 55.436 29.0399 54.4375 28.4375C55.436 27.8351 56.2726 26.9985 56.875 26C57.4774 26.9985 58.314 27.8351 59.3125 28.4375C58.314 29.0399 57.4774 29.8765 56.875 30.875Z" fill="#89AFCE"/>
<path d="M54.8438 9.14062C54.8438 8.87126 54.7367 8.61294 54.5463 8.42247C54.3558 8.232 54.0975 8.125 53.8281 8.125C53.5588 8.125 53.3004 8.232 53.11 8.42247C52.9195 8.61294 52.8125 8.87126 52.8125 9.14062C52.8109 10.4869 52.2754 11.7776 51.3234 12.7296C50.3714 13.6816 49.0807 14.2171 47.7344 14.2188C47.465 14.2188 47.2067 14.3258 47.0162 14.5162C46.8258 14.7067 46.7188 14.965 46.7188 15.2344C46.7188 15.5037 46.8258 15.7621 47.0162 15.9525C47.2067 16.143 47.465 16.25 47.7344 16.25C49.0807 16.2516 50.3714 16.7871 51.3234 17.7391C52.2754 18.6911 52.8109 19.9818 52.8125 21.3281C52.8125 21.5975 52.9195 21.8558 53.11 22.0463C53.3004 22.2367 53.5588 22.3438 53.8281 22.3438C54.0975 22.3438 54.3558 22.2367 54.5463 22.0463C54.7367 21.8558 54.8438 21.5975 54.8438 21.3281C54.8454 19.9818 55.3809 18.6911 56.3329 17.7391C57.2849 16.7871 58.5756 16.2516 59.9219 16.25C60.1912 16.25 60.4496 16.143 60.64 15.9525C60.8305 15.7621 60.9375 15.5037 60.9375 15.2344C60.9375 14.965 60.8305 14.7067 60.64 14.5162C60.4496 14.3258 60.1912 14.2188 59.9219 14.2188C58.5756 14.2171 57.2849 13.6816 56.3329 12.7296C55.3809 11.7776 54.8454 10.4869 54.8438 9.14062ZM53.8281 17.6719C53.2257 16.6734 52.3891 15.8368 51.3906 15.2344C52.3891 14.632 53.2257 13.7953 53.8281 12.7969C54.4305 13.7953 55.2672 14.632 56.2656 15.2344C55.2672 15.8368 54.4305 16.6734 53.8281 17.6719Z" fill="#89AFCE"/>
<path d="M15.2344 28.4375C15.2344 28.1681 15.1274 27.9098 14.9369 27.7193C14.7464 27.5289 14.4881 27.4219 14.2188 27.4219C12.8724 27.4203 11.5817 26.8847 10.6298 25.9327C9.67777 24.9808 9.14224 23.6901 9.14062 22.3438C9.14062 22.0744 9.03362 21.8161 8.84315 21.6256C8.65269 21.4351 8.39436 21.3281 8.125 21.3281C7.85564 21.3281 7.59731 21.4351 7.40685 21.6256C7.21638 21.8161 7.10938 22.0744 7.10938 22.3438C7.10776 23.6901 6.57223 24.9808 5.62025 25.9327C4.66826 26.8847 3.37756 27.4203 2.03125 27.4219C1.76189 27.4219 1.50356 27.5289 1.31309 27.7193C1.12263 27.9098 1.01563 28.1681 1.01562 28.4375C1.01563 28.7069 1.12263 28.9652 1.31309 29.1557C1.50356 29.3461 1.76189 29.4531 2.03125 29.4531C3.37756 29.4547 4.66826 29.9903 5.62025 30.9423C6.57223 31.8942 7.10776 33.1849 7.10938 34.5312C7.10938 34.8006 7.21638 35.0589 7.40685 35.2494C7.59731 35.4399 7.85564 35.5469 8.125 35.5469C8.39436 35.5469 8.65269 35.4399 8.84315 35.2494C9.03362 35.0589 9.14062 34.8006 9.14062 34.5312C9.14224 33.1849 9.67777 31.8942 10.6298 30.9423C11.5817 29.9903 12.8724 29.4547 14.2188 29.4531C14.4881 29.4531 14.7464 29.3461 14.9369 29.1557C15.1274 28.9652 15.2344 28.7069 15.2344 28.4375ZM8.125 30.875C7.52261 29.8765 6.68597 29.0399 5.6875 28.4375C6.68597 27.8351 7.52261 26.9985 8.125 26C8.72739 26.9985 9.56403 27.8351 10.5625 28.4375C9.56403 29.0399 8.72739 29.8765 8.125 30.875Z" fill="#89AFCE"/>
<path d="M4.0625 15.2344C4.0625 15.5037 4.1695 15.7621 4.35997 15.9525C4.55044 16.143 4.80876 16.25 5.07812 16.25C6.42443 16.2516 7.71514 16.7871 8.66712 17.7391C9.6191 18.6911 10.1546 19.9818 10.1562 21.3281C10.1562 21.5975 10.2633 21.8558 10.4537 22.0463C10.6442 22.2367 10.9025 22.3438 11.1719 22.3438C11.4412 22.3438 11.6996 22.2367 11.89 22.0463C12.0805 21.8558 12.1875 21.5975 12.1875 21.3281C12.1891 19.9818 12.7246 18.6911 13.6766 17.7391C14.6286 16.7871 15.9193 16.2516 17.2656 16.25C17.535 16.25 17.7933 16.143 17.9838 15.9525C18.1742 15.7621 18.2812 15.5037 18.2812 15.2344C18.2812 14.965 18.1742 14.7067 17.9838 14.5162C17.7933 14.3258 17.535 14.2188 17.2656 14.2188C15.9193 14.2171 14.6286 13.6816 13.6766 12.7296C12.7246 11.7776 12.1891 10.4869 12.1875 9.14062C12.1875 8.87126 12.0805 8.61294 11.89 8.42247C11.6996 8.232 11.4412 8.125 11.1719 8.125C10.9025 8.125 10.6442 8.232 10.4537 8.42247C10.2633 8.61294 10.1562 8.87126 10.1562 9.14062C10.1546 10.4869 9.6191 11.7776 8.66712 12.7296C7.71514 13.6816 6.42443 14.2171 5.07812 14.2188C4.80876 14.2188 4.55044 14.3258 4.35997 14.5162C4.1695 14.7067 4.0625 14.965 4.0625 15.2344ZM11.1719 12.7969C11.7743 13.7953 12.6109 14.632 13.6094 15.2344C12.6109 15.8368 11.7743 16.6734 11.1719 17.6719C10.5695 16.6734 9.73285 15.8368 8.73438 15.2344C9.73285 14.632 10.5695 13.7953 11.1719 12.7969Z" fill="#89AFCE"/>
</svg>
