<svg width="25" height="25" viewBox="0 0 25 25" fill="none" xmlns="http://www.w3.org/2000/svg">
<g clip-path="url(#clip0_286_1406)">
<path d="M1.41812 7.14272C1.7661 7.14918 2.11139 7.20437 2.44402 7.30669C2.62455 7.36529 2.74338 7.53757 2.73413 7.72714V8.82452C3.54891 9.35339 4.50948 9.61229 5.47967 9.56451C5.76137 9.56451 5.98421 9.56451 6.11455 9.53508L8.86429 6.93249C9.07446 6.75412 9.34612 6.66509 9.6211 6.68443C11.1137 6.68443 14.5235 8.36623 16.3231 9.42156C18.459 10.6829 22.7896 11.4145 22.8316 11.4229L22.9199 11.4481C25.1105 12.3563 25.1651 14.1642 24.875 15.0304C24.2696 18.1375 17.4204 18.3183 15.8606 18.3183H0.842107C0.609913 18.3183 0.421657 18.13 0.421657 17.8978V15.6568C0.202392 15.4039 0.0569694 15.0955 0.00120727 14.7655C-0.000369422 14.7445 -0.000369422 14.7234 0.00120727 14.7024V8.39566C0.0138208 7.60521 0.547792 7.14272 1.41812 7.14272ZM18.173 11.1412L17.6181 12.1503C17.502 12.3535 17.2431 12.424 17.0399 12.308C16.8368 12.1919 16.7662 11.933 16.8823 11.7298L17.3742 10.8343C17.0168 10.6955 16.6762 10.5484 16.3609 10.3886L15.6588 11.4607C15.5343 11.6568 15.2744 11.7148 15.0784 11.5902C14.8824 11.4657 14.8244 11.2059 14.9489 11.0099C14.9514 11.006 14.954 11.0021 14.9566 10.9983L15.6209 9.98502C15.3182 9.81263 15.0071 9.64025 14.6833 9.47207L13.8424 10.6998C13.72 10.8971 13.4608 10.9578 13.2635 10.8353C13.0662 10.7129 13.0055 10.4537 13.1279 10.2564C13.1356 10.244 13.1439 10.232 13.1529 10.2205L13.9433 9.08525C13.5691 8.90025 13.1907 8.71946 12.8249 8.55548L11.8411 9.98502C11.7122 10.1782 11.4512 10.2303 11.258 10.1015C11.0648 9.97261 11.0126 9.71157 11.1415 9.51837C11.1434 9.51553 11.1453 9.51269 11.1473 9.50991L12.0218 8.24856C11.2658 7.89291 10.4584 7.65877 9.62945 7.55481C9.56949 7.54667 9.50863 7.54667 9.44866 7.55481L7.76686 9.1315C9.42685 11.3575 11.7405 13.0097 14.3847 13.8574C15.548 13.4785 16.7469 13.2193 17.9628 13.0837C19.0441 13.0078 20.074 12.5929 20.9059 11.8981C20.0651 11.713 19.1106 11.4607 18.173 11.1412ZM22.6466 12.2554C22.5415 12.2554 22.2724 12.1881 21.9024 12.1124C20.8616 13.1696 19.4718 13.8122 17.9923 13.9204C16.609 13.9877 13.6911 14.9211 11.6855 15.6022H13.5271C21.1414 15.6316 23.4287 15.0304 24.1098 14.6099C24.2065 14.2315 24.341 12.966 22.6466 12.2554ZM1.26256 17.4732H15.6588C17.5087 17.4984 21.9193 17.2083 23.5001 15.762C22.1883 16.1109 19.4596 16.4725 13.5018 16.4725C12.106 16.4725 10.6974 16.4725 9.36042 16.4221C8.09907 16.3926 6.9092 16.3548 5.84546 16.3127C3.2639 16.216 1.46017 16.1109 1.43914 16.1067C1.38033 16.1107 1.32137 16.1107 1.26256 16.1067V17.4732ZM0.842107 14.6646C0.867334 14.7865 0.997673 15.27 1.47278 15.27C1.50221 15.27 3.04526 15.3625 5.31149 15.455C4.50002 12.5707 1.92687 11.6163 0.842107 11.343V14.6646ZM6.19443 15.4887C7.14885 15.5223 8.19998 15.5559 9.30156 15.5812C9.67576 15.4382 11.2651 14.8496 13.0478 14.2778C10.7181 13.3063 8.68712 11.7352 7.16147 9.72428L6.61068 10.2541C6.54798 10.3129 6.46872 10.351 6.38364 10.3634C6.08948 10.4016 5.79311 10.4199 5.49649 10.418C4.48741 10.418 3.07049 10.2246 2.0488 9.30804C1.96071 9.22857 1.91031 9.11552 1.91005 8.9969V8.03407C1.75501 8.00254 1.59734 7.98562 1.43914 7.98362C0.863129 7.98362 0.854721 8.23589 0.850516 8.40407L0.842107 10.4811C1.9563 10.746 5.3241 11.8307 6.19443 15.4887Z" fill="#828181"/>
</g>
<defs>
<clipPath id="clip0_286_1406">
<rect width="25" height="25" fill="white" transform="matrix(-1 0 0 1 25 0)"/>
</clipPath>
</defs>
</svg>
