<svg width="25" height="25" viewBox="0 0 25 25" fill="none" xmlns="http://www.w3.org/2000/svg">
<path d="M19.2129 7.47905C19.1769 7.28291 19.1195 7.09233 19.0388 6.9126C18.8688 6.53398 18.1364 5.33638 16.9866 3.52642C16.9866 3.52632 16.9865 3.52627 16.9864 3.52617C16.9747 3.50762 16.9653 3.49287 16.9425 3.45698C16.4828 2.73369 15.9904 1.96611 15.498 1.20337C15.3257 0.936426 15.1656 0.68916 15.022 0.467676C14.9358 0.334766 14.8742 0.239941 14.8413 0.189355C14.7644 0.0712402 14.633 0 14.492 0H6.15871C5.77405 0 5.59485 0.476709 5.8842 0.730127C5.90388 0.747363 5.93786 0.777051 5.98186 0.815283C6.05515 0.879004 6.12883 0.942773 6.19831 1.00244C6.41701 1.18999 6.51697 1.2729 6.57698 1.30928C7.46867 1.84385 8.11223 2.38394 9.50471 3.68345C10.3765 4.49702 10.8043 4.88115 11.3149 5.28491C11.3507 5.31333 11.3866 5.3416 11.4226 5.36973C11.555 5.47275 11.6731 5.56011 11.8415 5.67935C11.9306 5.74248 12.0335 5.81431 12.1603 5.90229C12.5825 6.19531 12.7638 6.32617 12.973 6.49526C13.0667 6.571 13.1565 6.64644 13.242 6.72148C13.5218 6.96719 13.753 7.20786 13.9097 7.43975C14.0074 7.58433 14.0593 7.68267 14.0669 7.75664C14.0698 7.78467 14.0667 7.80947 14.0568 7.83159C14.0351 7.87993 13.9831 7.91694 13.901 7.95474C12.721 8.49868 12.1125 9.17632 11.5209 10.4913C11.4132 10.7308 11.3022 10.9972 11.164 11.3445C11.0845 11.5444 10.7791 12.3263 10.7704 12.3485C10.6265 12.7153 10.4703 13.0686 10.3051 13.4045C10.3043 13.4061 10.3035 13.4076 10.3028 13.4092C10.3026 13.4096 10.3023 13.4101 10.3021 13.4105C9.56291 14.9112 8.64421 16.061 7.84284 16.4943C7.67146 16.587 7.50525 16.6476 7.34753 16.671C6.57732 16.7854 6.13059 17.0478 5.99065 17.5387C5.95935 17.6484 5.9428 17.7477 5.94206 17.8549C5.9404 18.0907 6.01526 18.3654 6.17839 18.8766C6.29934 19.2561 6.34099 19.7526 6.32019 20.291C6.31833 20.3393 6.3156 20.3882 6.31272 20.4372C6.31203 20.4488 6.31169 20.4602 6.31096 20.4718C6.28796 20.8362 6.23806 21.2155 6.16623 21.5875C6.15139 21.6643 6.14035 21.7448 6.13288 21.8284C6.02141 23.0808 6.72815 25 7.82536 25C8.35076 25 8.70862 24.886 8.91443 24.6466C9.02346 24.5197 9.07302 24.3799 9.07966 24.2455C9.08191 24.2007 9.07937 24.1566 9.07268 24.1137C8.95974 23.727 8.90359 23.3455 8.89914 22.9614C8.89646 22.731 8.91238 22.4996 8.94577 22.2655C8.97351 22.0714 9.01135 21.8773 9.0594 21.6816C9.23435 20.9695 9.54568 20.2345 10.0033 19.3966C10.0907 19.2366 10.1832 19.0731 10.2814 18.9052C10.3801 18.736 10.4832 18.5677 10.5899 18.4002C11.1053 17.5913 11.7113 16.8023 12.3901 16.0502C12.5942 15.8239 12.784 15.6201 13.0101 15.3852C13.2838 15.101 13.6111 14.7712 14.083 14.3C14.4362 13.9472 14.5931 13.7899 14.786 13.594C14.8163 13.5633 14.8163 13.5633 14.8466 13.5325L14.9324 13.4454C15.8471 12.5168 16.4372 11.9269 16.974 11.4167C17.2297 11.1738 17.4733 10.9488 17.7341 10.7142C17.7752 10.6772 17.7752 10.6772 17.8031 10.6521C18.2573 10.2434 18.4741 10.0265 18.6961 9.72554C18.8911 9.46147 19.0377 9.15894 19.1323 8.84048C19.264 8.39761 19.2946 7.92388 19.2129 7.47905ZM14.3378 12.8614L14.2529 12.9476C14.2226 12.9783 14.2226 12.9783 14.1923 13.0091C14.0024 13.202 13.8464 13.3584 13.5046 13.6997C13.0452 14.1585 12.7201 14.486 12.4483 14.7673C12.1987 15.0257 11.9939 15.2452 11.7715 15.4917C11.0544 16.2862 10.4141 17.1215 9.86926 17.9808C9.76326 18.1479 9.66047 18.3159 9.56189 18.4847C9.46418 18.6519 9.3716 18.8153 9.28371 18.9757C8.78811 19.8794 8.44685 20.6827 8.25149 21.4776C8.1966 21.7009 8.15295 21.9235 8.12092 22.1475C8.09055 22.3604 8.07243 22.5723 8.06682 22.7821C8.06667 22.7881 8.06667 22.7941 8.06657 22.8002C8.06574 22.8361 8.06511 22.8719 8.06501 22.9077C8.06384 23.3254 8.11301 23.734 8.21477 24.1257C8.12668 24.1511 7.99782 24.1665 7.82551 24.1665C7.57219 24.1665 7.28962 23.65 7.11794 23.0578C7.11496 23.0475 7.11223 23.0371 7.10935 23.0268C7.00041 22.6406 6.93904 22.2258 6.96404 21.9027C6.96833 21.8475 6.97512 21.795 6.98464 21.7457C7.09255 21.187 7.15647 20.6164 7.15989 20.0805C7.16335 19.5447 7.10637 19.0435 6.97253 18.6234C6.82995 18.1766 6.77761 17.9696 6.78122 17.8436C6.78205 17.8145 6.78591 17.7897 6.79226 17.7673C6.82141 17.665 6.98825 17.5671 7.47009 17.4955C7.68034 17.4642 7.89382 17.394 8.10827 17.2908C9.16545 16.7819 10.246 15.4425 11.0844 13.7096C11.2482 13.3711 11.4031 13.0181 11.5464 12.6529C11.5549 12.631 11.86 11.8501 11.9385 11.6526C12.0725 11.3158 12.1791 11.0598 12.281 10.8333C12.7952 9.69048 13.2674 9.16465 14.2499 8.71167C14.4274 8.62983 14.566 8.53076 14.6694 8.41856C14.8495 8.22324 14.9218 7.98779 14.9001 7.73237C14.8796 7.49111 14.7756 7.23218 14.6001 6.97275C14.391 6.66348 14.1089 6.37124 13.7719 6.07803C13.6838 6.00127 13.5927 5.92446 13.4971 5.84712C13.2661 5.66035 13.0736 5.52148 12.646 5.22485C12.5318 5.14561 12.4376 5.07993 12.3565 5.02271C12.1783 4.89697 12.0626 4.81162 11.935 4.71221C11.9255 4.70483 11.9161 4.69746 11.9067 4.69014C11.6994 4.52778 11.496 4.35967 11.2737 4.1665H16.4059C17.4492 5.81226 18.1396 6.94424 18.2787 7.254C18.5469 7.85166 18.4373 8.67324 18.0258 9.23032C17.8472 9.47227 17.6564 9.66333 17.2459 10.0323C17.2115 10.0632 17.2115 10.0632 17.1769 10.0943C16.7242 10.5018 16.3236 10.8791 15.8291 11.365C15.4216 11.7653 14.9521 12.2378 14.3378 12.8614ZM7.38786 0.83335H14.2658C14.2834 0.860449 14.3024 0.889746 14.3228 0.921191C14.4661 1.14219 14.6259 1.38896 14.7979 1.65542C15.1615 2.21875 15.5252 2.78462 15.8755 3.3332H10.3514C10.266 3.25396 10.1761 3.17031 10.0805 3.08105C8.83493 1.91855 8.1635 1.33911 7.38786 0.83335Z" fill="#828181"/>
</svg>
