<svg width="100" height="100" viewBox="0 0 100 100" fill="none" xmlns="http://www.w3.org/2000/svg">
<path d="M46.1869 50.6088C46.1865 50.6098 46.1861 50.6107 46.1857 50.6117C46.1844 50.6152 46.1844 50.6156 46.1869 50.6088Z" fill="#89AFCE"/>
<path d="M76.8524 29.9162C76.7084 29.1316 76.4786 28.3693 76.1561 27.6504C75.476 26.1359 72.5463 21.3455 67.9473 14.1057C67.9471 14.1053 67.9469 14.1051 67.9465 14.1047C67.8995 14.0305 67.862 13.9715 67.7707 13.8279C65.9319 10.9348 63.9622 7.86445 61.9926 4.81348C61.3034 3.7457 60.6631 2.75664 60.0887 1.8707C59.7438 1.33906 59.4975 0.959766 59.3659 0.757422C59.0582 0.284961 58.5327 0 57.9688 0H24.6356C23.0969 0 22.3801 1.90684 23.5375 2.92051C23.6163 2.98945 23.7522 3.1082 23.9282 3.26113C24.2213 3.51602 24.5161 3.77109 24.794 4.00977C25.6688 4.75996 26.0686 5.0916 26.3086 5.23711C29.8754 7.37539 32.4496 9.53574 38.0196 14.7338C41.5067 17.9881 43.218 19.5246 45.2604 21.1396C45.4036 21.2533 45.5471 21.3664 45.6912 21.4789C46.2205 21.891 46.6932 22.2404 47.3668 22.7174C47.7233 22.9699 48.1346 23.2572 48.6418 23.6092C50.3307 24.7812 51.0561 25.3047 51.8928 25.9811C52.2676 26.284 52.6268 26.5857 52.9688 26.8859C54.0877 27.8688 55.0125 28.8314 55.6395 29.759C56.0305 30.3373 56.2379 30.7307 56.2684 31.0266C56.2799 31.1387 56.2676 31.2379 56.228 31.3264C56.1413 31.5197 55.933 31.6678 55.6047 31.8189C50.8848 33.9947 48.4508 36.7053 46.0844 41.965C45.6534 42.9232 45.2096 43.9889 44.6569 45.3779C44.3387 46.1775 43.117 49.3051 43.0825 49.3939C42.5069 50.8611 41.8819 52.2744 41.2209 53.618C41.2178 53.6242 41.2149 53.6305 41.212 53.6367C41.211 53.6385 41.21 53.6404 41.2092 53.6422C38.2524 59.6449 34.5776 64.2439 31.3721 65.9773C30.6866 66.3478 30.0217 66.5904 29.3909 66.684C26.31 67.1418 24.5231 68.1912 23.9633 70.1547C23.8381 70.5938 23.7719 70.9906 23.769 71.4195C23.7623 72.3629 24.0618 73.4615 24.7143 75.5064C25.1981 77.0244 25.3647 79.0105 25.2815 81.1639C25.2741 81.3572 25.2631 81.5529 25.2516 81.7488C25.2489 81.7953 25.2475 81.8408 25.2446 81.8873C25.1526 83.3449 24.953 84.8621 24.6657 86.3498C24.6063 86.657 24.5621 86.9793 24.5323 87.3135C24.0864 92.3231 26.9133 100 31.3022 100C33.4038 100 34.8352 99.5441 35.6584 98.5863C36.0946 98.0789 36.2928 97.5195 36.3194 96.982C36.3284 96.8029 36.3182 96.6264 36.2914 96.4547C35.8397 94.908 35.6151 93.382 35.5973 91.8455C35.5866 90.9238 35.6502 89.9982 35.7838 89.0619C35.8948 88.2857 36.0461 87.5094 36.2383 86.7264C36.9381 83.8779 38.1834 80.9379 40.0141 77.5863C40.3637 76.9465 40.7334 76.2926 41.1262 75.6207C41.5211 74.9441 41.9336 74.2709 42.3604 73.6008C44.4221 70.365 46.8459 67.2094 49.5612 64.2008C50.3774 63.2957 51.1366 62.4803 52.0413 61.5406C53.136 60.4041 54.445 59.0848 56.3327 57.1998C57.7455 55.7887 58.3731 55.1596 59.1448 54.376C59.2659 54.2531 59.2659 54.2531 59.3871 54.1301L59.7303 53.7816C63.3893 50.0672 65.7497 47.7074 67.8965 45.667C68.9194 44.6951 69.894 43.7953 70.9371 42.8566C71.1016 42.7088 71.1016 42.7088 71.2131 42.6084C73.0301 40.9734 73.8973 40.1059 74.7852 38.9021C75.5651 37.8459 76.1514 36.6357 76.5301 35.3619C77.0567 33.5904 77.1789 31.6955 76.8524 29.9162ZM57.3518 51.4455L57.0123 51.7902C56.8911 51.9133 56.8911 51.9133 56.77 52.0363C56.0102 52.808 55.3862 53.4336 54.0192 54.7988C52.1817 56.634 50.8813 57.9439 49.794 59.0693C48.7954 60.1027 47.9762 60.9809 47.0866 61.9668C44.2184 65.1449 41.6573 68.4859 39.4778 71.9232C39.0537 72.5918 38.6426 73.2635 38.2483 73.9387C37.8575 74.6076 37.4871 75.2613 37.1356 75.9027C35.1532 79.5176 33.7881 82.7307 33.0067 85.9103C32.7871 86.8035 32.6125 87.6939 32.4844 88.59C32.3629 89.4418 32.2905 90.2893 32.268 91.1283C32.2674 91.1525 32.2674 91.1766 32.267 91.2008C32.2637 91.3443 32.2612 91.4877 32.2608 91.6307C32.2561 93.3016 32.4528 94.9361 32.8598 96.5029C32.5075 96.6043 31.992 96.666 31.3028 96.666C30.2895 96.666 29.1592 94.6002 28.4725 92.2312C28.4606 92.19 28.4496 92.1484 28.4381 92.107C28.0024 90.5623 27.7569 88.9031 27.8569 87.6109C27.8741 87.39 27.9012 87.1799 27.9393 86.9828C28.3709 84.7478 28.6266 82.4656 28.6403 80.3221C28.6541 78.1787 28.4262 76.174 27.8909 74.4936C27.3205 72.7065 27.1112 71.8783 27.1256 71.3742C27.1289 71.258 27.1444 71.1588 27.1698 71.0691C27.2864 70.6602 27.9538 70.2684 29.8811 69.9818C30.7221 69.8568 31.576 69.5762 32.4338 69.1631C36.6625 67.1275 40.9846 61.7699 44.3383 54.8385C44.9936 53.4844 45.6131 52.0725 46.1864 50.6115C46.2204 50.524 47.4407 47.4004 47.7547 46.6105C48.2907 45.2633 48.7172 44.2393 49.1248 43.3332C51.1815 38.7619 53.0702 36.6586 57.0004 34.8467C57.7102 34.5193 58.2647 34.123 58.6784 33.6742C59.3987 32.893 59.6881 31.9512 59.6012 30.9295C59.5192 29.9645 59.103 28.9287 58.4012 27.891C57.5647 26.6539 56.4364 25.485 55.0885 24.3121C54.736 24.0051 54.3717 23.6979 53.9893 23.3885C53.0651 22.6414 52.2952 22.0859 50.5848 20.8994C50.1278 20.5824 49.7512 20.3197 49.4266 20.0908C48.7139 19.5879 48.251 19.2465 47.7407 18.8488C47.7028 18.8193 47.6653 18.7898 47.6276 18.7605C46.7983 18.1111 45.9848 17.4387 45.0954 16.666H65.6245C69.7975 23.249 72.559 27.777 73.1155 29.016C74.1885 31.4066 73.7498 34.693 72.1037 36.9213C71.3897 37.8891 70.6262 38.6533 68.9844 40.1291C68.8467 40.2527 68.8467 40.2527 68.7084 40.3771C66.8977 42.0072 65.295 43.5164 63.317 45.4602C61.687 47.0611 59.809 48.9512 57.3518 51.4455ZM29.5522 3.3334H57.0641C57.1344 3.4418 57.2104 3.55898 57.292 3.68477C57.8653 4.56875 58.5041 5.55586 59.1922 6.62168C60.6469 8.875 62.1014 11.1385 63.5028 13.3328H41.4063C41.0649 13.0158 40.7053 12.6812 40.3229 12.3242C35.3405 7.67422 32.6547 5.35645 29.5522 3.3334Z" fill="#89AFCE"/>
</svg>
