<svg width="17" height="17" viewBox="0 0 17 17" fill="none" xmlns="http://www.w3.org/2000/svg">
<path d="M6.64714 1.8541C7.24585 0.0114818 9.85267 0.0114803 10.4514 1.8541L11.0326 3.64295C11.3004 4.46699 12.0683 5.02491 12.9347 5.02491H14.8156C16.7531 5.02491 17.5586 7.50414 15.9912 8.64295L14.4695 9.74851C13.7685 10.2578 13.4752 11.1605 13.743 11.9846L14.3242 13.7734C14.9229 15.616 12.8139 17.1483 11.2465 16.0095L9.72483 14.9039C9.02385 14.3946 8.07466 14.3946 7.37369 14.9039L5.85201 16.0095C4.28458 17.1483 2.17562 15.616 2.77432 13.7734L3.35555 11.9846C3.6233 11.1605 3.32998 10.2578 2.62901 9.74851L1.10733 8.64295C-0.460098 7.50414 0.345451 5.02491 2.2829 5.02491H4.1638C5.03025 5.02491 5.79816 4.46699 6.06591 3.64295L6.64714 1.8541Z" fill="#FFF500"/>
</svg>
