<svg width="100" height="100" viewBox="0 0 100 100" fill="none" xmlns="http://www.w3.org/2000/svg">
<path d="M33.3333 0C19.5262 0 8.33325 11.1929 8.33325 25V43.3333C8.34054 49.7735 13.5597 54.9927 19.9999 55H21.6666V51.6667H19.9999C15.3999 51.6612 11.672 47.9333 11.6666 43.3333V25C11.6666 13.0337 21.367 3.33333 33.3333 3.33333C45.2995 3.33333 54.9999 13.0337 54.9999 25V43.3333C54.9945 47.9333 51.2666 51.6612 46.6666 51.6667H44.9999V55H46.6666C53.1068 54.9927 58.326 49.7735 58.3333 43.3333V25C58.3333 11.1929 47.1403 0 33.3333 0Z" fill="#89AFCE"/>
<path d="M13.7351 78.5483L14.9534 76.63L12.1384 74.8433L10.9201 76.7633C7.23531 82.57 7.50885 90.0467 11.6084 95.5683V100H14.9418V95C14.942 94.6215 14.8132 94.254 14.5768 93.9583C11.0334 89.5287 10.6953 83.3375 13.7351 78.5483Z" fill="#89AFCE"/>
<path d="M91.6667 0H70.0001C65.4001 0.00541667 61.6722 3.73333 61.6667 8.33333V25C61.6722 29.6 65.4001 33.3279 70.0001 33.3333H73.3334V40C73.3332 40.674 73.739 41.2819 74.3617 41.54C74.564 41.6244 74.7809 41.6673 75.0001 41.6667C75.4422 41.6667 75.8659 41.4908 76.1784 41.1783L84.0234 33.3333H91.6667C96.2667 33.3279 99.9947 29.6 100 25V8.33333C99.9947 3.73333 96.2667 0.00541667 91.6667 0ZM96.6667 25C96.6667 27.7615 94.4282 30 91.6667 30H83.3334C82.8913 30 82.4676 30.1758 82.1551 30.4883L76.6667 35.9767V31.6667C76.6667 30.7463 75.9205 30 75.0001 30H70.0001C67.2386 30 65.0001 27.7615 65.0001 25V8.33333C65.0001 5.57187 67.2386 3.33333 70.0001 3.33333H91.6667C94.4282 3.33333 96.6667 5.57187 96.6667 8.33333V25Z" fill="#89AFCE"/>
<path d="M81.6667 8.33333H70V11.6667H81.6667V8.33333Z" fill="#89AFCE"/>
<path d="M91.6667 8.33333H85V11.6667H91.6667V8.33333Z" fill="#89AFCE"/>
<path d="M91.6667 15H70V18.3333H91.6667V15Z" fill="#89AFCE"/>
<path d="M81.6667 21.6667H70V25H81.6667V21.6667Z" fill="#89AFCE"/>
<path d="M55.7467 76.7633L54.5284 74.8433L51.7134 76.63L52.9317 78.55C55.9717 83.3385 55.6336 89.5294 52.09 93.9583C51.8536 94.254 51.7248 94.6215 51.725 95V100H55.0584V95.5683C59.158 90.0467 59.4315 82.57 55.7467 76.7633Z" fill="#89AFCE"/>
<path d="M98.3333 56.6667H83.3333C77.08 56.674 71.9446 61.6102 71.69 67.8583L66.6667 76.9017V70C66.6594 63.5598 61.4402 58.3406 55 58.3333H48.9083L48.8633 58.2983L48.8333 58.3333H45C43.159 58.3333 41.6667 56.841 41.6667 55V51.0783C46.8165 48.105 49.9921 42.6131 50 36.6667V23.3333C49.9975 20.5719 49.3104 17.8542 48 15.4233C47.5802 14.65 46.6315 14.336 45.8333 14.7067L17.6233 27.98C17.0392 28.255 16.6665 28.8427 16.6667 29.4883V36.6667C16.6746 42.6131 19.8502 48.105 25 51.0783V55C25 56.841 23.5077 58.3333 21.6667 58.3333H11.6667C5.22646 58.3406 0.00729167 63.5598 0 70V100H3.33333V70C3.33875 65.4 7.06667 61.6721 11.6667 61.6667H16.97L31.9783 82.6367C32.2867 83.0677 32.7817 83.3262 33.3117 83.3333H33.3333C33.8579 83.3333 34.3519 83.0862 34.6667 82.6667L50.5 61.6667H55C59.6 61.6721 63.3279 65.4 63.3333 70V83.3333C63.3342 84.2537 64.081 84.9994 65.0015 84.9985C65.606 84.9979 66.1629 84.6702 66.4567 84.1417L74.3133 70H83.8683L67.6183 100H71.41L87.6667 70H88.3333C94.7735 69.9927 99.9927 64.7735 100 58.3333C100 57.4129 99.2537 56.6667 98.3333 56.6667ZM20 36.6667V30.5467L45.735 18.4367C46.3506 19.9958 46.6667 21.6571 46.6667 23.3333V36.6667C46.6667 44.0304 40.6971 50 33.3333 50C25.9696 50 20 44.0304 20 36.6667ZM33.3683 78.8533L28.225 71.6667H38.785L33.3683 78.8533ZM41.3067 68.3333H25.8333L21.0617 61.6667H21.6667C25.3485 61.6667 28.3333 58.6819 28.3333 55V52.565C31.5879 53.5894 35.0788 53.5894 38.3333 52.565V55C38.3333 58.6819 41.3181 61.6667 45 61.6667H46.3333L41.3067 68.3333ZM88.3333 66.6667H75.1667C75.9635 62.789 79.3746 60.0044 83.3333 60H96.5C95.7031 63.8777 92.2921 66.6623 88.3333 66.6667Z" fill="#89AFCE"/>
</svg>
