<svg width="25" height="25" viewBox="0 0 25 25" fill="none" xmlns="http://www.w3.org/2000/svg">
<g clip-path="url(#clip0_860_2173)">
<path d="M18.2366 14.9031L18.2272 14.9813C15.9366 13.8396 15.697 13.6875 15.4012 14.1313C15.196 14.4386 14.5981 15.1354 14.4178 15.3417C14.2356 15.5448 14.0543 15.5604 13.7449 15.4198C13.4324 15.2636 12.4293 14.9354 11.2418 13.8729C10.3168 13.0448 9.69598 12.0292 9.51264 11.7167C9.20743 11.1896 9.84598 11.1146 10.4272 10.0146C10.5314 9.79585 10.4783 9.62397 10.4012 9.46876C10.3231 9.31251 9.70118 7.78126 9.44077 7.17085C9.19077 6.56251 8.93348 6.6396 8.74077 6.6396C8.14077 6.58751 7.70223 6.59585 7.31577 6.99793C5.63452 8.84585 6.05848 10.7521 7.49702 12.7792C10.3241 16.4792 11.8304 17.1604 14.5845 18.1063C15.3283 18.3427 16.0064 18.3094 16.5428 18.2323C17.1408 18.1375 18.3835 17.4813 18.6428 16.7469C18.9085 16.0125 18.9085 15.4031 18.8303 15.2625C18.7533 15.1219 18.5491 15.0438 18.2366 14.9031Z" fill="#3A7815"/>
<path d="M21.375 3.59267C13.3656 -4.15004 0.110417 1.46559 0.105208 12.3885C0.105208 14.5718 0.677083 16.701 1.76667 18.5812L0 25L6.59896 23.2791C14.8333 27.727 24.9958 21.8208 25 12.3948C25 9.08642 23.7083 5.97288 21.3594 3.6333L21.375 3.59267ZM22.9188 12.3604C22.9125 20.3114 14.1844 25.277 7.28125 21.2187L6.90625 20.9958L3 22.0114L4.04688 18.2145L3.79792 17.8239C-0.497917 10.9854 4.4375 2.04788 12.575 2.04788C15.3396 2.04788 17.9344 3.126 19.8885 5.07913C21.8417 7.01559 22.9188 9.61038 22.9188 12.3604Z" fill="#3A7815"/>
</g>
<defs>
<clipPath id="clip0_860_2173">
<rect width="25" height="25" fill="white"/>
</clipPath>
</defs>
</svg>
